<svg xmlns:xlink="http://www.w3.org/1999/xlink" xmlns="http://www.w3.org/2000/svg" class="icon-svg mb-3 font-color-heading fs-2" width="80"  height="80" ><defs><svg viewBox="0 0 80 80" id="incognito" xmlns="http://www.w3.org/2000/svg"><path d="M55.027 72.369c-8.274 0-12.861-4.423-12.935-12.462-.27-.158-1.014-.378-2.092-.378s-1.821.22-2.092.378c-.074 8.039-4.66 12.462-12.935 12.462a1.172 1.172 0 010-2.344c7.029 0 10.593-3.47 10.593-10.317 0-2.229-4.35-4.635-11.375-4.635-3.664 0-9.811.5-9.811 3.854 0 3.88 1.143 8.86 6.592 10.544a1.172 1.172 0 11-.693 2.239c-4.995-1.544-7.88-5.646-8.211-11.61h-1.56a1.172 1.172 0 010-2.345h1.659c.588-2.509 3.341-5.026 12.024-5.026 6.481 0 11.513 1.951 13.15 4.864.709-.265 1.607-.408 2.659-.408 1.052 0 1.95.143 2.658.408 1.638-2.913 6.67-4.864 13.15-4.864 8.683 0 11.437 2.517 12.025 5.026h1.66a1.172 1.172 0 110 2.344h-1.561c-.433 7.71-5.187 12.27-12.905 12.27zm.782-17.296c-7.026 0-11.375 2.406-11.375 4.636 0 6.845 3.564 10.316 10.593 10.316 6.831 0 10.593-3.941 10.593-11.098 0-3.353-6.147-3.854-9.811-3.854zM40 50.853c-9.508 0-19.497-.814-27.406-2.233-3.576-.641-6.575-1.383-8.674-2.144C1.209 45.493 0 44.492 0 43.227c0-1.743 2.09-2.636 3.663-3.156 1.48-.49 3.459-.934 5.884-1.322a1.172 1.172 0 01.37 2.314c-5.388.863-6.997 1.776-7.442 2.133.76.61 3.756 1.983 11.622 3.307 7.69 1.294 16.89 2.006 25.903 2.006 9.013 0 18.212-.712 25.903-2.006 7.88-1.327 10.873-2.702 11.626-3.31-.393-.325-1.728-1.096-6.048-1.89a76.14 76.14 0 00-5.684-.801c-1.573.412-11.142 2.747-25.797 2.747-15.73 0-25.601-2.69-26.014-2.805a1.172 1.172 0 01-.849-1.276c.01-.077.986-7.751 2.42-15.327.846-4.474 1.687-8.048 2.498-10.623 1.25-3.968 2.392-5.587 3.939-5.587 5.615 0 10.998 1.627 14.56 2.703 1.507.455 2.93.885 3.446.885s1.939-.43 3.445-.885c1.544-.466 3.465-1.047 5.588-1.546a1.172 1.172 0 01.537 2.281c-2.052.483-3.934 1.052-5.447 1.508-1.963.594-3.26.985-4.123.985-.863 0-2.16-.391-4.123-.985-3.407-1.029-8.544-2.581-13.776-2.602-.335.259-1.998 2.155-4.397 15.133-1.035 5.597-1.806 11.096-2.106 13.321 2.865.667 11.794 2.476 24.402 2.476S61.536 39.097 64.4 38.43a311.092 311.092 0 00-.968-6.63c-2.926.6-11.346 2.075-23.433 2.075-8.87 0-15.817-.804-20.084-1.478a1.172 1.172 0 01.366-2.315c4.184.661 11.001 1.45 19.718 1.45 11.903 0 20.338-1.496 23.06-2.051-.235-1.414-.491-2.894-.766-4.38-2.398-12.972-4.06-14.866-4.396-15.125a31.92 31.92 0 00-4.281.324 1.172 1.172 0 01-.326-2.321c1.64-.23 3.226-.347 4.715-.347 1.547 0 2.688 1.619 3.938 5.587.811 2.575 1.652 6.149 2.499 10.623 1.143 6.037 1.995 12.136 2.298 14.404 1.222.137 3.47.419 5.747.863 5.266 1.028 7.512 2.26 7.512 4.12 0 1.264-1.209 2.265-3.92 3.248-2.1.761-5.098 1.503-8.674 2.144-7.909 1.42-17.898 2.233-27.406 2.233z"></path></svg></defs><use xlink:href="#incognito"></use></svg>