<svg xmlns:xlink="http://www.w3.org/1999/xlink" xmlns="http://www.w3.org/2000/svg" class="icon-svg mb-3 font-color-heading fs-2" width="80"  height="80" ><defs><svg viewBox="0 0 80 80" id="price-tag" xmlns="http://www.w3.org/2000/svg"><path d="M69.25 48.781a1.33 1.33 0 00-1.825.477L52.137 75.332c-1.105 1.912-3.555 2.57-5.407 1.5l-2.978-1.93a1.333 1.333 0 10-1.451 2.238l3.036 1.967a6.62 6.62 0 003.324.892 6.664 6.664 0 005.78-3.325l15.283-26.07a1.333 1.333 0 00-.474-1.824zM73.284 0h-21.34c-4.126 0-7.2 1.314-10.278 4.392a1.332 1.332 0 101.886 1.886c2.598-2.598 4.952-3.61 8.393-3.61h21.34a4.006 4.006 0 014 4v21.34c0 3.443-1.012 5.796-3.611 8.394l-39.61 39.665c-1.512 1.51-4.147 1.511-5.657 0l-24.52-24.52a3.975 3.975 0 01-1.173-2.831c0-1.068.416-2.073 1.17-2.828l35.8-35.749c.552.14 1.104.28 1.676.433 5.426 1.454 9.707 2.956 12.899 4.296a8.012 8.012 0 00-.98 3.804c0 4.413 3.588 8.003 8.002 8.003 4.413 0 8.002-3.59 8.002-8.003s-3.589-8.002-8.002-8.002a1.333 1.333 0 100 2.667 5.34 5.34 0 015.335 5.335 5.34 5.34 0 01-5.335 5.335 5.34 5.34 0 01-5.335-5.335c0-.96.263-1.898.747-2.714 2.31 1.106 3.754 2.038 4.325 2.633-.244.07-.621.146-1.19.196a1.334 1.334 0 00.115 2.663c.039 0 .079-.002.119-.005.82-.073 3.316-.294 3.796-2.082C65.17 14.456 45.922 9.033 42.05 7.995 36.127 6.408 30.438 5.323 26.03 4.94c-5.416-.474-8.054.142-8.55 1.996-.238.89-.871 3.252 9.943 7.516a1.333 1.333 0 10.977-2.481c-5.224-2.06-7.389-3.57-8.082-4.281 1.644-.483 7.269-.343 16.326 1.716L2 44.001a6.623 6.623 0 00-1.954 4.715c0 1.782.694 3.457 1.954 4.716l24.52 24.52a6.62 6.62 0 004.714 1.953 6.624 6.624 0 004.716-1.954l39.611-39.663c3.08-3.079 4.392-6.153 4.392-10.28V6.668A6.676 6.676 0 0073.284 0z"></path><path d="M43.669 35.068a1.332 1.332 0 00-1.886 0l-.72.72a6.624 6.624 0 00-3.672-1.11 6.676 6.676 0 00-6.669 6.668c0 1.987.82 3.558 1.535 4.707.667 1.07 1.133 2.596 1.133 3.295a4.006 4.006 0 01-4.002 4.001 4.006 4.006 0 01-4-4c0-.81.24-1.59.697-2.257a1.335 1.335 0 00-2.2-1.507 6.634 6.634 0 00-1.165 3.763c0 1.358.412 2.617 1.11 3.672l-.72.72a1.332 1.332 0 00.943 2.277c.342 0 .683-.13.943-.39l.72-.721a6.624 6.624 0 003.672 1.11 6.676 6.676 0 006.669-6.668c0-1.299-.646-3.278-1.535-4.706-.794-1.274-1.133-2.26-1.133-3.296a4.006 4.006 0 014.002-4.001 3.97 3.97 0 012.754 1.113c.022.024.03.056.053.08.024.023.056.03.08.054a3.983 3.983 0 01-.062 5.588 1.333 1.333 0 101.885 1.887 6.635 6.635 0 001.958-4.721 6.624 6.624 0 00-1.11-3.672l.72-.72a1.332 1.332 0 000-1.886z"></path></svg></defs><use xlink:href="#price-tag"></use></svg>