<svg xmlns:xlink="http://www.w3.org/1999/xlink" xmlns="http://www.w3.org/2000/svg" class="icon-svg mb-3 font-color-heading fs-2" width="80"  height="80" ><defs><svg viewBox="0 0 80 80" id="security-system" xmlns="http://www.w3.org/2000/svg"><path d="M38.623 56.441l-4.779-4.536a1.173 1.173 0 011.614-1.7l3.766 3.576 6.806-10.273a1.172 1.172 0 111.954 1.295l-7.577 11.436c-.389.586-1.27.696-1.784.202z"></path><path d="M39.41 73.811c-17.386-8.12-20.568-25.78-21.118-31.027a2.747 2.747 0 011.657-2.825 9.916 9.916 0 006.004-8.383 2.265 2.265 0 012.255-2.109l23.323-.137h.013c1.17 0 2.164.906 2.265 2.069a9.915 9.915 0 006.093 8.321 2.756 2.756 0 011.7 2.811c-.488 5.253-3.458 22.96-20.751 31.272-.415.2-1.027.202-1.442.008zm-11.125-42a12.253 12.253 0 01-7.414 10.303.414.414 0 00-.248.426c.513 4.908 3.433 21.436 19.494 29.015 15.968-7.766 18.695-24.327 19.151-29.24a.425.425 0 00-.264-.43 12.25 12.25 0 01-7.523-10.21l-23.196.135z"></path><path d="M39.175 69.001c-5.242-2.865-9.431-7.01-12.38-12.454-2.446-4.516-3.526-8.94-4.002-11.856a1.94 1.94 0 01.915-1.982 12.814 12.814 0 005.744-7.554c.233-.834 1-1.42 1.864-1.426l17.156-.1a1.96 1.96 0 011.881 1.403 12.815 12.815 0 005.833 7.486 1.94 1.94 0 01.937 1.971c-.44 2.921-1.468 7.357-3.862 11.903-2.885 5.477-7.025 9.671-12.232 12.598a1.92 1.92 0 01-1.854.011zM25.15 44.573c.467 2.737 1.487 6.761 3.706 10.858 2.69 4.968 6.469 8.802 11.232 11.4 4.734-2.654 8.467-6.533 11.099-11.531 2.171-4.124 3.143-8.16 3.578-10.9a15.148 15.148 0 01-6.576-8.426l-16.563.097a15.145 15.145 0 01-6.476 8.502z"></path><path d="M67.159 58.243h-5.535a1.171 1.171 0 110-2.343h5.535c5.788 0 10.497-4.71 10.497-10.498 0-5.788-4.709-10.533-10.497-10.497-1.339.008-1.456-.87-1.468-2.736-.083-13.085-10.646-23.731-23.73-23.731-9.555 0-18.514 6.088-22.047 14.933-.183.458-.683.722-1.668.723-8.768.005-15.902 7.134-15.902 15.902 0 8.77 7.134 15.904 15.902 15.904a1.172 1.172 0 110 2.343C8.186 58.243 0 50.058 0 39.996c0-9.995 8.08-18.14 18.051-18.245 5.62-13.517 18.593-15.657 23.91-15.657 14.377 0 26.074 11.697 26.074 26.075 0 .14-.002.28-.004.421C74.707 33.04 80 38.614 80 45.402c0 7.08-5.76 12.841-12.841 12.841z"></path></svg></defs><use xlink:href="#security-system"></use></svg>