<svg fill="#69707e" xmlns="http://www.w3.org/2000/svg" viewBox="0 0 40 40" id="car"><path  d="M2.39 24.865h2.475v-1.081H2.734a6.68 6.68 0 010-5.406h22.671c1.097 0 6.768.428 8.426 1.072l.287.11c1.017.394 3.72 1.439 3.72 2.062v1.621a.54.54 0 01-.54.54h-1.622v1.082h1.621a1.622 1.622 0 001.622-1.622v-1.621c0-1.264-1.912-2.104-4.411-3.07l-.285-.108c-1.922-.748-7.862-1.147-8.818-1.147H2.39a.54.54 0 00-.486.3 7.777 7.777 0 000 6.968.54.54 0 00.486.3z"></path><path d="M29.19 23.784h-2.536a.54.54 0 100 1.08h2.535v-1.08zM23.951 24.324a.54.54 0 00-.54-.54H11.35v1.08h12.06a.54.54 0 00.54-.54zM29.041 18.628l.297-1.04c-1.243-.356-2.114-1.135-3.121-2.043-1.812-1.627-4.066-3.653-9.46-3.653-5.157 0-7.838 2.149-9.8 3.718-1.177.943-2.106 1.687-3.173 1.687v1.081c1.446 0 2.56-.891 3.848-1.924 1.936-1.55 4.348-3.481 9.125-3.481 4.98 0 6.976 1.794 8.737 3.377 1.06.953 2.062 1.854 3.547 2.277z"></path><path d="M8.108 28.108a3.783 3.783 0 100-7.567 3.783 3.783 0 000 7.567zm0-6.486a2.703 2.703 0 110 5.405 2.703 2.703 0 010-5.405zM32.432 28.108a3.784 3.784 0 100-7.567 3.784 3.784 0 000 7.567zm0-6.486a2.703 2.703 0 110 5.405 2.703 2.703 0 010-5.405zM17.838 12.44h-1.081v5.398h1.08V12.44z"></path></svg>