<svg xmlns="http://www.w3.org/2000/svg" viewBox="0 0 41 40" id="boat"><path fill="#969ba4" fill-rule="evenodd" clip-rule="evenodd" d="M1.09 33.739a4.735 4.735 0 012.92.922 5.923 5.923 0 003.55 1.103c.1 0 .198 0 .26-.007a5.901 5.901 0 003.29-1.097 4.73 4.73 0 012.918-.921 4.733 4.733 0 012.92.922 6.262 6.262 0 007.098 0 5.082 5.082 0 015.84 0 5.934 5.934 0 002.936 1.078c.185.018.386.026.617.026a5.918 5.918 0 003.547-1.102 4.74 4.74 0 012.924-.923.591.591 0 000-1.182 5.923 5.923 0 00-3.55 1.103 4.895 4.895 0 01-2.174.874c1.62-1.958 4.027-5.296 4.479-8.31a.591.591 0 00-.593-.678c-2.104.03-4.095.038-5.978.03a.592.592 0 00-.008 1.18c1.67.008 3.425.002 5.27-.02-.75 2.987-3.376 6.261-4.718 7.79a4.9 4.9 0 01-2.126-.868 6.256 6.256 0 00-7.092 0 4.739 4.739 0 01-2.923.922 4.733 4.733 0 01-2.92-.922 5.915 5.915 0 00-3.549-1.102 5.916 5.916 0 00-3.544 1.102 4.806 4.806 0 01-2.39.895A29.542 29.542 0 013.69 24.475c2.373.588 9.963 1.988 24.778 2.269a.592.592 0 10.027-1.184c-4.149-.088-9.871-.372-12.765-.568v-1.598h11.053a.59.59 0 00.487-.925c-3.863-5.633-8.656-12.87-11.542-18.98V1.003c0-.425-.246-.769-.588-.769-.343 0-.631.306-.631.769v.927C8.01 7.16 4.348 12.238 4.191 16.247c-.063 1.641.456 3.024 1.501 4 1.889 1.762 6.134 2.65 8.815 3.05v1.55c-8.182-.728-11.35-1.741-11.4-1.758a.59.59 0 00-.769.666A30.475 30.475 0 006.646 34.51a5.057 5.057 0 01-2.008-.85 5.92 5.92 0 00-3.548-1.102.59.59 0 100 1.182zm14.637-11.527h9.935c-3.314-4.857-7.172-10.735-9.935-16.064v16.064zM5.373 16.293c-.05 1.287.34 2.355 1.126 3.09 1.661 1.549 5.755 2.37 8.008 2.718V3.455C6.776 9.874 5.454 14.23 5.373 16.293z"></path></svg>