<svg viewBox="0 0 2000 1333.33" xmlns="http://www.w3.org/2000/svg" xmlns:xlink="http://www.w3.org/1999/xlink"><style>:root>svg{display:none}:root>svg:target{display:block}</style><svg viewBox="0 0 30 20" id="china" xmlns="http://www.w3.org/2000/svg"><defs><path id="aa" d="M0-1L.588.809-.952-.309H.952L-.588.809z" fill="#FF0"/></defs><path fill="#EE1C25" d="M0 0h30v20H0z"/><use xlink:href="#aa" transform="matrix(3 0 0 3 5 5)"/><use xlink:href="#aa" transform="rotate(23.036 .093 25.536)"/><use xlink:href="#aa" transform="rotate(45.87 1.273 16.18)"/><use xlink:href="#aa" transform="rotate(69.945 .996 12.078)"/><use xlink:href="#aa" transform="rotate(20.66 -19.689 31.932)"/></svg><svg viewBox="0 0 810 540" id="eu" xmlns="http://www.w3.org/2000/svg"><defs><g id="bd"><g id="bb"><path id="ba" d="M0 0v1h.5z" transform="rotate(18 3.157 -.5)"/><use xlink:href="#ba" transform="scale(-1 1)"/></g><g id="bc"><use xlink:href="#bb" transform="rotate(72)"/><use xlink:href="#bb" transform="rotate(144)"/></g><use xlink:href="#bc" transform="scale(-1 1)"/></g></defs><path fill="#039" d="M0 0h810v540H0z"/><g fill="#fc0" transform="matrix(30 0 0 30 405 270)"><use xlink:href="#bd" y="-6"/><use xlink:href="#bd" y="6"/><g id="be"><use xlink:href="#bd" x="-6"/><use xlink:href="#bd" transform="rotate(-144 -2.344 -2.11)"/><use xlink:href="#bd" transform="rotate(144 -2.11 -2.344)"/><use xlink:href="#bd" transform="rotate(72 -4.663 -2.076)"/><use xlink:href="#bd" transform="rotate(72 -5.076 .534)"/></g><use xlink:href="#be" transform="scale(-1 1)"/></g></svg><svg viewBox="0 0 15000 10000" id="ru" xmlns="http://www.w3.org/2000/svg"><path fill="#D52B1E" d="M0 6666.7h15000V10000H0z"/><path fill="#0039A6" d="M0 3333.3h15000v3333.3H0z"/><path fill="#FFF" d="M0 0h15000v3333.3H0z"/></svg><svg viewBox="-36 -24 72 48" id="sk" xmlns="http://www.w3.org/2000/svg"><path fill="#fff" d="M-36-24h72v48h-72z"/><g transform="rotate(-56.31)"><g id="db"><path id="da" d="M-6-25H6m-12 3H6m-12 3H6" stroke="#000" stroke-width="2"/><use xlink:href="#da" y="44"/></g><path stroke="#fff" d="M0 17v10"/><circle fill="#cd2e3a" r="12"/><path fill="#0047a0" d="M0-12A6 6 0 000 0a6 6 0 010 12 12 12 0 010-24z"/></g><g transform="rotate(-123.69)"><use xlink:href="#db"/><path stroke="#fff" d="M0-23.5v3M0 17v3.5m0 3v3"/></g></svg><svg viewBox="0 0 1200 800" id="ua" xmlns="http://www.w3.org/2000/svg"><path fill="#005BBB" d="M0 0h1200v800H0z"/><path fill="#FFD500" d="M0 400h1200v400H0z"/></svg><svg viewBox="0 0 12 6" id="uae" xmlns="http://www.w3.org/2000/svg"><path fill="#00732f" d="M0 0h12v6H0z"/><path fill="#fff" d="M0 2h12v4H0z"/><path d="M0 4h12v2H0z"/><path fill="red" d="M0 0h3v6H0z"/></svg><svg viewBox="0 0 7410 3900" id="usa" xmlns="http://www.w3.org/2000/svg"><path fill="#b22234" d="M0 0h7410v3900H0z"/><path d="M0 450h7410m0 600H0m0 600h7410m0 600H0m0 600h7410m0 600H0" stroke="#fff" stroke-width="300"/><path fill="#3c3b6e" d="M0 0h2964v2100H0z"/><g fill="#fff"><g id="gd"><g id="gc"><g id="ge"><g id="gb"><path id="ga" d="M247 90l70.534 217.082-184.66-134.164h228.253L176.466 307.082z"/><use xlink:href="#ga" y="420"/><use xlink:href="#ga" y="840"/><use xlink:href="#ga" y="1260"/></g><use xlink:href="#ga" y="1680"/></g><use xlink:href="#gb" x="247" y="210"/></g><use xlink:href="#gc" x="494"/></g><use xlink:href="#gd" x="988"/><use xlink:href="#gc" x="1976"/><use xlink:href="#ge" x="2470"/></g></svg></svg>