<svg width="18" height="18" viewBox="0 0 18 18" fill="none" xmlns="http://www.w3.org/2000/svg">
<g clip-path="url(#clip0_3_18)">
<path fill-rule="evenodd" clip-rule="evenodd" d="M15.5065 4.55996C15.1475 4.73357 14.9974 5.16547 15.171 5.52421C15.6454 6.50421 15.8858 7.56053 15.8858 8.665C15.8858 12.6465 12.6465 15.8858 8.665 15.8858C4.68348 15.8858 1.44417 12.6465 1.44417 8.665C1.44417 4.68348 4.68348 1.44417 8.665 1.44417C10.3149 1.44417 11.8648 1.98293 13.1477 3.00206C13.4589 3.25041 13.9139 3.19842 14.1622 2.88621C14.4106 2.57418 14.3586 2.11972 14.0462 1.87169C12.5275 0.664633 10.6163 0 8.665 0C3.88738 0 0 3.88738 0 8.665C0 13.4426 3.88738 17.33 8.665 17.33C13.4426 17.33 17.33 13.4426 17.33 8.665C17.33 7.34106 17.0409 6.07227 16.4707 4.89541C16.2975 4.53572 15.8642 4.38593 15.5065 4.55996Z" fill="#7B7B7B"/>
<path fill-rule="evenodd" clip-rule="evenodd" d="M8.665 2.88834C8.26641 2.88834 7.94292 3.21183 7.94292 3.61042V8.665C7.94292 9.06359 8.26641 9.38709 8.665 9.38709H12.2754C12.674 9.38709 12.9975 9.06359 12.9975 8.665C12.9975 8.26641 12.674 7.94292 12.2754 7.94292H9.38708V3.61042C9.38708 3.21183 9.06359 2.88834 8.665 2.88834Z" fill="#7B7B7B"/>
</g>
<defs>
<clipPath id="clip0_3_18">
<rect width="17.33" height="17.33" fill="white"/>
</clipPath>
</defs>
</svg>
