<svg width="23" height="23" viewBox="0 0 23 23" fill="none" xmlns="http://www.w3.org/2000/svg">
<g clip-path="url(#clip0_34_35)">
<path fill-rule="evenodd" clip-rule="evenodd" d="M19.1528 13.0198C19.1528 13.4179 19.1265 13.8183 19.0727 14.213C19.0865 14.1191 19.099 14.0219 19.1105 13.9281C19.0049 14.6939 18.7999 15.4427 18.5007 16.1555L18.6083 15.8981C18.3123 16.593 17.9294 17.2476 17.4689 17.8463L17.6382 17.6289C17.1781 18.2217 16.6454 18.7544 16.0526 19.2145L16.2699 19.0452C15.6718 19.5066 15.0171 19.8896 14.3217 20.1846L14.5791 20.0771C13.8668 20.3778 13.1179 20.5829 12.3517 20.6868C12.4455 20.6731 12.5428 20.6605 12.6366 20.6491C11.8458 20.7543 11.0445 20.7543 10.2536 20.6491C10.3474 20.6628 10.4447 20.6754 10.5385 20.6868C9.7727 20.5812 9.02393 20.3763 8.31113 20.0771L8.56853 20.1846C7.87359 19.8887 7.21896 19.5058 6.6203 19.0452L6.83766 19.2145C6.24486 18.7544 5.71216 18.2217 5.25207 17.6289L5.42138 17.8463C4.95996 17.2482 4.57704 16.5934 4.28195 15.8981L4.3895 16.1555C4.08877 15.4432 3.88373 14.6942 3.77974 13.9281C3.79347 14.0219 3.80606 14.1191 3.8175 14.213C3.71264 13.4264 3.71187 12.6294 3.81521 11.8426C3.80149 11.9364 3.7889 12.0336 3.77746 12.1274C3.88259 11.356 4.08875 10.6017 4.39064 9.88406L4.28311 10.1415C4.58134 9.44123 4.9677 8.78192 5.43283 8.1795L5.26351 8.39686C5.6742 7.87062 6.13981 7.38899 6.61228 6.9188C7.17628 6.35481 7.75401 5.80912 8.33974 5.26915C9.60923 4.10175 10.8999 2.95756 12.211 1.83715H10.6906C11.3301 2.38284 11.9639 2.93654 12.5931 3.49253C13.7862 4.53659 14.9509 5.61272 16.0858 6.71975C16.6257 7.254 17.1657 7.7974 17.6336 8.39686L17.4643 8.1795C17.9298 8.78165 18.3162 9.44101 18.614 10.1415L18.5065 9.88406C18.8073 10.6014 19.0144 11.3564 19.1196 12.1274C19.1059 12.0326 19.0934 11.9377 19.0819 11.8426C19.1254 12.2327 19.1528 12.6251 19.1528 13.0198C19.1551 13.5815 19.647 14.1214 20.2282 14.0951C20.8082 14.0688 21.3058 13.6227 21.3035 13.0198C21.2988 11.3556 20.8784 9.71893 20.0806 8.25843C19.5212 7.24027 18.7558 6.36397 17.9413 5.54143C17.1843 4.78232 16.4076 4.04304 15.6121 3.32436C14.8731 2.6494 14.1261 1.98359 13.371 1.32464C12.9889 0.99174 12.6057 0.655401 12.2179 0.328217L12.2019 0.314497C11.9891 0.134889 11.7317 -0.0138243 11.4411 -9.6252e-05C11.1585 0.0125633 10.8893 0.123878 10.6803 0.314497C10.2079 0.717185 9.73999 1.12559 9.2721 1.53399C8.28597 2.39886 7.31013 3.27288 6.35374 4.16977C5.49346 4.97629 4.61257 5.78969 3.86783 6.70603C3.5292 7.12016 3.21232 7.55259 2.94119 8.01248C2.67006 8.47236 2.44928 8.95512 2.25023 9.45047C1.86813 10.3966 1.66679 11.4067 1.597 12.4226C1.48146 14.1718 1.86812 15.9347 2.6529 17.4962C3.39765 18.9766 4.53937 20.2315 5.89615 21.1719C7.29069 22.1397 8.93233 22.6843 10.6151 22.841C12.338 23.0023 14.0654 22.6579 15.6316 21.9407C17.144 21.2497 18.4184 20.14 19.4091 18.8153C19.9113 18.1437 20.29 17.4127 20.608 16.6382C20.9329 15.8431 21.1182 15.0206 21.2257 14.1718C21.2749 13.7886 21.3001 13.4027 21.3013 13.0163C21.3013 12.4546 20.807 11.9146 20.2259 11.941C19.6447 11.9718 19.1528 12.418 19.1528 13.0198Z" fill="#FAD826"/>
<path fill-rule="evenodd" clip-rule="evenodd" d="M20.227 13.0202C20.227 15.3507 19.3012 17.5857 17.6533 19.2336C16.0054 20.8815 13.7704 21.8072 11.4399 21.8072V1.0791C11.4399 1.0791 16.612 5.48007 18.225 7.43974C19.5223 9.00973 20.2304 10.9836 20.227 13.0202Z" fill="#FAD826"/>
</g>
<defs>
<clipPath id="clip0_34_35">
<rect width="22.88" height="22.88" fill="white"/>
</clipPath>
</defs>
</svg>
