<svg width="23" height="23" viewBox="0 0 23 23" fill="none" xmlns="http://www.w3.org/2000/svg">
<path d="M18.285 17.6985C17.986 16.7785 17.1235 16.1 16.1 16.1H14.95V12.65C14.95 12.345 14.8288 12.0525 14.6132 11.8368C14.3975 11.6212 14.105 11.5 13.8 11.5H6.9V9.2H9.2C9.505 9.2 9.79751 9.07884 10.0132 8.86317C10.2288 8.64751 10.35 8.355 10.35 8.05V5.75H12.65C13.26 5.75 13.845 5.50768 14.2763 5.07635C14.7077 4.64501 14.95 4.06 14.95 3.45V2.9785C16.3259 3.53322 17.547 4.4131 18.5086 5.54281C19.4702 6.67252 20.1437 8.01843 20.4715 9.46532C20.7994 10.9122 20.7717 12.417 20.3909 13.8508C20.0101 15.2847 19.2875 16.6049 18.285 17.6985ZM10.35 20.6195C5.8075 20.056 2.3 16.192 2.3 11.5C2.3 10.787 2.392 10.097 2.5415 9.4415L8.05 14.95V16.1C8.05 16.71 8.29232 17.295 8.72365 17.7263C9.15499 18.1577 9.74 18.4 10.35 18.4M11.5 0C9.9898 0 8.49438 0.297456 7.09914 0.875385C5.7039 1.45331 4.43615 2.3004 3.36827 3.36827C1.2116 5.52494 0 8.45001 0 11.5C0 14.55 1.2116 17.4751 3.36827 19.6317C4.43615 20.6996 5.7039 21.5467 7.09914 22.1246C8.49438 22.7025 9.9898 23 11.5 23C14.55 23 17.4751 21.7884 19.6317 19.6317C21.7884 17.4751 23 14.55 23 11.5C23 9.9898 22.7025 8.49438 22.1246 7.09914C21.5467 5.7039 20.6996 4.43615 19.6317 3.36827C18.5639 2.3004 17.2961 1.45331 15.9009 0.875385C14.5056 0.297456 13.0102 0 11.5 0Z" fill="#FAD826"/>
</svg>
