<svg width="23" height="23" viewBox="0 0 23 23" fill="none" xmlns="http://www.w3.org/2000/svg">
<path d="M15.065 19.4537C14.0116 19.7701 12.857 19.8453 11.7467 19.6699C10.6364 19.4945 9.62021 19.0764 8.82632 18.4682C8.03243 17.8601 7.4964 17.0892 7.28585 16.2529C7.07529 15.4165 7.19964 14.552 7.64321 13.7686L11.408 16.5928L14.4555 14.3056L10.6921 11.4814C11.7537 11.1417 12.9273 11.0503 14.0592 11.2191C15.1912 11.3879 16.2289 11.8091 17.0365 12.4275C17.8442 13.046 18.3842 13.8329 18.5859 14.6854C18.7876 15.5379 18.6417 16.4161 18.1671 17.2054L20.9458 19.2898C22.2852 17.8478 23.0022 16.1322 23 14.3746C22.9799 11.6063 22.1296 8.87677 20.5121 6.38842C18.8946 3.90008 16.5515 1.71667 13.6563 0C14.2703 1.68971 14.6272 3.42617 14.72 5.17616C14.7711 5.68522 14.6827 6.19673 14.4605 6.67922C14.2382 7.16171 13.8866 7.60498 13.4275 7.98176C12.9683 8.35853 12.4112 8.66084 11.7905 8.87009C11.1698 9.07933 10.4986 9.19109 9.81815 9.19847C9.12119 9.1972 8.4316 9.09148 7.78986 8.88754C7.14812 8.68359 6.56715 8.38553 6.08107 8.01084C5.59499 7.63615 5.21359 7.19239 4.95926 6.70561C4.70493 6.21883 4.5828 5.69884 4.60003 5.17616L4.64316 4.78795C1.63509 7.47201 -0.00971294 10.868 4.31525e-05 14.3746C0.000423754 15.9351 0.565034 17.4663 1.63374 18.8052C2.70244 20.144 4.23522 21.2403 6.0688 21.9773C7.90239 22.7143 9.96812 23.0644 12.046 22.9903C14.1238 22.9162 16.136 22.4207 17.8681 21.5566L15.065 19.4537Z" fill="#FAD826"/>
</svg>
