<svg width="24" height="24" viewBox="0 0 24 24" fill="none" xmlns="http://www.w3.org/2000/svg">
<g clip-path="url(#clip0_34_13)">
<path fill-rule="evenodd" clip-rule="evenodd" d="M16.5088 7.55054V5.80251H14.0057C13.8963 6.12294 13.7152 6.41413 13.476 6.65384C13.2369 6.89355 12.9462 7.07544 12.626 7.1856V19.1118H16.5088V17.0744C16.5088 16.1122 17.2878 15.332 18.2499 15.3297H19.6799C20.142 15.3307 20.5849 15.5149 20.9113 15.8419C21.2378 16.169 21.4211 16.6122 21.4211 17.0744V22.0153C21.4211 22.9751 20.6466 23.7542 19.6868 23.7599H18.2568C17.7947 23.759 17.3518 23.5748 17.0254 23.2477C16.699 22.9206 16.5156 22.4774 16.5156 22.0153V20.5418H7.31329V22.0004C7.31525 22.2295 7.27206 22.4566 7.18618 22.669C7.1003 22.8814 6.97341 23.0747 6.81278 23.238C6.65214 23.4013 6.46091 23.5313 6.24999 23.6207C6.03908 23.71 5.81263 23.7569 5.58357 23.7587H4.14327C3.68117 23.7578 3.23831 23.5736 2.91187 23.2466C2.58544 22.9195 2.4021 22.4762 2.4021 22.0141V17.0881C2.4021 16.126 3.18117 15.3458 4.14327 15.3435H5.57327C6.03538 15.3444 6.47824 15.5286 6.80468 15.8557C7.13111 16.1828 7.31445 16.626 7.31445 17.0881V19.1118H11.1972V7.1856C10.8765 7.07573 10.5851 6.89399 10.3454 6.65428C10.1057 6.41456 9.92396 6.12322 9.81408 5.80251H7.31101V7.55054C7.31101 8.51264 6.53194 9.29286 5.56984 9.29515H4.13984C3.67773 9.29424 3.23488 9.11003 2.90845 8.78295C2.58202 8.45588 2.39868 8.01264 2.39868 7.55054V2.62448C2.39868 1.66352 3.17545 0.883315 4.13641 0.879883H5.56641C6.02852 0.880792 6.47138 1.065 6.79782 1.39208C7.12425 1.71916 7.30759 2.16237 7.30759 2.62448V4.37251H9.81064C9.95988 3.93438 10.2425 3.55394 10.6189 3.28454C10.9952 3.01514 11.4465 2.87029 11.9093 2.87029C12.3722 2.87029 12.8234 3.01514 13.1998 3.28454C13.5761 3.55394 13.8588 3.93438 14.008 4.37251H16.5111V2.62448C16.5111 1.66237 17.2901 0.882171 18.2522 0.879883H19.6822C20.1443 0.880792 20.5872 1.065 20.9136 1.39208C21.2401 1.71916 21.4234 2.16237 21.4234 2.62448V7.55054C21.4234 8.51264 20.6443 9.29286 19.6822 9.29515H18.2522C17.7897 9.29485 17.3463 9.1109 17.0193 8.78376C16.6924 8.45661 16.5088 8.01304 16.5088 7.55054Z" fill="#7B7B7B"/>
</g>
<defs>
<clipPath id="clip0_34_13">
<rect width="22.88" height="22.88" fill="white" transform="translate(0.469971 0.879883)"/>
</clipPath>
</defs>
</svg>
