<svg width="24" height="23" viewBox="0 0 24 23" fill="none" xmlns="http://www.w3.org/2000/svg">
<g clip-path="url(#clip0_34_28)">
<path fill-rule="evenodd" clip-rule="evenodd" d="M22.5275 7.12892C22.5275 6.68365 22.3541 6.26502 22.0392 5.95024L19.8277 3.73874C19.5129 3.42387 19.0943 3.25049 18.649 3.25049C18.2037 3.25049 17.7851 3.42387 17.4702 3.73874L16.3346 4.87443L16.0293 4.56823V3.79844C16.0293 3.11066 15.5254 2.53857 14.8674 2.43141V1.05217C14.8674 0.472035 14.3954 0 13.8152 0H10.7359C10.1557 0 9.68366 0.472035 9.68366 1.05217V2.43427C9.03363 2.54809 8.53787 3.11629 8.53787 3.79844V4.56788L8.22796 4.87778L7.08887 3.7387C6.774 3.42387 6.35537 3.25044 5.9101 3.25044C5.46483 3.25044 5.04625 3.42383 4.73138 3.7387L2.51992 5.95015C1.86999 6.60009 1.86999 7.65762 2.51992 8.3076L3.65896 9.44664L3.37953 9.72607C3.31237 9.79325 3.26835 9.88008 3.25387 9.97397C3.23939 10.0679 3.2552 10.1639 3.29901 10.2482L3.80076 11.2133L2.58776 13.358C2.55275 13.4199 2.53302 13.4892 2.53019 13.5602C2.52736 13.6313 2.54152 13.702 2.57149 13.7664L4.98462 18.9571C5.02053 19.0344 5.07774 19.0997 5.14953 19.1455C5.22132 19.1913 5.3047 19.2156 5.38985 19.2156H7.07694V20.02C7.07694 20.2668 7.27705 20.4669 7.52381 20.4669H8.20896V21.2266C8.20896 22.1383 8.95069 22.88 9.86241 22.88H14.6887C15.6004 22.88 16.3421 22.1383 16.3421 21.2266V20.4669H17.0273C17.2741 20.4669 17.4742 20.2668 17.4742 20.02V19.2156H19.1613C19.2464 19.2156 19.3298 19.1913 19.4016 19.1455C19.4734 19.0997 19.5306 19.0344 19.5665 18.9571L21.9796 13.7664C22.0096 13.702 22.0237 13.6313 22.0209 13.5602C22.0181 13.4892 21.9984 13.4199 21.9634 13.358L20.7503 11.2134L21.2521 10.2483C21.2958 10.1641 21.3117 10.0682 21.2973 9.9744C21.2829 9.88062 21.239 9.79385 21.172 9.72665L20.8965 9.45035L22.0392 8.30769C22.3541 7.99282 22.5275 7.57419 22.5275 7.12892ZM10.5774 1.05217C10.5775 1.01016 10.5942 0.969898 10.6239 0.940201C10.6536 0.910503 10.6939 0.893799 10.7359 0.893752H13.8152C13.8572 0.893799 13.8975 0.910503 13.9272 0.940201C13.9569 0.969898 13.9736 1.01016 13.9737 1.05217V2.41313H10.5774V1.05217ZM9.43162 3.79844C9.43162 3.52741 9.65211 3.30688 9.92318 3.30688H14.644C14.9151 3.30688 15.1356 3.52741 15.1356 3.79844V4.3061H9.43162V3.79844ZM3.15194 7.67572C2.85048 7.37421 2.85048 6.88368 3.15194 6.58221L5.36339 4.37071C5.43502 4.29869 5.52022 4.24159 5.61406 4.20272C5.70791 4.16384 5.80853 4.14396 5.9101 4.14424C6.11665 4.14424 6.31086 4.22467 6.45685 4.37071L7.59594 5.50976L4.29098 8.81472L3.15194 7.67572ZM7.07689 18.3219H5.67487L3.47883 13.598L4.29259 12.1594L7.07694 17.515L7.07689 18.3219ZM15.4484 21.2266C15.4484 21.6455 15.1076 21.9863 14.6887 21.9863H9.86241C9.4435 21.9863 9.10272 21.6455 9.10272 21.2266V20.4669H15.4484V21.2266ZM16.6308 17.1997C16.5978 17.2634 16.5805 17.3341 16.5805 17.4058V19.5732H14.6194C15.3546 18.9092 15.7586 17.9708 15.7668 17.0107C15.7672 17.0027 15.768 16.9949 15.768 16.9868V13.6409C15.768 13.3941 15.5678 13.194 15.3211 13.194C15.0743 13.194 14.8742 13.3941 14.8742 13.6409V14.6574C14.2195 13.9315 13.2752 13.5007 12.2794 13.5007H12.275C12.0281 13.501 11.8283 13.7013 11.8287 13.9481C11.829 14.1947 12.0289 14.3944 12.2755 14.3944H12.2795C13.1935 14.3944 14.0495 14.8823 14.5139 15.6683C15.2409 16.8988 14.8312 18.4913 13.6007 19.2183C13.2457 19.4283 12.8455 19.55 12.4336 19.5731H12.1274C11.2969 19.5221 10.505 19.0738 10.0509 18.3052C9.62252 17.5801 9.57368 16.6882 9.92023 15.9193C10.0216 15.6943 9.92139 15.4296 9.69639 15.3282C9.47157 15.2268 9.20675 15.327 9.10535 15.552C9.07933 15.61 9.05488 15.6687 9.03202 15.728L7.7734 12.4347C7.88529 12.4556 8.00045 12.467 8.11834 12.467C9.15326 12.467 9.99522 11.6251 9.99522 10.5902C9.99522 9.99469 9.71619 9.46353 9.28236 9.11944L12.7276 7.86367C12.7257 7.8954 12.7243 7.92731 12.7243 7.95953C12.7243 8.79867 13.407 9.48136 14.2462 9.48136C14.4701 9.48136 14.6826 9.43239 14.8743 9.34516V10.1738C14.8743 10.4206 15.0744 10.6207 15.3211 10.6207C15.5679 10.6207 15.768 10.4206 15.768 10.1738V7.95957C15.768 7.12043 15.0853 6.43774 14.2462 6.43774C13.9904 6.43747 13.7387 6.5021 13.5147 6.62556L7.50165 8.81731C7.49897 8.81829 7.49656 8.81954 7.49392 8.82057C6.76511 9.07851 6.24151 9.7742 6.24151 10.5902C6.24132 10.8484 6.29475 11.1039 6.3984 11.3403L8.96352 18.0522C8.96436 18.0544 8.96539 18.0564 8.96629 18.0586C9.04504 18.3033 9.15074 18.5385 9.28142 18.7598C9.46023 19.063 9.68408 19.3373 9.9453 19.5732H7.97069V17.4058C7.97068 17.3341 7.95341 17.2634 7.92033 17.1997L4.24308 10.1266L9.16988 5.19985H15.397L20.3083 10.1261L16.6308 17.1997ZM7.1353 10.5902C7.1353 10.0481 7.57632 9.60712 8.11843 9.60712C8.66053 9.60712 9.10155 10.0481 9.10155 10.5902C9.10155 11.1323 8.66053 11.5734 8.11843 11.5734C7.57628 11.5734 7.1353 11.1323 7.1353 10.5902ZM13.6181 7.95966C13.6181 7.61333 13.8999 7.33158 14.2462 7.33158C14.5925 7.33158 14.8743 7.61333 14.8743 7.95966C14.8743 8.30599 14.5925 8.58775 14.2462 8.58775C13.8999 8.58775 13.6181 8.30599 13.6181 7.95966ZM21.0723 13.598L18.8762 18.3219H17.4742V17.515L20.2586 12.1594L21.0723 13.598ZM21.4073 7.67567L20.2656 8.81735L16.9657 5.50739L18.1023 4.37071C18.174 4.29869 18.2592 4.24159 18.353 4.20271C18.4469 4.16384 18.5475 4.14396 18.6491 4.14424C18.8556 4.14424 19.0498 4.22467 19.1958 4.37071L21.4073 6.58221C21.4793 6.65384 21.5364 6.73904 21.5753 6.83289C21.6142 6.92673 21.634 7.02735 21.6337 7.12892C21.6337 7.33542 21.5533 7.52963 21.4073 7.67567Z" fill="#7B7B7B"/>
<path fill-rule="evenodd" clip-rule="evenodd" d="M11.1277 14.1418C11.0031 13.9288 10.7294 13.8573 10.5163 13.9819L10.5109 13.985C10.2979 14.1097 10.2264 14.3835 10.351 14.5964C10.3809 14.6476 10.4207 14.6922 10.468 14.7279C10.5153 14.7635 10.5692 14.7893 10.6266 14.8039C10.684 14.8185 10.7437 14.8216 10.8023 14.8128C10.8609 14.8041 10.9171 14.7839 10.9678 14.7532C11.1809 14.6285 11.2524 14.3548 11.1277 14.1418ZM12.2824 15.2888C11.3461 15.2888 10.5843 16.0506 10.5843 16.987C10.5843 17.9233 11.3461 18.6851 12.2824 18.6851C13.2188 18.6851 13.9806 17.9233 13.9806 16.987C13.9806 16.0506 13.2188 15.2888 12.2824 15.2888ZM12.2824 17.7913C11.8389 17.7913 11.4781 17.4305 11.4781 16.987C11.4781 16.5434 11.8389 16.1826 12.2824 16.1826C12.726 16.1826 13.0868 16.5434 13.0868 16.987C13.0868 17.4305 12.726 17.7913 12.2824 17.7913ZM8.12291 10.1751H8.11598C7.87011 10.1751 7.67022 10.3739 7.66915 10.62C7.66808 10.8668 7.86725 11.0678 8.11406 11.0688H8.12099C8.36686 11.0688 8.56675 10.8701 8.56782 10.6239C8.56885 10.3771 8.36967 10.1762 8.12291 10.1751ZM15.637 11.6158C15.553 11.5323 15.4395 11.4853 15.3211 11.4849C15.2036 11.4849 15.0883 11.5327 15.0052 11.6158C14.9221 11.6989 14.8742 11.8142 14.8742 11.9318C14.8742 12.0493 14.922 12.1646 15.0052 12.2477C15.0892 12.3312 15.2027 12.3783 15.3211 12.3786C15.4387 12.3786 15.5539 12.3308 15.637 12.2477C15.7202 12.1646 15.768 12.0493 15.768 11.9318C15.768 11.8142 15.7202 11.6989 15.637 11.6158ZM20.4252 6.67525L20.3936 6.64366C20.2193 6.46893 19.9364 6.46853 19.7616 6.64276C19.5869 6.81705 19.5865 7.10001 19.7607 7.27478L19.7923 7.30642C19.8337 7.34809 19.8831 7.38115 19.9374 7.40368C19.9917 7.42621 20.0499 7.43778 20.1087 7.43771C20.1673 7.43778 20.2253 7.4263 20.2795 7.40391C20.3336 7.38153 20.3828 7.34869 20.4243 7.30727C20.599 7.13299 20.5995 6.85002 20.4252 6.67525ZM19.1316 5.37775L19.1001 5.34615C18.9258 5.17142 18.6429 5.17102 18.4681 5.34526C18.2934 5.51954 18.293 5.8025 18.4672 5.97728L18.4987 6.00891C18.5402 6.05059 18.5895 6.08364 18.6438 6.10618C18.6981 6.12871 18.7564 6.14028 18.8152 6.14021C18.8738 6.14028 18.9318 6.12879 18.986 6.10641C19.0401 6.08403 19.0893 6.05118 19.1308 6.00976C19.3055 5.83548 19.3058 5.55252 19.1316 5.37775ZM6.09119 5.3453C5.91641 5.17102 5.63345 5.17142 5.45917 5.34615L5.42762 5.37779C5.25338 5.55256 5.25374 5.83553 5.42851 6.00981C5.46996 6.05123 5.51916 6.08407 5.57332 6.10646C5.62747 6.12884 5.6855 6.14032 5.7441 6.14025C5.85863 6.14025 5.97326 6.09646 6.06053 6.00896L6.09208 5.97732C6.26632 5.80255 6.26596 5.51959 6.09119 5.3453ZM4.79766 6.64281C4.62284 6.46853 4.33988 6.46893 4.16564 6.64366L4.13409 6.6753C3.95986 6.85007 3.96022 7.13303 4.13499 7.30731C4.17643 7.34874 4.22564 7.38158 4.27979 7.40396C4.33394 7.42635 4.39198 7.43783 4.45057 7.43776C4.56511 7.43776 4.67973 7.39396 4.767 7.30646L4.79855 7.27482C4.97279 7.10005 4.97243 6.81709 4.79766 6.64281Z" fill="#7B7B7B"/>
</g>
<defs>
<clipPath id="clip0_34_28">
<rect width="22.88" height="22.88" fill="white" transform="translate(0.840088)"/>
</clipPath>
</defs>
</svg>
