<svg width="40" height="45" viewBox="0 0 40 45" fill="none" xmlns="http://www.w3.org/2000/svg">
<g clip-path="url(#clip0_40_3339)">
<path fill-rule="evenodd" clip-rule="evenodd" d="M34.7112 2.66211H4.95875C2.224 2.66211 0 4.88639 0 7.62148V37.3777C0 40.1128 2.224 42.3371 4.95875 42.3371H19.835V28.6988H14.8762V22.4996H19.835V17.5402C19.835 13.4314 23.1648 10.1012 27.2731 10.1012H32.2319V16.3004H29.7525C28.3839 16.3004 27.2731 16.1714 27.2731 17.5402V22.4996H33.4716L30.9922 28.6988H27.2731V42.3371H34.7112C37.446 42.3371 39.67 40.1128 39.67 37.3777V7.62148C39.67 4.88639 37.446 2.66211 34.7112 2.66211Z" fill="#507CBE"/>
</g>
<defs>
<clipPath id="clip0_40_3339">
<rect width="39.67" height="45" fill="white"/>
</clipPath>
</defs>
</svg>
