<svg width="18" height="20" viewBox="0 0 18 20" fill="none" xmlns="http://www.w3.org/2000/svg">
<g clip-path="url(#clip0_3_49)">
<path fill-rule="evenodd" clip-rule="evenodd" d="M15.4 1.70001H2.2C0.9867 1.70001 0 2.68671 0 3.90001V17.1C0 18.3133 0.9867 19.3 2.2 19.3H8.8V13.25H6.6V10.5H8.8V8.30001C8.8 6.47731 10.2773 5.00001 12.1 5.00001H14.3V7.75001H13.2C12.5928 7.75001 12.1 7.69281 12.1 8.30001V10.5H14.85L13.75 13.25H12.1V19.3H15.4C16.6133 19.3 17.6 18.3133 17.6 17.1V3.90001C17.6 2.68671 16.6133 1.70001 15.4 1.70001Z" fill="#999999"/>
</g>
<defs>
<clipPath id="clip0_3_49">
<rect width="17.6" height="17.6" fill="white" transform="translate(0 1.70001)"/>
</clipPath>
</defs>
</svg>
