<svg xmlns="http://www.w3.org/2000/svg" fill="#d7d7d7" viewBox="0 0 35 35" id="facebook"><path d="M19.195 26.965h-2.882a.874.874 0 0 1-.873-.873V19.59h-1.682a.874.874 0 0 1-.873-.873V15.93c0-.482.391-.873.873-.873h1.682v-1.395c0-1.384.434-2.56 1.256-3.404.825-.847 1.978-1.294 3.335-1.294l2.199.003c.48.001.871.393.871.874v2.586a.874.874 0 0 1-.873.873l-1.48.001c-.451 0-.566.09-.59.118-.041.046-.09.176-.09.535v1.103h2.05a.876.876 0 0 1 .881.873l-.002 2.786a.874.874 0 0 1-.873.873H20.07v6.502a.874.874 0 0 1-.874.873Zm-2.7-1.055h2.518v-6.792c0-.322.262-.583.583-.583h2.346l.001-2.422h-2.347a.584.584 0 0 1-.583-.583v-1.575c0-.412.042-.88.353-1.233.376-.426.969-.475 1.382-.475h1.298v-2.224l-2.016-.003c-2.18 0-3.535 1.396-3.535 3.643v1.867a.584.584 0 0 1-.583.583H13.94v2.422h1.972c.321 0 .583.261.583.583v6.792Zm5.732-15.886Z"></path></svg>