<svg width="69" height="69" viewBox="0 0 69 69" fill="none" xmlns="http://www.w3.org/2000/svg">
<g clip-path="url(#clip0_7_2)">
<path fill-rule="evenodd" clip-rule="evenodd" d="M38.2847 56.1362C40.6235 54.7813 42.2014 52.2526 42.2014 49.3607C42.2014 45.0451 38.6906 41.5342 34.375 41.5342C30.0595 41.5342 26.5486 45.0451 26.5486 49.3607C26.5486 52.2526 28.1265 54.7813 30.4653 56.1362C27.773 57.549 25.9312 60.371 25.9312 63.6168V67.7431C25.9312 68.0102 26.0373 68.2664 26.2261 68.4552C26.415 68.6441 26.6711 68.7502 26.9382 68.7502H41.8116C42.0787 68.7502 42.3348 68.6441 42.5237 68.4552C42.7126 68.2664 42.8187 68.0102 42.8187 67.7431V63.6168C42.8188 60.371 40.9771 57.549 38.2847 56.1362ZM28.5627 49.3607C28.5627 46.1557 31.1701 43.5483 34.375 43.5483C37.5798 43.5483 40.1872 46.1557 40.1872 49.3607C40.1872 52.5656 37.5798 55.1729 34.375 55.1729C31.1701 55.1729 28.5627 52.5655 28.5627 49.3607ZM40.8047 66.736H27.9454V63.6168C27.9454 60.0714 30.8297 57.1872 34.375 57.1872C37.9202 57.1872 40.8047 60.0714 40.8047 63.6168V66.736ZM61.6152 56.1362C63.9541 54.7813 65.5321 52.2526 65.5321 49.3607C65.5321 45.0451 62.0211 41.5342 57.7056 41.5342C53.3901 41.5342 49.8792 45.0451 49.8792 49.3607C49.8792 52.2526 51.4571 54.7813 53.796 56.1362C51.1037 57.549 49.262 60.371 49.262 63.6168V67.7431C49.262 68.0102 49.3681 68.2664 49.5569 68.4552C49.7458 68.6441 50.002 68.7502 50.2691 68.7502H53.729C54.2853 68.7502 54.7361 68.2993 54.7361 67.7431C54.7361 67.1869 54.2853 66.736 53.729 66.736H51.2761V63.6168C51.2761 60.0714 54.1604 57.1872 57.7057 57.1872C61.2511 57.1872 64.1355 60.0714 64.1355 63.6168V66.736H58.4287C57.8724 66.736 57.4216 67.1869 57.4216 67.7431C57.4216 68.2993 57.8724 68.7502 58.4287 68.7502H65.1426C65.4096 68.7502 65.6658 68.6441 65.8547 68.4552C66.0435 68.2664 66.1496 68.0102 66.1496 67.7431V63.6168C66.1494 60.371 64.3075 57.549 61.6152 56.1362ZM51.8933 49.3607C51.8933 46.1557 54.5007 43.5483 57.7055 43.5483C60.9104 43.5483 63.5178 46.1557 63.5178 49.3607C63.5178 52.5656 60.9104 55.173 57.7055 55.173C54.5007 55.1729 51.8933 52.5655 51.8933 49.3607Z" fill="#229FFF"/>
<path d="M25.9327 10.1743C26.5557 10.1743 27.0607 9.66933 27.0607 9.04639C27.0607 8.42345 26.5557 7.91846 25.9327 7.91846C25.3098 7.91846 24.8048 8.42345 24.8048 9.04639C24.8048 9.66933 25.3098 10.1743 25.9327 10.1743Z" fill="#229FFF"/>
<path d="M22.5632 9.84493C23.0037 9.40444 23.0037 8.69028 22.5632 8.2498C22.1227 7.80931 21.4086 7.80931 20.9681 8.2498C20.5276 8.69028 20.5276 9.40445 20.9681 9.84493C21.4086 10.2854 22.1227 10.2854 22.5632 9.84493Z" fill="#229FFF"/>
<path d="M30.0966 10.1743C30.7195 10.1743 31.2245 9.66933 31.2245 9.04639C31.2245 8.42345 30.7195 7.91846 30.0966 7.91846C29.4736 7.91846 28.9686 8.42345 28.9686 9.04639C28.9686 9.66933 29.4736 10.1743 30.0966 10.1743Z" fill="#229FFF"/>
<path fill-rule="evenodd" clip-rule="evenodd" d="M51.4944 40.9143L50.7662 38.4601C51.0258 38.252 51.274 38.0301 51.5097 37.7953H56.3625C57.6582 37.7953 58.7124 36.7411 58.7124 35.4455V2.34985C58.7124 1.05421 57.6582 0 56.3625 0H12.3872C11.0916 0 10.0374 1.05421 10.0374 2.34985V5.27562C10.0374 5.54272 10.1435 5.79887 10.3323 5.98774C10.5212 6.1766 10.7774 6.2827 11.0444 6.2827C11.3115 6.2827 11.5677 6.1766 11.7566 5.98774C11.9454 5.79887 12.0515 5.54272 12.0515 5.27562V2.34985C12.0515 2.16482 12.2022 2.01416 12.3872 2.01416H19.7833C17.6682 3.60763 16.3194 6.00381 16.3194 8.67969C16.3194 11.1891 17.4825 13.5147 19.5356 15.161L18.8074 17.6152C18.5794 18.3839 19.2974 19.0928 20.0594 18.8672L25.2213 17.3356C25.4598 17.3515 25.6983 17.3595 25.9324 17.3595C31.2332 17.3595 35.5456 13.4657 35.5456 8.67969C35.5456 6.00381 34.1968 3.60763 32.0817 2.01416H56.3624C56.5475 2.01416 56.6981 2.16482 56.6981 2.34985V35.4453C56.6981 35.6304 56.5475 35.781 56.3624 35.781H53.0173C53.6771 34.5567 53.9823 33.2267 53.9823 31.9788C53.9823 27.1928 49.6699 23.2991 44.3691 23.2991C37.326 23.2991 32.6023 29.977 35.7284 35.7812H18.8631C18.7419 33.0573 17.1946 30.5809 14.7956 29.2653C16.9384 27.9536 18.2508 25.6278 18.2508 23.1142C18.2508 19.4944 15.5591 16.471 12.0517 15.9781V9.97533C12.0517 9.70824 11.9456 9.45208 11.7567 9.26322C11.5678 9.07435 11.3117 8.96825 11.0446 8.96825C10.7775 8.96825 10.5213 9.07435 10.3325 9.26322C10.1436 9.45208 10.0375 9.70824 10.0375 9.97533V15.9797C6.53917 16.4713 3.83832 19.4824 3.83832 23.1141C3.83832 25.7149 5.22352 27.998 7.29462 29.2653C4.86769 30.5959 3.21836 33.1751 3.21836 36.1327V49.3629C3.21836 52.1548 4.71689 54.7351 7.13509 56.1359C4.44283 57.5487 2.60095 60.3707 2.60095 63.6164V67.7428C2.60095 68.0099 2.70705 68.266 2.89592 68.4549C3.08478 68.6438 3.34094 68.7499 3.60803 68.7499H18.4815C18.7486 68.7499 19.0048 68.6438 19.1936 68.4549C19.3825 68.266 19.4886 68.0099 19.4886 67.7428V63.6164C19.4886 60.3708 17.6469 57.5489 14.9545 56.1359C17.332 54.7586 18.8712 52.2022 18.8712 49.3604V37.7952H37.2409C39.0013 39.5525 41.5449 40.6585 44.3697 40.6585C44.6038 40.6585 44.8425 40.6505 45.0808 40.6346L50.2427 42.1662C51.0089 42.393 51.7214 41.6793 51.4944 40.9143ZM33.5317 8.67969C33.5317 12.3551 30.1228 15.3453 25.9327 15.3453C25.2071 15.3453 25.1209 15.2642 24.826 15.3521L21.2668 16.408L21.6673 15.0585C21.7279 14.8541 21.7221 14.6358 21.6507 14.4349C21.5793 14.234 21.4461 14.061 21.2701 13.9407C19.4042 12.6652 18.3338 10.7477 18.3338 8.67969C18.3338 5.00425 21.7427 2.01416 25.9328 2.01416C30.1228 2.01416 33.5317 5.00438 33.5317 8.67969ZM5.85234 23.1142C5.85234 20.2513 8.18152 17.9221 11.0444 17.9221C13.9074 17.9221 16.2365 20.2513 16.2365 23.1142C16.2365 25.9772 13.9074 28.3063 11.0444 28.3063C8.18152 28.3063 5.85234 25.9772 5.85234 23.1142ZM17.4742 63.6166V66.7358H4.61484V63.6166C4.61484 60.0713 7.49912 57.187 11.0444 57.187C14.5898 57.187 17.4742 60.0713 17.4742 63.6166ZM11.0444 55.1727C7.85428 55.1727 5.25924 52.5888 5.23332 49.408C5.23319 49.3924 5.23212 49.3758 5.23212 49.3604C5.23212 46.1553 7.83965 43.548 11.0443 43.548C14.2492 43.548 16.8566 46.1554 16.8566 49.3604C16.8568 52.5329 14.2784 55.1727 11.0444 55.1727ZM16.8568 36.7881V44.1245C13.7284 40.651 8.32345 40.6964 5.23225 44.1245V36.1328C5.23225 32.9279 7.83951 30.3205 11.0444 30.3205C14.2494 30.3205 16.8568 32.9279 16.8568 36.1328V36.7881ZM48.6349 38.3577L49.0353 39.7072C44.3342 38.3124 45.8188 38.6443 44.3693 38.6443C41.7817 38.6443 39.4962 37.5029 38.125 35.7709C38.102 35.7421 38.0786 35.7135 38.0562 35.6845C37.4508 34.8934 37.033 33.983 36.8599 33.0027C36.8583 32.9935 36.8568 32.9843 36.8554 32.9752C36.1624 28.9376 39.7371 25.3133 44.3691 25.3133C48.8254 25.3133 52.4122 28.7029 51.9229 32.7016C51.9202 32.7235 51.9181 32.7454 51.9151 32.7673C51.687 34.4718 50.6937 36.104 49.0319 37.2398C48.856 37.3602 48.7227 37.5332 48.6514 37.7341C48.58 37.935 48.5742 38.1533 48.6349 38.3577Z" fill="#229FFF"/>
<path fill-rule="evenodd" clip-rule="evenodd" d="M44.3693 31.2173C44.0701 31.2173 43.7832 31.3361 43.5717 31.5476C43.3602 31.7592 43.2413 32.0461 43.2413 32.3452C43.2413 32.6444 43.3602 32.9313 43.5717 33.1428C43.7832 33.3543 44.0701 33.4731 44.3693 33.4731C44.6684 33.4731 44.9553 33.3543 45.1668 33.1428C45.3784 32.9313 45.4972 32.6444 45.4972 32.3452C45.4972 32.0461 45.3784 31.7592 45.1668 31.5476C44.9553 31.3361 44.6684 31.2173 44.3693 31.2173Z" fill="#229FFF"/>
<path d="M48.5331 33.4731C49.156 33.4731 49.661 32.9682 49.661 32.3452C49.661 31.7223 49.156 31.2173 48.5331 31.2173C47.9101 31.2173 47.4052 31.7223 47.4052 32.3452C47.4052 32.9682 47.9101 33.4731 48.5331 33.4731Z" fill="#229FFF"/>
<path d="M40.3774 33.4632C40.9922 33.3631 41.4095 32.7835 41.3093 32.1686C41.2092 31.5538 40.6296 31.1365 40.0148 31.2367C39.3999 31.3368 38.9827 31.9164 39.0828 32.5312C39.1829 33.1461 39.7625 33.5633 40.3774 33.4632Z" fill="#229FFF"/>
</g>
<defs>
<clipPath id="clip0_7_2">
<rect width="68.75" height="68.75" fill="white"/>
</clipPath>
</defs>
</svg>
