<svg width="70" height="69" viewBox="0 0 70 69" fill="none" xmlns="http://www.w3.org/2000/svg">
<g clip-path="url(#clip0_7_12)">
<path fill-rule="evenodd" clip-rule="evenodd" d="M64.5873 31.0668L62.8069 23.9454C63.2936 23.842 63.6589 23.4102 63.6589 22.8928V21.7446C63.6589 19.2516 61.6306 17.2235 59.1377 17.2235H51.0285V14.8551C51.0285 13.6283 50.0305 12.6304 48.8038 12.6304H7.46755C6.2408 12.6304 5.24285 13.6283 5.24285 14.8551V34.375C5.24285 34.6605 5.35626 34.9343 5.55815 35.1362C5.76003 35.3381 6.03384 35.4515 6.31935 35.4515C6.60485 35.4515 6.87867 35.3381 7.08055 35.1362C7.28243 34.9343 7.39585 34.6605 7.39585 34.375V14.8551C7.39585 14.8155 7.42794 14.7834 7.46755 14.7834H48.8036C48.8432 14.7834 48.8753 14.8155 48.8753 14.8551V34.3752C48.8753 34.6608 48.9887 34.9346 49.1906 35.1364C49.3925 35.3383 49.6663 35.4517 49.9518 35.4517C50.2373 35.4517 50.5112 35.3383 50.713 35.1364C50.9149 34.9346 51.0283 34.6608 51.0283 34.3752V33.1549H63.7268L63.7296 33.1552L63.7326 33.1551C65.2952 33.1561 66.622 34.1818 67.0777 35.595H63.7304C63.4449 35.595 63.1711 35.7084 62.9692 35.9103C62.7673 36.1122 62.6539 36.386 62.6539 36.6715V38.9679C62.6539 40.8278 64.167 42.3408 66.0268 42.3408H67.2469V47.0772H64.4322C63.5075 44.4074 60.9696 42.4843 57.9893 42.4843C55.009 42.4843 52.4709 44.4074 51.5464 47.0772H51.0281V38.9678C51.0281 38.6823 50.9146 38.4085 50.7128 38.2066C50.5109 38.0047 50.2371 37.8913 49.9516 37.8913C49.6661 37.8913 49.3922 38.0047 49.1904 38.2066C48.9885 38.4085 48.8751 38.6823 48.8751 38.9678V47.0769H26.541C25.6163 44.4071 23.0784 42.484 20.0981 42.484C17.1178 42.484 14.5797 44.4071 13.6552 47.0769H7.46755C7.44854 47.0769 7.4303 47.0694 7.41685 47.0559C7.4034 47.0425 7.39585 47.0243 7.39585 47.0052V44.637H12.0605C12.346 44.637 12.6198 44.5236 12.8217 44.3217C13.0236 44.1198 13.137 43.846 13.137 43.5605C13.137 43.275 13.0236 43.0012 12.8217 42.7993C12.6198 42.5974 12.346 42.484 12.0605 42.484H1.72653C1.44102 42.484 1.16721 42.5974 0.965324 42.7993C0.763441 43.0012 0.650024 43.275 0.650024 43.5605C0.650024 43.846 0.763441 44.1198 0.965324 44.3217C1.16721 44.5236 1.44102 44.637 1.72653 44.637H5.24298V47.0052C5.24298 48.232 6.24093 49.2299 7.46769 49.2299H13.2824C13.2822 49.2538 13.2806 49.2776 13.2806 49.3016C13.2806 53.0609 16.339 56.1192 20.0981 56.1192C23.8572 56.1192 26.9156 53.0609 26.9156 49.3016C26.9156 49.2775 26.914 49.2538 26.9137 49.2299H51.1736C51.1734 49.2538 51.1717 49.2776 51.1717 49.3016C51.1717 53.0609 54.2302 56.1192 57.9893 56.1192C61.7484 56.1192 64.8068 53.0609 64.8068 49.3016C64.8068 49.2775 64.8052 49.2538 64.8049 49.2299H68.3234C68.6089 49.2299 68.8827 49.1165 69.0846 48.9146C69.2865 48.7128 69.3999 48.4389 69.3999 48.1534V36.6713C69.4 33.8364 67.3084 31.481 64.5873 31.0668ZM51.0285 19.3763H59.1377C60.4436 19.3763 61.506 20.4387 61.506 21.7446V21.8163H51.0285V19.3763ZM51.0285 31.0021V23.9692H60.5937L62.3519 31.0021H51.0285ZM20.0981 53.9666C17.526 53.9666 15.4334 51.8741 15.4334 49.3019C15.4334 46.7297 17.526 44.6373 20.0981 44.6373C22.6702 44.6373 24.7627 46.7297 24.7627 49.3019C24.7627 51.8741 22.6702 53.9666 20.0981 53.9666ZM57.9895 53.9666C55.4175 53.9666 53.3249 51.8741 53.3249 49.3019C53.3249 46.7297 55.4175 44.6373 57.9895 44.6373C60.5616 44.6373 62.6542 46.7297 62.6542 49.3019C62.6542 51.8741 60.5616 53.9666 57.9895 53.9666ZM67.2472 40.1878H66.0271C65.3544 40.1878 64.8071 39.6405 64.8071 38.9678V37.7478H67.247V40.1878H67.2472Z" fill="#229FFF"/>
<path fill-rule="evenodd" clip-rule="evenodd" d="M20.0981 47.0771C18.8713 47.0771 17.8734 48.0751 17.8734 49.3018C17.8734 50.5286 18.8713 51.5265 20.0981 51.5265C21.3248 51.5265 22.3228 50.5286 22.3228 49.3018C22.3228 48.0751 21.3248 47.0771 20.0981 47.0771ZM57.9895 47.0771C56.7628 47.0771 55.7648 48.0751 55.7648 49.3018C55.7648 50.5286 56.7628 51.5265 57.9895 51.5265C59.2163 51.5265 60.2142 50.5286 60.2142 49.3018C60.2142 48.0751 59.2163 47.0771 57.9895 47.0771ZM45.359 42.4843H29.2838C28.9983 42.4843 28.7245 42.5977 28.5226 42.7996C28.3208 43.0015 28.2073 43.2753 28.2073 43.5608C28.2073 43.8463 28.3208 44.1201 28.5226 44.322C28.7245 44.5239 28.9983 44.6373 29.2838 44.6373H45.359C45.6445 44.6373 45.9183 44.5239 46.1202 44.322C46.3221 44.1201 46.4355 43.8463 46.4355 43.5608C46.4355 43.2753 46.3221 43.0015 46.1202 42.7996C45.9183 42.5977 45.6445 42.4843 45.359 42.4843ZM17.8016 37.8913H4.02291C3.73741 37.8913 3.46359 38.0047 3.26171 38.2066C3.05983 38.4085 2.94641 38.6823 2.94641 38.9678C2.94641 39.2533 3.05983 39.5271 3.26171 39.729C3.46359 39.9309 3.73741 40.0443 4.02291 40.0443H17.8016C18.0872 40.0443 18.361 39.9309 18.5628 39.729C18.7647 39.5271 18.8781 39.2533 18.8781 38.9678C18.8781 38.6823 18.7647 38.4085 18.5628 38.2066C18.361 38.0047 18.0872 37.8913 17.8016 37.8913ZM38.0826 23.2795C37.8807 23.0777 37.6069 22.9643 37.3215 22.9644C37.036 22.9644 36.7622 23.0778 36.5603 23.2797L26.9874 32.8524L22.0075 27.8725C21.9075 27.7725 21.7889 27.6932 21.6583 27.6391C21.5277 27.585 21.3877 27.5572 21.2463 27.5572C21.105 27.5572 20.965 27.585 20.8344 27.6391C20.7038 27.6932 20.5851 27.7725 20.4852 27.8725C20.3852 27.9724 20.3059 28.0911 20.2518 28.2217C20.1977 28.3523 20.1699 28.4923 20.1699 28.6336C20.1699 28.775 20.1977 28.915 20.2518 29.0456C20.3059 29.1762 20.3852 29.2948 20.4852 29.3948L26.2263 35.136C26.4365 35.3462 26.712 35.4512 26.9874 35.4512C27.2628 35.4512 27.5385 35.3462 27.7485 35.136L38.0825 24.802C38.2844 24.6001 38.3978 24.3263 38.3978 24.0408C38.3979 23.7553 38.2845 23.4815 38.0826 23.2795Z" fill="#229FFF"/>
</g>
<defs>
<clipPath id="clip0_7_12">
<rect width="68.75" height="68.75" fill="white" transform="translate(0.650024)"/>
</clipPath>
</defs>
</svg>
