<svg width="70" height="69" viewBox="0 0 70 69" fill="none" xmlns="http://www.w3.org/2000/svg">
<g clip-path="url(#clip0_7_16)">
<path fill-rule="evenodd" clip-rule="evenodd" d="M67.263 4.60742H2.08728C1.10182 4.60742 0.300049 5.40906 0.300049 6.39465V47.5772C0.300049 48.5627 1.10182 49.3645 2.08728 49.3645H29.8313C30.3039 50.2831 30.6154 51.2761 30.752 52.3002H20.7538C20.117 52.3002 19.537 52.6238 19.2027 53.1659L15.6984 58.8477C15.5211 59.1353 15.4272 59.4666 15.4271 59.8045V62.3204C15.4271 63.3253 16.2445 64.1429 17.2495 64.1429H52.1008C53.1057 64.1429 53.9232 63.3253 53.9232 62.3204V59.8047C53.9232 59.4569 53.8233 59.1256 53.6518 58.8479L50.1474 53.166C49.985 52.9006 49.757 52.6815 49.4853 52.5299C49.2136 52.3782 48.9074 52.2992 48.5963 52.3003H44.936C44.3798 52.3003 43.9289 52.7511 43.9289 53.3074C43.9289 53.8637 44.3798 54.3145 44.936 54.3145H48.4892L51.1117 58.5665H18.2383L20.8607 54.3145H30.831V55.6893C30.8316 56.0098 30.9371 56.3212 31.1312 56.5761C31.3253 56.831 31.5974 57.0155 31.9061 57.1014C33.7182 57.6012 35.6319 57.6012 37.444 57.1014C37.7526 57.0154 38.0247 56.831 38.2188 56.576C38.4128 56.3211 38.5182 56.0097 38.5189 55.6893V54.3145H40.2361C40.7923 54.3145 41.2432 53.8637 41.2432 53.3074C41.2432 52.7511 40.7923 52.3003 40.2361 52.3003H38.598C38.7345 51.2762 39.0459 50.2832 39.5187 49.3646H67.2628C68.2483 49.3646 69.05 48.5628 69.05 47.5774V6.39452C69.05 5.40906 68.2484 4.60742 67.263 4.60742ZM51.909 62.1289H17.4411V60.5805H51.9089V62.1289H51.909ZM36.5048 53.4911V55.2603C35.2998 55.5293 34.0503 55.5293 32.8453 55.2603V53.4911C32.8451 52.0769 32.5731 50.676 32.0442 49.3645H37.3059C36.777 50.676 36.505 52.0769 36.5048 53.4911ZM67.0359 47.3503H2.31421V6.62158H67.0359V47.3503Z" fill="#229FFF"/>
<path fill-rule="evenodd" clip-rule="evenodd" d="M4.80317 46.0074H64.5469C65.179 46.0074 65.6931 45.4933 65.6931 44.8612V9.11055C65.6931 8.4785 65.179 7.96436 64.5469 7.96436H4.80317C4.17113 7.96436 3.65698 8.4785 3.65698 9.11055V14.076C3.65698 14.6323 4.10789 15.0831 4.66406 15.0831C5.22024 15.0831 5.67114 14.6323 5.67114 14.076V9.97852H63.679V43.9932H5.67114V18.7757C5.67114 18.2194 5.22024 17.7686 4.66406 17.7686C4.10789 17.7686 3.65698 18.2194 3.65698 18.7757V44.8612C3.65698 45.4933 4.17113 46.0074 4.80317 46.0074Z" fill="#229FFF"/>
<path fill-rule="evenodd" clip-rule="evenodd" d="M21.4268 14.6781H8.69238C8.13621 14.6781 7.6853 15.1289 7.6853 15.6852C7.6853 16.2415 8.13621 16.6922 8.69238 16.6922H21.4268C21.983 16.6922 22.4339 16.2415 22.4339 15.6852C22.4339 15.1289 21.983 14.6781 21.4268 14.6781ZM8.69238 34.7734H21.4268C21.983 34.7734 22.4339 34.3226 22.4339 33.7663C22.4339 33.21 21.983 32.7592 21.4268 32.7592H8.69238C8.13621 32.7592 7.6853 33.21 7.6853 33.7663C7.6853 34.3226 8.13621 34.7734 8.69238 34.7734ZM8.69238 25.7329H21.4268C21.983 25.7329 22.4339 25.2821 22.4339 24.7258C22.4339 24.1695 21.983 23.7187 21.4268 23.7187H8.69238C8.13621 23.7187 7.6853 24.1695 7.6853 24.7258C7.6853 25.2821 8.13621 25.7329 8.69238 25.7329ZM22.4678 19.1984H21.4268C20.8707 19.1984 20.4198 19.6492 20.4198 20.2055C20.4198 20.7618 20.8707 21.2126 21.4268 21.2126H22.4678C23.0239 21.2126 23.4748 20.7618 23.4748 20.2055C23.4748 19.6492 23.0239 19.1984 22.4678 19.1984ZM8.69238 21.2126H18.0698C18.626 21.2126 19.0769 20.7618 19.0769 20.2055C19.0769 19.6492 18.626 19.1984 18.0698 19.1984H8.69238C8.13621 19.1984 7.6853 19.6492 7.6853 20.2055C7.6853 20.7618 8.13621 21.2126 8.69238 21.2126ZM22.4678 28.2389H21.4268C20.8707 28.2389 20.4198 28.6897 20.4198 29.246C20.4198 29.8023 20.8707 30.2531 21.4268 30.2531H22.4678C23.0239 30.2531 23.4748 29.8023 23.4748 29.246C23.4748 28.6897 23.0239 28.2389 22.4678 28.2389ZM8.69238 30.2531H18.0698C18.626 30.2531 19.0769 29.8023 19.0769 29.246C19.0769 28.6897 18.626 28.2389 18.0698 28.2389H8.69238C8.13621 28.2389 7.6853 28.6897 7.6853 29.246C7.6853 29.8023 8.13621 30.2531 8.69238 30.2531ZM22.4678 37.2794H21.4268C20.8707 37.2794 20.4198 37.7302 20.4198 38.2865C20.4198 38.8428 20.8707 39.2935 21.4268 39.2935H22.4678C23.0239 39.2935 23.4748 38.8428 23.4748 38.2865C23.4748 37.7302 23.0239 37.2794 22.4678 37.2794ZM8.69238 39.2935H18.0698C18.626 39.2935 19.0769 38.8428 19.0769 38.2865C19.0769 37.7302 18.626 37.2794 18.0698 37.2794H8.69238C8.13621 37.2794 7.6853 37.7302 7.6853 38.2865C7.6853 38.8428 8.13621 39.2935 8.69238 39.2935ZM28.5837 39.6292V14.3424C28.5837 13.7861 28.1328 13.3353 27.5766 13.3353C27.0204 13.3353 26.5695 13.7861 26.5695 14.3424V39.6292C26.5695 39.8963 26.6756 40.1525 26.8645 40.3414C27.0534 40.5302 27.3095 40.6363 27.5766 40.6363C27.8437 40.6363 28.0999 40.5302 28.2887 40.3414C28.4776 40.1525 28.5837 39.8963 28.5837 39.6292ZM42.3291 41.3403C43.7375 41.765 45.2006 41.9802 46.6715 41.9791C54.9388 41.9791 61.6648 35.2531 61.6648 26.9858C61.6648 18.7186 54.9388 11.9927 46.6715 11.9927C38.4042 11.9927 31.6782 18.7186 31.6782 26.9858C31.6782 31.7551 33.9803 36.2838 37.8363 39.1007C37.9431 39.1787 38.0643 39.2349 38.1928 39.2661C38.3213 39.2973 38.4547 39.3029 38.5854 39.2826C38.7161 39.2622 38.8415 39.2163 38.9544 39.1475C39.0673 39.0787 39.1656 38.9883 39.2436 38.8815C39.3216 38.7747 39.3779 38.6536 39.4091 38.5251C39.4403 38.3966 39.4458 38.2631 39.4255 38.1325C39.4051 38.0018 39.3592 37.8764 39.2904 37.7635C39.2216 37.6505 39.1312 37.5522 39.0244 37.4742C35.6858 35.0355 33.6925 31.1146 33.6925 26.9859C33.6925 19.8292 39.5149 14.007 46.6717 14.007C53.8284 14.007 59.6506 19.8291 59.6506 26.9858C59.6506 34.1425 53.8282 39.9649 46.6715 39.9649C45.3979 39.966 44.1311 39.7798 42.9118 39.4122C42.6561 39.335 42.3802 39.3625 42.1448 39.4886C41.9093 39.6148 41.7337 39.8293 41.6564 40.085C41.5791 40.3407 41.6066 40.6166 41.7328 40.852C41.8589 41.0874 42.0734 41.2631 42.3291 41.3403Z" fill="#229FFF"/>
<path fill-rule="evenodd" clip-rule="evenodd" d="M58.3078 26.9858C58.3078 20.5696 53.0878 15.3496 46.6715 15.3496C40.2552 15.3496 35.0352 20.5696 35.0352 26.9858C35.0352 33.4021 40.2552 38.6222 46.6715 38.6222C53.0878 38.6222 58.3078 33.4021 58.3078 26.9858ZM37.0495 26.9858C37.0495 21.6801 41.3659 17.3638 46.6716 17.3638C51.9773 17.3638 56.2937 21.6801 56.2937 26.9858C56.2937 32.2915 51.9772 36.608 46.6715 36.608C41.3658 36.608 37.0495 32.2914 37.0495 26.9858Z" fill="#229FFF"/>
<path fill-rule="evenodd" clip-rule="evenodd" d="M49.4142 26.9856C49.4142 25.8287 48.6941 24.8367 47.6785 24.4343V19.5857C47.6785 19.0294 47.2276 18.5786 46.6715 18.5786C46.1153 18.5786 45.6644 19.0294 45.6644 19.5857V24.4343C44.2165 25.0078 43.5405 26.6657 44.1554 28.0774L41.7282 30.5046C41.5407 30.6937 41.4357 30.9494 41.4363 31.2158C41.4369 31.4821 41.5429 31.7374 41.7312 31.9257C41.9195 32.114 42.1748 32.2201 42.4411 32.2207C42.7074 32.2213 42.9632 32.1164 43.1523 31.9289L45.5796 29.5017C47.3816 30.2864 49.4142 28.9589 49.4142 26.9856ZM46.6715 27.7142C46.2697 27.7142 45.9429 27.3872 45.9429 26.9854C45.9429 26.5837 46.2697 26.2569 46.6715 26.2569C47.0732 26.2569 47.4 26.5837 47.4 26.9854C47.4 27.3872 47.0732 27.7142 46.6715 27.7142Z" fill="#229FFF"/>
</g>
<defs>
<clipPath id="clip0_7_16">
<rect width="68.75" height="68.75" fill="white" transform="translate(0.300049)"/>
</clipPath>
</defs>
</svg>
