<svg width="70" height="69" viewBox="0 0 70 69" fill="none" xmlns="http://www.w3.org/2000/svg">
<g clip-path="url(#clip0_7_23)">
<path fill-rule="evenodd" clip-rule="evenodd" d="M18.2767 0C17.5351 0 16.9338 0.601428 16.9338 1.34291C16.9338 2.08452 17.5351 2.68582 18.2767 2.68582C25.8625 2.68582 32.0339 9.01739 32.0339 16.8004C32.0339 17.542 32.6353 18.1433 33.3768 18.1433C34.1184 18.1433 34.7197 17.5419 34.7197 16.8004C34.7198 7.53658 27.3434 0 18.2767 0Z" fill="#229FFF"/>
<path fill-rule="evenodd" clip-rule="evenodd" d="M18.2724 6.37109C17.5307 6.37109 16.9294 6.97252 16.9294 7.714C16.9294 8.45562 17.5307 9.05691 18.2724 9.05691C22.4262 9.05691 25.8056 12.5305 25.8056 16.8001C25.8056 17.5418 26.407 18.1431 27.1485 18.1431C27.8901 18.1431 28.4914 17.5416 28.4914 16.8001C28.4915 11.0496 23.9072 6.37109 18.2724 6.37109Z" fill="#229FFF"/>
<path fill-rule="evenodd" clip-rule="evenodd" d="M18.2985 12.2401C17.5567 12.2401 16.9556 12.8413 16.9556 13.583C16.9556 14.3246 17.557 14.9259 18.2985 14.9259C19.2689 14.9259 20.0582 15.7482 20.0582 16.7591C20.0582 17.5007 20.6595 18.102 21.4011 18.102C22.1427 18.102 22.744 17.5006 22.744 16.7591C22.7441 14.2673 20.7497 12.2401 18.2985 12.2401ZM62.5147 10.6436H59.5379C58.7963 10.6436 58.195 11.2448 58.195 11.9865C58.195 12.7281 58.7963 13.3294 59.5379 13.3294H62.5147C64.9953 13.3294 67.0135 15.3476 67.0135 17.8282V36.0576C67.0135 37.4859 66.3436 38.7598 65.3025 39.5845V36.0726C65.3025 33.3328 63.3476 30.9796 60.6542 30.4773L59.7861 30.3155C59.9848 29.7075 60.0859 29.0718 60.0857 28.4322V25.3463C60.0857 21.9908 57.3559 19.2609 54.0004 19.2609C50.6449 19.2609 47.9152 21.9908 47.9152 25.3463V28.4322C47.9152 29.0895 48.0213 29.7219 48.2148 30.3155L47.3467 30.4773C44.6532 30.9795 42.6984 33.3327 42.6984 36.0726V39.9657C41.3411 39.1902 40.4236 37.7294 40.4236 36.0576V17.8282C40.4236 15.3476 42.4418 13.3294 44.9224 13.3294H48.1231C48.8647 13.3294 49.466 12.7281 49.466 11.9865C49.466 11.2448 48.8646 10.6436 48.1231 10.6436H44.9224C40.9609 10.6436 37.7378 13.8666 37.7378 17.8282V36.0576C37.7378 40.0191 40.9609 43.2422 44.9224 43.2422H51.6801V47.1033C51.6801 47.2797 51.7148 47.4543 51.7822 47.6172C51.8497 47.7802 51.9486 47.9282 52.0732 48.0529C52.1979 48.1776 52.3459 48.2765 52.5089 48.344C52.6718 48.4115 52.8464 48.4462 53.0227 48.4462C53.3708 48.4462 53.713 48.3109 53.9697 48.056L58.8138 43.2422H62.5147C66.4762 43.2422 69.6993 40.0191 69.6993 36.0576V17.8282C69.6993 13.8666 66.4762 10.6436 62.5147 10.6436ZM50.6009 25.3463C50.6009 23.4717 52.1258 21.9468 54.0003 21.9468C55.8748 21.9468 57.3998 23.4717 57.3998 25.3463V28.4322C57.3998 30.3067 55.8748 31.8317 54.0003 31.8317C52.1258 31.8317 50.6009 30.3067 50.6009 28.4322V25.3463ZM62.6163 40.5536C62.5823 40.5544 62.5486 40.5561 62.5144 40.5561H58.2601V40.5564C57.9054 40.5564 57.5651 40.6967 57.3134 40.9466L54.3659 43.8757V41.8992C54.3659 41.1575 53.7645 40.5562 53.023 40.5562H45.3844V36.0725C45.3844 34.6256 46.4168 33.3828 47.8391 33.1174L49.7323 32.7644C50.8315 33.8476 52.3389 34.5174 54.0004 34.5174C55.6618 34.5174 57.1695 33.8474 58.2687 32.7643L60.162 33.1173C61.5844 33.3826 62.6167 34.6254 62.6167 36.0725V40.5536H62.6163Z" fill="#229FFF"/>
<path fill-rule="evenodd" clip-rule="evenodd" d="M54.1306 11.0375C53.8785 10.786 53.5372 10.6446 53.1812 10.644C52.8281 10.644 52.4815 10.7864 52.2317 11.0375C51.9804 11.2897 51.839 11.6309 51.8383 11.987C51.8383 12.3401 51.9818 12.6867 52.2317 12.9364C52.4842 13.1873 52.8253 13.3286 53.1812 13.3299C53.5344 13.3299 53.8809 13.1862 54.1306 12.9364C54.3813 12.6839 54.5227 12.3428 54.5241 11.987C54.5241 11.6325 54.3804 11.2872 54.1306 11.0375ZM25.9091 45.1759C25.6568 44.9247 25.3156 44.7833 24.9596 44.7824C24.6065 44.7824 24.2599 44.9261 24.0103 45.1759C23.7593 45.4283 23.6179 45.7694 23.6167 46.1254C23.6167 46.4798 23.7604 46.8251 24.0103 47.0748C24.2623 47.3264 24.6035 47.4682 24.9596 47.4695C25.3158 47.4688 25.6571 47.3269 25.9089 47.075C26.1606 46.823 26.3022 46.4815 26.3025 46.1254C26.3025 45.7722 26.1602 45.4258 25.9091 45.1759Z" fill="#229FFF"/>
<path fill-rule="evenodd" clip-rule="evenodd" d="M55.3032 57.3189L45.0149 47.0305C43.6453 45.6608 41.4907 45.4605 39.8922 46.5537L33.3258 51.0436C33.0672 51.2202 32.7551 51.301 32.4434 51.2719C32.1316 51.2429 31.8398 51.1058 31.6183 50.8845L29.4469 48.713C28.9227 48.1889 28.0726 48.1887 27.5476 48.713C27.0232 49.2373 27.0232 50.0876 27.5476 50.6123L29.719 52.7839C31.0886 54.1534 33.2429 54.3541 34.8416 53.2607L41.4081 48.7708C41.6666 48.5942 41.9787 48.5134 42.2905 48.5425C42.6022 48.5715 42.8941 48.7085 43.1156 48.9298L53.404 59.2183C53.9276 59.7417 53.9274 60.5938 53.4039 61.1176C46.8066 67.715 36.0718 67.715 29.4744 61.1176L8.58331 40.2262C5.38724 37.0303 3.6274 32.7812 3.6274 28.2615C3.6274 23.7417 5.38737 19.4925 8.58344 16.2964C8.70784 16.1713 8.85582 16.0722 9.0188 16.0047C9.18177 15.9372 9.35652 15.9027 9.53292 15.9032C9.70935 15.9027 9.88413 15.9372 10.0471 16.0047C10.2101 16.0723 10.3581 16.1714 10.4825 16.2965L20.7709 26.585C20.9921 26.8065 21.1291 27.0983 21.1581 27.4101C21.1872 27.7218 21.1065 28.0339 20.93 28.2925L16.4403 34.8589C15.3469 36.4575 15.5475 38.6118 16.917 39.9816L20.181 43.2456C20.7055 43.7698 21.5556 43.7698 22.0803 43.2456C22.6047 42.7212 22.6047 41.8709 22.0803 41.3462L18.8163 38.0822C18.5951 37.8607 18.4581 37.5689 18.4291 37.2572C18.4 36.9455 18.4808 36.6334 18.6573 36.3749L23.1472 29.8085C24.2403 28.2098 24.0397 26.0553 22.6702 24.6858L12.3819 14.3973C10.8111 12.8265 8.25514 12.8265 6.68409 14.3973C-0.960452 22.042 -0.960452 34.4808 6.68409 42.1255L27.5752 63.0165C31.3976 66.8388 36.4183 68.75 41.4391 68.75C46.46 68.7498 51.4808 66.8387 55.3031 63.0165C56.8739 61.4457 56.8739 58.8898 55.3032 57.3189Z" fill="#229FFF"/>
<path fill-rule="evenodd" clip-rule="evenodd" d="M19.0407 33.0212L10.9 24.8805C10.3754 24.3562 9.52531 24.3562 9.00069 24.8805C8.47633 25.405 8.47633 26.2553 9.00069 26.7798L17.1415 34.9205C17.2661 35.0454 17.4141 35.1444 17.5771 35.2119C17.74 35.2794 17.9147 35.314 18.0911 35.3138C18.2675 35.314 18.4422 35.2794 18.6052 35.2119C18.7681 35.1444 18.9161 35.0454 19.0407 34.9205C19.5651 34.396 19.5651 33.5457 19.0407 33.0212ZM50.1976 64.1779L41.6322 55.6125C41.1076 55.0883 40.2575 55.0883 39.7329 55.6125C39.2085 56.137 39.2085 56.9874 39.7329 57.5119L48.2983 66.0773C48.4229 66.2022 48.5709 66.3012 48.7339 66.3687C48.8968 66.4362 49.0715 66.4708 49.2479 66.4706C49.4243 66.4708 49.599 66.4361 49.762 66.3686C49.925 66.3011 50.073 66.2021 50.1976 66.0773C50.722 65.5527 50.722 64.7024 50.1976 64.1779Z" fill="#229FFF"/>
</g>
<defs>
<clipPath id="clip0_7_23">
<rect width="68.75" height="68.75" fill="white" transform="translate(0.949951)"/>
</clipPath>
</defs>
</svg>
