<svg width="70" height="69" viewBox="0 0 70 69" fill="none" xmlns="http://www.w3.org/2000/svg">
<g clip-path="url(#clip0_7_31)">
<path fill-rule="evenodd" clip-rule="evenodd" d="M7.25317 62.0967H9.47092V64.3144H7.25317V62.0967ZM11.6887 62.0967H13.9064V64.3144H11.6887V62.0967ZM16.1241 62.0967H18.3419V64.3144H16.1241V62.0967ZM53.8258 62.0967H62.6967V64.3144H53.8258V62.0967Z" fill="#229FFF"/>
<path fill-rule="evenodd" clip-rule="evenodd" d="M67.1321 57.6613V21.0685C67.1321 18.0115 64.6448 15.5242 61.5878 15.5242H58.2611C58.2611 6.96343 51.2977 0 42.737 0C34.1762 0 27.2128 6.96343 27.2128 15.5242H8.36195C5.30493 15.5242 2.8176 18.0115 2.8176 21.0685V57.6613H0.599854V63.2056C0.599854 66.2627 3.08719 68.75 6.14421 68.75H63.8055C66.8625 68.75 69.3499 66.2627 69.3499 63.2056V57.6613H67.1321ZM61.5878 17.7419C63.4216 17.7419 64.9144 19.2348 64.9144 21.0685V57.6613H62.6966V22.1774C62.6966 20.9543 61.702 19.9597 60.4789 19.9597H57.6071C57.8209 19.2411 57.9752 18.4994 58.0836 17.7419H61.5878ZM30.0748 11.4494L41.844 16.3536L45.8741 28.4413C44.8658 28.6866 43.8193 28.8306 42.737 28.8306C35.3993 28.8306 29.4305 22.8617 29.4305 15.5242C29.431 14.1406 29.6484 12.7656 30.0748 11.4494ZM47.9808 27.7494L44.0055 15.8236L52.8873 6.94126C54.8522 9.26018 56.0434 12.2539 56.0434 15.5242C56.0434 20.9998 52.7168 25.7101 47.9808 27.7494ZM42.737 2.21774C46.0073 2.21774 49.0008 3.40895 51.321 5.37276L42.4787 14.2145L30.934 9.40531C33.153 5.141 37.6063 2.21774 42.737 2.21774ZM5.03534 21.0685C5.03534 19.2348 6.52816 17.7419 8.36195 17.7419H27.3903C27.4986 18.4994 27.6519 19.2411 27.8669 19.9597H9.47082C8.24774 19.9597 7.25308 20.9543 7.25308 22.1774V57.6613H5.03534V21.0685ZM67.1321 63.2056C67.1321 65.0394 65.6393 66.5323 63.8055 66.5323H6.14421C4.31041 66.5323 2.8176 65.0394 2.8176 63.2056V59.879H25.6626C27.2571 61.3128 29.2973 62.0968 31.4588 62.0968H38.4921C40.6535 62.0968 42.6937 61.3128 44.2881 59.879H58.2611V57.6613H43.3866L43.0618 57.9862C41.8408 59.2071 40.2187 59.879 38.4909 59.879H31.4577C29.731 59.879 28.1078 59.2071 26.8867 57.9862L26.5631 57.6613H9.47082V22.1774H28.7319C31.2302 27.4136 36.5597 31.0484 42.737 31.0484C48.9142 31.0484 54.2437 27.4136 56.742 22.1774H60.4789V59.879H67.1321V63.2056Z" fill="#229FFF"/>
<path fill-rule="evenodd" clip-rule="evenodd" d="M54.9344 46.5724C54.2539 46.5724 53.6204 46.7798 53.0923 47.1324L49.2238 44.2318C49.3224 43.9178 49.3901 43.5907 49.3901 43.2458C49.3901 41.412 47.8973 39.9192 46.0635 39.9192C44.2297 39.9192 42.7369 41.412 42.7369 43.2458C42.7369 43.6276 42.8143 43.9888 42.9329 44.3303L36.7225 49.2992C36.2137 48.9817 35.6181 48.7902 34.9748 48.7902C34.2286 48.7902 33.5464 49.0463 32.9909 49.4622L28.2094 46.2742C28.2759 46.0136 28.3215 45.7451 28.3215 45.4636C28.3215 43.6298 26.8287 42.137 24.9949 42.137C23.1611 42.137 21.6683 43.6298 21.6683 45.4636C21.6683 45.7451 21.7138 46.0137 21.7805 46.2742L16.999 49.4622C16.4435 49.0452 15.7611 48.7902 15.0151 48.7902C13.1813 48.7902 11.6885 50.283 11.6885 52.1168C11.6885 53.9506 13.1813 55.4434 15.0151 55.4434C16.8489 55.4434 18.3417 53.9506 18.3417 52.1168C18.3417 51.8353 18.2962 51.5667 18.2296 51.3062L23.011 48.1182C23.5667 48.5351 24.2489 48.7902 24.9949 48.7902C25.7409 48.7902 26.4233 48.5351 26.9788 48.1182L31.7603 51.3062C31.6938 51.5668 31.6482 51.8364 31.6482 52.1168C31.6482 53.9506 33.141 55.4434 34.9748 55.4434C36.8086 55.4434 38.3014 53.9506 38.3014 52.1168C38.3014 51.7351 38.2239 51.3738 38.1054 51.0323L44.3158 46.0635C44.8246 46.3809 45.4202 46.5724 46.0635 46.5724C46.744 46.5724 47.3775 46.3651 47.9056 46.0125L51.7742 48.9131C51.6755 49.2271 51.6078 49.5542 51.6078 49.8991C51.6078 51.7328 53.1006 53.2257 54.9344 53.2257C56.7682 53.2257 58.2611 51.7328 58.2611 49.8991C58.2611 48.0653 56.7682 46.5724 54.9344 46.5724ZM15.0151 53.2257C14.4044 53.2257 13.9062 52.7275 13.9062 52.1168C13.9062 51.5061 14.4044 51.0079 15.0151 51.0079C15.6258 51.0079 16.124 51.5061 16.124 52.1168C16.124 52.7275 15.6258 53.2257 15.0151 53.2257ZM24.9949 46.5724C24.3842 46.5724 23.8861 46.0743 23.8861 45.4636C23.8861 44.8529 24.3842 44.3547 24.9949 44.3547C25.6056 44.3547 26.1038 44.8529 26.1038 45.4636C26.1038 46.0743 25.6056 46.5724 24.9949 46.5724ZM34.9748 53.2257C34.3641 53.2257 33.8659 52.7275 33.8659 52.1168C33.8659 51.5061 34.3641 51.0079 34.9748 51.0079C35.5855 51.0079 36.0836 51.5061 36.0836 52.1168C36.0836 52.7275 35.5855 53.2257 34.9748 53.2257ZM46.0635 44.3547C45.4528 44.3547 44.9546 43.8565 44.9546 43.2458C44.9546 42.6351 45.4528 42.137 46.0635 42.137C46.6742 42.137 47.1723 42.6351 47.1723 43.2458C47.1723 43.8565 46.6742 44.3547 46.0635 44.3547ZM54.9344 51.0079C54.3237 51.0079 53.8256 50.5098 53.8256 49.8991C53.8256 49.2883 54.3237 48.7902 54.9344 48.7902C55.5452 48.7902 56.0433 49.2883 56.0433 49.8991C56.0433 50.5098 55.5452 51.0079 54.9344 51.0079ZM29.4304 24.395H11.6885V39.9192H29.4304V24.395ZM27.2127 37.7015H13.9062V26.6128H27.2127V37.7015Z" fill="#229FFF"/>
<path fill-rule="evenodd" clip-rule="evenodd" d="M16.124 28.8306H24.995V31.0483H16.124V28.8306ZM16.124 33.2661H24.995V35.4838H16.124V33.2661ZM31.6482 35.4838H33.866V37.7015H31.6482V35.4838ZM36.0837 35.4838H58.2611V37.7015H36.0837V35.4838Z" fill="#229FFF"/>
</g>
<defs>
<clipPath id="clip0_7_31">
<rect width="68.75" height="68.75" fill="white" transform="translate(0.599854)"/>
</clipPath>
</defs>
</svg>
