<svg width="69" height="69" viewBox="0 0 69 69" fill="none" xmlns="http://www.w3.org/2000/svg">
<g clip-path="url(#clip0_7_37)">
<path fill-rule="evenodd" clip-rule="evenodd" d="M44.8655 10.9849C44.8653 10.9849 44.8653 10.9849 44.8655 10.9849C44.7332 10.9848 44.6022 11.0109 44.4801 11.0615C44.3579 11.1121 44.2468 11.1862 44.1533 11.2797C44.0598 11.3732 43.9856 11.4842 43.935 11.6064C43.8843 11.7286 43.8583 11.8596 43.8582 11.9918V12.3057L39.3449 14.1831C39.2819 13.9768 39.1543 13.7962 38.9809 13.6678C38.8076 13.5395 38.5976 13.4701 38.3819 13.4701H38.3817C38.1147 13.4701 37.8585 13.5762 37.6697 13.765C37.4808 13.9538 37.3747 14.2099 37.3747 14.477V15.0026L33.7895 16.4939L24.4801 16.4929C23.0357 16.4929 21.8604 17.668 21.8601 19.1124V19.1526L20.1571 19.1524H20.1564C17.7907 19.1524 15.8755 21.0667 15.8752 23.4333C15.875 25.7997 17.7896 27.715 20.1561 27.7153L21.8594 27.7154V27.7554C21.8593 28.4552 22.1318 29.1131 22.6266 29.6081C23.1214 30.103 23.7792 30.3755 24.4789 30.3755H24.5232L24.523 32.865C24.523 32.9972 24.549 33.1282 24.5996 33.2504C24.6502 33.3725 24.7243 33.4836 24.8178 33.5771C24.9114 33.6706 25.0224 33.7448 25.1445 33.7955C25.2667 33.8461 25.3977 33.8722 25.5299 33.8722C25.797 33.8722 26.0533 33.7661 26.2421 33.5772C26.431 33.3884 26.5371 33.1323 26.5371 32.8652L26.5374 30.3756L30.2194 30.376L30.2193 32.7714L29.0582 33.3155C28.3812 33.6326 27.9437 34.3208 27.9437 35.0684L27.9433 38.67C27.9433 38.7292 27.9316 38.7878 27.909 38.8425C27.8863 38.8972 27.8531 38.9469 27.8113 38.9887C27.7694 39.0306 27.7197 39.0638 27.665 39.0864C27.6103 39.109 27.5517 39.1207 27.4925 39.1207H26.9875C26.9283 39.1206 26.8697 39.109 26.815 39.0863C26.7603 39.0636 26.7106 39.0304 26.6688 38.9885C26.627 38.9467 26.5938 38.897 26.5711 38.8423C26.5485 38.7876 26.5368 38.729 26.5369 38.6698L26.537 37.052C26.537 36.4957 26.0862 36.0449 25.5299 36.0449C24.9736 36.0449 24.5228 36.4957 24.5228 37.052L24.5227 38.6696C24.5224 40.0321 25.6251 41.1348 26.9875 41.1348H27.4927C28.8515 41.1348 29.9572 40.0293 29.9574 38.6703L29.9578 35.1183L31.1185 34.5744C31.7956 34.2574 32.2333 33.5695 32.2336 32.8214L32.2337 30.3763L33.7878 30.3764L37.3732 31.8683V32.3935C37.3732 32.5258 37.3992 32.6567 37.4498 32.7789C37.5004 32.9011 37.5746 33.0121 37.6681 33.1057C37.7616 33.1992 37.8726 33.2734 37.9947 33.324C38.1169 33.3746 38.2479 33.4007 38.3801 33.4007C38.5958 33.4007 38.8059 33.3314 38.9792 33.2032C39.1526 33.0749 39.2802 32.8943 39.3433 32.6881L43.8565 34.5662V34.8799C43.8565 35.0122 43.8825 35.1431 43.9331 35.2653C43.9837 35.3875 44.0579 35.4985 44.1514 35.5921C44.2449 35.6856 44.3559 35.7598 44.4781 35.8104C44.6002 35.861 44.7312 35.8871 44.8634 35.8871H44.8636C45.1306 35.8871 45.3868 35.781 45.5756 35.5922C45.7645 35.4034 45.8706 35.1473 45.8707 34.8802L45.8727 12.9779V11.9923C45.8726 11.7252 45.7665 11.469 45.5776 11.2801C45.3888 11.0912 45.1326 10.985 44.8655 10.9849ZM29.9005 18.5075L29.9004 19.5101C29.9004 19.6674 29.8204 19.7708 29.7727 19.8184C29.725 19.8661 29.6215 19.9461 29.4644 19.9461H29.4642L27.2916 19.946C27.2343 19.9461 27.1776 19.9348 27.1246 19.9129C27.0717 19.891 27.0236 19.8588 26.9832 19.8182C26.9426 19.7777 26.9104 19.7296 26.8885 19.6767C26.8666 19.6238 26.8554 19.567 26.8555 19.5097L26.8556 18.5072L29.9005 18.5075ZM21.8596 25.701L20.1564 25.7009C18.9035 25.7009 17.8891 24.6865 17.8894 23.4333C17.8894 22.1808 18.9031 21.1663 20.1565 21.1663H20.1568L21.8599 21.1664L21.8596 25.701ZM24.0509 28.1836C23.9945 28.1276 23.9498 28.0608 23.9193 27.9874C23.8889 27.9139 23.8734 27.8351 23.8736 27.7556L23.8743 19.1127C23.8745 18.9521 23.9384 18.7982 24.0519 18.6846C24.1655 18.5711 24.3194 18.5073 24.48 18.5071H24.8416V19.5097C24.8406 19.8316 24.9036 20.1505 25.0267 20.4479C25.1499 20.7453 25.3308 21.0153 25.5591 21.2423C25.7861 21.4706 26.0561 21.6516 26.3535 21.7749C26.6509 21.8981 26.9698 21.9611 27.2918 21.9603L29.4642 21.9604H29.4646C30.119 21.9604 30.7342 21.7057 31.197 21.243C31.4252 21.016 31.6062 20.746 31.7294 20.4486C31.8527 20.1512 31.9157 19.8323 31.9148 19.5104L31.9149 18.5078L32.9833 18.5079L32.9823 28.362L24.4792 28.3612C24.3996 28.3614 24.3208 28.3458 24.2472 28.3153C24.1737 28.2848 24.107 28.2401 24.0509 28.1836ZM34.9962 28.6974L34.9973 18.1727L37.3744 17.184L37.3732 29.6866L34.9962 28.6974ZM43.8564 32.3844L39.3872 30.5246L39.3885 16.3462L43.858 14.4872L43.8564 32.3844ZM52.3674 22.4266H49.0358C48.4795 22.4266 48.0288 22.8774 48.0288 23.4337C48.0288 23.99 48.4795 24.4408 49.0358 24.4408H52.3674C52.9237 24.4408 53.3745 23.99 53.3745 23.4337C53.3745 22.8774 52.9236 22.4266 52.3674 22.4266ZM48.0366 18.926C48.1688 18.9262 48.2998 18.9002 48.4221 18.8496C48.5443 18.799 48.6553 18.7248 48.7488 18.6312L51.1044 16.2755C51.2933 16.0867 51.3994 15.8305 51.3994 15.5634C51.3994 15.2963 51.2933 15.0401 51.1044 14.8512C50.9155 14.6624 50.6593 14.5563 50.3922 14.5563C50.1251 14.5563 49.869 14.6624 49.6801 14.8512L47.3245 17.2069C47.1837 17.3477 47.0877 17.5272 47.0489 17.7225C47.01 17.9178 47.03 18.1203 47.1062 18.3043C47.1824 18.4883 47.3115 18.6456 47.4771 18.7563C47.6427 18.8669 47.8374 18.926 48.0366 18.926ZM48.6847 28.2096C48.4958 28.0207 48.2397 27.9146 47.9726 27.9146C47.7055 27.9146 47.4493 28.0207 47.2604 28.2096C47.0716 28.3984 46.9654 28.6546 46.9654 28.9217C46.9654 29.1888 47.0716 29.445 47.2604 29.6338L49.6162 31.9896C49.8129 32.1862 50.0707 32.2845 50.3284 32.2845C50.5861 32.2845 50.8439 32.1862 51.0406 31.9896C51.1341 31.8961 51.2083 31.7851 51.2589 31.6629C51.3095 31.5407 51.3356 31.4097 51.3356 31.2775C51.3356 31.1452 51.3095 31.0142 51.2589 30.892C51.2083 30.7699 51.1341 30.6588 51.0406 30.5653L48.6847 28.2096Z" fill="#229FFF"/>
<path fill-rule="evenodd" clip-rule="evenodd" d="M66.6499 41.7803H66.3013V11.3455C66.3013 10.7892 65.8505 10.3384 65.2942 10.3384C64.7379 10.3384 64.2872 10.7892 64.2872 11.3455V41.7803H62.273V9.33228C62.273 8.77596 61.8222 8.3252 61.2659 8.3252H7.98373C7.85147 8.32518 7.72051 8.35121 7.59831 8.40182C7.47612 8.45242 7.3651 8.5266 7.27158 8.62012C7.17806 8.71364 7.10388 8.82467 7.05327 8.94686C7.00267 9.06905 6.97663 9.20002 6.97665 9.33228V41.7803H4.96249V3.28335C4.96249 2.5835 5.53182 2.01416 6.23168 2.01416H11.9802V4.92972H10.8207C10.2644 4.92972 9.81366 5.38049 9.81366 5.9368C9.81366 6.49312 10.2644 6.94388 10.8207 6.94388H15.154C15.7103 6.94388 16.1611 6.49312 16.1611 5.9368C16.1611 5.38049 15.7103 4.92972 15.154 4.92972H13.9944V2.01416H22.7989V4.92972H21.6393C21.083 4.92972 20.6323 5.38049 20.6323 5.9368C20.6323 6.49312 21.083 6.94388 21.6393 6.94388H25.9726C26.5289 6.94388 26.9797 6.49312 26.9797 5.9368C26.9797 5.38049 26.5289 4.92972 25.9726 4.92972H24.813V2.01416H33.6177V4.92972H32.4582C31.9019 4.92972 31.4511 5.38049 31.4511 5.9368C31.4511 6.49312 31.9019 6.94388 32.4582 6.94388H36.7915C37.3478 6.94388 37.7985 6.49312 37.7985 5.9368C37.7985 5.38049 37.3478 4.92972 36.7915 4.92972H35.6318V2.01416H44.4364V4.92972H43.2768C42.7205 4.92972 42.2697 5.38049 42.2697 5.9368C42.2697 6.49312 42.7205 6.94388 43.2768 6.94388H47.61C48.1664 6.94388 48.6171 6.49312 48.6171 5.9368C48.6171 5.38049 48.1664 4.92972 47.61 4.92972H46.4504V2.01416H55.2549V4.92972H54.0954C53.5391 4.92972 53.0883 5.38049 53.0883 5.9368C53.0883 6.49312 53.5391 6.94388 54.0954 6.94388H58.4286C58.9849 6.94388 59.4357 6.49312 59.4357 5.9368C59.4357 5.38049 58.9849 4.92972 58.4286 4.92972H57.269V2.01416H63.0177C63.7176 2.01416 64.2869 2.5835 64.2869 3.28335V7.31906C64.2869 7.87537 64.7377 8.32614 65.294 8.32614C65.8503 8.32614 66.3011 7.87537 66.3011 7.31906V3.28335C66.3013 1.47289 64.8286 0 63.018 0H6.23168C4.42108 0 2.94833 1.47289 2.94833 3.28335V41.7803H2.59961C2.0433 41.7803 1.59253 42.231 1.59253 42.7873C1.59253 43.3437 2.0433 43.7944 2.59961 43.7944H11.778V47.7982C11.778 48.3545 12.2288 48.8052 12.7851 48.8052H18.1696V50.8491H16.6813C16.125 50.8491 15.6742 51.2999 15.6742 51.8562C15.6742 52.4125 16.125 52.8632 16.6813 52.8632H26.3398V66.7358H21.0571L21.2526 66.2605C21.3542 66.0135 21.3535 65.7362 21.2506 65.4897C21.1478 65.2432 20.9513 65.0476 20.7042 64.9461C20.4572 64.8445 20.1799 64.8452 19.9334 64.948C19.6869 65.0509 19.4914 65.2474 19.3898 65.4944L19.1643 66.0427L18.0531 65.048C17.8531 64.8762 17.5937 64.7896 17.3307 64.8069C17.0676 64.8241 16.8218 64.9438 16.646 65.1403C16.4702 65.3367 16.3784 65.5942 16.3903 65.8576C16.4022 66.121 16.5169 66.3692 16.7097 66.5489L16.9187 66.736H9.74249C9.18618 66.736 8.73541 67.1867 8.73541 67.7431C8.73541 68.2994 9.18618 68.7501 9.74249 68.7501H59.507C60.0633 68.7501 60.5141 68.2994 60.5141 67.7431C60.5141 67.1867 60.0633 66.736 59.507 66.736H52.3306L52.5396 66.5488C52.6382 66.4606 52.7184 66.3538 52.7757 66.2347C52.833 66.1155 52.8662 65.9861 52.8735 65.8541C52.8808 65.722 52.8621 65.5898 52.8183 65.4651C52.7745 65.3403 52.7065 65.2253 52.6183 65.1268C52.5301 65.0282 52.4234 64.948 52.3042 64.8907C52.185 64.8334 52.0557 64.8002 51.9236 64.7929C51.7916 64.7855 51.6594 64.8043 51.5346 64.8481C51.4098 64.8919 51.2948 64.9599 51.1963 65.0481L50.0852 66.0426L49.8597 65.4944C49.8094 65.3721 49.7355 65.2609 49.6423 65.1672C49.549 65.0734 49.4381 64.9989 49.3161 64.948C49.194 64.8971 49.0631 64.8707 48.9309 64.8704C48.7986 64.87 48.6676 64.8958 48.5453 64.9461C48.423 64.9964 48.3118 65.0703 48.218 65.1635C48.1242 65.2568 48.0498 65.3676 47.9989 65.4897C47.9479 65.6118 47.9216 65.7427 47.9212 65.8749C47.9209 66.0072 47.9466 66.1382 47.9969 66.2605L48.1924 66.7358H42.9097V62.4151C42.9097 61.8588 42.4589 61.408 41.9026 61.408C41.3463 61.408 40.8955 61.8588 40.8955 62.4151V66.7358H28.354V43.7944H40.8956V58.3885C40.8956 58.9448 41.3464 59.3956 41.9027 59.3956C42.459 59.3956 42.9098 58.9448 42.9098 58.3885V52.8634H52.5684C53.1247 52.8634 53.5755 52.4126 53.5755 51.8563C53.5755 51.3 53.1247 50.8492 52.5684 50.8492H51.08V48.8054H56.4646C57.0209 48.8054 57.4716 48.3546 57.4716 47.7983V43.7946H66.6499C67.2062 43.7946 67.657 43.3438 67.657 42.7875C67.657 42.2312 67.2062 41.7803 66.6499 41.7803ZM20.1838 50.8492V48.8054H26.3398V50.8492H20.1838ZM26.3398 46.7912H13.7923V43.7946H26.3398V46.7912ZM49.0659 50.8492H42.9098V48.8054H49.0659V50.8492ZM55.4573 46.7912H42.9098V43.7946H55.4573V46.7912ZM8.99081 41.7803V10.3394H60.259V41.7803H8.99081Z" fill="#229FFF"/>
</g>
<defs>
<clipPath id="clip0_7_37">
<rect width="68.75" height="68.75" fill="white" transform="translate(0.249756)"/>
</clipPath>
</defs>
</svg>
