<svg width="24" height="23" viewBox="0 0 24 23" fill="none" xmlns="http://www.w3.org/2000/svg">
<g clip-path="url(#clip0_34_9)">
<path fill-rule="evenodd" clip-rule="evenodd" d="M15.3983 8.22293H8.42701C7.78633 8.22293 7.26514 7.70169 7.26514 7.06105V3.6648C7.26514 3.02416 7.78633 2.50293 8.42701 2.50293H15.3983C16.0389 2.50293 16.5601 3.02416 16.5601 3.6648V7.06105C16.5601 7.70169 16.0389 8.22293 15.3983 8.22293ZM8.69514 6.79293H15.1301V3.93293H8.69514V6.79293ZM11.9126 17.5179C10.1385 17.5179 8.69514 16.0746 8.69514 14.3004C8.69514 13.5684 9.1463 12.5636 10.0743 11.229C10.7137 10.3095 11.3442 9.57486 11.3707 9.54403C11.4378 9.46602 11.521 9.40342 11.6145 9.36051C11.708 9.3176 11.8097 9.29539 11.9126 9.29539C12.0155 9.29539 12.1172 9.3176 12.2108 9.36051C12.3043 9.40342 12.3875 9.46602 12.4546 9.54403C12.4811 9.57482 13.1116 10.3095 13.7509 11.229C14.679 12.5636 15.1301 13.5684 15.1301 14.3004C15.1301 16.0746 13.6868 17.5179 11.9126 17.5179ZM11.9128 11.1418C11.0588 12.2412 10.1251 13.6774 10.1251 14.3004C10.1251 15.2861 10.927 16.0879 11.9126 16.0879C12.8983 16.0879 13.7001 15.2861 13.7001 14.3004C13.7001 13.6761 12.7668 12.2406 11.9128 11.1418Z" fill="#7B7B7B"/>
<path fill-rule="evenodd" clip-rule="evenodd" d="M21.2886 14.8232C21.9372 13.9313 22.28 12.8771 22.28 11.7743V5.72C22.28 5.58721 22.243 5.45705 22.1732 5.34409C22.1034 5.23113 22.0035 5.13985 21.8847 5.08048L19.42 3.84809V2.05562C19.42 0.922171 18.4978 0 17.3644 0H6.46063C5.32718 0 4.40501 0.922171 4.40501 2.05562V18.59H3.42188C2.7812 18.59 2.26001 19.1112 2.26001 19.7519V21.7181C2.26001 22.3588 2.7812 22.88 3.42188 22.88H20.4031C21.0438 22.88 21.565 22.3588 21.565 21.7181V19.7519C21.565 19.1112 21.0438 18.59 20.4031 18.59H19.42V17.3925L21.2886 14.8232ZM20.85 6.16191V11.7744C20.85 12.5729 20.6017 13.3364 20.1321 13.9822L19.42 14.9613V5.44691L20.85 6.16191ZM20.135 21.45H3.69001V20.02H20.135V21.45ZM5.83501 18.59V2.05562C5.83501 1.71064 6.11565 1.43 6.46063 1.43H17.3644C17.7094 1.43 17.99 1.71064 17.99 2.05562V18.59H5.83501Z" fill="#7B7B7B"/>
</g>
<defs>
<clipPath id="clip0_34_9">
<rect width="22.88" height="22.88" fill="white" transform="translate(0.830078)"/>
</clipPath>
</defs>
</svg>
