<svg xmlns="http://www.w3.org/2000/svg" fill="rgb(133 138 150)" viewBox="0 0 20 22" id="fuel"><path d="M10.39 3.239H4.147a.78.78 0 00-.78.78v4.683c0 .431.349.78.78.78h6.243c.431 0 .78-.349.78-.78V4.02a.78.78 0 00-.78-.78zm-.78 4.683H4.927V4.8H9.61v3.122z"></path><path d="M15.853 4.02a.78.78 0 000 1.56c1.013 0 1.561.374 1.561 2.342v7.024a.781.781 0 01-1.56 0 2.344 2.344 0 00-2.342-2.341V1.678a.78.78 0 00-.78-.78H1.805a.78.78 0 00-.78.78V20.41c0 .43.35.78.78.78h10.927c.43 0 .78-.35.78-.78v-6.244c.43 0 .78.35.78.78a2.344 2.344 0 002.342 2.342 2.344 2.344 0 002.341-2.342V7.922c0-.965 0-3.902-3.122-3.902zm-3.902 15.609H2.585V2.459h9.366v17.17z"></path><path fill-rule="evenodd" clip-rule="evenodd" d="M7.287 11.044l-.878 1.088.659.532-.66-.532-.001.002-.005.006-.013.017a9.213 9.213 0 00-.208.271c-.131.176-.308.421-.487.698a7.69 7.69 0 00-.52.925c-.137.298-.305.73-.305 1.184 0 1.236.942 2.507 2.418 2.507.72 0 1.53-.477 1.804-.803.274-.326.62-.72.572-1.812-.048-1.092-.886-2.19-1.45-2.91-.564-.72-.926-1.173-.926-1.173zm.707 5.324c.268-.2.472-.501.55-.84.02-.095.032-.194.032-.293v-.004c-.001-.381-.296-.944-.603-1.428a11.281 11.281 0 00-.315-.468c-.21-.294-.37-.494-.37-.494s-.094.116-.23.3a11.48 11.48 0 00-.456.662c-.308.485-.604 1.05-.604 1.432 0 .725.543 1.378 1.29 1.378.254 0 .499-.092.706-.245z"></path></svg>