<svg width="20" height="20" viewBox="0 0 20 20" fill="none" xmlns="http://www.w3.org/2000/svg">
<g clip-path="url(#clip0_42_14637)">
<path fill-rule="evenodd" clip-rule="evenodd" d="M0 17.9378H11.2875V19.5503H0V17.9378ZM9.675 16.3122C9.675 16.0983 9.59006 15.8932 9.43885 15.742C9.28765 15.5908 9.08258 15.5059 8.86875 15.5059H2.41875C2.20492 15.5059 1.99985 15.5908 1.84865 15.742C1.69744 15.8932 1.6125 16.0983 1.6125 16.3122V17.1315H9.675V16.3122ZM10.9702 9.72025C10.5946 10.1206 10.2796 10.5738 10.0352 11.0655L16.6714 17.7017C16.8226 17.8529 17.0277 17.9378 17.2415 17.9378C17.4552 17.9378 17.6603 17.8529 17.8115 17.7017L18.9517 16.5615C19.0266 16.4866 19.086 16.3977 19.1265 16.2999C19.167 16.2021 19.1879 16.0972 19.1879 15.9914C19.1879 15.8855 19.167 15.7806 19.1265 15.6828C19.086 15.585 19.0266 15.4961 18.9517 15.4212L12.3155 8.78682C11.823 9.02904 11.3695 9.34367 10.9702 9.72025ZM6.9795 5.72952C6.3698 6.29534 5.66402 6.74782 4.89535 7.06567L9.06245 11.2328C9.38316 10.4654 9.8361 9.76035 10.4006 9.14963C11.0104 8.58384 11.7162 8.1313 12.4848 7.81327L8.31748 3.64697C7.99666 4.41403 7.54381 5.11889 6.9795 5.72952Z" fill="#229FFF"/>
<path d="M9.82842 0.599255L8.68821 1.73947C8.37335 2.05433 8.37335 2.56481 8.68821 2.87968L13.249 7.44052C13.5639 7.75538 14.0744 7.75538 14.3893 7.44052L15.5295 6.30031C15.8443 5.98545 15.8443 5.47496 15.5295 5.1601L10.9686 0.599255C10.6538 0.284395 10.1433 0.284395 9.82842 0.599255Z" fill="#229FFF"/>
<path d="M2.98712 7.4391L1.84691 8.57931C1.53205 8.89417 1.53205 9.40466 1.84691 9.71952L6.40775 14.2804C6.72262 14.5952 7.2331 14.5952 7.54796 14.2804L8.68817 13.1401C9.00304 12.8253 9.00303 12.3148 8.68817 11.9999L4.12733 7.4391C3.81247 7.12424 3.30198 7.12424 2.98712 7.4391Z" fill="#229FFF"/>
</g>
<defs>
<clipPath id="clip0_42_14637">
<rect width="19.35" height="19.35" fill="white" transform="translate(0 0.200195)"/>
</clipPath>
</defs>
</svg>
