<svg width="20" height="20" viewBox="0 0 20 20" fill="none" xmlns="http://www.w3.org/2000/svg">
<g clip-path="url(#clip0_42_14643)">
<path fill-rule="evenodd" clip-rule="evenodd" d="M3.62812 6.04688H2.01561C1.79309 6.04688 1.61247 6.22749 1.61247 6.45001C1.61247 6.67254 1.79309 6.85315 2.01561 6.85315H3.62812C3.85065 6.85315 4.03126 6.67254 4.03126 6.45001C4.03126 6.22749 3.85065 6.04688 3.62812 6.04688Z" fill="#229FFF"/>
<path fill-rule="evenodd" clip-rule="evenodd" d="M16.5096 7.13441C16.433 6.89333 14.8947 3.63368 14.319 3.28376C13.7199 2.91932 10.1362 2.82178 9.675 2.82178C9.21381 2.82178 5.63006 2.91932 5.031 3.28376C4.45534 3.63285 2.91701 6.89333 2.84041 7.13441C2.77268 7.34647 2.8912 7.573 3.10326 7.64072C3.31773 7.70765 3.54268 7.58993 3.60957 7.37787C3.73614 6.97715 5.13417 4.2488 5.44136 3.9779C5.78244 3.81505 8.29389 3.62801 9.675 3.62801C11.0561 3.62801 13.5676 3.81505 13.8804 3.95859C14.215 4.24884 15.6139 6.97719 15.7404 7.37791C15.7665 7.4595 15.8177 7.53072 15.8868 7.58129C15.956 7.63186 16.0394 7.65917 16.125 7.65928C16.1653 7.65928 16.2065 7.65365 16.2476 7.64072C16.4588 7.573 16.5773 7.34643 16.5096 7.13441ZM3.62813 14.1093C3.43946 14.1093 3.28788 14.2415 3.24434 14.4164L0.806237 13.8069V13.7061C0.806237 13.4836 0.625625 13.303 0.4031 13.303C0.180575 13.303 0 13.4836 0 13.7062V15.3187C0 15.9854 0.542594 16.528 1.20938 16.528H2.82189C3.48867 16.528 4.03126 15.9854 4.03126 15.3187V14.5124C4.03126 14.2899 3.85065 14.1093 3.62813 14.1093ZM18.9469 13.303C18.7243 13.303 18.5437 13.4836 18.5437 13.7062V13.8069L16.1056 14.4165C16.0621 14.2415 15.9105 14.1093 15.7218 14.1093C15.4993 14.1093 15.3187 14.2899 15.3187 14.5124V15.3187C15.3187 15.9854 15.8613 16.528 16.5281 16.528H18.1406C18.8074 16.528 19.35 15.9854 19.35 15.3187V13.7062C19.35 13.4836 19.1694 13.303 18.9469 13.303Z" fill="#229FFF"/>
<path fill-rule="evenodd" clip-rule="evenodd" d="M17.3344 6.04688H15.7219C15.4994 6.04688 15.3187 6.22749 15.3187 6.45001C15.3187 6.67254 15.4994 6.85315 15.7219 6.85315H17.3344C17.5569 6.85315 17.7375 6.67254 17.7375 6.45001C17.7375 6.22749 17.5569 6.04688 17.3344 6.04688ZM19.3186 9.84994L18.2188 10.0701C18.0834 10.091 15.376 10.4812 14.6899 10.4812C14.5915 10.5594 14.5028 11.077 14.5133 11.5616C16.9707 11.4455 18.884 11.2915 18.9146 11.2891L19.3492 11.2303C19.3484 10.6957 19.3403 10.2394 19.3186 9.84994Z" fill="#229FFF"/>
<path fill-rule="evenodd" clip-rule="evenodd" d="M18.6574 8.07783C18.4768 8.02541 18.3825 7.89401 18.2035 7.62632L18.0656 7.42477C17.8246 7.08856 17.3586 7.07405 16.9079 7.06116C16.7724 7.05712 16.5579 7.05069 16.4563 7.0273C16.4209 6.97552 16.3737 6.93296 16.3185 6.90315C15.5663 6.48951 12.7162 6.04688 9.675 6.04688C6.63384 6.04688 3.78372 6.48951 3.03149 6.90311C2.976 6.93318 2.92847 6.97602 2.89282 7.02809C2.79124 7.05149 2.57676 7.05791 2.44131 7.06196C1.99142 7.07484 1.5254 7.08856 1.28435 7.42477L1.14649 7.62715C0.967498 7.89484 0.873167 8.02624 0.692554 8.07866C0.376491 8.17137 0.203173 8.49548 0.107216 9.08486L0.903779 9.28399C0.916666 9.28399 3.54668 9.67504 4.43436 9.67504C4.73912 9.67504 5.0076 9.79114 5.21078 10.0105C5.6381 10.4724 5.65825 11.2819 5.64778 11.5971C6.94502 11.6512 8.34548 11.6907 9.675 11.6907C11.0061 11.6907 12.4074 11.6512 13.7063 11.5971C13.6974 11.2408 13.7176 10.3483 14.1167 9.92659C14.2731 9.76211 14.4706 9.67504 14.6899 9.67504C15.2116 9.67504 17.3167 9.38721 18.0834 9.27594L19.2371 9.04454C19.1404 8.47934 18.967 8.16812 18.6574 8.07783ZM12.4969 10.8844H6.85311C6.63058 10.8844 6.44997 10.7038 6.44997 10.4812C6.44997 10.2587 6.63058 10.0781 6.85311 10.0781H12.4968C12.7194 10.0781 12.9 10.2587 12.9 10.4812C12.9 10.7038 12.7194 10.8844 12.4969 10.8844ZM19.0001 12.0905C18.9299 12.0962 13.9417 12.4969 9.675 12.4969C5.40832 12.4969 0.420067 12.0962 0.37086 12.093L0.0209351 12.0567C0.0644726 12.9315 0.199129 14.2432 0.616741 14.4657C1.05212 14.6972 6.08875 14.9156 9.67496 14.9156C13.2612 14.9156 18.2978 14.6972 18.7324 14.465C19.1516 14.2416 19.2863 12.921 19.329 12.0462L19.0001 12.0905Z" fill="#229FFF"/>
<path fill-rule="evenodd" clip-rule="evenodd" d="M4.61819 10.5569C4.56819 10.5029 4.51497 10.4812 4.43436 10.4812C3.483 10.4812 0.857825 10.0901 0.746562 10.074L0.0281936 9.89502C0.0080499 10.2771 0.000793652 10.7246 0 11.243L0.444256 11.289C0.470069 11.2914 2.38247 11.4446 4.83992 11.5615C4.84797 11.2705 4.80927 10.7633 4.61819 10.5569Z" fill="#229FFF"/>
</g>
<defs>
<clipPath id="clip0_42_14643">
<rect width="19.35" height="19.35" fill="white"/>
</clipPath>
</defs>
</svg>
