<svg width="20" height="20" viewBox="0 0 20 20" fill="none" xmlns="http://www.w3.org/2000/svg">
<g clip-path="url(#clip0_42_14654)">
<path fill-rule="evenodd" clip-rule="evenodd" d="M18.7104 5.73688C18.6427 5.73688 18.5734 5.74659 18.5041 5.76564L17.7199 5.98165L16.9056 3.99811C16.6748 3.43617 15.993 2.979 15.3855 2.979H7.76473C7.15731 2.979 6.47542 3.43617 6.24467 3.99811L5.43157 5.97895L4.65724 5.76564C4.59005 5.74682 4.52063 5.73715 4.45086 5.73688C4.08027 5.73688 3.81129 6.01997 3.81129 6.41014V6.87239C3.81129 6.89259 3.81291 6.91233 3.81429 6.93214C3.63354 7.06685 3.46279 7.21448 3.30339 7.37389C2.43616 8.24112 1.95857 9.39405 1.95857 10.6205C1.95857 11.6147 2.27257 12.5607 2.85347 13.3452L0.201293 15.9975C0.137485 16.0613 0.0868695 16.1371 0.0523369 16.2204C0.0178043 16.3038 3.05176e-05 16.3932 3.05176e-05 16.4834C3.05176e-05 16.5736 0.0178043 16.663 0.0523369 16.7464C0.0868695 16.8297 0.137485 16.9055 0.201293 16.9693C0.265011 17.0332 0.340738 17.0839 0.424118 17.1184C0.507498 17.153 0.596885 17.1707 0.687138 17.1706C0.862989 17.1706 1.03884 17.1035 1.17298 16.9693L3.82532 14.317C4.6099 14.8979 5.55584 15.2119 6.55004 15.2119C7.77645 15.2119 8.92946 14.7343 9.79662 13.8671C10.0726 13.5913 10.3126 13.2816 10.5107 12.9454H16.2146V13.9295C16.2146 14.3848 16.585 14.7552 17.0403 14.7552H18.1188C18.5741 14.7552 18.9446 14.3848 18.9446 13.9295V9.98868C18.9446 9.42435 18.7702 8.54039 18.5559 8.01832L18.4244 7.69815H18.524C18.9793 7.69815 19.3498 7.32771 19.3498 6.87232V6.41006C19.35 6.01997 19.081 5.73688 18.7104 5.73688ZM7.25545 4.24928C7.39345 3.91315 7.80359 3.63816 8.16701 3.63816H14.9835C15.3468 3.63816 15.757 3.91315 15.895 4.24928L17.1268 7.24969C17.2648 7.58582 17.0804 7.86081 16.717 7.86081H10.2198C10.0902 7.68892 9.94886 7.52622 9.79677 7.37389C8.92954 6.50666 7.7766 6.02906 6.5502 6.02906C6.54164 6.02906 6.53324 6.0296 6.52468 6.02968L7.25545 4.24928ZM6.55004 13.8376C5.69075 13.8376 4.88281 13.5029 4.27516 12.8953C3.66751 12.2877 3.33292 11.4798 3.33292 10.6205C3.33292 9.7611 3.66758 8.95323 4.27516 8.34558C4.88281 7.738 5.69068 7.40334 6.55004 7.40334C7.40941 7.40334 8.21727 7.738 8.82493 8.34558C9.43258 8.95323 9.76717 9.7611 9.76717 10.6204C9.76717 11.4797 9.43258 12.2876 8.82493 12.8953C8.21727 13.5029 7.40941 13.8376 6.55004 13.8376ZM17.3554 11.0448C17.3551 11.1323 17.3202 11.2162 17.2583 11.2781C17.1964 11.34 17.1125 11.3749 17.025 11.3751H14.6851C14.5976 11.3749 14.5137 11.34 14.4518 11.2781C14.3899 11.2162 14.3551 11.1323 14.3548 11.0448V9.92184C14.3551 9.83431 14.3899 9.75043 14.4518 9.68854C14.5137 9.62664 14.5976 9.59176 14.6851 9.59149H17.025C17.1125 9.59174 17.1964 9.62662 17.2583 9.68852C17.3202 9.75042 17.3551 9.8343 17.3554 9.92184V11.0448Z" fill="#229FFF"/>
</g>
<defs>
<clipPath id="clip0_42_14654">
<rect width="19.35" height="19.35" fill="white" transform="translate(0 0.399902)"/>
</clipPath>
</defs>
</svg>
