<svg width="20" height="20" viewBox="0 0 20 20" fill="none" xmlns="http://www.w3.org/2000/svg">
<g clip-path="url(#clip0_42_14651)">
<path fill-rule="evenodd" clip-rule="evenodd" d="M16.9321 3.62256H4.8426C4.17492 3.62256 3.63365 4.16383 3.63365 4.83151C3.63365 5.49919 4.17492 6.04046 4.8426 6.04046H16.9321C17.5998 6.04046 18.1411 5.49919 18.1411 4.83151C18.1411 4.16383 17.5998 3.62256 16.9321 3.62256ZM2.4247 4.83151C2.42334 4.5114 2.29508 4.20489 2.06806 3.9792C1.59653 3.51047 0.834971 3.51047 0.363443 3.9792C0.136395 4.20487 0.0081356 4.51139 0.00680247 4.83151C-0.0022268 4.90983 -0.0022268 4.98893 0.00680247 5.06725C0.0204751 5.14603 0.0427733 5.22306 0.0732947 5.29695C0.105753 5.36856 0.144171 5.43731 0.188145 5.50248C0.23155 5.57025 0.282223 5.63309 0.339264 5.68986C0.394269 5.74466 0.455074 5.7933 0.520606 5.83494C0.584275 5.8813 0.653275 5.91986 0.726128 5.94979C0.806263 5.99136 0.891669 6.02186 0.980007 6.04046C1.05834 6.04922 1.13742 6.04922 1.21575 6.04046C1.535 6.04072 1.8414 5.91468 2.06806 5.68986C2.1251 5.63309 2.17578 5.57025 2.21918 5.50248C2.26315 5.43731 2.30157 5.36856 2.33403 5.29695C2.37261 5.22395 2.40302 5.14692 2.4247 5.06725C2.43373 4.98893 2.43373 4.90983 2.4247 4.83151ZM2.4247 10.2718C2.43369 10.1935 2.43369 10.1144 2.4247 10.036C2.40381 9.95803 2.37336 9.88291 2.33403 9.81238C2.30289 9.73821 2.26441 9.66734 2.21918 9.60082C2.17727 9.53379 2.12643 9.47278 2.06806 9.41947C1.59653 8.95074 0.834971 8.95074 0.363443 9.41947C0.136395 9.64515 0.0081356 9.95166 0.00680247 10.2718C0.00915064 10.4311 0.0398539 10.5887 0.0974737 10.7372C0.127775 10.8087 0.164178 10.8775 0.206279 10.9428C0.252262 11.0085 0.304931 11.0692 0.363443 11.1241C0.416851 11.1824 0.477844 11.2332 0.544785 11.2752C0.608432 11.3216 0.677436 11.3602 0.750307 11.3901C0.824026 11.4211 0.901115 11.4434 0.980007 11.4566C1.05734 11.4739 1.13649 11.482 1.21575 11.4807C1.29407 11.4898 1.37318 11.4898 1.4515 11.4807C1.52843 11.4675 1.60351 11.4452 1.67515 11.4142C1.75 11.3845 1.82103 11.346 1.88672 11.2994C1.95366 11.2574 2.01465 11.2065 2.06806 11.1483C2.12633 11.0949 2.17715 11.0339 2.21918 10.9669C2.26565 10.9033 2.30422 10.8343 2.33403 10.7614C2.37533 10.6812 2.40581 10.5958 2.4247 10.5075C2.434 10.4292 2.434 10.3501 2.4247 10.2718ZM2.4247 15.7121C2.43366 15.6337 2.43366 15.5546 2.4247 15.4763C2.40381 15.3964 2.37337 15.3193 2.33403 15.2466C2.30157 15.175 2.26315 15.1063 2.21918 15.0411C2.17715 14.9741 2.12633 14.9132 2.06806 14.8597C1.59653 14.391 0.834971 14.391 0.363443 14.8597C0.305177 14.9132 0.25435 14.9741 0.212324 15.0411C0.16835 15.1063 0.129932 15.175 0.0974737 15.2466C0.0661167 15.3202 0.04379 15.3973 0.0309815 15.4763C0.0139563 15.5537 0.00584386 15.6328 0.00680247 15.7121C0.00816866 16.0322 0.136423 16.3387 0.363443 16.5644C0.416851 16.6226 0.477844 16.6735 0.544785 16.7155C0.608432 16.7619 0.677436 16.8004 0.750307 16.8303C0.824026 16.8614 0.901115 16.8837 0.980007 16.8968C1.05734 16.9142 1.13649 16.9223 1.21575 16.921C1.29407 16.93 1.37318 16.93 1.4515 16.921C1.52843 16.9078 1.60351 16.8855 1.67515 16.8545C1.75 16.8248 1.82103 16.7863 1.88672 16.7397C1.95366 16.6976 2.01465 16.6468 2.06806 16.5885C2.12633 16.5351 2.17715 16.4741 2.21918 16.4072C2.26569 16.3436 2.30425 16.2746 2.33403 16.2017C2.37529 16.1214 2.40577 16.036 2.4247 15.9478C2.434 15.8695 2.434 15.7904 2.4247 15.7121ZM18.1411 9.06283H4.8426C4.17492 9.06283 3.63365 9.6041 3.63365 10.2718C3.63365 10.9395 4.17492 11.4807 4.8426 11.4807H18.1411C18.8087 11.4807 19.35 10.9395 19.35 10.2718C19.35 9.6041 18.8087 9.06283 18.1411 9.06283ZM12.7008 14.5031H4.8426C4.17492 14.5031 3.63365 15.0444 3.63365 15.7121C3.63365 16.3797 4.17492 16.921 4.8426 16.921H12.7008C13.3685 16.921 13.9097 16.3797 13.9097 15.7121C13.9097 15.0444 13.3685 14.5031 12.7008 14.5031Z" fill="#229FFF"/>
</g>
<defs>
<clipPath id="clip0_42_14651">
<rect width="19.35" height="19.35" fill="white" transform="translate(0 0.600098)"/>
</clipPath>
</defs>
</svg>
