<svg width="20" height="21" viewBox="0 0 20 21" fill="none" xmlns="http://www.w3.org/2000/svg">
<g clip-path="url(#clip0_42_14664)">
<path fill-rule="evenodd" clip-rule="evenodd" d="M17.6493 3.10498H1.70068C0.764098 3.10498 0 3.86825 0 4.80566V16.1436C0 17.0778 0.760697 17.8442 1.70068 17.8442H17.6493C18.5836 17.8442 19.35 17.0835 19.35 16.1436V4.80566C19.35 3.87142 18.5893 3.10498 17.6493 3.10498ZM17.4145 4.23877L9.71106 11.9422L1.94101 4.23877H17.4145ZM1.13379 15.9088V5.03503L6.59408 10.4485L1.13379 15.9088ZM1.93549 16.7104L7.39922 11.2467L9.3137 13.1448C9.53532 13.3645 9.89295 13.3638 10.1137 13.143L11.9804 11.2763L17.4145 16.7104H1.93549ZM18.2162 15.9087L12.7821 10.4746L18.2162 5.04043V15.9087Z" fill="#229FFF"/>
</g>
<defs>
<clipPath id="clip0_42_14664">
<rect width="19.35" height="19.35" fill="white" transform="translate(0 0.799805)"/>
</clipPath>
</defs>
</svg>
