<svg width="20" height="20" viewBox="0 0 20 20" fill="none" xmlns="http://www.w3.org/2000/svg">
<path fill-rule="evenodd" clip-rule="evenodd" d="M11.7399 11.612L11.0118 9.35993L11.0066 9.34443C10.7744 8.67867 10.15 8.23156 9.45294 8.23156L4.20307 8.2319C3.50596 8.2319 2.88164 8.67898 2.64955 9.34443L1.91458 11.6186C1.65415 11.7287 1.41466 11.8923 1.2095 12.1047C0.813327 12.5144 0.595215 13.0515 0.595215 13.6171V17.3373C0.595215 18.1187 1.23099 18.7545 2.01245 18.7545C2.73391 18.7545 3.33071 18.2126 3.41818 17.5145H10.2439C10.3314 18.2126 10.9282 18.7545 11.6497 18.7545C12.3914 18.7545 13.0669 18.1634 13.0669 17.5145V13.5816C13.0669 12.6918 12.5171 11.9283 11.7399 11.612ZM4.20319 9.64914L9.45294 9.6488C9.54472 9.6488 9.63177 9.71314 9.66652 9.80614L10.1998 11.4558H3.45647L3.98949 9.80614C4.02416 9.71336 4.11115 9.64914 4.20319 9.64914ZM11.6497 15.3886C11.6497 15.7792 11.3318 16.0972 10.941 16.0972H2.72107C2.33034 16.0972 2.01245 15.7792 2.01245 15.3886V13.6171C2.01245 13.2137 2.337 12.873 2.72107 12.873H10.941C11.3318 12.873 11.6497 13.1909 11.6497 13.5816V15.3886ZM5.23666 13.7588H8.46087V15.176H5.23666V13.7588ZM10.7639 14.4674C10.7639 14.8586 10.4467 15.176 10.0553 15.176C9.66385 15.176 9.34665 14.8586 9.34665 14.4674C9.34665 14.076 9.66385 13.7588 10.0553 13.7588C10.4467 13.7588 10.7639 14.076 10.7639 14.4674ZM4.35089 14.4674C4.35089 14.8586 4.03368 15.176 3.64227 15.176C3.25086 15.176 2.93365 14.8586 2.93365 14.4674C2.93365 14.076 3.25086 13.7588 3.64227 13.7588C4.03368 13.7588 4.35089 14.076 4.35089 14.4674ZM15.7242 10.5346C15.3328 10.5346 15.0156 10.2171 15.0156 9.82595C15.0156 9.43457 15.3328 9.11733 15.7242 9.11733C16.1156 9.11733 16.4328 9.43457 16.4328 9.82595C16.4328 10.2171 16.1156 10.5346 15.7242 10.5346ZM5.05951 5.89312C5.45092 5.89312 5.76813 6.21035 5.76813 6.60174C5.76813 6.99292 5.45092 7.31036 5.05951 7.31036C4.6681 7.31036 4.35089 6.99292 4.35089 6.60174C4.35089 6.21035 4.6681 5.89312 5.05951 5.89312ZM2.02297 7.73332C2.01594 7.66353 2.01243 7.59343 2.01245 7.52328V5.89312C2.01245 5.32756 2.23056 4.79045 2.62674 4.38065C2.83411 4.16599 3.07671 4.00111 3.34054 3.89128L4.06801 1.72313C4.30106 1.05969 4.92442 0.614258 5.62031 0.614258H10.8702C11.566 0.614258 12.1894 1.05969 12.4225 1.72313L12.5846 2.3144H11.0766C11.0384 2.23056 10.9567 2.03095 10.8702 2.03095H5.62031C5.52677 2.03095 5.43816 2.09825 5.40486 2.1936L5.40273 2.19955L4.90361 3.73189H7.29386C7.16462 3.93418 7.05939 4.15085 6.98032 4.3775L6.97221 4.40074L6.73043 5.1491H4.1383C3.75423 5.1491 3.42969 5.4898 3.42969 5.89315V6.91534C2.8938 7.0565 2.40814 7.34108 2.02297 7.73337V7.73332ZM18.7358 8.94018V12.873C18.7358 13.522 18.0603 14.1131 17.3186 14.1131C16.5971 14.1131 16.0003 13.5711 15.9129 12.873H14.4128C14.3063 12.3495 14.0839 11.8679 13.7737 11.4558H16.61C17.0007 11.4558 17.3186 11.1378 17.3186 10.7472V8.94018C17.3186 8.54945 17.0007 8.23156 16.61 8.23156H12.0307C11.4754 7.36274 10.5094 6.81432 9.45271 6.81432H15.8536L15.3362 5.30775C15.304 5.21563 15.2154 5.14907 15.1219 5.14907H9.87202C9.7789 5.14907 9.69078 5.21506 9.65711 5.30984L9.14171 6.84947L7.64353 6.84978L8.3185 4.84428C8.55056 4.17886 9.17491 3.73186 9.87202 3.73186H15.1219C15.819 3.73186 16.4433 4.17886 16.6754 4.84428L17.4052 6.96914C18.1844 7.28468 18.7358 8.0491 18.7358 8.94021V8.94018ZM12.881 10.5346L12.4227 9.11733H14.1298V10.5346H12.881Z" fill="#229FFF"/>
</svg>
