<svg width="20" height="20" viewBox="0 0 20 20" fill="none" xmlns="http://www.w3.org/2000/svg">
<g clip-path="url(#clip0_42_14657)">
<path fill-rule="evenodd" clip-rule="evenodd" d="M17.4237 4.58838H13.2543V2.90828C13.2543 2.10831 12.6034 1.45752 11.8035 1.45752H7.54651C6.74653 1.45752 6.09571 2.10831 6.09571 2.90828V4.58838H1.92629C0.864106 4.58838 0 5.45252 0 6.51466V16.367C0 17.4292 0.864106 18.2933 1.92629 18.2933H17.4237C18.4859 18.2933 19.35 17.4292 19.35 16.367V6.51466C19.35 5.45252 18.4859 4.58838 17.4237 4.58838ZM7.32455 2.90828C7.32462 2.84944 7.34803 2.79303 7.38964 2.75143C7.43125 2.70982 7.48767 2.68642 7.54651 2.68636H11.8035C11.8623 2.68642 11.9187 2.70982 11.9603 2.75143C12.0019 2.79303 12.0253 2.84944 12.0254 2.90828V4.58838H7.32455V2.90828ZM1.22884 6.51466C1.22884 6.13008 1.5417 5.81722 1.92629 5.81722H17.4237C17.8083 5.81722 18.1212 6.13008 18.1212 6.51466V7.42405C18.1212 8.27702 17.5492 9.03924 16.7303 9.27768L10.304 11.1487C9.89322 11.2686 9.45675 11.2686 9.04597 11.1487L2.61974 9.27764C1.80079 9.03921 1.22884 8.27702 1.22884 7.42405V6.51466ZM17.4237 17.0645H1.92629C1.54174 17.0645 1.22884 16.7516 1.22884 16.3671V9.92585C1.53847 10.1652 1.89142 10.3455 2.2762 10.4575C9.37503 12.5244 9.01018 12.4675 9.67498 12.4675C10.3486 12.4675 9.96664 12.5268 17.0738 10.4575C17.4586 10.3455 17.8115 10.1652 18.1211 9.92585V16.367C18.1212 16.7516 17.8083 17.0645 17.4237 17.0645Z" fill="#229FFF"/>
</g>
<defs>
<clipPath id="clip0_42_14657">
<rect width="19.35" height="19.35" fill="white" transform="translate(0 0.200195)"/>
</clipPath>
</defs>
</svg>
