<svg width="20" height="20" viewBox="0 0 20 20" fill="none" xmlns="http://www.w3.org/2000/svg">
<g clip-path="url(#clip0_42_14660)">
<path fill-rule="evenodd" clip-rule="evenodd" d="M9.675 0C4.3402 0 0 4.34026 0 9.67506C0 15.0099 4.3402 19.35 9.675 19.35C15.0098 19.35 19.35 15.0099 19.35 9.67506C19.35 4.34026 15.0098 0 9.675 0ZM9.675 17.5909C5.31011 17.5909 1.75909 14.0399 1.75909 9.67506C1.75909 5.31023 5.31011 1.75909 9.675 1.75909C14.0399 1.75909 17.5909 5.31023 17.5909 9.67506C17.5909 14.0399 14.0398 17.5909 9.675 17.5909Z" fill="#229FFF"/>
<path fill-rule="evenodd" clip-rule="evenodd" d="M9.67489 4.10449C9.02836 4.10449 8.5024 4.63081 8.5024 5.27775C8.5024 5.9241 9.02836 6.44995 9.67489 6.44995C10.3214 6.44995 10.8474 5.9241 10.8474 5.27775C10.8474 4.63081 10.3214 4.10449 9.67489 4.10449ZM9.67501 8.20904C9.18926 8.20904 8.79546 8.60284 8.79546 9.08858V14.3659C8.79546 14.8516 9.18926 15.2454 9.67501 15.2454C10.1607 15.2454 10.5546 14.8516 10.5546 14.3659V9.08858C10.5546 8.60284 10.1607 8.20904 9.67501 8.20904Z" fill="#229FFF"/>
</g>
<defs>
<clipPath id="clip0_42_14660">
<rect width="19.35" height="19.35" fill="white"/>
</clipPath>
</defs>
</svg>
