<svg xmlns="http://www.w3.org/2000/svg" viewBox="0 0 70 66" id="new-technology"><path fill="#bbc3d2" d="M52.5 47.583a1.459 1.459 0 010-2.916c8.041 0 14.583-6.542 14.583-14.584 0-7.72-6.017-14.102-13.7-14.527a1.452 1.452 0 01-1.242-.84C49.055 8.105 42.33 3.833 35 3.833c-9.377 0-17.436 6.986-18.74 16.243a1.46 1.46 0 01-1.443 1.257c-6.668 0-11.9 5.233-11.9 11.667s5.232 11.667 11.666 11.667h1.459a1.459 1.459 0 010 2.916h-1.459C6.543 47.583 0 41.041 0 33c0-7.706 6.005-14.035 13.58-14.548C15.598 8.372 24.596.917 35 .917c8.17 0 15.695 4.602 19.405 11.795C63.219 13.636 70 21.106 70 30.083c0 9.652-7.849 17.5-17.5 17.5z"></path><path fill="#bbc3d2" d="M37.917 65.083h-5.834c-1.403 0-2.916-1.076-2.916-3.441v-3.85c0-1.71-.738-3.273-1.972-4.18-3.413-2.514-5.402-6.53-5.317-10.742.134-6.947 5.93-12.687 12.926-12.79 3.708-.046 6.919 1.296 9.442 3.786a12.927 12.927 0 013.879 9.26c0 4.087-1.969 7.992-5.27 10.445-1.263.945-2.022 2.53-2.022 4.241v4.355a2.918 2.918 0 01-2.916 2.916zM34.994 33h-.149c-5.346.079-9.951 4.626-10.05 9.928a10.122 10.122 0 004.13 8.333c1.977 1.456 3.158 3.897 3.158 6.53v3.85c0 .435.105.578.105.578l5.729-.052v-4.355c0-2.628 1.195-5.087 3.2-6.58 2.6-1.93 4.091-4.885 4.091-8.102 0-2.719-1.07-5.27-3.013-7.184a10.168 10.168 0 00-7.2-2.946z"></path><path fill="#bbc3d2" d="M39.375 59.25h-8.75a1.459 1.459 0 010-2.917h8.75a1.459 1.459 0 010 2.917z"></path></svg>