<svg width="31" height="31" viewBox="0 0 31 31" fill="none" xmlns="http://www.w3.org/2000/svg">
<g clip-path="url(#clip0_38_42)">
<path fill-rule="evenodd" clip-rule="evenodd" d="M15.4002 0.481445C7.16138 0.481445 0.481445 7.16378 0.481445 15.4002C0.481445 23.6414 7.16138 30.3189 15.4002 30.3189C23.639 30.3189 30.3189 23.6414 30.3189 15.4002C30.3189 7.16378 23.639 0.481445 15.4002 0.481445ZM15.4002 7.09863C16.7956 7.09863 17.9268 8.22981 17.9268 9.6252C17.9268 11.0206 16.7956 12.1518 15.4002 12.1518C14.0048 12.1518 12.8736 11.0206 12.8736 9.6252C12.8736 8.22981 14.0048 7.09863 15.4002 7.09863ZM18.7689 22.3783C18.7689 22.777 18.4457 23.1002 18.0471 23.1002H12.7533C12.3547 23.1002 12.0314 22.777 12.0314 22.3783V20.9346C12.0314 20.5359 12.3547 20.2127 12.7533 20.2127H13.4752V16.3627H12.7533C12.3547 16.3627 12.0314 16.0395 12.0314 15.6408V14.1971C12.0314 13.7984 12.3547 13.4752 12.7533 13.4752H16.6033C17.002 13.4752 17.3252 13.7984 17.3252 14.1971V20.2127H18.0471C18.4457 20.2127 18.7689 20.5359 18.7689 20.9346V22.3783Z" fill="white"/>
</g>
<defs>
<clipPath id="clip0_38_42">
<rect width="30.8" height="30.8" fill="white"/>
</clipPath>
</defs>
</svg>
