<svg width="40" height="45" viewBox="0 0 40 45" fill="none" xmlns="http://www.w3.org/2000/svg">
<g clip-path="url(#clip0_40_3342)">
<path fill-rule="evenodd" clip-rule="evenodd" d="M39.6659 14.313C39.5728 12.2012 39.2313 10.7494 38.7421 9.49132C38.2375 8.15595 37.4612 6.96042 36.4442 5.96653C35.4504 4.95719 34.2471 4.17285 32.9273 3.6761C31.6622 3.18695 30.2181 2.84533 28.1066 2.75231C25.9792 2.65122 25.3039 2.62793 19.9085 2.62793C14.5131 2.62793 13.8377 2.65122 11.7183 2.74439C9.60678 2.83756 8.15514 3.17934 6.89758 3.66818C5.562 4.17285 4.36662 4.94927 3.37285 5.96653C2.36363 6.96035 1.57978 8.1638 1.0827 9.48371C0.593619 10.7494 0.252115 12.1934 0.159035 14.3051C0.0580352 16.4327 0.034668 17.1081 0.034668 22.5043C0.034668 27.9004 0.0580352 28.5758 0.151116 30.6955C0.244275 32.8073 0.586011 34.2591 1.07517 35.5172C1.57978 36.8525 2.36363 38.0481 3.37285 39.042C4.36662 40.0513 5.56991 40.8357 6.88966 41.3324C8.15506 41.8216 9.59886 42.1632 11.7108 42.2562C13.8298 42.3497 14.5055 42.3727 19.901 42.3727C25.2964 42.3727 25.9717 42.3497 28.0911 42.2562C30.2027 42.1631 31.6543 41.8216 32.9119 41.3324C34.2327 40.8217 35.4322 40.0406 36.4335 39.0392C37.4349 38.0377 38.216 36.8381 38.7267 35.5172C39.2155 34.2515 39.5573 32.8073 39.6504 30.6955C39.7436 28.5758 39.7669 27.9004 39.7669 22.5043C39.7669 17.1081 39.7589 16.4327 39.6659 14.313ZM36.0872 30.5402C36.0017 32.4812 35.6757 33.5294 35.404 34.2282C34.7362 35.9596 33.3622 37.3339 31.6309 38.0017C30.9322 38.2735 29.8767 38.5995 27.9434 38.6847C25.8473 38.7781 25.2188 38.8011 19.9164 38.8011C14.6141 38.8011 13.9775 38.7781 11.889 38.6847C9.94821 38.5995 8.90018 38.2735 8.20149 38.0017C7.34 37.6832 6.55584 37.1786 5.91926 36.5186C5.25939 35.8742 4.75478 35.0978 4.43633 34.2361C4.16462 33.5373 3.83864 32.4812 3.75348 30.5481C3.66001 28.4518 3.63703 27.8227 3.63703 22.5197C3.63703 17.2167 3.66001 16.5801 3.75348 14.4917C3.83864 12.5506 4.16462 11.5025 4.43633 10.8037C4.75478 9.94172 5.25939 9.15761 5.92718 8.52079C6.57121 7.86084 7.34753 7.35616 8.20941 7.03807C8.90809 6.76632 9.96405 6.44022 11.8969 6.35474C13.993 6.26157 14.622 6.23828 19.9239 6.23828C25.2342 6.23828 25.8628 6.26157 27.9513 6.35474C29.8921 6.4403 30.9402 6.76624 31.6389 7.03799C32.5003 7.35616 33.2846 7.86084 33.9211 8.52079C34.581 9.1653 35.0856 9.94172 35.404 10.8037C35.6757 11.5025 36.0017 12.5582 36.0872 14.4917C36.1803 16.588 36.2036 17.2167 36.2036 22.5197C36.2036 27.8227 36.1804 28.4439 36.0872 30.5402Z" fill="#C13584"/>
<path fill-rule="evenodd" clip-rule="evenodd" d="M19.9088 12.294C14.2729 12.294 9.7002 16.867 9.7002 22.5039C9.7002 28.1409 14.2729 32.7138 19.9088 32.7138C25.5449 32.7138 30.1174 28.1409 30.1174 22.5039C30.1174 16.867 25.5449 12.294 19.9088 12.294ZM19.9088 29.1268C16.2525 29.1268 13.2866 26.161 13.2866 22.5039C13.2866 18.8468 16.2525 15.8811 19.9087 15.8811C23.5654 15.8811 26.5308 18.8468 26.5308 22.5039C26.5308 26.161 23.5653 29.1268 19.9088 29.1268ZM32.9046 11.8903C32.9046 13.2066 31.8374 14.2739 30.521 14.2739C29.2049 14.2739 28.1377 13.2066 28.1377 11.8903C28.1377 10.5738 29.2049 9.50684 30.521 9.50684C31.8374 9.50684 32.9046 10.5737 32.9046 11.8903Z" fill="#C13584"/>
</g>
<defs>
<clipPath id="clip0_40_3342">
<rect width="39.67" height="45" fill="white"/>
</clipPath>
</defs>
</svg>
