<svg width="24" height="23" viewBox="0 0 24 23" fill="none" xmlns="http://www.w3.org/2000/svg">
<g clip-path="url(#clip0_34_16)">
<path fill-rule="evenodd" clip-rule="evenodd" d="M23.6465 22.379L20.9651 0.392758C20.9519 0.28441 20.8995 0.184646 20.8178 0.112291C20.7361 0.0399361 20.6307 -6.51414e-06 20.5215 7.9685e-10L3.89804 7.9685e-10C3.78889 -6.51414e-06 3.68351 0.0399361 3.60179 0.112291C3.52007 0.184646 3.46765 0.28441 3.45443 0.392758L0.773053 22.379C0.765407 22.4418 0.771175 22.5054 0.789974 22.5658C0.808773 22.6262 0.840176 22.6819 0.882107 22.7293C0.924037 22.7767 0.975541 22.8146 1.03321 22.8405C1.09089 22.8665 1.15341 22.8799 1.21666 22.88H23.2029C23.2661 22.8799 23.3286 22.8665 23.3863 22.8405C23.444 22.8146 23.4955 22.7766 23.5374 22.7293C23.5793 22.6819 23.6107 22.6262 23.6295 22.5658C23.6483 22.5054 23.6541 22.4418 23.6465 22.379ZM12.3663 0.893748V2.68124H11.4725V0.893748H12.3663ZM4.29375 0.893748H5.23111L4.42182 9.3958C4.39845 9.64149 4.57868 9.85961 4.82437 9.88298C4.83876 9.88432 4.85306 9.88503 4.86722 9.88503C5.09495 9.88503 5.28956 9.71174 5.31155 9.48043L6.12893 0.893748H10.5788V3.12812C10.5788 3.37488 10.7789 3.57499 11.0257 3.57499H12.8132C13.0599 3.57499 13.2601 3.37488 13.2601 3.12812V0.893748H18.2907L20.2984 21.9862H4.12126L4.9305 13.4842C4.95387 13.2385 4.77365 13.0204 4.52796 12.997C4.28222 12.9741 4.0641 13.1538 4.04077 13.3996L3.22344 21.9862H1.72136L4.29375 0.893748ZM21.1962 21.9862L19.1885 0.893748H20.1259L22.6982 21.9862H21.1962Z" fill="#FAD826"/>
<path fill-rule="evenodd" clip-rule="evenodd" d="M11.0255 11.6185H12.813C13.0598 11.6185 13.2599 11.4184 13.2599 11.1717V5.80918C13.2599 5.56241 13.0598 5.3623 12.813 5.3623H11.0255C10.7787 5.3623 10.5786 5.56241 10.5786 5.80918V11.1717C10.5786 11.4185 10.7787 11.6185 11.0255 11.6185ZM11.4724 6.25605H12.3661V10.7248H11.4724V6.25605ZM11.0255 20.5562H12.813C13.0598 20.5562 13.2599 20.356 13.2599 20.1093V13.853C13.2599 13.6062 13.0598 13.4061 12.813 13.4061H11.0255C10.7787 13.4061 10.5786 13.6062 10.5786 13.853V20.1093C10.5786 20.3561 10.7787 20.5562 11.0255 20.5562ZM11.4724 14.2999H12.3661V19.6624H11.4724V14.2999ZM4.67601 11.8866C4.92278 11.8866 5.12289 11.6865 5.12289 11.4397C5.12289 11.1929 4.92278 10.9928 4.67601 10.9928H4.6757C4.42894 10.9928 4.229 11.1929 4.229 11.4397C4.229 11.6865 4.42925 11.8866 4.67601 11.8866Z" fill="#FAD826"/>
</g>
<defs>
<clipPath id="clip0_34_16">
<rect width="22.88" height="22.88" fill="white" transform="translate(0.769775)"/>
</clipPath>
</defs>
</svg>
