<svg width="22" height="22" viewBox="0 0 22 22" fill="none" xmlns="http://www.w3.org/2000/svg">
<path fill-rule="evenodd" clip-rule="evenodd" d="M21.9323 12.968L20.4941 10.724C20.6921 10.5512 20.8852 10.372 21.0722 10.185C21.124 10.1331 21.1587 10.0666 21.1715 9.99438C21.1843 9.92219 21.1747 9.8478 21.1439 9.78125L18.7227 4.53955C18.6984 4.48725 18.6619 4.44158 18.6162 4.40641C18.5705 4.37125 18.517 4.34762 18.4602 4.33755C18.4034 4.32747 18.3451 4.33124 18.29 4.34853C18.235 4.36582 18.185 4.39613 18.1442 4.43688C17.1513 5.43167 15.9713 6.22008 14.6723 6.75666C13.3742 7.29588 11.9822 7.57281 10.5766 7.57147H0.362506C0.240283 7.57147 0.126617 7.63381 0.0606168 7.73647C0.0239566 7.79419 0.00458857 7.8612 0.00480194 7.92958H0.00439453V12.0684C0.00439453 12.1202 0.0153945 12.1715 0.0373945 12.2188L2.45862 17.4601C2.48719 17.5222 2.53337 17.5748 2.59091 17.6117C2.64846 17.6486 2.71537 17.6682 2.78373 17.6683H21.6373C21.7323 17.6683 21.8234 17.6305 21.8905 17.5634C21.9577 17.4962 21.9954 17.4051 21.9954 17.3101V13.1709C21.9956 13.0984 21.9736 13.0276 21.9323 12.968ZM0.720617 9.55881L2.42562 13.2499V13.6532L0.720617 9.96214V9.55881ZM3.45025 8.28769H8.96736L9.43099 9.29114C8.53795 9.43821 7.45384 9.76169 7.45384 10.4665C7.45384 11.4907 9.72065 11.7136 10.5717 11.7613L11.0578 12.8128H6.02669C5.76717 11.9996 4.52132 11.419 2.92551 11.419C2.74217 11.419 2.56006 11.428 2.38039 11.4443L1.49754 9.53232C2.51932 9.33066 3.24002 8.86906 3.45025 8.28769ZM10.2295 11.0198C9.00932 10.9138 8.3208 10.6311 8.18391 10.4673C8.29025 10.3463 8.7661 10.106 9.74388 9.96825L10.2295 11.0198ZM11.2598 14.8857H3.14184V14.609H11.2598V14.8857ZM3.01269 12.8128L2.70225 12.141C2.77639 12.1377 2.85095 12.1357 2.92551 12.1357C4.07154 12.1357 4.88106 12.4697 5.20454 12.8128H3.01269ZM11.2598 13.8928H3.14184V13.529H11.2598V13.8928ZM3.14184 15.6023H11.2598V15.8887H3.14184V15.6023ZM11.9761 13.529C11.9761 13.529 13.1702 13.5282 13.2561 13.5261V16.952H11.9761V13.529ZM13.9724 15.6023H21.2792V15.8887H13.9724V15.6023ZM13.9724 14.8857V14.609H21.2792V14.8857H13.9724ZM13.9724 13.8928V13.529H21.2792V13.8928H13.9724ZM20.9822 12.8128H16.977C18.039 12.4189 19.0363 11.8686 19.9356 11.1799L20.9822 12.8128ZM19.1521 10.8666C18.9916 10.3418 19.3526 9.62399 20.0358 9.09029L20.3878 9.85214C19.9995 10.2229 19.5872 10.561 19.1521 10.8666ZM18.2827 5.29569L18.5801 5.93981C17.9279 6.26573 17.318 6.40425 16.8768 6.39325C17.3734 6.06467 17.8434 5.6977 18.2827 5.29569ZM14.9465 7.41869C15.3142 7.26604 15.6739 7.09456 16.0241 6.90495C16.2693 7.04144 16.5814 7.10866 16.9354 7.10866C17.5082 7.10866 18.1915 6.93266 18.8812 6.59084L19.7286 8.42581C18.638 9.20762 18.1369 10.3887 18.5398 11.2662C18.0769 11.5464 17.5934 11.7912 17.0935 11.9984C16.0534 12.4302 14.9514 12.6942 13.8285 12.7806L13.279 11.5914C14.667 11.3143 14.9754 10.8364 14.9754 10.4665C14.9754 9.52744 13.0435 9.26344 12.1712 9.19255L11.7263 8.22984C12.8337 8.11872 13.9186 7.84542 14.9465 7.41869ZM12.5191 9.94625C13.6147 10.0774 14.1325 10.3418 14.2445 10.4669C14.15 10.5741 13.7662 10.779 12.9689 10.92L12.5191 9.94625ZM10.9604 8.28036L13.0541 12.8124L12.9978 12.8128H11.8469L9.75651 8.28769H10.5766C10.705 8.28769 10.8329 8.28484 10.9604 8.28036ZM2.6008 8.28769C2.34536 8.52725 1.8528 8.75295 1.18669 8.8601L0.922283 8.28769H2.6008ZM0.720617 11.6704L2.42562 15.3611V15.6805L0.720617 11.9894V11.6704ZM3.14184 16.6049H11.2598V16.952H3.14184V16.6049ZM13.9724 16.952V16.6049H21.2792V16.952H13.9724Z" fill="#333333"/>
</svg>
