<svg fill="#969ba4" xmlns="http://www.w3.org/2000/svg" viewBox="0 0 41 40" id="motorbike-1"><path fill="#969ba4" d="M34.471 17a.48.48 0 01-.128-.017l-5.398-1.433a.5.5 0 01-.25-.154l-2.5-2.866a.5.5 0 01.056-.712L29.32 9.25a.5.5 0 01.643 0c.143.12 3.518 3 4.98 7.078a.5.5 0 01-.47.672zm-5.121-2.377l4.283 1.136a18.414 18.414 0 00-4.006-5.459l-2.34 1.96 2.063 2.363z"></path><path fill="#969ba4" d="M27.139 27.16h-12.23a.5.5 0 010-1h11.7a3.823 3.823 0 012.364-3.793l.182-.073c.276-.112.553-.223.825-.345l2.256-1.01 3.173-1.346a11.378 11.378 0 00-1.35-2.82.5.5 0 01.835-.55c.059.088 1.418 2.167 1.579 3.619a.5.5 0 01-.3.515l-3.533 1.5-2.25 1.006c-.283.127-.57.243-.858.36l-.18.072c-.742.3-1.95 1.132-1.711 3.311a.5.5 0 01-.497.555l-.005-.002z"></path><path d="M17.995 24.823h-3.488a.5.5 0 010-1h2.386l-2.143-2.44c-3.487-.372-10.267-5.695-10.56-5.925a.5.5 0 01.31-.893h6.946a.5.5 0 01.34.133l2.243 2.082 9.689 1.641 5.058-3.757a.5.5 0 11.596.8l-5.23 3.886a.5.5 0 01-.381.092l-10.047-1.7a.5.5 0 01-.257-.127l-2.207-2.05H5.99c2.15 1.583 6.7 4.727 9.027 4.836a.497.497 0 01.35.17l3.002 3.423a.5.5 0 01-.376.83h.002z"></path><path d="M10.884 30.697a4.556 4.556 0 11-.001-9.111 4.556 4.556 0 010 9.111zm0-8.11a3.555 3.555 0 10-.001 7.11 3.555 3.555 0 000-7.11zM32.91 30.864a4.09 4.09 0 11.001-8.179 4.09 4.09 0 010 8.18zm0-7.179a3.089 3.089 0 100 6.178 3.089 3.089 0 000-6.178z"></path><path fill="#969ba4" d="M11.28 25.986a.5.5 0 01-.284-.913l4.838-3.31a.5.5 0 11.564.826L11.561 25.9a.5.5 0 01-.281.086zM17.975 20.692c-1.495 0-3.113-.963-3.406-1.146a1.925 1.925 0 01-1.24-2.476.5.5 0 01.936.35c-.068.195-.217.85.711 1.21a.477.477 0 01.091.046c.555.357 2.236 1.228 3.35.966a1.251 1.251 0 00.825-.604l.5-.945a.502.502 0 01.827-.086.502.502 0 01.057.553l-.511.969a2.25 2.25 0 01-1.471 1.088c-.22.05-.444.075-.669.075z"></path><path d="M18.119 18.48a.5.5 0 01-.495-.573c.404-2.76 2.824-3.322 4.091-3.234 4.217-.358 5.041 2.19 5.074 2.3a.5.5 0 01-.955.295c-.031-.09-.683-1.9-4.071-1.594a.494.494 0 01-.086 0c-.107-.008-2.69-.176-3.064 2.38a.5.5 0 01-.494.426zM32.855 26.63a.5.5 0 01-.405-.206l-2.69-3.715a.502.502 0 01.103-.71.5.5 0 01.706.123l2.69 3.715a.501.501 0 01-.404.794z"></path></svg>