<svg width="151" height="37" viewBox="0 0 151 37" fill="none" xmlns="http://www.w3.org/2000/svg">
<g clip-path="url(#clip0_41_2)">
<path fill-rule="evenodd" clip-rule="evenodd" d="M36.992 19.2906L40.1481 22.0496L47.4165 15.5908C47.4689 16.7891 47.5439 17.7561 47.5313 18.7218C47.5281 18.9717 47.2975 19.2703 47.0907 19.4578C44.9295 21.4176 42.7592 23.3676 40.5639 25.2887C40.4028 25.4296 39.9292 25.445 39.766 25.3138C38.875 24.5964 38.0231 23.8282 37.1878 23.0454C36.9853 22.8558 36.7865 22.5511 36.7735 22.2898C36.7248 21.3197 36.7541 20.3456 36.7541 19.3731L36.992 19.2906Z" fill="#009966"/>
<path fill-rule="evenodd" clip-rule="evenodd" d="M42.1432 30.0648C36.7307 30.0648 32.3274 25.6615 32.3274 20.249C32.3274 14.8364 36.7307 10.4331 42.1432 10.4331C47.5558 10.4331 51.9591 14.8364 51.9591 20.249C51.9591 25.6615 47.5558 30.0648 42.1432 30.0648ZM42.1432 12.3819C37.8053 12.3819 34.2761 15.911 34.2761 20.249C34.2761 24.5869 37.8053 28.1161 42.1432 28.1161C46.4811 28.1161 50.0103 24.5869 50.0103 20.249C50.0103 15.911 46.4811 12.3819 42.1432 12.3819Z" fill="#009966"/>
<path fill-rule="evenodd" clip-rule="evenodd" d="M32.1191 25.6612H26.6567C25.5742 25.6614 24.4915 25.6662 23.409 25.6617C22.6585 25.6584 21.8443 25.4982 21.7995 26.6789C21.7934 26.8392 21.3095 27.1008 21.0388 27.1114C19.5622 27.1698 18.0831 27.1685 16.6048 27.1792C15.8958 27.1843 15.5859 26.845 15.5924 26.1114C15.6202 22.9742 15.5771 19.8357 15.6535 16.6998C15.6691 16.0606 15.9902 15.3681 16.3464 14.8133C16.765 14.1615 16.7563 13.8255 16.014 13.4998C15.5338 13.2891 14.8118 13.1735 15.0457 12.3277C15.2455 11.6053 15.6126 11.0809 16.459 11.1029C16.566 11.1058 16.679 11.0488 16.7804 11.0679C18.9477 11.4773 20.2766 10.3559 21.3112 8.63679C22.0946 7.33518 23.3101 6.87482 24.7923 6.89517C29.2999 6.95689 33.8085 6.99565 38.3168 7.02163C39.6652 7.02943 40.3882 7.82347 40.9936 8.92608C40.2724 9.39597 39.6899 9.28164 39.0812 8.81652C38.7882 8.59262 38.395 8.37153 38.0457 8.36936C33.753 8.34251 29.4606 8.37045 25.1682 8.35118C23.964 8.34576 23.0474 8.70846 22.3365 9.75369C21.5533 10.9052 20.6155 11.9516 19.5973 13.2293H33.257C30.6035 17.0932 30.196 21.1109 32.1191 25.6612ZM20.6386 18.4395L20.6378 18.5259C21.214 18.5259 21.7969 18.4698 22.3647 18.5386C23.2815 18.6497 23.5043 18.2186 23.4209 17.4131C23.3413 16.6418 22.906 16.2628 22.175 16.1569C20.8586 15.9659 19.5453 15.7453 18.2234 15.6061C17.9421 15.5764 17.4633 15.7639 17.3596 15.9848C16.8131 17.148 17.5393 18.2844 18.8037 18.3481C19.4154 18.3788 20.0271 18.4089 20.6386 18.4395Z" fill="#0088E0"/>
</g>
<path d="M57.9328 23.9102V15.2144H61.4881C62.4241 15.2144 63.1676 15.4258 63.7187 15.8485C64.2697 16.2712 64.5452 16.8298 64.5452 17.5242C64.5452 18.0526 64.3886 18.4621 64.0753 18.7527C63.7621 19.0396 63.3601 19.2339 62.8695 19.3358C63.1903 19.3811 63.5017 19.4944 63.8036 19.6755C64.1093 19.8567 64.3622 20.1058 64.5622 20.4228C64.7622 20.7361 64.8622 21.121 64.8622 21.5777C64.8622 22.0231 64.749 22.4212 64.5226 22.7722C64.2961 23.1232 63.9715 23.4006 63.5488 23.6044C63.1261 23.8083 62.6204 23.9102 62.0316 23.9102H57.9328ZM59.201 22.6873H62.0316C62.4921 22.6873 62.8525 22.5779 63.1129 22.359C63.3733 22.1401 63.5035 21.8419 63.5035 21.4645C63.5035 21.0154 63.3733 20.6625 63.1129 20.4058C62.8525 20.1454 62.4921 20.0152 62.0316 20.0152H59.201V22.6873ZM59.201 18.8603H61.4881C61.8467 18.8603 62.1543 18.8112 62.4109 18.7131C62.6676 18.6112 62.8638 18.4678 62.9997 18.2828C63.1393 18.0941 63.2092 17.8714 63.2092 17.6148C63.2092 17.2487 63.0563 16.9619 62.7506 16.7543C62.4449 16.5429 62.0241 16.4373 61.4881 16.4373H59.201V18.8603ZM77.1883 18.9509V20.1964H72.3875V18.9509H77.1883ZM72.7045 15.2144V23.9102H71.3685V15.2144H72.7045ZM78.2073 15.2144V23.9102H76.8713V15.2144H78.2073ZM83.2062 24.114C82.6552 24.114 82.1551 24.0102 81.706 23.8026C81.2569 23.5912 80.9002 23.2874 80.636 22.8911C80.3718 22.4911 80.2397 22.008 80.2397 21.4418C80.2397 20.9436 80.3379 20.5398 80.5341 20.2303C80.7304 19.9171 80.9927 19.6717 81.321 19.4944C81.6494 19.317 82.0117 19.1849 82.408 19.0981C82.8081 19.0075 83.21 18.9358 83.6138 18.8829C84.1422 18.815 84.5706 18.764 84.899 18.7301C85.2311 18.6923 85.4726 18.6301 85.6236 18.5433C85.7783 18.4564 85.8557 18.3055 85.8557 18.0904V18.0451C85.8557 17.4865 85.7029 17.0524 85.3972 16.743C85.0952 16.4335 84.6367 16.2787 84.0215 16.2787C83.3836 16.2787 82.8835 16.4184 82.5212 16.6977C82.1589 16.977 81.9041 17.2751 81.7569 17.5922L80.4888 17.1393C80.7153 16.6109 81.0172 16.1995 81.3946 15.9051C81.7758 15.6069 82.191 15.3994 82.6401 15.2824C83.093 15.1616 83.5384 15.1012 83.9762 15.1012C84.2555 15.1012 84.5763 15.1352 84.9386 15.2031C85.3047 15.2673 85.6576 15.4012 85.9973 15.605C86.3407 15.8089 86.6257 16.1164 86.8521 16.5278C87.0786 16.9392 87.1918 17.4903 87.1918 18.1809V23.9102H85.8557V22.7326H85.7878C85.6972 22.9213 85.5462 23.1232 85.3349 23.3384C85.1235 23.5535 84.8423 23.7365 84.4913 23.8875C84.1403 24.0385 83.712 24.114 83.2062 24.114ZM83.41 22.9138C83.9384 22.9138 84.3838 22.81 84.7461 22.6024C85.1122 22.3948 85.3877 22.1269 85.5727 21.7985C85.7614 21.4701 85.8557 21.1248 85.8557 20.7625V19.5396C85.7991 19.6076 85.6746 19.6699 85.4821 19.7265C85.2934 19.7793 85.0745 19.8265 84.8254 19.868C84.58 19.9057 84.3404 19.9397 84.1064 19.9699C83.8762 19.9963 83.6893 20.019 83.5459 20.0378C83.1987 20.0831 82.8741 20.1567 82.5722 20.2586C82.274 20.3568 82.0325 20.5058 81.8475 20.7059C81.6664 20.9021 81.5758 21.1701 81.5758 21.5098C81.5758 21.974 81.7475 22.325 82.091 22.5628C82.4382 22.7968 82.8779 22.9138 83.41 22.9138ZM88.8604 23.9102V22.6647H89.1775C89.4379 22.6647 89.6549 22.6137 89.8285 22.5118C90.0021 22.4061 90.1418 22.2231 90.2475 21.9627C90.3569 21.6985 90.4399 21.3324 90.4966 20.8644C90.5569 20.3926 90.6003 19.7925 90.6268 19.0641L90.7853 15.2144H96.5824V23.9102H95.2464V16.4599H92.0534L91.9175 19.5623C91.8873 20.2756 91.8232 20.904 91.7251 21.4475C91.6307 21.9872 91.4854 22.4401 91.2891 22.8062C91.0967 23.1723 90.84 23.4478 90.5192 23.6328C90.1984 23.8177 89.7964 23.9102 89.3133 23.9102H88.8604ZM100.37 21.94L104.559 15.2144H106.099V23.9102H104.763V17.1845L100.596 23.9102H99.0338V15.2144H100.37V21.94ZM115.249 15.2144V23.9102H113.913V15.2144H115.249ZM114.728 19.3585V20.604C114.426 20.7172 114.126 20.8172 113.828 20.904C113.53 20.987 113.217 21.0531 112.888 21.1022C112.56 21.1474 112.2 21.1701 111.807 21.1701C110.822 21.1701 110.031 20.904 109.435 20.3719C108.842 19.8397 108.546 19.0414 108.546 17.9771V15.1918H109.882V17.9771C109.882 18.4225 109.967 18.7886 110.137 19.0754C110.307 19.3623 110.537 19.5755 110.828 19.7151C111.118 19.8548 111.445 19.9246 111.807 19.9246C112.373 19.9246 112.885 19.8737 113.341 19.7718C113.802 19.6661 114.264 19.5283 114.728 19.3585ZM119.037 21.94L123.226 15.2144H124.766V23.9102H123.43V17.1845L119.263 23.9102H117.7V15.2144H119.037V21.94ZM128.549 21.94L132.738 15.2144H134.278V23.9102H132.942V17.1845L128.775 23.9102H127.213V15.2144H128.549V21.94Z" fill="#7B7B7B"/>
<defs>
<clipPath id="clip0_41_2">
<rect width="36.96" height="36.96" fill="white" transform="translate(15)"/>
</clipPath>
</defs>
</svg>
