<svg xmlns="http://www.w3.org/2000/svg" viewBox="0 0 16 16" id="lot-r"><path d="M0 8a8 8 0 1116 0A8 8 0 010 8z" fill="#84B156"></path><path d="M9.993 12.55l-1.755-2.535H6.301v2.535H4.195v-9.1h3.94c.805 0 1.503.135 2.092.403.598.269 1.058.65 1.378 1.144.321.494.481 1.08.481 1.755 0 .676-.164 1.261-.494 1.755-.32.486-.78.858-1.378 1.118l2.041 2.925H9.993zm-.039-5.798c0-.511-.164-.901-.494-1.17-.329-.277-.81-.416-1.443-.416H6.301v3.172h1.716c.633 0 1.114-.138 1.443-.416.33-.277.494-.667.494-1.17z" fill="#fff"></path></svg>