<svg xmlns:xlink="http://www.w3.org/1999/xlink" fill="#888" xmlns="http://www.w3.org/2000/svg" data-v-52bcbc87="" class="icon-svg mb-0" style="font-size: 1.1em;" width="25"  height="24" ><defs><svg viewBox="0 0 25 24" style="enable-background:new 0 0 25 24" xml:space="preserve" id="share" xmlns="http://www.w3.org/2000/svg"><path d="M19.3 15.6c-1.4 0-2.6.7-3.4 1.7l-6.6-3.4c.1-.4.2-.8.2-1.2 0-.6-.1-1.1-.3-1.6L16.1 7c.8.9 1.9 1.5 3.2 1.5 2.3 0 4.2-1.9 4.2-4.2S21.7 0 19.3 0c-2.3 0-4.2 1.9-4.2 4.2 0 .5.1 1.1.3 1.5l-7 4.2C7.7 9 6.5 8.5 5.3 8.5c-2.3 0-4.2 1.9-4.2 4.2s1.9 4.2 4.2 4.2c1.4 0 2.7-.7 3.4-1.8l6.6 3.4c-.1.4-.2.8-.2 1.3 0 2.3 1.9 4.2 4.2 4.2 2.3 0 4.2-1.9 4.2-4.2s-1.8-4.2-4.2-4.2zm0-14.2c1.6 0 2.8 1.3 2.8 2.8S20.9 7 19.3 7c-1.6 0-2.8-1.3-2.8-2.8s1.3-2.8 2.8-2.8zm-14 14.1c-1.6 0-2.8-1.3-2.8-2.8s1.3-2.8 2.8-2.8 2.8 1.3 2.8 2.8-1.3 2.8-2.8 2.8zm14 7.1c-1.6 0-2.8-1.3-2.8-2.8 0-1.6 1.3-2.8 2.8-2.8 1.6 0 2.8 1.3 2.8 2.8 0 1.5-1.2 2.8-2.8 2.8z"></path></svg></defs><use data-v-52bcbc87="" xlink:href="#share"></use></svg>