<svg xmlns="http://www.w3.org/2000/svg" viewBox="0 0 60 70" id="guard"><path fill="#bbc3d2" d="M58.71 9.147a1.414 1.414 0 00-1.088-.395 72.162 72.162 0 01-4.159.127C42.14 8.879 36.653 5.77 31.005.4a1.458 1.458 0 00-2.01 0C23.347 5.77 17.861 8.88 6.535 8.88c-1.305 0-2.705-.043-4.158-.129a1.505 1.505 0 00-1.087.396 1.47 1.47 0 00-.456 1.063v30.054C.834 56.662 13.918 70 30 70c16.081 0 29.167-13.338 29.167-29.737V10.21a1.46 1.46 0 00-.457-1.062zm-2.46 31.117c0 14.538-12.021 26.82-26.25 26.82S3.75 54.804 3.75 40.265V11.74c13.433.545 20.081-2.714 26.25-8.292 6.169 5.582 12.833 8.834 26.25 8.292v28.524z"></path><path fill="#bbc3d2" d="M28.983 7.36a1.465 1.465 0 00-1.631.547c-2.8 3.948-10.002 6.445-19.263 6.677-.79.02-1.422.666-1.422 1.458v20.416c0 .807.653 1.459 1.458 1.459h20.417c.805 0 1.458-.652 1.456-1.459V8.75a1.46 1.46 0 00-1.015-1.39zM27.084 35h-17.5V17.446c7.543-.373 13.656-2.193 17.5-5.15V35zM52.395 40.834H31.458c-.805 0-1.458.651-1.458 1.458V61.19a1.455 1.455 0 001.609 1.45c12.185-1.282 20.912-9.202 22.233-20.175a1.455 1.455 0 00-1.447-1.632zm-19.478 18.69V43.75h17.768c-1.696 8.251-8.44 14.248-17.768 15.773z"></path></svg>