<svg xmlns="http://www.w3.org/2000/svg" fill="rgb(133 138 150)" viewBox="0 0 24 21" id="speedometer"><path d="M22.597 17.726l-21.224-.103-.082-.303c-.205-.75-.318-1.715-.313-2.65a10.929 10.929 0 013.265-7.767A10.962 10.962 0 0112 3.726h.052a10.965 10.965 0 017.777 3.255 10.937 10.937 0 013.194 7.803c-.005.945-.123 1.88-.34 2.639l-.086.303zm-20.587-.92l19.96.093c.144-.626.227-1.381.232-2.12.025-5.617-4.529-10.207-10.155-10.232h-.051a10.143 10.143 0 00-7.178 2.942 10.114 10.114 0 00-3.024 7.187c0 .744.077 1.504.216 2.13z"></path><path d="M12 7.643a.412.412 0 01-.41-.411V5.486c0-.225.185-.41.41-.41.226 0 .411.185.411.41v1.746c0 .226-.185.41-.41.41zM8.375 8.67a.397.397 0 01-.354-.206L7.154 6.96a.41.41 0 01.708-.411l.868 1.504a.41.41 0 01-.355.616zM5.743 11.36a.376.376 0 01-.206-.057l-1.504-.868a.41.41 0 01.41-.708l1.505.867a.41.41 0 01-.205.765zM4.761 15.036H3.067a.412.412 0 01-.41-.411c0-.226.184-.41.41-.41h1.694c.226 0 .41.184.41.41 0 .226-.184.41-.41.41zM21.14 14.881h-1.746a.412.412 0 01-.41-.41c0-.226.184-.411.41-.411h1.746c.226 0 .41.185.41.41 0 .226-.184.411-.41.411zM18.377 11.22a.397.397 0 01-.354-.205.41.41 0 01.149-.56l1.504-.867a.41.41 0 01.41.709l-1.504.867a.427.427 0 01-.205.057zM15.677 8.566a.41.41 0 01-.354-.616l.867-1.504a.41.41 0 01.708.41l-.862 1.505a.411.411 0 01-.36.205zM12 15.795a1.604 1.604 0 01-1.602-1.602c0-.883.72-1.602 1.602-1.602.883 0 1.602.719 1.602 1.602A1.6 1.6 0 0112 15.795zm0-2.382a.78.78 0 100 1.56.78.78 0 000-1.56z"></path><path d="M12.698 13.639a.422.422 0 01-.287-.118.408.408 0 01-.005-.58l2.752-2.809a.407.407 0 01.58-.005c.164.16.164.421.005.58l-2.752 2.809a.417.417 0 01-.293.123z"></path></svg>