<svg width="22" height="22" viewBox="0 0 22 22" fill="none" xmlns="http://www.w3.org/2000/svg">
<g clip-path="url(#clip0_26_2)">
<path d="M11 0.34375C5.11328 0.34375 0.34375 5.11328 0.34375 11C0.34375 16.8867 5.11328 21.6562 11 21.6562C16.8867 21.6562 21.6562 16.8867 21.6562 11C21.6562 5.11328 16.8867 0.34375 11 0.34375ZM16.2336 7.64414L14.4848 15.8855C14.3559 16.4699 14.0078 16.6117 13.5223 16.3367L10.8582 14.373L9.57344 15.6105C9.43164 15.7523 9.31133 15.8727 9.03633 15.8727L9.22539 13.1613L14.1625 8.70117C14.3773 8.51211 14.1152 8.40469 13.8316 8.59375L7.73008 12.4352L5.10039 11.6145C4.52891 11.434 4.51602 11.043 5.2207 10.768L15.4945 6.80625C15.9715 6.63437 16.3883 6.92227 16.2336 7.64414Z" fill="#229FFF"/>
</g>
<defs>
<clipPath id="clip0_26_2">
<rect width="22" height="22" fill="white"/>
</clipPath>
</defs>
</svg>
