<svg width="40" height="45" viewBox="0 0 40 45" fill="none" xmlns="http://www.w3.org/2000/svg">
<g clip-path="url(#clip0_40_3345)">
<path fill-rule="evenodd" clip-rule="evenodd" d="M19.835 2.66211C8.87776 2.66211 0 11.541 0 22.4996C0 33.4582 8.87776 42.3371 19.835 42.3371C30.7922 42.3371 39.67 33.4582 39.67 22.4996C39.67 11.541 30.7922 2.66211 19.835 2.66211ZM29.5765 16.2524L26.3214 31.5945C26.0814 32.6823 25.4336 32.9463 24.5298 32.4344L19.5711 28.7788L17.1797 31.0825C16.9157 31.3465 16.6918 31.5705 16.1799 31.5705L16.5318 26.5231L25.7215 18.2201C26.1214 17.8682 25.6335 17.6682 25.1057 18.0202L13.7485 25.1713L8.85377 23.6435C7.79004 23.3075 7.76604 22.5796 9.07771 22.0677L28.2009 14.6926C29.0887 14.3726 29.8645 14.9086 29.5765 16.2524Z" fill="#2CA5E0"/>
</g>
<defs>
<clipPath id="clip0_40_3345">
<rect width="39.67" height="45" fill="white"/>
</clipPath>
</defs>
</svg>
