<svg xmlns="http://www.w3.org/2000/svg" fill="rgb(133 138 150)" viewBox="0 0 20 21" id="drive"><path d="M3.333.865a.403.403 0 00-.406.407V6.15c0 .227.179.406.406.406h2.602a.403.403 0 00.406-.406V4.117h3.334V16.02c-.83.13-1.496.78-1.659 1.593H6.504v-2.032a.403.403 0 00-.406-.407H3.496a.403.403 0 00-.407.407v4.878c0 .227.18.406.407.406h2.602a.403.403 0 00.406-.406v-2.033h1.512A2.037 2.037 0 0010 20.052c.976 0 1.805-.699 1.983-1.626h1.675v2.033c0 .227.18.406.407.406h2.601a.403.403 0 00.407-.406V15.58a.403.403 0 00-.407-.407h-2.601a.403.403 0 00-.407.407v2.032h-1.675c-.162-.764-.747-1.382-1.495-1.56V4.117h3.17V6.15c0 .228.18.407.407.407h2.601a.403.403 0 00.407-.407V1.272a.403.403 0 00-.407-.406h-2.601a.403.403 0 00-.407.406v2.033H6.341V1.272a.403.403 0 00-.406-.406H3.333zm.407.813h1.788v4.065H3.74V1.678zm10.731 0h1.789v4.065h-1.789V1.678zM3.902 15.988h1.789v4.064H3.902v-4.065zm10.57 0h1.788v4.064h-1.789v-4.065zM10 16.8c.602 0 1.106.439 1.203 1.008v.017c0 .032.017.048.017.08v.115c0 .666-.553 1.22-1.22 1.22-.667 0-1.22-.554-1.22-1.22v-.114c0-.033 0-.049.017-.081v-.017A1.223 1.223 0 0110 16.8z"></path></svg>