<svg xmlns="http://www.w3.org/2000/svg" fill="rgb(133 138 150)" viewBox="0 0 20 21" id="transmission"><path d="M19 4.133a2.41 2.41 0 00-2.406-2.406 2.41 2.41 0 00-2.407 2.406c0 1.137.777 2.065 1.838 2.33V9.97h-5.457V6.464c1.043-.266 1.838-1.194 1.838-2.33A2.41 2.41 0 0010 1.726a2.41 2.41 0 00-2.406 2.406c0 1.137.777 2.065 1.838 2.33v3.525H3.975V6.464c1.042-.266 1.838-1.194 1.838-2.33a2.41 2.41 0 00-2.407-2.407A2.41 2.41 0 001 4.133c0 1.137.777 2.065 1.838 2.33v8.167C1.796 14.895 1 15.823 1 16.96a2.41 2.41 0 002.406 2.407 2.41 2.41 0 002.407-2.407c0-1.137-.777-2.065-1.838-2.33v-3.505h5.457v3.505c-1.043.265-1.838 1.193-1.838 2.33A2.41 2.41 0 0010 19.367a2.41 2.41 0 002.406-2.407c0-1.137-.777-2.065-1.838-2.33v-3.505h6.026a.57.57 0 00.568-.569V6.464A2.38 2.38 0 0019 4.134zm-10.27 0a1.27 1.27 0 112.54 0 1.27 1.27 0 01-2.54 0zm-6.593 0a1.27 1.27 0 112.54 0 1.27 1.27 0 01-2.54 0zM4.676 16.98a1.27 1.27 0 11-2.54 0 1.27 1.27 0 012.54 0zm6.594 0a1.27 1.27 0 11-2.54 0 1.27 1.27 0 012.54 0zm5.324-11.576a1.27 1.27 0 110-2.54 1.27 1.27 0 010 2.54z"></path></svg>