<svg width="23" height="24" viewBox="0 0 23 24" fill="none" xmlns="http://www.w3.org/2000/svg">
<g clip-path="url(#clip0_34_32)">
<path fill-rule="evenodd" clip-rule="evenodd" d="M10.3434 13.6644C10.8047 13.376 11.2233 13.0244 11.5869 12.6196L12.8947 13.3748L14.0855 11.3123L12.7803 10.5587C12.9497 10.0411 13.0446 9.50206 13.0622 8.95772L14.547 8.69592L14.1332 6.35056L12.6487 6.61236C12.445 6.10759 12.1709 5.63418 11.8345 5.20617L12.805 4.04982L10.9806 2.5191L10.011 3.67446C9.53107 3.41711 9.01693 3.22946 8.48408 3.11715V1.61035H6.10256V3.11715C5.56967 3.22946 5.0555 3.41711 4.57555 3.67446L3.60601 2.5191L1.78164 4.04988L2.75194 5.20623C2.41566 5.63425 2.14157 6.10766 1.9378 6.61241L0.453283 6.35061L0.0397949 8.69597L1.52437 8.95777C1.54195 9.50215 1.63687 10.0413 1.80627 10.5589L0.501023 11.3124L1.69184 13.3749L2.99965 12.6199C3.36323 13.0246 3.78182 13.3762 4.24317 13.6645L3.72694 15.0827L5.96491 15.8971L6.48044 14.4809C6.74612 14.5185 7.01742 14.5384 7.29332 14.5384C7.56922 14.5384 7.84058 14.5186 8.10626 14.4809L8.62173 15.8972L10.8596 15.0826L10.3434 13.6644ZM7.29321 11.8072C5.61621 11.8072 4.25186 10.4429 4.25186 8.76583C4.25186 7.08888 5.61621 5.72448 7.29321 5.72448C8.97021 5.72448 10.3346 7.08888 10.3346 8.76583C10.3346 10.4429 8.97027 11.8072 7.29321 11.8072ZM20.5799 15.4528L19.5533 15.7849C19.3589 15.4471 19.1177 15.1386 18.8369 14.8684L19.4107 13.9527L17.9661 13.0476L17.3927 13.9625C17.027 13.8274 16.644 13.7452 16.2551 13.7183L16.1062 12.6499L14.4178 12.8853L14.5666 13.9537C14.1999 14.0859 13.8539 14.2698 13.5391 14.4997L12.7377 13.7763L11.5954 15.0417L12.3975 15.766C12.2014 16.1027 12.0539 16.4654 11.9594 16.8434L10.8809 16.8044L10.8193 18.508L11.8977 18.5471C11.964 18.9313 12.0846 19.3041 12.2559 19.6543L11.405 20.3176L12.4529 21.6621L13.3055 20.9977C13.6034 21.2486 13.9349 21.4566 14.2904 21.6155L14.0644 22.6722L15.7315 23.0283L15.9573 21.9733C16.1493 21.9739 16.3436 21.9608 16.5391 21.9336C16.7319 21.9067 16.9226 21.8662 17.1098 21.8126L17.6153 22.7658L19.1215 21.9671L18.6154 21.0128C18.9139 20.7627 19.176 20.472 19.3938 20.1491L20.3955 20.5553L21.036 18.9754L20.0363 18.57C20.1051 18.1862 20.1191 17.7946 20.078 17.4069L21.1049 17.0746L20.5799 15.4528ZM16.2696 19.9973C15.0804 20.1628 13.9782 19.3304 13.8127 18.1414C13.6468 16.9523 14.4794 15.85 15.6686 15.6845C16.8576 15.5187 17.9595 16.3513 18.1255 17.5405C18.2909 18.7294 17.4585 19.8314 16.2696 19.9973ZM22.8798 9.54485L22.9197 8.19957L22.0684 8.17427C22.0138 7.87133 21.9166 7.57763 21.7797 7.30191L22.4483 6.77371L21.6142 5.71787L20.9457 6.24585C20.709 6.04924 20.4457 5.88712 20.1636 5.7643L20.3364 4.92907L19.0188 4.65618L18.8456 5.49086C18.5379 5.49128 18.2319 5.53564 17.9367 5.62261L17.533 4.87281L16.348 5.51102L16.7517 6.26092C16.5166 6.45959 16.3111 6.69071 16.1412 6.9473L15.3494 6.63213L14.8517 7.88259L15.6442 8.19825C15.5916 8.50126 15.5822 8.81019 15.6161 9.11585L14.8072 9.38339L15.2296 10.6613L16.0385 10.3938C16.1931 10.66 16.3849 10.9028 16.608 11.1149L16.1605 11.8396L17.3056 12.5468L17.754 11.8207C18.0434 11.9246 18.3459 11.9873 18.6527 12.0072L18.7757 12.8513L20.1075 12.6568L19.9848 11.8137C20.129 11.7607 20.2693 11.6975 20.4046 11.6246C20.5399 11.5517 20.6699 11.4694 20.7936 11.3782L21.4299 11.9447L22.325 10.9398L21.6883 10.3726C21.8405 10.1055 21.9545 9.8183 22.0271 9.51951L22.8798 9.54485ZM19.6729 10.2657C18.8382 10.7151 17.7937 10.4018 17.3445 9.56746C16.895 8.733 17.2083 7.68825 18.043 7.23909C18.8772 6.78961 19.9217 7.10308 20.3712 7.93754C20.8203 8.77206 20.5073 9.81627 19.6729 10.2657Z" fill="#FAD826"/>
</g>
<defs>
<clipPath id="clip0_34_32">
<rect width="22.88" height="22.88" fill="white" transform="translate(0.0397949 0.879883)"/>
</clipPath>
</defs>
</svg>
