<svg fill="#969ba4" xmlns="http://www.w3.org/2000/svg" viewBox="0 0 41 40" id="lorry"><path fill="#969ba4" d="M11.71 31.273a.91.91 0 100-1.818.91.91 0 000 1.818zM32.85 31.273a.91.91 0 100-1.818.91.91 0 000 1.818z"></path><path fill-rule="evenodd" clip-rule="evenodd" d="M39.258 20.717l-2.77-2.35-3.04-7.73a.873.873 0 00-.817-.637h-7.585c-.546 0-.547.364-.547.91V29.8h-8.795c-.455-2.091-1.795-3.441-4.008-3.441s-3.563 1.35-4.017 3.441h-5.38c-.399 0-.599-.2-.599-.6V7.381c0-.42.137-.581.518-.581H24.9c0 .545.2.8.6.8.4 0 .6-.255.6-.8v-.436c0-.546-.255-.764-.8-.764H2.218C.718 5.6.5 6.505.5 7.575V29.2c0 1.2.4 1.84 1.8 1.84h5.379c.454 2.092 1.842 3.36 4.024 3.36 2.181 0 3.546-1.31 4-3.4H24.8c.545 0 .91-.455.91-1V11.196l6.882.036 2.705 7.135H28.682c-.546 0-.91.221-.91.633 0 .411.364.607.91.607h7.279l2.54 2.016c.357.282.404.831.404 1.104l-.019 6.28c0 .545-.307.747-.853.747h-1.26c0-1.742-1.546-3.367-3.88-3.367-2.332 0-3.972 1.513-3.972 3.91 0 2.398 1.56 4.11 3.973 4.11s3.879-1.862 3.879-3.42h1.329c.997 0 2.003-.62 2.003-1.98v-6.28c0-.91-.197-1.498-.847-2.01zM8.874 30.4c0 1.545 1.283 2.8 2.829 2.8a2.798 2.798 0 002.796-2.8c0-1.545-1.258-2.8-2.803-2.8s-2.822 1.255-2.822 2.8zm21.176-.102c0 1.29.832 2.893 2.844 2.893s2.805-1.618 2.805-2.901c0-1.283-1.018-2.688-2.805-2.688-1.787 0-2.844 1.405-2.844 2.695z"></path><path fill="#969ba4" d="M21.41 21.818H5.202c-.545 0-.756.24-.756.6s.211.6.756.6H21.41c.546 0 .73-.24.73-.6s-.184-.6-.73-.6z"></path></svg>