<svg width="24" height="24" viewBox="0 0 24 24" fill="none" xmlns="http://www.w3.org/2000/svg">
<g clip-path="url(#clip0_34_20)">
<path fill-rule="evenodd" clip-rule="evenodd" d="M22.262 13.7077L18.0838 11.8811L15.5834 8.80383C15.4329 8.61765 15.2427 8.46757 15.0266 8.36463C14.8105 8.26168 14.5741 8.2085 14.3348 8.209H4.33372C3.96832 8.20777 3.60988 8.30895 3.29905 8.50107C2.98822 8.69318 2.73744 8.96854 2.57514 9.29593L0.975994 12.4938C0.840037 12.7668 0.769043 13.0676 0.768555 13.3726V17.6827C0.769028 18.1093 0.938673 18.5182 1.24027 18.8198C1.54187 19.1214 1.95078 19.291 2.3773 19.2915H2.96749C3.09114 19.8971 3.42017 20.4413 3.89892 20.8322C4.37767 21.2231 4.97675 21.4366 5.5948 21.4366C6.21286 21.4366 6.81194 21.2231 7.29069 20.8322C7.76944 20.4413 8.09847 19.8971 8.22212 19.2915H16.5525C16.6761 19.8976 17.0055 20.4424 17.4848 20.8335C17.9641 21.2245 18.5639 21.4378 19.1825 21.4372C19.8011 21.4365 20.4004 21.222 20.879 20.83C21.3575 20.438 21.6857 19.8925 21.8081 19.2861C22.2115 19.2541 22.5881 19.0713 22.8629 18.7742C23.1376 18.4771 23.2905 18.0874 23.2911 17.6827V15.2084C23.29 14.8839 23.1913 14.5672 23.0078 14.2995C22.8242 14.0319 22.5644 13.8257 22.262 13.7077ZM14.7507 9.47982L16.6231 11.784H12.5661V9.2815H14.3348C14.4145 9.28133 14.4933 9.29907 14.5653 9.33339C14.6373 9.36771 14.7006 9.41775 14.7507 9.47982ZM9.34855 9.2815V11.784H4.794L5.9965 9.2815H9.34855ZM3.5344 9.77561C3.60816 9.62679 3.72215 9.50162 3.86343 9.41429C4.00471 9.32695 4.16763 9.28095 4.33372 9.2815H4.80661L3.60411 11.784H2.53005L3.5344 9.77561ZM5.5948 20.364C5.27662 20.364 4.96559 20.2696 4.70103 20.0929C4.43647 19.9161 4.23028 19.6648 4.10851 19.3709C3.98675 19.0769 3.95489 18.7535 4.01697 18.4414C4.07904 18.1293 4.23226 17.8427 4.45725 17.6177C4.68223 17.3927 4.96889 17.2395 5.28095 17.1774C5.59302 17.1153 5.91649 17.1472 6.21045 17.269C6.50441 17.3907 6.75566 17.5969 6.93243 17.8615C7.1092 18.126 7.20355 18.4371 7.20355 18.7552C7.20308 19.1818 7.03344 19.5907 6.73184 19.8923C6.43024 20.1939 6.02133 20.3635 5.5948 20.364ZM19.1798 20.364C18.8616 20.364 18.5506 20.2696 18.286 20.0929C18.0215 19.9161 17.8153 19.6648 17.6935 19.3709C17.5717 19.0769 17.5399 18.7535 17.602 18.4414C17.664 18.1293 17.8173 17.8427 18.0422 17.6177C18.2672 17.3927 18.5539 17.2395 18.866 17.1774C19.178 17.1153 19.5015 17.1472 19.7954 17.269C20.0894 17.3907 20.3407 17.5969 20.5174 17.8615C20.6942 18.126 20.7886 18.4371 20.7886 18.7552C20.7881 19.1818 20.6184 19.5907 20.3168 19.8923C20.0152 20.1939 19.6063 20.3635 19.1798 20.364ZM22.2186 17.6827C22.2183 17.8037 22.1773 17.9211 22.102 18.0158C22.0268 18.1105 21.9217 18.177 21.8039 18.2046C21.6774 17.6008 21.3465 17.0592 20.8672 16.671C20.3878 16.2828 19.7892 16.0717 19.1724 16.0734C18.5555 16.0751 17.9581 16.2895 17.4809 16.6803C17.0036 17.0711 16.6758 17.6146 16.5525 18.219H8.22212C8.09847 17.6134 7.76944 17.0692 7.29069 16.6783C6.81194 16.2874 6.21286 16.0739 5.5948 16.0739C4.97675 16.0739 4.37767 16.2874 3.89892 16.6783C3.42017 17.0692 3.09114 17.6134 2.96749 18.219H2.3773C2.23513 18.2188 2.09882 18.1623 1.99829 18.0618C1.89776 17.9612 1.84121 17.8249 1.84105 17.6827V13.3726C1.84132 13.2339 1.87364 13.0972 1.93548 12.973L1.99357 12.8565H9.8848C10.027 12.8565 10.1634 12.8 10.264 12.6994C10.3646 12.5989 10.4211 12.4625 10.4211 12.3202V9.2815H11.4936V12.3202C11.4936 12.4625 11.5501 12.5989 11.6506 12.6994C11.7512 12.8 11.8876 12.8565 12.0298 12.8565H17.6377L21.8442 14.6956C21.853 14.6995 21.8618 14.703 21.8708 14.7064C21.9727 14.745 22.0606 14.8137 22.1227 14.9033C22.1848 14.993 22.2182 15.0993 22.2186 15.2084V17.6827Z" fill="#FAD826"/>
<path d="M5.59473 19.291C5.89082 19.291 6.13086 19.051 6.13086 18.7549C6.13086 18.4588 5.89082 18.2188 5.59473 18.2188C5.29863 18.2188 5.05859 18.4588 5.05859 18.7549C5.05859 19.051 5.29863 19.291 5.59473 19.291Z" fill="#FAD826"/>
<path d="M19.1797 19.291C19.4758 19.291 19.7158 19.051 19.7158 18.7549C19.7158 18.4588 19.4758 18.2188 19.1797 18.2188C18.8836 18.2188 18.6436 18.4588 18.6436 18.7549C18.6436 19.051 18.8836 19.291 19.1797 19.291Z" fill="#FAD826"/>
<path fill-rule="evenodd" clip-rule="evenodd" d="M12.7449 13.9287H12.0746C11.9324 13.9287 11.796 13.9852 11.6954 14.0858C11.5949 14.1863 11.5384 14.3227 11.5384 14.465C11.5384 14.6072 11.5949 14.7436 11.6954 14.8441C11.796 14.9447 11.9324 15.0012 12.0746 15.0012H12.7449C12.8871 15.0012 13.0235 14.9447 13.1241 14.8441C13.2247 14.7436 13.2812 14.6072 13.2812 14.465C13.2812 14.3227 13.2247 14.1863 13.1241 14.0858C13.0235 13.9852 12.8871 13.9287 12.7449 13.9287ZM6.30992 13.9287H5.23742C5.0952 13.9287 4.9588 13.9852 4.85824 14.0858C4.75767 14.1863 4.70117 14.3227 4.70117 14.465C4.70117 14.6072 4.75767 14.7436 4.85824 14.8441C4.9588 14.9447 5.0952 15.0012 5.23742 15.0012H6.30992C6.45214 15.0012 6.58854 14.9447 6.68911 14.8441C6.78967 14.7436 6.84617 14.6072 6.84617 14.465C6.84617 14.3227 6.78967 14.1863 6.68911 14.0858C6.58854 13.9852 6.45214 13.9287 6.30992 13.9287Z" fill="#FAD826"/>
</g>
<defs>
<clipPath id="clip0_34_20">
<rect width="22.88" height="22.88" fill="white" transform="translate(0.589844 0.879883)"/>
</clipPath>
</defs>
</svg>
