<svg width="40" height="45" viewBox="0 0 40 45" fill="none" xmlns="http://www.w3.org/2000/svg">
<path fill-rule="evenodd" clip-rule="evenodd" d="M38.2733 25.6293C39.4568 15.6659 37.7047 9.3758 34.5444 6.53077L34.546 6.52912C29.4451 1.67058 12.2184 0.951475 6.11585 6.74733C3.37532 9.58244 2.41001 13.7434 2.30423 18.8945C2.19844 24.0473 2.07282 33.6999 11.0663 36.3184H11.0746L11.0663 40.3173C11.0663 40.3173 11.0052 41.9374 12.0399 42.2631C13.2234 42.6466 13.7589 41.8944 17.44 37.4971C23.5954 38.0311 28.3228 36.8078 28.86 36.6292C30.103 36.2126 37.1361 35.2819 38.2733 25.6293ZM18.0466 34.6835C18.0466 34.6835 14.1507 39.542 12.9391 40.8034C12.5424 41.2133 12.1077 41.1753 12.1143 40.362C12.1143 39.828 12.144 33.723 12.144 33.723C4.51914 31.5376 4.96873 23.3183 5.05137 19.0185C5.13402 14.717 5.92081 11.1942 8.2415 8.822C13.5953 3.80146 28.698 4.92393 32.546 8.54097C37.2502 12.7118 35.5758 24.4953 35.5857 24.897C34.6187 32.9543 28.9195 33.4651 27.8715 33.8139C27.4236 33.9627 23.2665 35.0323 18.0466 34.6835Z" fill="#7360F2"/>
<path fill-rule="evenodd" clip-rule="evenodd" d="M20.2019 9.76562C19.5655 9.76562 19.5655 10.7575 20.2019 10.7658C25.1392 10.8038 29.2053 14.2456 29.25 20.5589C29.25 21.2251 30.2252 21.2168 30.2169 20.5506C30.164 13.748 25.7226 9.80365 20.2019 9.76562Z" fill="#7360F2"/>
<path fill-rule="evenodd" clip-rule="evenodd" d="M26.6962 19.5131C26.6813 20.171 27.6549 20.2025 27.6631 19.5362C27.7441 15.7853 25.4317 12.6956 21.0862 12.37C20.4498 12.3237 20.3837 13.3238 21.0184 13.3701C24.787 13.6561 26.7722 16.2283 26.6962 19.5131ZM25.6548 23.7798C24.8383 23.307 24.0069 23.6013 23.6631 24.0658L22.944 24.9965C22.5787 25.4693 21.8961 25.4065 21.8961 25.4065C16.9142 24.089 15.582 18.875 15.582 18.875C15.582 18.875 15.5208 18.1691 15.977 17.7905L16.8762 17.0466C17.3258 16.6896 17.6101 15.8299 17.1522 14.9852C15.9291 12.775 15.1076 12.0129 14.6894 11.4277C14.2497 10.8772 13.5885 10.7532 12.9009 11.1251H12.886C11.4563 11.9616 9.89096 13.5271 10.3918 15.1389C11.2464 16.8383 12.8166 22.2556 17.8217 26.3488C20.1738 28.2846 23.8961 30.2683 25.4763 30.7263L25.4912 30.7494C27.0482 31.2685 28.5623 29.6418 29.3706 28.1689V28.1573C29.7293 27.4448 29.6103 26.7703 29.0863 26.3289C28.1573 25.423 26.7557 24.4229 25.6548 23.7798Z" fill="#7360F2"/>
<path fill-rule="evenodd" clip-rule="evenodd" d="M21.7673 16.0598C23.3559 16.1524 24.1263 16.9822 24.2089 18.6866C24.2387 19.3528 25.2058 19.3065 25.176 18.6403C25.0702 16.4152 23.9097 15.1754 21.8202 15.0597C21.1837 15.0216 21.1242 16.0218 21.7673 16.0598Z" fill="#7360F2"/>
</svg>
