<svg width="22" height="22" viewBox="0 0 22 22" fill="none" xmlns="http://www.w3.org/2000/svg">
<g clip-path="url(#clip0_26_7)">
<path d="M19.078 2.14447C18.5323 1.64174 16.3237 0.0390047 11.3995 0.0175203C11.3995 0.0175203 5.59444 -0.330527 2.7671 2.26479C1.19444 3.83744 0.640143 6.14486 0.579987 9.00229C0.519831 11.8597 0.446784 17.2136 5.60733 18.666H5.61163L5.60733 20.8831C5.60733 20.8831 5.57296 21.7812 6.16592 21.9617C6.87921 22.1851 7.3003 21.5019 7.9835 20.7671C8.35733 20.3632 8.87296 19.7703 9.26397 19.3191C12.796 19.6156 15.5073 18.9367 15.8167 18.8378C16.53 18.6058 20.5648 18.0902 21.2179 12.7363C21.8968 7.21049 20.8913 3.72143 19.078 2.14447ZM19.6753 12.3324C19.121 16.8011 15.8511 17.0847 15.2495 17.2781C14.9917 17.3597 12.6069 17.9527 9.61202 17.7593C9.61202 17.7593 7.37764 20.4535 6.68155 21.1538C6.45382 21.3816 6.2046 21.3601 6.20889 20.9089C6.20889 20.6124 6.22608 17.2265 6.22608 17.2265C6.22178 17.2265 6.22178 17.2265 6.22608 17.2265C1.85186 16.0148 2.10967 11.4558 2.15694 9.07104C2.20421 6.68627 2.65538 4.73119 3.98741 3.41635C6.38077 1.24643 11.3093 1.56869 11.3093 1.56869C15.473 1.58588 17.4667 2.84057 17.9308 3.26166C19.4648 4.5765 20.2468 7.72182 19.6753 12.3324ZM13.7026 8.86049C13.7198 9.23002 13.1655 9.2558 13.1483 8.88627C13.1011 7.94096 12.6585 7.48119 11.7476 7.42963C11.378 7.40815 11.4124 6.85385 11.7776 6.87533C12.9765 6.93979 13.6425 7.62729 13.7026 8.86049ZM14.5749 9.34604C14.6179 7.52416 13.4792 6.0976 11.3179 5.93861C10.9526 5.91283 10.9913 5.35854 11.3565 5.38432C13.8487 5.56479 15.1765 7.27924 15.1292 9.35893C15.1249 9.72846 14.5663 9.71127 14.5749 9.34604ZM16.5944 9.92182C16.5987 10.2913 16.0401 10.2956 16.0401 9.92611C16.0144 6.42416 13.6812 4.51635 10.8495 4.49486C10.4843 4.49057 10.4843 3.94057 10.8495 3.94057C14.0163 3.96205 16.5644 6.14916 16.5944 9.92182ZM16.1089 14.1371V14.1456C15.6448 14.9621 14.7769 15.8644 13.8831 15.5765L13.8745 15.5636C12.9679 15.3101 10.8323 14.2101 9.48311 13.1359C8.78702 12.5859 8.15108 11.9371 7.66124 11.314C7.21866 10.7597 6.77178 10.1023 6.3378 9.31166C5.42257 7.65736 5.22061 6.9183 5.22061 6.9183C4.93272 6.02455 5.83077 5.15658 6.65147 4.69252H6.66007C7.05538 4.48627 7.4335 4.55502 7.68702 4.8601C7.68702 4.8601 8.21983 5.49604 8.44757 5.80971C8.66241 6.1019 8.9503 6.57025 9.10069 6.83236C9.3628 7.30072 9.19952 7.77768 8.94171 7.97533L8.42608 8.38783C8.16397 8.59838 8.19835 8.9894 8.19835 8.9894C8.19835 8.9894 8.96319 11.8812 11.8206 12.6117C11.8206 12.6117 12.2116 12.646 12.4222 12.3839L12.8347 11.8683C13.0323 11.6105 13.5093 11.4472 13.9776 11.7093C14.6093 12.066 15.4128 12.6203 15.9456 13.123C16.2464 13.3679 16.3151 13.7417 16.1089 14.1371Z" fill="#229FFF"/>
</g>
<defs>
<clipPath id="clip0_26_7">
<rect width="22" height="22" fill="white"/>
</clipPath>
</defs>
</svg>
