<svg width="18" height="20" viewBox="0 0 18 20" fill="none" xmlns="http://www.w3.org/2000/svg">
<g clip-path="url(#clip0_3_29)">
<path fill-rule="evenodd" clip-rule="evenodd" d="M16.9803 11.8882C17.5054 7.46842 16.7281 4.67809 15.3259 3.41602L15.3267 3.41529C13.0636 1.26002 5.4208 0.941024 2.71333 3.51209C1.49747 4.76976 1.0692 6.61556 1.02227 8.90063C0.975334 11.1864 0.9196 15.4684 4.90967 16.63H4.91333L4.90967 18.4039C4.90967 18.4039 4.88253 19.1226 5.3416 19.267C5.86667 19.4372 6.10427 19.1035 7.7374 17.1528C10.4683 17.3897 12.5657 16.847 12.804 16.7678C13.3555 16.583 16.4758 16.1702 16.9803 11.8882ZM8.00653 15.9047C8.00653 15.9047 6.27807 18.06 5.74053 18.6195C5.56453 18.8014 5.37167 18.7845 5.3746 18.4237C5.3746 18.1868 5.3878 15.4786 5.3878 15.4786C2.00493 14.5092 2.2044 10.863 2.24107 8.95563C2.27773 7.04749 2.6268 5.48476 3.6564 4.43242C6.03167 2.20529 12.7321 2.70322 14.4393 4.30776C16.5264 6.15796 15.7835 11.3852 15.7879 11.5634C15.3589 15.1376 12.8304 15.3642 12.3655 15.519C12.1667 15.585 10.3224 16.0594 8.00653 15.9047Z" fill="#999999"/>
<path fill-rule="evenodd" clip-rule="evenodd" d="M8.9628 4.85114C8.68047 4.85114 8.68047 5.29114 8.9628 5.2948C11.1533 5.31167 12.9573 6.83847 12.9771 9.63907C12.9771 9.9346 13.4097 9.93094 13.4061 9.6354C13.3826 6.61774 11.4121 4.868 8.9628 4.85114Z" fill="#999999"/>
<path fill-rule="evenodd" clip-rule="evenodd" d="M11.8441 9.17487C11.8375 9.46674 12.2694 9.48067 12.2731 9.18514C12.309 7.52121 11.2831 6.15061 9.35513 6.00614C9.07279 5.98561 9.04346 6.42927 9.32506 6.44981C10.9971 6.57667 11.8778 7.71774 11.8441 9.17487ZM11.3821 11.0676C11.0198 10.8579 10.6509 10.9884 10.4984 11.1945L10.1794 11.6073C10.0173 11.8171 9.71446 11.7892 9.71446 11.7892C7.50419 11.2047 6.91313 8.89181 6.91313 8.89181C6.91313 8.89181 6.88599 8.57867 7.08839 8.41074L7.48733 8.08074C7.68679 7.92234 7.81293 7.54101 7.60979 7.16627C7.06713 6.18581 6.70266 5.84774 6.51713 5.58814C6.32206 5.34394 6.02873 5.28894 5.72366 5.45394H5.71706C5.08273 5.82501 4.38826 6.51947 4.61046 7.23447C4.98959 7.98834 5.68626 10.3915 7.90679 12.2072C8.95033 13.0659 10.6018 13.9459 11.3029 14.1491L11.3095 14.1593C12.0003 14.3896 12.672 13.668 13.0306 13.0146V13.0095C13.1897 12.6934 13.1369 12.3942 12.9045 12.1984C12.4923 11.7965 11.8705 11.3529 11.3821 11.0676Z" fill="#999999"/>
<path fill-rule="evenodd" clip-rule="evenodd" d="M9.65726 7.64296C10.362 7.68402 10.7037 8.05216 10.7404 8.80822C10.7536 9.10376 11.1826 9.08322 11.1694 8.78769C11.1225 7.80062 10.6077 7.25062 9.68073 7.19929C9.39839 7.18242 9.37199 7.62609 9.65726 7.64296Z" fill="#999999"/>
</g>
<defs>
<clipPath id="clip0_3_29">
<rect width="17.6" height="17.6" fill="white" transform="translate(0 1.70001)"/>
</clipPath>
</defs>
</svg>
