<svg xmlns:xlink="http://www.w3.org/1999/xlink" xmlns="http://www.w3.org/2000/svg" fill="#d7d7d7" data-v-61be2a35="" class="icon-svg mb-0" width="24"  height="24" ><defs><svg viewBox="0 0 24 24" style="enable-background:new 0 0 24 24" xml:space="preserve" id="close" xmlns="http://www.w3.org/2000/svg"><path class="ajst0" d="M6.4 6.4c-.5.5-.5 1.4 0 2L10 12l-3.6 3.6c-.5.5-.5 1.4 0 2 .5.5 1.4.5 2 0L12 14l3.6 3.6c.5.5 1.4.5 2 0 .5-.5.5-1.4 0-2L14 12l3.6-3.6c.5-.5.5-1.4 0-2-.5-.5-1.4-.5-2 0L12 10 8.4 6.4c-.6-.5-1.4-.5-2 0z"></path></svg></defs><use data-v-61be2a35="" xlink:href="#close"></use></svg>