<svg width="23" height="23" viewBox="0 0 23 23" fill="none" xmlns="http://www.w3.org/2000/svg">
<g clip-path="url(#clip0_34_2)">
<path fill-rule="evenodd" clip-rule="evenodd" d="M19.9306 1.7875H17.875V0.715C17.875 0.320141 17.5549 0 17.16 0C16.7651 0 16.445 0.320141 16.445 0.715V1.7875H6.435V0.715C6.435 0.320141 6.1149 0 5.72 0C5.3251 0 5.005 0.320141 5.005 0.715V1.7875H2.94937C1.32306 1.7875 0 3.11056 0 4.73687V19.9306C0 21.5569 1.32306 22.88 2.94937 22.88H19.9306C21.5569 22.88 22.88 21.5569 22.88 19.9306V4.73687C22.88 3.11056 21.5569 1.7875 19.9306 1.7875ZM21.45 19.9306C21.45 20.7698 20.7698 21.45 19.9306 21.45H2.94937C2.11023 21.45 1.43 20.7698 1.43 19.9306V8.08844C1.43 8.02918 1.45354 7.97235 1.49544 7.93044C1.53735 7.88854 1.59418 7.865 1.65344 7.865H21.2266C21.2858 7.865 21.3427 7.88854 21.3846 7.93044C21.4265 7.97235 21.45 8.02918 21.45 8.08844V19.9306Z" fill="#7B7B7B"/>
</g>
<defs>
<clipPath id="clip0_34_2">
<rect width="22.88" height="22.88" fill="white"/>
</clipPath>
</defs>
</svg>
