<svg width="25" height="25" viewBox="0 0 25 25" fill="none" xmlns="http://www.w3.org/2000/svg">
<g clip-path="url(#clip0_3_58)">
<path fill-rule="evenodd" clip-rule="evenodd" d="M23.6646 5.9784L23.6948 6.17603C23.5569 5.67311 23.293 5.21365 22.9281 4.84104C22.5633 4.46842 22.1095 4.19495 21.6096 4.04643L21.5884 4.04139C19.7018 3.52916 12.1101 3.52916 12.1101 3.52916C12.1101 3.52916 4.53749 3.51907 2.63174 4.04139C2.13098 4.18631 1.67538 4.45639 1.3079 4.82616C0.940428 5.19593 0.673188 5.6532 0.531383 6.15486L0.526341 6.17603C-0.178484 9.85746 -0.183525 14.281 0.5576 18.2226L0.526341 18.0229C0.664299 18.5259 0.928161 18.9853 1.29301 19.3579C1.65787 19.7306 2.11167 20.004 2.61157 20.1525L2.63275 20.1576C4.51732 20.6708 12.1111 20.6708 12.1111 20.6708C12.1111 20.6708 19.6827 20.6708 21.5894 20.1576C22.0904 20.0129 22.5463 19.7429 22.9139 19.3731C23.2816 19.0033 23.549 18.5459 23.6908 18.0441L23.6958 18.0229C24.0165 16.3108 24.2 14.3405 24.2 12.3279L24.199 12.105L24.2 11.8731C24.2 9.85947 24.0165 7.88919 23.6646 5.9784ZM9.68806 15.7814V8.42764L16.0063 12.1101L9.68806 15.7814Z" fill="#999999"/>
</g>
<defs>
<clipPath id="clip0_3_58">
<rect width="24.2" height="24.2" fill="white"/>
</clipPath>
</defs>
</svg>
