<svg width="22" height="22" viewBox="0 0 22 22" fill="none" xmlns="http://www.w3.org/2000/svg">
<g clip-path="url(#clip0_26_13)">
<path d="M21.5133 5.4346L21.5408 5.61427C21.4154 5.15707 21.1755 4.73938 20.8438 4.40064C20.5121 4.0619 20.0996 3.81328 19.6451 3.67827L19.6259 3.67369C17.9108 3.20802 11.0092 3.20802 11.0092 3.20802C11.0092 3.20802 4.12503 3.19885 2.39253 3.67369C1.93729 3.80544 1.5231 4.05096 1.18904 4.38712C0.854967 4.72327 0.612022 5.13897 0.483109 5.59502L0.478526 5.61427C-0.162224 8.96102 -0.166808 12.9824 0.506942 16.5657L0.478526 16.3842C0.603941 16.8414 0.843816 17.2591 1.1755 17.5978C1.50719 17.9366 1.91973 18.1852 2.37419 18.3202L2.39344 18.3248C4.10669 18.7914 11.0101 18.7914 11.0101 18.7914C11.0101 18.7914 17.8934 18.7914 19.6268 18.3248C20.0822 18.1932 20.4966 17.9478 20.8309 17.6116C21.1651 17.2754 21.4082 16.8596 21.5371 16.4034L21.5417 16.3842C21.8332 14.8277 22 13.0365 22 11.2069L21.9991 11.0043L22 10.7934C22 8.96285 21.8332 7.17169 21.5133 5.4346ZM8.80736 14.3464V7.66119L14.5512 11.0089L8.80736 14.3464Z" fill="#229FFF"/>
</g>
<defs>
<clipPath id="clip0_26_13">
<rect width="22" height="22" fill="white"/>
</clipPath>
</defs>
</svg>
