<svg width="40" height="45" viewBox="0 0 40 45" fill="none" xmlns="http://www.w3.org/2000/svg">
<g clip-path="url(#clip0_40_3336)">
<path fill-rule="evenodd" clip-rule="evenodd" d="M38.7923 12.4637L38.8419 12.7877C38.6157 11.9632 38.1832 11.2099 37.5851 10.599C36.987 9.98815 36.2431 9.5398 35.4237 9.29632L35.3889 9.28805C32.2963 8.44826 19.8515 8.44827 19.8515 8.44827C19.8515 8.44827 7.43812 8.43173 4.31411 9.28805C3.49323 9.52565 2.74639 9.96843 2.144 10.5747C1.54161 11.1809 1.10354 11.9306 0.871085 12.753L0.862821 12.7877C-0.292568 18.8233 -0.300833 26.0755 0.914061 32.5376L0.862821 32.2103C1.08897 33.0348 1.52151 33.7881 2.11959 34.399C2.71768 35.0098 3.46158 35.4582 4.28105 35.7017L4.31576 35.7099C7.40506 36.5514 19.8532 36.5514 19.8532 36.5514C19.8532 36.5514 32.2649 36.5514 35.3906 35.7099C36.2119 35.4727 36.9591 35.0301 37.5618 34.4238C38.1645 33.8176 38.6028 33.0677 38.8353 32.245L38.8435 32.2103C39.3692 29.4033 39.67 26.1731 39.67 22.8734L39.6683 22.5081L39.67 22.1279C39.67 18.8266 39.3692 15.5964 38.7923 12.4637ZM15.8812 28.5354V16.4791L26.2384 22.5164L15.8812 28.5354Z" fill="#FF0000"/>
</g>
<defs>
<clipPath id="clip0_40_3336">
<rect width="39.67" height="45" fill="white"/>
</clipPath>
</defs>
</svg>
