<svg xmlns="http://www.w3.org/2000/svg" fill="#d7d7d7" viewBox="0 0 35 35" id="youtube"><path d="m20.27 16.691-3.976-2.176a.724.724 0 0 0-.723.013.724.724 0 0 0-.358.628v4.315c0 .259.133.493.356.627a.73.73 0 0 0 .72.016l3.977-2.139a.73.73 0 0 0 .005-1.284Zm-4.002 2.237v-3.225l2.972 1.627-2.972 1.598Z"></path><path d="m26.368 13.897-.001-.008c-.015-.145-.167-1.433-.794-2.089-.724-.77-1.545-.865-1.94-.91a4.48 4.48 0 0 1-.089-.01l-.032-.003c-2.38-.173-5.973-.197-6.009-.197h-.006c-.036 0-3.63.024-6.031.197l-.032.003-.084.01c-.39.045-1.202.139-1.929.938-.596.648-.769 1.91-.787 2.051l-.002.018c-.005.06-.132 1.496-.132 2.937v1.347c0 1.44.127 2.876.132 2.936l.001.01c.016.142.167 1.407.79 2.063.682.745 1.543.843 2.006.896.073.009.136.016.179.024l.041.005c1.375.131 5.682.195 5.865.198h.011c.036 0 3.63-.024 6.01-.197l.03-.003c.03-.004.064-.008.102-.011.388-.042 1.195-.127 1.912-.915.596-.649.769-1.91.787-2.052l.002-.018c.005-.06.132-1.495.132-2.936v-1.347c0-1.441-.127-2.876-.132-2.937Zm-.923 4.284c0 1.333-.116 2.707-.127 2.833-.045.347-.227 1.145-.518 1.461-.448.493-.908.542-1.245.578l-.112.012c-2.302.167-5.76.192-5.919.193-.179-.002-4.424-.067-5.756-.191a4.671 4.671 0 0 0-.22-.029c-.394-.045-.933-.107-1.348-.563l-.01-.01c-.286-.298-.462-1.044-.507-1.447a36.86 36.86 0 0 1-.128-2.837v-1.347c0-1.332.116-2.704.127-2.833.054-.409.24-1.159.518-1.461.462-.509.949-.565 1.271-.602l.086-.01c2.335-.168 5.818-.193 5.943-.194.125.001 3.607.026 5.921.194l.093.01c.331.038.832.095 1.292.586l.004.004c.286.298.462 1.057.507 1.468.008.09.128 1.483.128 2.838v1.347Z"></path></svg>