<svg xmlns:xlink="http://www.w3.org/1999/xlink" xmlns="http://www.w3.org/2000/svg" data-v-d396ccac="" class="icon-svg" width="58"  height="60" ><defs><svg viewBox="0 0 58 60" id="menu" xmlns="http://www.w3.org/2000/svg"><path d="M2.4 15.5h53.2c1.3 0 2.4 1.1 2.4 2.4 0 1.3-1.1 2.4-2.4 2.4H2.4c-1.3 0-2.4-1.1-2.4-2.4 0-1.3 1.1-2.4 2.4-2.4zM2.4 27.6h53.2c1.3 0 2.4 1.1 2.4 2.4 0 1.3-1.1 2.4-2.4 2.4H2.4C1.1 32.4 0 31.3 0 30c0-1.3 1.1-2.4 2.4-2.4zM29 39.7h26.6c1.3 0 2.4 1.1 2.4 2.4 0 1.3-1.1 2.4-2.4 2.4H29c-1.3 0-2.4-1.1-2.4-2.4 0-1.4 1.1-2.4 2.4-2.4z"></path></svg></defs><use data-v-d396ccac="" xlink:href="#menu"></use></svg>