<svg xmlns:xlink="http://www.w3.org/1999/xlink" xmlns="http://www.w3.org/2000/svg" data-v-47bf1198="" class="icon-svg" style="font-size: 0.9em;" width="25.3"  height="25.5" ><defs><svg viewBox="0 0 25.3 25.5" xml:space="preserve" id="earth" xmlns="http://www.w3.org/2000/svg"><path style="fill-rule:evenodd;clip-rule:evenodd" d="M12.7 1.5c-6.2 0-11.2 5-11.2 11.2S6.5 24 12.7 24c6.2 0 11.2-5 11.2-11.2s-5-11.3-11.2-11.3zM8.5 16.9H3.7c1.4 3 4.2 5.1 7.5 5.6-1.3-1.6-2.2-3.6-2.7-5.6zm1.3 0h5.7c-.6 1.9-1.5 3.7-2.8 5.3-1.4-1.6-2.3-3.4-2.9-5.3zm6-1.3H9.5c-.4-1.9-.4-3.8 0-5.7h6.3c.4 1.9.4 3.8 0 5.7zm1.1 1.3c-.5 2-1.5 3.9-2.8 5.6 3.3-.5 6.1-2.6 7.5-5.6h-4.7zm5.2-1.3h-4.9c.3-1.9.3-3.8 0-5.7h4.9c.3.9.4 1.9.4 2.9s-.1 1.9-.4 2.8zm-13.9 0h-5c-.3-.9-.4-1.9-.4-2.9s.1-2 .4-2.9h4.9c-.3 2-.3 3.9.1 5.8zm4.5-12.3c-1.3 1.6-2.3 3.4-2.8 5.3h5.7C15 6.7 14 4.8 12.7 3.3zm4.2 5.3h4.7c-1.4-3-4.2-5.1-7.5-5.6 1.3 1.6 2.2 3.5 2.8 5.6zm-13.2 0h4.7c.5-2 1.5-3.9 2.8-5.6-3.3.4-6.1 2.6-7.5 5.6z"></path></svg></defs><use data-v-47bf1198="" xlink:href="#earth"></use></svg>