<svg xmlns:xlink="http://www.w3.org/1999/xlink" xmlns="http://www.w3.org/2000/svg" data-v-00f0d6d6="" class="icon-svg mb-0" style="font-size: 0.7em;" width="20"  height="20" ><defs><svg viewBox="0 0 20 20" id="location" xmlns="http://www.w3.org/2000/svg"><path d="M9.5 0C5.365 0 2 3.388 2 7.554c0 5.92 6.795 12.031 7.084 12.288a.624.624 0 0 0 .832 0C10.205 19.585 17 13.474 17 7.555 17 3.388 13.635 0 9.5 0Zm0 11.667A4.171 4.171 0 0 1 5.333 7.5 4.171 4.171 0 0 1 9.5 3.333 4.171 4.171 0 0 1 13.667 7.5 4.171 4.171 0 0 1 9.5 11.667Z"></path></svg></defs><use data-v-00f0d6d6="" xlink:href="#location"></use></svg>