<svg xmlns:xlink="http://www.w3.org/1999/xlink" xmlns="http://www.w3.org/2000/svg" data-v-47bf1198="" class="icon-svg" style="font-size: 0.9em;" width="20"  height="20" ><defs><svg viewBox="0 0 14 15" id="city" xmlns="http://www.w3.org/2000/svg"><path fill-rule="evenodd" clip-rule="evenodd" d="M7.146 5.459a1.022 1.022 0 000 2.042 1.021 1.021 0 000-2.042m0 2.917A1.898 1.898 0 015.25 6.48c0-1.046.85-1.896 1.896-1.896 1.045 0 1.896.85 1.896 1.896 0 1.046-.85 1.896-1.896 1.896"></path><path fill-rule="evenodd" clip-rule="evenodd" d="M7.146 2.542c-2.172 0-3.938 1.783-3.938 3.974 0 2.788 3.28 5.504 3.938 5.649.656-.146 3.937-2.862 3.937-5.649 0-2.19-1.766-3.974-3.937-3.974zm0 10.5c-1.047 0-4.813-3.239-4.813-6.526 0-2.674 2.159-4.849 4.813-4.849 2.653 0 4.812 2.175 4.812 4.85 0 3.286-3.766 6.525-4.812 6.525z"></path></svg></defs><use data-v-47bf1198="" xlink:href="#city"></use></svg>