<svg xmlns:xlink="http://www.w3.org/1999/xlink" xmlns="http://www.w3.org/2000/svg" data-v-00f0d6d6="" class="icon-svg m-0" width="19"  height="19" ><defs><svg viewBox="0 0 15 15" id="email-solid" xmlns="http://www.w3.org/2000/svg"><path fill-rule="evenodd" clip-rule="evenodd" d="M14.963 3.114c.024.125.037.254.037.386v8c0 .132-.013.26-.037.386L10.23 7.5l4.733-4.386ZM.037 11.886A2.01 2.01 0 0 1 0 11.5v-8c0-.134.013-.264.038-.39l4.755 4.369-4.756 4.407Zm7.495-3.191L14.3 2.423H.704l6.827 6.272ZM5.5 8.128.7 12.577H14.3L9.525 8.152l-1.64 1.52a.526.526 0 0 1-.702.002L5.5 8.128Z"></path></svg></defs><use data-v-00f0d6d6="" xlink:href="#email-solid"></use></svg>