<svg xmlns:xlink="http://www.w3.org/1999/xlink" xmlns="http://www.w3.org/2000/svg" data-v-00f0d6d6="" class="icon-svg m-0" width="20"  height="20" ><defs><svg viewBox="0 0 20 20" id="night" xmlns="http://www.w3.org/2000/svg"><path d="M10.04 20c4.374 0 8.093-2.86 9.43-6.81a.586.586 0 0 0-.923-.645 6.951 6.951 0 0 1-4.406 1.557c-3.899 0-7.07-3.155-7.07-7.032 0-2.397 1.276-4.69 3.331-5.986a.586.586 0 0 0-.295-1.081A.885.885 0 0 0 10.04 0C4.536 0 0 4.49 0 10c0 5.508 4.534 10 10.04 10ZM8.224 1.358A8.245 8.245 0 0 0 5.898 7.07c0 4.524 3.698 8.203 8.243 8.203a8.21 8.21 0 0 0 3.437-.758c-1.566 2.637-4.408 4.313-7.539 4.313-4.89 0-8.867-3.96-8.867-8.828 0-4.25 3.03-7.807 7.053-8.642ZM18.242 2.344a.586.586 0 1 0 0-1.172.586.586 0 0 0 0 1.172Z"></path><path d="M11.21 4.688c.954 0 1.759.822 1.759 1.796a.586.586 0 1 0 1.172 0c0-.974.805-1.796 1.757-1.796a.586.586 0 1 0 0-1.172 1.76 1.76 0 0 1-1.757-1.758.586.586 0 1 0-1.172 0 1.76 1.76 0 0 1-1.758 1.758.586.586 0 0 0 0 1.171Zm2.345-1.174c.169.225.37.425.595.593a3.017 3.017 0 0 0-.595.605 3.02 3.02 0 0 0-.596-.605c.226-.168.427-.368.596-.593ZM19.414 7.07a.586.586 0 1 0 0-1.171.586.586 0 0 0 0 1.171Z"></path></svg></defs><use data-v-00f0d6d6="" xlink:href="#night"></use></svg>