<svg xmlns:xlink="http://www.w3.org/1999/xlink" xmlns="http://www.w3.org/2000/svg" data-v-00f0d6d6="" class="icon-svg m-0" width="19"  height="19" ><defs><svg viewBox="0 0 12 12" style="enable-background:new 0 0 12 12" xml:space="preserve" id="phone-solid" xmlns="http://www.w3.org/2000/svg"><path d="M10.3 7.6c-.6 0-1.2-.1-1.8-.3-.3-.1-.6 0-.8.2l-1.1.9c-1.4-.7-2.2-1.5-2.9-2.9l.8-1.1c.2-.2.3-.5.2-.8-.1-.6-.2-1.2-.2-1.8 0-.5-.4-.8-.9-.8H1.8c-.5 0-.8.3-.8.8 0 5.2 4.2 9.4 9.4 9.4.4 0 .8-.4.8-.8V8.5c-.1-.5-.4-.9-.9-.9z"></path></svg></defs><use data-v-00f0d6d6="" xlink:href="#phone-solid"></use></svg>