<svg fill="#dee2e6" xmlns:xlink="http://www.w3.org/1999/xlink" xmlns="http://www.w3.org/2000/svg" data-v-153470d2="" class="icon-svg mb-0" width="39"  height="39" ><defs><svg viewBox="0 0 35 35" id="telegram" xmlns="http://www.w3.org/2000/svg"><path d="M25.886 11.37a.653.653 0 0 0-.73-.199L8.613 17.15a.926.926 0 0 0-.209 1.638l2.365 1.614c.23.157.524.174.77.044l5.129-2.705-3.998 2.985a.75.75 0 0 0-.3.598v2.765a.774.774 0 0 0 1.205.647l1.796-1.192 1.767 1.205a.931.931 0 0 0 1.316-.278l7.485-12.342a.655.655 0 0 0-.053-.758ZM17.624 23.8l-1.83-1.247a.745.745 0 0 0-.833-.006l-1.534 1.018V21.48l7.06-5.271a.741.741 0 0 0 .184-.997.74.74 0 0 0-.979-.261l-8.481 4.472-2-1.365 15.234-5.505L17.624 23.8Z"></path></svg></defs><use data-v-153470d2="" xlink:href="#telegram"></use></svg>