<svg fill="#dee2e6" xmlns:xlink="http://www.w3.org/1999/xlink" xmlns="http://www.w3.org/2000/svg" data-v-153470d2="" class="icon-svg mb-0" width="39"  height="39" ><defs><svg viewBox="0 0 35 35" id="phone" xmlns="http://www.w3.org/2000/svg"><path d="M13.242 20.636a17.028 17.028 0 0 0 5.668 4.422c.828.392 1.937.856 3.171.935.077.004.15.007.227.007.828 0 1.494-.285 2.036-.872a.075.075 0 0 0 .014-.017c.193-.232.412-.44.642-.663a15.4 15.4 0 0 0 .47-.464c.708-.736.708-1.67-.008-2.384l-2-1.992c-.339-.352-.745-.537-1.171-.537-.426 0-.835.185-1.185.534l-1.191 1.186a6.486 6.486 0 0 0-.33-.172 4.124 4.124 0 0 1-.366-.199c-1.085-.686-2.07-1.581-3.012-2.732-.475-.6-.795-1.104-1.018-1.617.313-.282.606-.577.889-.866.1-.103.203-.205.306-.308.36-.358.552-.773.552-1.194 0-.42-.19-.835-.552-1.193l-.992-.988c-.116-.116-.226-.229-.34-.345a18.09 18.09 0 0 0-.675-.666c-.343-.335-.745-.511-1.171-.511-.423 0-.829.176-1.185.514l-1.245 1.24c-.452.45-.708.998-.762 1.631-.063.792.083 1.635.463 2.652.582 1.575 1.46 3.037 2.765 4.599Zm-2.416-7.181c.04-.441.21-.81.53-1.128l1.237-1.233c.193-.186.406-.282.613-.282.203 0 .41.096.599.289.223.205.432.42.659.65.113.116.23.232.346.35l.992.989c.206.206.312.414.312.62 0 .205-.106.414-.313.62l-.309.312c-.31.311-.599.606-.919.888l-.016.017c-.276.275-.233.537-.167.736l.01.026c.257.613.613 1.197 1.169 1.893.998 1.227 2.05 2.178 3.208 2.911.143.093.296.166.439.239.133.066.256.13.366.199l.037.02c.11.056.216.082.323.082.266 0 .439-.168.495-.225l1.245-1.24c.193-.192.403-.295.609-.295.253 0 .46.156.589.295l2.007 1.996c.4.398.396.829-.01 1.25-.14.15-.286.292-.443.44-.233.226-.476.458-.695.72-.383.411-.839.604-1.428.604-.057 0-.116-.004-.173-.007-1.092-.07-2.107-.494-2.869-.855a16.18 16.18 0 0 1-5.394-4.21c-1.242-1.49-2.077-2.875-2.63-4.36-.342-.912-.472-1.645-.419-2.311Z"></path></svg></defs><use data-v-153470d2="" xlink:href="#phone"></use></svg>