<svg fill="#dee2e6" xmlns:xlink="http://www.w3.org/1999/xlink" xmlns="http://www.w3.org/2000/svg" data-v-153470d2="" class="icon-svg mb-0" width="39"  height="39" ><defs><svg viewBox="0 0 35 35" style="enable-background:new 0 0 35 35" xml:space="preserve" id="whatsapp" xmlns="http://www.w3.org/2000/svg"><path d="M21.8 18.8s-1.3-.7-1.6-.7c-.1 0-.2-.1-.3-.1-.2 0-.3.1-.4.3-.1.2-.5.7-.7.8h-.1s-.2-.1-.3-.1c-1.4-.6-2.5-2.1-2.6-2.3v-.1l.1-.1c.1-.1.1-.2.2-.3l.1-.1c.1-.1.2-.2.2-.3v-.1c.1-.3 0-.5 0-.6 0-.1-.6-1.4-.6-1.5-.1-.3-.3-.5-.6-.5h-.1c-.1 0-.8.1-1.1.3-.3.2-.8.8-.8 1.9 0 1 .6 1.9.9 2.3v.1c1 1.5 2.3 2.7 3.7 3.2 1.3.5 1.9.6 2.2.6h.5c.4 0 1.4-.5 1.6-1.1.2-.5.2-1 .1-1.2-.1-.2-.2-.3-.4-.4z"></path><path d="M17.7 8.5c-4.9 0-8.8 3.9-8.8 8.8 0 1.6.4 3.1 1.2 4.4l-1.5 4.5c0 .1 0 .2.1.2 0 0 .1.1.2.1H9l4.7-1.5c1.3.7 2.7 1 4.2 1 4.9 0 8.8-3.9 8.8-8.8-.2-4.8-4.2-8.7-9-8.7zm0 15.7c-1.4 0-2.7-.4-3.9-1.1h-.2l-2.3.7.8-2.2v-.2c-.9-1.2-1.3-2.6-1.3-4.1 0-3.8 3.1-6.9 7-6.9s7 3.1 7 6.9c-.1 3.8-3.3 6.9-7.1 6.9z"></path></svg></defs><use data-v-153470d2="" xlink:href="#whatsapp"></use></svg>