<svg fill="#dee2e6" xmlns:xlink="http://www.w3.org/1999/xlink" xmlns="http://www.w3.org/2000/svg" data-v-153470d2="" class="icon-svg mb-0" width="39"  height="39" ><defs><svg viewBox="0 0 35 35" id="viber" xmlns="http://www.w3.org/2000/svg"><path d="M25.867 19.42c.537-4.52-.258-7.374-1.692-8.665-2.314-2.205-10.13-2.531-12.9.098-1.243 1.287-1.681 3.174-1.73 5.511-.047 2.338-.104 6.717 3.977 7.905h.003l-.003 1.815s-.028.735.441.882c.537.174.78-.167 2.45-2.162 2.794.242 4.939-.313 5.182-.394.564-.189 3.756-.61 4.272-4.99Zm-9.178 4.108s-1.768 2.204-2.318 2.776c-.18.186-.377.169-.374-.2 0-.242.014-3.012.014-3.012-3.46-.992-3.256-4.72-3.219-6.671.038-1.952.395-3.55 1.448-4.626 2.43-2.278 9.282-1.769 11.028-.128 2.134 1.892 1.375 7.238 1.38 7.42-.44 3.656-3.026 3.888-3.501 4.046-.203.068-2.09.553-4.458.395Z"></path><path d="M17.666 12.223c-.289 0-.289.45 0 .453 2.24.018 4.085 1.58 4.105 4.443 0 .303.443.299.439-.003-.025-3.087-2.04-4.876-4.544-4.893Z"></path><path d="M20.614 16.645c-.007.298.435.313.438.01.037-1.702-1.012-3.103-2.984-3.251-.289-.021-.319.433-.03.454 1.71.13 2.61 1.296 2.576 2.787ZM20.14 18.58c-.37-.214-.747-.08-.903.13l-.326.423c-.166.214-.476.186-.476.186-2.26-.598-2.865-2.964-2.865-2.964s-.028-.32.18-.492l.407-.337c.204-.162.333-.552.126-.935-.555-1.003-.928-1.349-1.118-1.614-.2-.25-.5-.306-.811-.138h-.007c-.649.38-1.36 1.09-1.132 1.821.388.771 1.1 3.23 3.371 5.086 1.068.878 2.757 1.778 3.474 1.986l.006.01c.707.236 1.394-.502 1.76-1.17v-.005c.163-.324.11-.63-.128-.83-.422-.41-1.058-.865-1.557-1.156Z"></path><path d="M18.376 15.078c.72.042 1.07.419 1.108 1.192.013.302.452.281.438-.021-.047-1.01-.574-1.572-1.522-1.624-.289-.018-.316.436-.024.453Z"></path></svg></defs><use data-v-153470d2="" xlink:href="#viber"></use></svg>