<svg xmlns:xlink="http://www.w3.org/1999/xlink" xmlns="http://www.w3.org/2000/svg" width="28" height="20" viewBox="0 0 28 20" fill="none">
<path d="M0 2C0 0.895431 0.895431 0 2 0H26C27.1046 0 28 0.895431 28 2V18C28 19.1046 27.1046 20 26 20H2C0.895431 20 0 19.1046 0 18V2Z" fill="white"/>
<path d="M0 2C0 0.895431 0.895431 0 2 0H26C27.1046 0 28 0.895431 28 2V18C28 19.1046 27.1046 20 26 20H2C0.895431 20 0 19.1046 0 18V2Z" fill="white"/>
<path d="M20 0H26C27.1046 0 28 0.895431 28 2V18C28 19.1046 27.1046 20 26 20H20V0Z" fill="#FF3131"/>
<path fill-rule="evenodd" clip-rule="evenodd" d="M0 18C0 19.1046 0.895431 20 2 20H8V0H2C0.895431 0 0 0.895431 0 2V18Z" fill="#FF3131"/>
<path fill-rule="evenodd" clip-rule="evenodd" d="M16.1118 9.22154C15.8786 9.45474 15.4846 9.24386 15.5493 8.92046L16 6.66668L14.6667 7.33334L14 5.33334L13.3333 7.33334L12 6.66668L12.4508 8.92046C12.5154 9.24386 12.1214 9.45474 11.8882 9.22154L11.569 8.90238C11.4389 8.7722 11.2278 8.7722 11.0976 8.90238L10.6667 9.33334L9.33334 8.66668L10 10L9.56905 10.431C9.43887 10.5611 9.43887 10.7722 9.56905 10.9024L11.3333 12.6667H13.3333L13.6667 14.6667H14.3333L14.6667 12.6667H16.6667L18.431 10.9024C18.5611 10.7722 18.5611 10.5611 18.431 10.431L18 10L18.6667 8.66668L17.3333 9.33334L16.9024 8.90238C16.7722 8.7722 16.5611 8.7722 16.431 8.90238L16.1118 9.22154Z" fill="#FF3131"/>
</svg>