<svg xmlns:xlink="http://www.w3.org/1999/xlink" xmlns="http://www.w3.org/2000/svg" width="28" height="20" viewBox="0 0 28 20">
    <mask id="mask0" x="0" y="0" width="28" height="20">
        <rect width="28" height="20" rx="2" fill="white"/>
    </mask>
    <g mask="url(#mask0)">
        <rect width="28" height="20" fill="#F2F2F2"/>
        <path fill-rule="evenodd" clip-rule="evenodd" d="M0 0H28V2.43902H0V0ZM0 4.39024H28V6.82927H0V4.39024ZM28 8.78049H0V11.2195H28V8.78049ZM0 13.1707H28V15.6098H0V13.1707ZM28 17.561H0V20H28V17.561Z" fill="#D02F44"/>
        <rect width="12" height="9.33333" fill="#46467F"/>
        <path fill-rule="evenodd" clip-rule="evenodd" d="M4.28197 2.06745C4.28197 2.55195 3.88921 2.94471 3.40471 2.94471C2.92021 2.94471 2.52745 2.55195 2.52745 2.06745C2.52745 1.58295 2.92021 1.19019 3.40471 1.19019C3.88921 1.19019 4.28197 1.58295 4.28197 2.06745ZM7.79101 2.06745C7.79101 2.55195 7.39825 2.94471 6.91375 2.94471C6.42925 2.94471 6.03649 2.55195 6.03649 2.06745C6.03649 1.58295 6.42925 1.19019 6.91375 1.19019C7.39825 1.19019 7.79101 1.58295 7.79101 2.06745ZM10.4228 2.94471C10.9073 2.94471 11.3 2.55195 11.3 2.06745C11.3 1.58295 10.9073 1.19019 10.4228 1.19019C9.93826 1.19019 9.54549 1.58295 9.54549 2.06745C9.54549 2.55195 9.93826 2.94471 10.4228 2.94471ZM2.52741 3.82198C2.52741 4.30648 2.13465 4.69924 1.65015 4.69924C1.16565 4.69924 0.772888 4.30648 0.772888 3.82198C0.772888 3.33748 1.16565 2.94472 1.65015 2.94472C2.13465 2.94472 2.52741 3.33748 2.52741 3.82198ZM5.15919 4.69924C5.64369 4.69924 6.03645 4.30648 6.03645 3.82198C6.03645 3.33748 5.64369 2.94472 5.15919 2.94472C4.67469 2.94472 4.28192 3.33748 4.28192 3.82198C4.28192 4.30648 4.67469 4.69924 5.15919 4.69924ZM9.54554 3.82198C9.54554 4.30648 9.15278 4.69924 8.66828 4.69924C8.18378 4.69924 7.79102 4.30648 7.79102 3.82198C7.79102 3.33748 8.18378 2.94472 8.66828 2.94472C9.15278 2.94472 9.54554 3.33748 9.54554 3.82198ZM10.4228 6.45378C10.9073 6.45378 11.3 6.06101 11.3 5.57651C11.3 5.09201 10.9073 4.69925 10.4228 4.69925C9.93826 4.69925 9.54549 5.09201 9.54549 5.57651C9.54549 6.06101 9.93826 6.45378 10.4228 6.45378ZM7.79101 5.57651C7.79101 6.06101 7.39825 6.45378 6.91375 6.45378C6.42925 6.45378 6.03649 6.06101 6.03649 5.57651C6.03649 5.09201 6.42925 4.69925 6.91375 4.69925C7.39825 4.69925 7.79101 5.09201 7.79101 5.57651ZM3.40471 6.45378C3.88921 6.45378 4.28197 6.06101 4.28197 5.57651C4.28197 5.09201 3.88921 4.69925 3.40471 4.69925C2.92021 4.69925 2.52745 5.09201 2.52745 5.57651C2.52745 6.06101 2.92021 6.45378 3.40471 6.45378ZM2.52741 7.33105C2.52741 7.81554 2.13465 8.20831 1.65015 8.20831C1.16565 8.20831 0.772888 7.81554 0.772888 7.33105C0.772888 6.84655 1.16565 6.45378 1.65015 6.45378C2.13465 6.45378 2.52741 6.84655 2.52741 7.33105ZM5.15919 8.20831C5.64369 8.20831 6.03645 7.81554 6.03645 7.33105C6.03645 6.84655 5.64369 6.45378 5.15919 6.45378C4.67469 6.45378 4.28192 6.84655 4.28192 7.33105C4.28192 7.81554 4.67469 8.20831 5.15919 8.20831ZM9.54554 7.33105C9.54554 7.81554 9.15278 8.20831 8.66828 8.20831C8.18378 8.20831 7.79102 7.81554 7.79102 7.33105C7.79102 6.84655 8.18378 6.45378 8.66828 6.45378C9.15278 6.45378 9.54554 6.84655 9.54554 7.33105Z" fill="#fff"/>
    </g>
</svg>