<svg xmlns:xlink="http://www.w3.org/1999/xlink" xmlns="http://www.w3.org/2000/svg" class="icon-svg mb-0 fs-1 me-2" width="48"  height="48" ><defs><svg xmlns="http://www.w3.org/2000/svg" viewBox="0 0 36 20" id="audi"><path fill-rule="evenodd" clip-rule="evenodd" d="M6.715 4.1h.383a5.901 5.901 0 013.503 1.3 5.902 5.902 0 013.503-1.3h.393A5.902 5.902 0 0118 5.4a5.902 5.902 0 013.503-1.3h.393A5.902 5.902 0 0125.4 5.4a5.901 5.901 0 013.503-1.3h.393A5.901 5.901 0 1125.4 14.596a5.902 5.902 0 01-7.399 0 5.902 5.902 0 01-7.399 0A5.902 5.902 0 116.705 4.1h.01zm4.767 9.62a4.668 4.668 0 005.637 0 5.902 5.902 0 010-7.443 4.668 4.668 0 00-2.653-.944h-.331a4.668 4.668 0 00-2.653.944 5.902 5.902 0 010 7.443zM10.6 7.15a4.669 4.669 0 010 5.696 4.669 4.669 0 010-5.695zm-.88-.873a5.902 5.902 0 000 7.443 4.669 4.669 0 11-2.985-8.387h.331a4.668 4.668 0 012.653.944zM18 7.15a4.668 4.668 0 000 5.695 4.67 4.67 0 000-5.695zm.88 6.569a4.669 4.669 0 005.638 0 5.902 5.902 0 010-7.443 4.668 4.668 0 00-2.653-.944h-.331a4.668 4.668 0 00-2.653.944 5.902 5.902 0 010 7.443zM25.4 7.15a4.668 4.668 0 000 5.696 4.669 4.669 0 000-5.695zm.88 6.57a4.668 4.668 0 102.985-8.387h-.331a4.668 4.668 0 00-2.653.944 5.901 5.901 0 010 7.443z"></path></svg><svg viewBox="0 0 36 20" id="audi" xmlns="http://www.w3.org/2000/svg"><path fill-rule="evenodd" clip-rule="evenodd" d="M6.715 4.1h.383a5.901 5.901 0 013.503 1.3 5.902 5.902 0 013.503-1.3h.393A5.902 5.902 0 0118 5.4a5.902 5.902 0 013.503-1.3h.393A5.902 5.902 0 0125.4 5.4a5.901 5.901 0 013.503-1.3h.393A5.901 5.901 0 1125.4 14.596a5.902 5.902 0 01-7.399 0 5.902 5.902 0 01-7.399 0A5.902 5.902 0 116.705 4.1h.01zm4.767 9.62a4.668 4.668 0 005.637 0 5.902 5.902 0 010-7.443 4.668 4.668 0 00-2.653-.944h-.331a4.668 4.668 0 00-2.653.944 5.902 5.902 0 010 7.443zM10.6 7.15a4.669 4.669 0 010 5.696 4.669 4.669 0 010-5.695zm-.88-.873a5.902 5.902 0 000 7.443 4.669 4.669 0 11-2.985-8.387h.331a4.668 4.668 0 012.653.944zM18 7.15a4.668 4.668 0 000 5.695 4.67 4.67 0 000-5.695zm.88 6.569a4.669 4.669 0 005.638 0 5.902 5.902 0 010-7.443 4.668 4.668 0 00-2.653-.944h-.331a4.668 4.668 0 00-2.653.944 5.902 5.902 0 010 7.443zM25.4 7.15a4.668 4.668 0 000 5.696 4.669 4.669 0 000-5.695zm.88 6.57a4.668 4.668 0 102.985-8.387h-.331a4.668 4.668 0 00-2.653.944 5.901 5.901 0 010 7.443z"></path></svg></defs><use xlink:href="#audi" __h2d_shadowroot="2673" class=""></use></svg>