<svg xmlns:xlink="http://www.w3.org/1999/xlink" xmlns="http://www.w3.org/2000/svg" class="icon-svg mb-0 fs-1 me-2" width="48"  height="48" ><defs><svg xmlns="http://www.w3.org/2000/svg" viewBox="0 0 36 20" id="bmw"><path fill-rule="evenodd" clip-rule="evenodd" d="M10.929 2.929A9.934 9.934 0 008 10a9.935 9.935 0 002.929 7.071A9.934 9.934 0 0018 20c5.514 0 10-4.486 10-10a9.934 9.934 0 00-2.929-7.071A9.934 9.934 0 0018 0a9.934 9.934 0 00-7.071 2.929zm-2.517 7.07A9.588 9.588 0 1127.588 10a9.588 9.588 0 01-19.176 0z"></path><path fill-rule="evenodd" clip-rule="evenodd" d="M11.876 10a6.124 6.124 0 1012.249 0 6.124 6.124 0 00-12.25 0zM18 10h-5.73A5.73 5.73 0 0118 4.27V10zm0 0h5.73A5.73 5.73 0 0118 15.73V10z"></path><path fill-rule="evenodd" clip-rule="evenodd" d="M12.688 4.082a.644.644 0 01.811.075c.312.303.266.653-.03 1.007L12.17 6.712l-1.936-1.625 1.232-1.467c.255-.304.61-.547.95-.263l.018.016c.092.076.138.115.257.333a.56.56 0 01-.003.376zm6.298-2.385L18.32 3.46h-.552l-.665-1.762V3.46h-.505V.936h.759l.687 1.797.687-1.797h.759v2.523h-.505V1.697zm5.177 4.159l.95-1.347-.418-.517-1.515.65.991-1.297-.39-.482L22.198 4.9l.462.566 1.496-.615.005.007-.913 1.335.459.57 2.32-1.125-.39-.482-1.474.7zM12.139 3.989c-.125-.104-.319-.108-.404-.006l-.74.881.458.384.73-.871c.093-.11.093-.273-.044-.388zm.126 1.94l.77-.918c.103-.122.088-.312-.06-.438-.133-.11-.329-.08-.416.025l-.778.926.484.406z"></path></svg><svg viewBox="0 0 36 20" id="bmw" xmlns="http://www.w3.org/2000/svg"><path fill-rule="evenodd" clip-rule="evenodd" d="M10.929 2.929A9.934 9.934 0 008 10a9.935 9.935 0 002.929 7.071A9.934 9.934 0 0018 20c5.514 0 10-4.486 10-10a9.934 9.934 0 00-2.929-7.071A9.934 9.934 0 0018 0a9.934 9.934 0 00-7.071 2.929zm-2.517 7.07A9.588 9.588 0 1127.588 10a9.588 9.588 0 01-19.176 0z"></path><path fill-rule="evenodd" clip-rule="evenodd" d="M11.876 10a6.124 6.124 0 1012.249 0 6.124 6.124 0 00-12.25 0zM18 10h-5.73A5.73 5.73 0 0118 4.27V10zm0 0h5.73A5.73 5.73 0 0118 15.73V10z"></path><path fill-rule="evenodd" clip-rule="evenodd" d="M12.688 4.082a.644.644 0 01.811.075c.312.303.266.653-.03 1.007L12.17 6.712l-1.936-1.625 1.232-1.467c.255-.304.61-.547.95-.263l.018.016c.092.076.138.115.257.333a.56.56 0 01-.003.376zm6.298-2.385L18.32 3.46h-.552l-.665-1.762V3.46h-.505V.936h.759l.687 1.797.687-1.797h.759v2.523h-.505V1.697zm5.177 4.159l.95-1.347-.418-.517-1.515.65.991-1.297-.39-.482L22.198 4.9l.462.566 1.496-.615.005.007-.913 1.335.459.57 2.32-1.125-.39-.482-1.474.7zM12.139 3.989c-.125-.104-.319-.108-.404-.006l-.74.881.458.384.73-.871c.093-.11.093-.273-.044-.388zm.126 1.94l.77-.918c.103-.122.088-.312-.06-.438-.133-.11-.329-.08-.416.025l-.778.926.484.406z"></path></svg></defs><use xlink:href="#bmw" __h2d_shadowroot="2650" class=""></use></svg>