<svg xmlns:xlink="http://www.w3.org/1999/xlink" xmlns="http://www.w3.org/2000/svg" class="icon-svg mb-0 fs-1 me-2" width="48"  height="48" ><defs><svg xmlns="http://www.w3.org/2000/svg" viewBox="0 0 36 20" id="citroen"><path fill-rule="evenodd" clip-rule="evenodd" d="M22.696 16.022h-.003c-.07.002-.314.008-.553 0-.61 0-1.27-.463-1.27-1.212 0-.742.646-1.186 1.267-1.186.007-.001.31-.014.559 0 .624 0 1.27.444 1.27 1.186 0 .749-.66 1.212-1.27 1.212zm.595-2.865c-.868-.02-1.75 0-1.757 0-1.06 0-1.922.739-1.922 1.648 0 .923.862 1.673 1.923 1.673.007 0 .889.018 1.757 0 1.062 0 1.926-.75 1.926-1.673 0-.9-.847-1.624-1.927-1.649zm11.283 3.28l1.08-.001v-1.583c0-.925-.823-1.65-1.873-1.65h-2.735c-.044 0-.148.012-.148.12v2.99c0 .08.058.123.115.123h1.143v-2.5a.16.16 0 01.163-.168l1.26-.001c.348 0 .864.32.864 1.005v1.538c0 .001.002.126.13.126zM11.76 13.843h1.687v-.514c0-.072-.052-.127-.121-.127H8.624a.123.123 0 00-.122.125v.517h1.123c.422 0 .705.364.705.703v1.765c0 .059.051.123.124.123h1.14V14.01c0-.091.075-.165.166-.165zm-5.197 2.47c0 .072.065.122.123.122h.065l-.01.008c.033-.008.143-.008.526-.008h.558v-3.11a.124.124 0 00-.12-.123H6.685a.125.125 0 00-.123.123v2.987zm8.818-1.597v-.646c0-.176.125-.3.303-.3h1.678c.255 0 .47.215.47.47a.476.476 0 01-.475.475h-1.976zm2.454 1.72h1.254c-.02-.777-.823-1.099-.916-1.133l-.016-.006.001-.044.016-.004c.538-.12.913-.535.913-1.006 0-.5-.487-1.042-1.274-1.042l-3.034.001a.651.651 0 00-.656.66v2.45c0 .07.051.122.121.122l1.139.001-.001-1.146h1.075c.956 0 1.349.694 1.378 1.147zm-13.188-2.15h1.227c-.266-.675-1.002-1.14-1.849-1.155l-.377-.008c-.591-.013-.861-.019-1.379.008-.605.03-.985.169-1.358.496-.365.32-.565.74-.566 1.188 0 .925.818 1.65 1.902 1.688.743.027.822.027 1.797-.002.902-.027 1.55-.439 1.83-1.155H4.645a.115.115 0 00-.106.061 1.277 1.277 0 01-1.11.625c-.252.01-.556 0-.556 0-.624 0-1.27-.453-1.27-1.212v-.007c.005-.753.649-1.203 1.273-1.204.071-.003.323-.01.553 0 .455 0 .892.243 1.112.62a.12.12 0 00.105.058zm25.574 1.568H27.25c-.1 0-.17-.066-.17-.162v-.616h2.576v-.568h-2.576l-.001-.562c0-.003-.002-.063.043-.11.034-.036.084-.054.149-.054h2.95v-.453c0-.039-.01-.07-.032-.09-.04-.04-.108-.037-.112-.037h-4.134c-.013 0-.126.004-.126.127v2.448c0 .324.248.658.662.658h3.62c.03 0 .061-.013.085-.035a.118.118 0 00.039-.085v-.46zm-.924-3.821a.81.81 0 00-.437-.113c-.17 0-.322.04-.438.113-.115.072-.207.17-.344.17-.136 0-.219-.098-.341-.17a.84.84 0 00-.438-.113.816.816 0 00-.438.113c-.12.073-.181.164-.181.268 0 .105.06.195.181.269a.819.819 0 00.438.111c.17 0 .318-.036.428-.103.11-.067.228-.176.35-.176.124 0 .236.098.346.168.11.07.267.111.437.111a.812.812 0 00.441-.111c.119-.074.178-.164.178-.269 0-.105-.06-.195-.182-.268zM23.812 10.551C22.732 9.625 19.523 6.99 18 6.99c-1.524 0-4.73 2.633-5.81 3.56-.007-.219-.013-.352-.013-.547 0 0-.027-.322.258-.644 2.343-2.123 4.799-3.161 4.874-3.193.733-.31.691-.251.69-1.494 0 0 .034-.002.054 0 1.032.094 3.805 2.785 5.446 4.605.003.003.324.375.324.766 0 .184-.005.365-.01.508zm-.044-1.519c-.174-.193-4.281-4.727-5.768-4.727-1.486 0-5.593 4.534-5.767 4.727-.018.019-.418.477-.418 1.012 0 .415.027.834.027.838.001.02.011.196.11.244a.115.115 0 00.05.012.213.213 0 00.121-.048c.045-.04 4.229-3.735 5.877-3.735 1.649 0 5.833 3.695 5.875 3.733.046.033.087.05.124.05a.117.117 0 00.05-.011c.099-.048.108-.226.109-.245 0-.003.028-.422.028-.838 0-.535-.401-.993-.418-1.012zm.038-2.793C22.727 5.314 19.522 2.682 18 2.682c-1.522 0-4.725 2.63-5.805 3.556-.006-.218-.012-.351-.012-.546 0 0-.027-.321.258-.643 2.34-2.12 4.794-3.158 4.87-3.19.731-.31.69-.251.69-1.492 0 0 .032-.002.053 0 1.03.093 3.8 2.782 5.44 4.6.003.003.323.374.323.766 0 .183-.005.364-.01.506zm-.044-1.517C23.588 4.529 19.485 0 18 0c-1.485 0-5.588 4.529-5.762 4.722-.017.019-.418.477-.418 1.01 0 .416.028.834.028.838.001.02.011.196.109.244a.115.115 0 00.05.012.212.212 0 00.122-.049c.045-.039 4.224-3.73 5.871-3.73 1.647 0 5.827 3.691 5.869 3.728.045.034.087.05.124.05a.114.114 0 00.05-.011c.098-.048.108-.225.109-.245 0-.003.027-.421.027-.836 0-.534-.4-.992-.417-1.011z"></path></svg><svg viewBox="0 0 36 20" id="citroen" xmlns="http://www.w3.org/2000/svg"><path fill-rule="evenodd" clip-rule="evenodd" d="M22.696 16.022h-.003c-.07.002-.314.008-.553 0-.61 0-1.27-.463-1.27-1.212 0-.742.646-1.186 1.267-1.186.007-.001.31-.014.559 0 .624 0 1.27.444 1.27 1.186 0 .749-.66 1.212-1.27 1.212zm.595-2.865c-.868-.02-1.75 0-1.757 0-1.06 0-1.922.739-1.922 1.648 0 .923.862 1.673 1.923 1.673.007 0 .889.018 1.757 0 1.062 0 1.926-.75 1.926-1.673 0-.9-.847-1.624-1.927-1.649zm11.283 3.28l1.08-.001v-1.583c0-.925-.823-1.65-1.873-1.65h-2.735c-.044 0-.148.012-.148.12v2.99c0 .08.058.123.115.123h1.143v-2.5a.16.16 0 01.163-.168l1.26-.001c.348 0 .864.32.864 1.005v1.538c0 .001.002.126.13.126zM11.76 13.843h1.687v-.514c0-.072-.052-.127-.121-.127H8.624a.123.123 0 00-.122.125v.517h1.123c.422 0 .705.364.705.703v1.765c0 .059.051.123.124.123h1.14V14.01c0-.091.075-.165.166-.165zm-5.197 2.47c0 .072.065.122.123.122h.065l-.01.008c.033-.008.143-.008.526-.008h.558v-3.11a.124.124 0 00-.12-.123H6.685a.125.125 0 00-.123.123v2.987zm8.818-1.597v-.646c0-.176.125-.3.303-.3h1.678c.255 0 .47.215.47.47a.476.476 0 01-.475.475h-1.976zm2.454 1.72h1.254c-.02-.777-.823-1.099-.916-1.133l-.016-.006.001-.044.016-.004c.538-.12.913-.535.913-1.006 0-.5-.487-1.042-1.274-1.042l-3.034.001a.651.651 0 00-.656.66v2.45c0 .07.051.122.121.122l1.139.001-.001-1.146h1.075c.956 0 1.349.694 1.378 1.147zm-13.188-2.15h1.227c-.266-.675-1.002-1.14-1.849-1.155l-.377-.008c-.591-.013-.861-.019-1.379.008-.605.03-.985.169-1.358.496-.365.32-.565.74-.566 1.188 0 .925.818 1.65 1.902 1.688.743.027.822.027 1.797-.002.902-.027 1.55-.439 1.83-1.155H4.645a.115.115 0 00-.106.061 1.277 1.277 0 01-1.11.625c-.252.01-.556 0-.556 0-.624 0-1.27-.453-1.27-1.212v-.007c.005-.753.649-1.203 1.273-1.204.071-.003.323-.01.553 0 .455 0 .892.243 1.112.62a.12.12 0 00.105.058zm25.574 1.568H27.25c-.1 0-.17-.066-.17-.162v-.616h2.576v-.568h-2.576l-.001-.562c0-.003-.002-.063.043-.11.034-.036.084-.054.149-.054h2.95v-.453c0-.039-.01-.07-.032-.09-.04-.04-.108-.037-.112-.037h-4.134c-.013 0-.126.004-.126.127v2.448c0 .324.248.658.662.658h3.62c.03 0 .061-.013.085-.035a.118.118 0 00.039-.085v-.46zm-.924-3.821a.81.81 0 00-.437-.113c-.17 0-.322.04-.438.113-.115.072-.207.17-.344.17-.136 0-.219-.098-.341-.17a.84.84 0 00-.438-.113.816.816 0 00-.438.113c-.12.073-.181.164-.181.268 0 .105.06.195.181.269a.819.819 0 00.438.111c.17 0 .318-.036.428-.103.11-.067.228-.176.35-.176.124 0 .236.098.346.168.11.07.267.111.437.111a.812.812 0 00.441-.111c.119-.074.178-.164.178-.269 0-.105-.06-.195-.182-.268zM23.812 10.551C22.732 9.625 19.523 6.99 18 6.99c-1.524 0-4.73 2.633-5.81 3.56-.007-.219-.013-.352-.013-.547 0 0-.027-.322.258-.644 2.343-2.123 4.799-3.161 4.874-3.193.733-.31.691-.251.69-1.494 0 0 .034-.002.054 0 1.032.094 3.805 2.785 5.446 4.605.003.003.324.375.324.766 0 .184-.005.365-.01.508zm-.044-1.519c-.174-.193-4.281-4.727-5.768-4.727-1.486 0-5.593 4.534-5.767 4.727-.018.019-.418.477-.418 1.012 0 .415.027.834.027.838.001.02.011.196.11.244a.115.115 0 00.05.012.213.213 0 00.121-.048c.045-.04 4.229-3.735 5.877-3.735 1.649 0 5.833 3.695 5.875 3.733.046.033.087.05.124.05a.117.117 0 00.05-.011c.099-.048.108-.226.109-.245 0-.003.028-.422.028-.838 0-.535-.401-.993-.418-1.012zm.038-2.793C22.727 5.314 19.522 2.682 18 2.682c-1.522 0-4.725 2.63-5.805 3.556-.006-.218-.012-.351-.012-.546 0 0-.027-.321.258-.643 2.34-2.12 4.794-3.158 4.87-3.19.731-.31.69-.251.69-1.492 0 0 .032-.002.053 0 1.03.093 3.8 2.782 5.44 4.6.003.003.323.374.323.766 0 .183-.005.364-.01.506zm-.044-1.517C23.588 4.529 19.485 0 18 0c-1.485 0-5.588 4.529-5.762 4.722-.017.019-.418.477-.418 1.01 0 .416.028.834.028.838.001.02.011.196.109.244a.115.115 0 00.05.012.212.212 0 00.122-.049c.045-.039 4.224-3.73 5.871-3.73 1.647 0 5.827 3.691 5.869 3.728.045.034.087.05.124.05a.114.114 0 00.05-.011c.098-.048.108-.225.109-.245 0-.003.027-.421.027-.836 0-.534-.4-.992-.417-1.011z"></path></svg></defs><use xlink:href="#citroen" __h2d_shadowroot="2586" class=""></use></svg>