<svg xmlns:xlink="http://www.w3.org/1999/xlink" xmlns="http://www.w3.org/2000/svg" viewBox="0 0 36 20" id="ford" width="36"  height="20" ><path d="M25.098 11.419a.05.05 0 01-.004-.018v.004c.006.059.022.17.034.254.02-.038.04-.077.06-.12.016-.031.008-.041-.005-.046-.04-.014-.08-.044-.085-.074zM25.78 10.52c.006.064.054.072.094.016l.037-.056a1.409 1.409 0 00-.035-.044 3.381 3.381 0 00-.316-.316c.128.12.206.266.22.4zM23.228 6.141z"></path><path d="M18 4.142C8.612 4.142 1 6.764 1 10c0 3.236 7.611 5.859 17 5.859S35 13.236 35 10c0-3.236-7.611-5.858-17-5.858zm0 .507c9.06 0 16.403 2.395 16.403 5.351S27.06 15.352 18 15.352c-9.06 0-16.403-2.396-16.403-5.352C1.598 7.044 8.94 4.65 18 4.65zm-4.435.952c-.241 0-.484.01-.728.03-1.621.135-3.165 1.04-3.168 2.411-.001.696.498 1.26 1.273 1.235.91-.03 1.656-.752 2.047-1.662.149-.345-.126-.488-.257-.29a2.308 2.308 0 01-.918.81c-.428.207-.886.15-1.024-.194-.195-.485.21-1.212 1.135-1.553 1.337-.49 2.735-.166 4.08.084.02 0 .09.04.027.072-.24.13-.477.236-.847.55-.265.225-.612.524-.88.85-.266.321-.455.608-.705.925-.035.046-.078.044-.077.044-.609.102-1.205.17-1.75.546-.113.077-.162.213-.093.318.061.093.202.103.3.033a1.84 1.84 0 011.087-.38c.018 0 .026.003.031.014.003.006.001.019-.006.028-.6.823-.75 1.01-1.2 1.52-.231.262-.458.484-.711.714-1.024.942-2.126.926-2.52.335-.237-.354-.206-.726-.051-1.035.19-.378.575-.655.895-.817.12-.06.154-.21.035-.347-.076-.09-.26-.105-.396-.08-.42.076-.915.39-1.208.768a2.09 2.09 0 00-.44 1.516c.1 1.042.967 1.644 1.95 1.637.783-.006 1.521-.24 2.409-1.133.827-.832 1.58-2.074 2.286-3.227.022-.036.038-.056.145-.07a27.067 27.067 0 011.515-.14c.093-.006.112-.005.15.041.109.137.273.252.404.323.064.034.094.051.145.052a.185.185 0 00.141-.067c.045-.048.057-.11.033-.151-.025-.043-.317-.204-.326-.268-.007-.04.038-.05.038-.05a.946.946 0 00.574-.461c.133-.253.154-.59-.089-.778-.214-.165-.536-.139-.794.09a.948.948 0 00-.3.828c.005.05.003.066-.065.072-.387.03-.76.041-1.175.063-.028.002-.037-.016-.02-.035.477-.822 1.19-1.407 1.98-1.984.052-.038.036-.112.034-.174 1.424.306 2.8.877 4.279.865.61-.005 1.196-.097 1.755-.401.492-.266.691-.511.706-.767.011-.176-.112-.288-.289-.25-1.493.34-2.918.336-4.403.158-1.697-.204-3.325-.623-5.014-.618zm2.98 2.381a.156.156 0 01.094.036c.08.067.042.233-.038.348a.646.646 0 01-.368.263c-.027.005-.05-.007-.061-.066a.589.589 0 01.198-.514.254.254 0 01.175-.067zm11.987.03l-.91.001c-.067 0-.102.008-.134.07-.104.198-1.377 2.086-1.614 2.453-.04.056-.088.048-.094-.015-.024-.218-.214-.469-.513-.588a1.316 1.316 0 00-.683-.078c-.418.056-.791.274-1.12.52-.493.373-.92.855-1.47 1.21-.3.195-.711.364-.986.111-.25-.228-.221-.736.16-1.129.04-.041.088-.007.08.03a.495.495 0 00.145.478.548.548 0 00.608.066.789.789 0 00.422-.604c.064-.4-.247-.754-.637-.783-.317-.022-.621.088-.917.33a1.747 1.747 0 00-.361.392c-.031.045-.08.05-.078-.017.015-.513-.2-.802-.628-.811-.333-.008-.688.17-.965.39-.304.24-.569.56-.854.862-.035.037-.066.035-.076-.037-.008-.34-.095-.67-.254-.903a.212.212 0 00-.274-.067c-.046.025-.206.098-.322.19-.057.047-.08.116-.054.203.153.508.12 1.086-.089 1.573-.191.447-.563.85-.999.987-.288.09-.587.046-.772-.207-.254-.348-.151-.954.227-1.457.335-.444.818-.725 1.3-.906.057-.022.07-.058.053-.106-.026-.078-.068-.185-.085-.234-.044-.116-.168-.135-.32-.12-.35.041-.666.16-.978.326-.818.433-1.228 1.272-1.408 1.721-.086.216-.16.35-.256.47-.129.16-.29.306-.586.563a.102.102 0 00-.024.12c.03.061.184.276.227.295.048.024.104-.009.127-.025a3.05 3.05 0 00.576-.508c.042-.052.086-.03.108.047.113.4.41.727.82.863.749.25 1.527-.112 2.114-.743.373-.4.508-.659.65-.834.243-.297.72-.963 1.29-1.39.209-.157.456-.277.58-.197.1.064.132.212-.028.5-.58 1.05-1.434 2.283-1.591 2.582-.029.052-.004.093.051.093.304-.002.605 0 .88 0 .047-.003.067-.024.09-.056.446-.69.865-1.348 1.314-2.027.025-.04.049-.009.05.009.009.157.048.373.142.514a.78.78 0 00.678.376c.212.003.32-.03.549-.114.186-.068.336-.158.45-.24.068-.045.08.032.078.043-.103.549.024 1.198.574 1.467.659.322 1.382-.13 1.798-.538.041-.04.085-.035.089.05a.75.75 0 00.21.47c.349.346 1.053.209 1.759-.333.453-.346.928-.836 1.357-1.354.015-.02.027-.053-.003-.085-.066-.068-.16-.145-.225-.205-.03-.025-.073-.018-.098.001-.439.414-.834.886-1.406 1.276-.193.133-.5.24-.638.056-.054-.072-.048-.172.005-.302.167-.412 2.806-4.39 2.943-4.624.023-.04-.002-.07-.054-.07zM24.835 10.5c.07 0 .134.013.193.041.325.154.221.526.076.819a.079.079 0 00-.006.06c.005.03.045.06.085.074.013.005.021.015.006.047-.113.238-.216.375-.356.582-.13.191-.275.34-.452.484-.266.218-.636.455-.941.296-.136-.07-.195-.258-.192-.41.007-.429.199-.868.554-1.3.352-.429.734-.69 1.033-.693z"></path></svg>