<svg xmlns:xlink="http://www.w3.org/1999/xlink" xmlns="http://www.w3.org/2000/svg" class="icon-svg mb-0 fs-1 me-2" width="48"  height="48" ><defs><svg xmlns="http://www.w3.org/2000/svg" viewBox="0 0 36 20" id="honda"><path d="M5.868 16.762l.481.057c.218.023.241.206.241.32v.563H4.378v-.562c0-.115.023-.298.24-.321l.482-.057v-.482H2.235v.482l.481.057c.218.023.24.206.24.32v1.858c0 .114-.022.298-.24.32l-.481.058v.481H5.1v-.481l-.481-.058c-.218-.022-.24-.206-.24-.32v-.562h2.2v.562c0 .114-.023.298-.241.32l-.481.058v.481h2.865v-.481l-.481-.058c-.218-.022-.241-.206-.241-.32V17.14c0-.115.023-.298.24-.321l.482-.057v-.482H5.857v.482h.011zM24.951 16.28h-3.53v.482l.424.046c.15.022.252.08.252.286v1.891c0 .115-.023.298-.24.321l-.482.057v.482h3.576c1.284 0 2.338-.516 2.338-1.788s-1.054-1.777-2.338-1.777zm-.263 2.889h-1.204v-2.201h1.204c.71 0 .95.332.95 1.1 0 .757-.24 1.1-.95 1.1z"></path><path d="M33.295 19.317c-.23-.022-.298-.171-.367-.274l-1.65-2.522c-.115-.183-.206-.24-.378-.24h-2.705v.48l.653.07a.187.187 0 01.115.297l-1.227 1.983c-.046.08-.114.172-.252.195l-.481.057v.482h2.28v-.482l-.39-.034c-.171-.023-.263-.138-.171-.275l.183-.298h2.2l.161.24c.15.218-.034.31-.194.322l-.402.045v.482h3.095v-.482l-.47-.046zm-4.012-1.192l.677-1.1.722 1.1h-1.398zM18.865 16.762l.482.057c.217.023.24.207.24.321v1.788l-1.89-2.498c-.081-.115-.161-.15-.368-.15h-2.452v.482l.481.057c.218.023.24.207.24.321v1.857c0 .114-.022.298-.24.32l-.481.058v.481h2.292v-.48l-.481-.058c-.218-.023-.241-.207-.241-.321v-1.788l1.891 2.487c.092.115.16.149.367.149h1.742v-2.716c0-.115.023-.298.24-.321l.482-.058v-.481h-2.28l-.024.493zM11.793 16.154c-2.326 0-2.922 1.02-2.922 1.903 0 .882.596 1.914 2.922 1.914 2.327 0 2.923-1.02 2.923-1.903 0-.894-.596-1.914-2.922-1.914zm0 3.14c-.905 0-1.272-.378-1.272-1.226s.378-1.226 1.272-1.226c.906 0 1.273.378 1.273 1.226s-.367 1.227-1.273 1.227zM21.96 1.209c-.39 1.754-.55 2.567-.871 3.828-.31 1.215-.55 2.35-.963 2.9-.413.561-.974.676-1.353.722a5.653 5.653 0 01-.767.034c-.425 0-.573-.011-.768-.034-.379-.046-.94-.16-1.353-.722-.412-.55-.653-1.685-.951-2.9-.321-1.272-.481-2.074-.871-3.828 0 0-.39.011-.562.023-.24.011-.424.034-.619.057 0 0 .23 3.61.333 5.146.103 1.605.298 4.321.47 6.373 0 0 .332.057.882.08.573.034.837.034.837.034.24-.905.527-2.154.86-2.693.274-.435.687-.481.928-.516.366-.046.688-.057.825-.057.149 0 .458 0 .825.057.24.035.654.08.929.516.332.539.63 1.788.86 2.694 0 0 .251 0 .824-.035.55-.034.883-.08.883-.08.172-2.052.367-4.757.47-6.373.103-1.524.332-5.146.332-5.146a8.82 8.82 0 00-.619-.057c-.172-.012-.561-.023-.561-.023z"></path><path d="M26.51 3.34C26.28 1.049 24.745.568 23.404.339c-.676-.115-1.88-.207-2.648-.24-.676-.047-2.258-.07-2.739-.07-.481 0-2.063.023-2.74.07-.767.033-1.97.125-2.647.24-1.34.229-2.876.71-3.106 3.003-.068.63-.08 1.444-.068 2.315.022 1.455.149 2.43.217 3.117.046.47.241 1.869.493 2.59.344.998.653 1.284 1.02 1.582.665.539 1.765.71 1.995.757 1.237.217 3.736.263 4.848.263 1.1 0 3.61-.034 4.848-.263.229-.046 1.33-.207 1.994-.757.367-.298.676-.584 1.02-1.581.252-.723.447-2.132.493-2.59.069-.677.195-1.663.218-3.118-.012-.883-.035-1.696-.092-2.315zm-.848 3.852c-.138 1.833-.298 2.934-.527 3.725-.207.699-.459 1.157-.826 1.49-.619.561-1.467.676-1.97.756-1.078.16-2.9.218-4.322.218-1.433 0-3.243-.058-4.32-.218-.505-.08-1.353-.195-1.972-.757-.367-.332-.619-.802-.825-1.49-.23-.79-.402-1.89-.528-3.724-.08-1.1-.068-2.889.058-3.851.172-1.444.882-2.167 2.407-2.43.71-.126 1.673-.218 2.578-.264a50.944 50.944 0 012.602-.069c.665-.011 1.868.023 2.59.07.906.045 1.869.137 2.58.263 1.523.275 2.234.997 2.418 2.43.126.95.137 2.739.057 3.85z"></path></svg><svg viewBox="0 0 36 20" id="honda" xmlns="http://www.w3.org/2000/svg"><path d="M5.868 16.762l.481.057c.218.023.241.206.241.32v.563H4.378v-.562c0-.115.023-.298.24-.321l.482-.057v-.482H2.235v.482l.481.057c.218.023.24.206.24.32v1.858c0 .114-.022.298-.24.32l-.481.058v.481H5.1v-.481l-.481-.058c-.218-.022-.24-.206-.24-.32v-.562h2.2v.562c0 .114-.023.298-.241.32l-.481.058v.481h2.865v-.481l-.481-.058c-.218-.022-.241-.206-.241-.32V17.14c0-.115.023-.298.24-.321l.482-.057v-.482H5.857v.482h.011zM24.951 16.28h-3.53v.482l.424.046c.15.022.252.08.252.286v1.891c0 .115-.023.298-.24.321l-.482.057v.482h3.576c1.284 0 2.338-.516 2.338-1.788s-1.054-1.777-2.338-1.777zm-.263 2.889h-1.204v-2.201h1.204c.71 0 .95.332.95 1.1 0 .757-.24 1.1-.95 1.1z"></path><path d="M33.295 19.317c-.23-.022-.298-.171-.367-.274l-1.65-2.522c-.115-.183-.206-.24-.378-.24h-2.705v.48l.653.07a.187.187 0 01.115.297l-1.227 1.983c-.046.08-.114.172-.252.195l-.481.057v.482h2.28v-.482l-.39-.034c-.171-.023-.263-.138-.171-.275l.183-.298h2.2l.161.24c.15.218-.034.31-.194.322l-.402.045v.482h3.095v-.482l-.47-.046zm-4.012-1.192l.677-1.1.722 1.1h-1.398zM18.865 16.762l.482.057c.217.023.24.207.24.321v1.788l-1.89-2.498c-.081-.115-.161-.15-.368-.15h-2.452v.482l.481.057c.218.023.24.207.24.321v1.857c0 .114-.022.298-.24.32l-.481.058v.481h2.292v-.48l-.481-.058c-.218-.023-.241-.207-.241-.321v-1.788l1.891 2.487c.092.115.16.149.367.149h1.742v-2.716c0-.115.023-.298.24-.321l.482-.058v-.481h-2.28l-.024.493zM11.793 16.154c-2.326 0-2.922 1.02-2.922 1.903 0 .882.596 1.914 2.922 1.914 2.327 0 2.923-1.02 2.923-1.903 0-.894-.596-1.914-2.922-1.914zm0 3.14c-.905 0-1.272-.378-1.272-1.226s.378-1.226 1.272-1.226c.906 0 1.273.378 1.273 1.226s-.367 1.227-1.273 1.227zM21.96 1.209c-.39 1.754-.55 2.567-.871 3.828-.31 1.215-.55 2.35-.963 2.9-.413.561-.974.676-1.353.722a5.653 5.653 0 01-.767.034c-.425 0-.573-.011-.768-.034-.379-.046-.94-.16-1.353-.722-.412-.55-.653-1.685-.951-2.9-.321-1.272-.481-2.074-.871-3.828 0 0-.39.011-.562.023-.24.011-.424.034-.619.057 0 0 .23 3.61.333 5.146.103 1.605.298 4.321.47 6.373 0 0 .332.057.882.08.573.034.837.034.837.034.24-.905.527-2.154.86-2.693.274-.435.687-.481.928-.516.366-.046.688-.057.825-.057.149 0 .458 0 .825.057.24.035.654.08.929.516.332.539.63 1.788.86 2.694 0 0 .251 0 .824-.035.55-.034.883-.08.883-.08.172-2.052.367-4.757.47-6.373.103-1.524.332-5.146.332-5.146a8.82 8.82 0 00-.619-.057c-.172-.012-.561-.023-.561-.023z"></path><path d="M26.51 3.34C26.28 1.049 24.745.568 23.404.339c-.676-.115-1.88-.207-2.648-.24-.676-.047-2.258-.07-2.739-.07-.481 0-2.063.023-2.74.07-.767.033-1.97.125-2.647.24-1.34.229-2.876.71-3.106 3.003-.068.63-.08 1.444-.068 2.315.022 1.455.149 2.43.217 3.117.046.47.241 1.869.493 2.59.344.998.653 1.284 1.02 1.582.665.539 1.765.71 1.995.757 1.237.217 3.736.263 4.848.263 1.1 0 3.61-.034 4.848-.263.229-.046 1.33-.207 1.994-.757.367-.298.676-.584 1.02-1.581.252-.723.447-2.132.493-2.59.069-.677.195-1.663.218-3.118-.012-.883-.035-1.696-.092-2.315zm-.848 3.852c-.138 1.833-.298 2.934-.527 3.725-.207.699-.459 1.157-.826 1.49-.619.561-1.467.676-1.97.756-1.078.16-2.9.218-4.322.218-1.433 0-3.243-.058-4.32-.218-.505-.08-1.353-.195-1.972-.757-.367-.332-.619-.802-.825-1.49-.23-.79-.402-1.89-.528-3.724-.08-1.1-.068-2.889.058-3.851.172-1.444.882-2.167 2.407-2.43.71-.126 1.673-.218 2.578-.264a50.944 50.944 0 012.602-.069c.665-.011 1.868.023 2.59.07.906.045 1.869.137 2.58.263 1.523.275 2.234.997 2.418 2.43.126.95.137 2.739.057 3.85z"></path></svg></defs><use xlink:href="#honda" __h2d_shadowroot="2495" class=""></use></svg>