<svg xmlns:xlink="http://www.w3.org/1999/xlink" xmlns="http://www.w3.org/2000/svg" class="icon-svg mb-0 fs-1 me-2" width="48"  height="48" ><defs><svg xmlns="http://www.w3.org/2000/svg" viewBox="0 0 36 20" id="hyundai"><path fill-rule="evenodd" clip-rule="evenodd" d="M21.56 12.002c.258 1.338-.443 2.449-1.026 3.528-.647 1.003-1.715 1.866-2.999 1.737a30.44 30.44 0 01-8.307-1.274.513.513 0 01-.302-.215c-.054-.152.022-.292.13-.389 2.384-1.931 5.221-2.826 8.026-3.765 1.046-.302 2.158-.626 3.334-.475.485.065.97.4 1.143.853zm9.828-5.718c1.337 1.1 2.546 2.6 2.136 4.413-.67 2.675-3.582 4.1-5.901 5.006-1.263.42-2.536.852-3.917.982-.086-.011-.226.01-.248-.12l.032-.15c1.964-2.212 3.452-4.693 4.758-7.207a59.459 59.459 0 001.683-3.442.55.55 0 01.238-.161c.485.043.83.42 1.219.68zM12.56 3.436l-.043.162c-2.837 3.225-4.704 6.969-6.473 10.691-.345.324-.68-.108-.993-.248-1.575-1.036-3-2.708-2.589-4.693.658-2.59 3.323-3.97 5.546-4.908 1.316-.497 2.686-.896 4.132-1.123.15 0 .345-.021.42.119zm14.08.518c.162.086.356.118.453.28.086.183-.086.302-.184.42-2.233 1.748-4.79 2.72-7.4 3.572-1.328.324-2.666.906-4.144.583a1.374 1.374 0 01-.852-.648c-.367-1.014.13-2.071.561-2.956.572-1.111 1.586-2.417 2.989-2.438 3.02-.022 5.869.432 8.577 1.187zm3.733.086c2.287 1.252 4.876 3.452 4.607 6.387-.313 2.719-2.849 4.617-5.114 5.761-6.614 3.161-15.903 3.258-22.732.496-2.31-.96-4.899-2.61-5.87-5.092-.744-2.039.162-4.164 1.683-5.578 3.183-2.89 7.24-3.883 11.415-4.455 4.532-.55 9.3-.065 13.356 1.327.907.334 1.802.701 2.655 1.154z"></path></svg><svg viewBox="0 0 36 20" id="hyundai" xmlns="http://www.w3.org/2000/svg"><path fill-rule="evenodd" clip-rule="evenodd" d="M21.56 12.002c.258 1.338-.443 2.449-1.026 3.528-.647 1.003-1.715 1.866-2.999 1.737a30.44 30.44 0 01-8.307-1.274.513.513 0 01-.302-.215c-.054-.152.022-.292.13-.389 2.384-1.931 5.221-2.826 8.026-3.765 1.046-.302 2.158-.626 3.334-.475.485.065.97.4 1.143.853zm9.828-5.718c1.337 1.1 2.546 2.6 2.136 4.413-.67 2.675-3.582 4.1-5.901 5.006-1.263.42-2.536.852-3.917.982-.086-.011-.226.01-.248-.12l.032-.15c1.964-2.212 3.452-4.693 4.758-7.207a59.459 59.459 0 001.683-3.442.55.55 0 01.238-.161c.485.043.83.42 1.219.68zM12.56 3.436l-.043.162c-2.837 3.225-4.704 6.969-6.473 10.691-.345.324-.68-.108-.993-.248-1.575-1.036-3-2.708-2.589-4.693.658-2.59 3.323-3.97 5.546-4.908 1.316-.497 2.686-.896 4.132-1.123.15 0 .345-.021.42.119zm14.08.518c.162.086.356.118.453.28.086.183-.086.302-.184.42-2.233 1.748-4.79 2.72-7.4 3.572-1.328.324-2.666.906-4.144.583a1.374 1.374 0 01-.852-.648c-.367-1.014.13-2.071.561-2.956.572-1.111 1.586-2.417 2.989-2.438 3.02-.022 5.869.432 8.577 1.187zm3.733.086c2.287 1.252 4.876 3.452 4.607 6.387-.313 2.719-2.849 4.617-5.114 5.761-6.614 3.161-15.903 3.258-22.732.496-2.31-.96-4.899-2.61-5.87-5.092-.744-2.039.162-4.164 1.683-5.578 3.183-2.89 7.24-3.883 11.415-4.455 4.532-.55 9.3-.065 13.356 1.327.907.334 1.802.701 2.655 1.154z"></path></svg></defs><use xlink:href="#hyundai" __h2d_shadowroot="2475" class=""></use></svg>