<svg xmlns:xlink="http://www.w3.org/1999/xlink" xmlns="http://www.w3.org/2000/svg" class="icon-svg mb-0 fs-1 me-2" width="48"  height="48" ><defs><svg xmlns="http://www.w3.org/2000/svg" viewBox="0 0 36 20" id="jaguar"><path d="M.33 18.855c.55-.611.575-.74.612-3.19l.031-2.144.407.021.407.021.021 1.763c.013 1.1-.009 1.926-.06 2.195-.166.887-.689 1.447-1.537 1.65-.204.048-.202.043.12-.316zm13.149-.693c-1.039-.172-1.512-.38-1.902-.834-.524-.613-.612-1.58-.217-2.386.451-.922 1.424-1.433 2.713-1.428.61.003.883.047 1.294.21.238.094.27.136.27.35 0 .135-.017.245-.038.245-.021 0-.207-.087-.414-.192-.504-.258-1.404-.32-1.902-.13-.454.174-.919.617-1.078 1.03-.192.497-.173 1.316.041 1.756.199.409.624.791 1.007.906.339.102 1.227.11 1.48.014.184-.07.185-.076.185-.904v-.832l.414.021.413.022v1.868l-.445.12c-.456.124-1.5.217-1.821.164zm6.585-.03c-.832-.149-1.237-.43-1.438-.999-.087-.247-.11-.662-.11-1.963v-1.65l.413.022.414.021.036 1.727c.04 1.963.07 2.081.587 2.345.409.208 1.456.18 1.76-.047.534-.399.593-.658.599-2.644l.004-1.426.234.023.234.022v1.691c0 1.596-.01 1.708-.156 1.979-.21.39-.506.657-.871.786-.393.138-1.247.195-1.706.113zm-14.59-2.32l1.133-2.249h.248c.278 0 .217-.107 1.774 3.112l.67 1.386H8.292l-.282-.612-.28-.612H5.49l-.303.612c-.301.606-.306.611-.576.611h-.273l1.134-2.248zm1.663-.288c-.238-.524-.454-.975-.481-1.002-.027-.027-.265.402-.53.954l-.48 1.001H7.57l-.433-.953zm17.71 2.5c0-.02.503-1.042 1.118-2.27l1.117-2.235.258.022.257.022 1.069 2.195c.587 1.207 1.07 2.219 1.071 2.248.002.03-.22.055-.492.055h-.495l-.255-.594-.256-.594-1.146-.02-1.146-.02-.28.614c-.279.61-.281.612-.55.613-.148 0-.27-.016-.27-.036zm3.166-1.585c0-.02-.2-.477-.446-1.013l-.446-.975-.248.492c-.137.27-.357.726-.488 1.013l-.239.521h.933c.514 0 .934-.017.934-.038zm3.974-.627l.02-2.249.719-.021c1.394-.042 2.302.178 2.643.639.382.517.27 1.31-.246 1.752-.165.141-.343.257-.395.257-.053 0-.095.024-.094.054 0 .03.292.452.648.938l.647.885-.516-.021-.517-.021-.578-.846-.58-.845h-.904V18.06h-.866l.02-2.25zm2.222.046c.635-.367.662-1.426.046-1.79-.159-.094-.416-.146-.826-.168l-.595-.03v2.194l.566-.032c.382-.023.644-.079.809-.174zm-5.153-3.506a3.159 3.159 0 01-.467-.197c-.17-.096-.144-.105.422-.142.545-.035.62-.058.774-.238.309-.359.166-.688-.405-.934-.432-.185-.102-.13.613.104.852.278 1.464.27 2.193-.027.54-.22.383-.06-.215.221-.29.136-.55.194-.974.216l-.579.03.028.237c.022.19-.02.29-.216.503-.197.215-.304.27-.564.293a1.831 1.831 0 01-.61-.066zm-2.086-1.17c-.9-.495-1.125-.546-2.662-.606-1.551-.059-1.92-.149-2.715-.661-.558-.36-1.304-1.123-1.639-1.676-.588-.971-.85-1.073-2.59-1.002-1.335.055-2.564-.048-3.375-.283l-.582-.168-.378.187c-.325.16-.469.186-1.025.183-.541-.002-.748-.04-1.26-.227-1.584-.581-1.663-.604-2-.583-.316.02-.34.036-.361.238-.029.258-.157.424-.157.203a.357.357 0 00-.111-.242c-.157-.13-.101-.372.111-.485.267-.141 1-.063 1.799.191.948.303 1.328.38 1.88.38.562.002.87-.132 1.073-.464.172-.282.185-.852.033-1.418a17.336 17.336 0 01-.107-.41c0-.007.266.128.593.3.326.172.852.405 1.169.518l.576.204-.482.021a3.604 3.604 0 01-.887-.085c-.376-.097-.402-.096-.354.015.028.067.067.308.087.538.034.413.037.418.367.582 1.06.523 1.615.613 3.72.596l1.588-.012.286.19c.224.147.353.326.591.818.499 1.03 1.349 1.749 2.335 1.976.167.039.773.072 1.347.073 1.676.005 2.514.264 3.346 1.034.237.22.415.398.395.396a8.823 8.823 0 01-.611-.32zm1.147-.933c-.485-.29-.84-.61-1.045-.94-.184-.297-.391-.371-1.26-.45-.74-.068-1.371-.27-1.556-.497-.08-.098-.073-.107.043-.063.334.125.791.198 1.605.256 1.045.075 1.235.165 1.643.78.151.228.449.585.662.793.212.207.375.377.36.377-.013 0-.217-.115-.452-.256zm2.27.105c-.49-.148-1.995-.911-3.273-1.66-2.196-1.286-5.84-3.185-5.782-3.014.014.041.44.513.948 1.047.508.535.903.972.878.972-.098 0-.897-.634-1.405-1.115-.66-.624-1.067-.908-1.786-1.243-.495-.231-.617-.258-1.177-.263-.71-.006-.676-.077.09-.186.29-.04.537-.085.55-.098.055-.055-4.006-1.527-5.376-1.95-.919-.283-1.793-.498-1.84-.452-.018.018.03.175.108.348s.128.328.112.344c-.015.015-.176-.102-.358-.262-.69-.608-2.027-1.146-3.32-1.336-.719-.105-1.009-.06-1.372.214l-.231.174.526.52c.682.674.86.981.324.557a3.89 3.89 0 00-1.523-.764c-.443-.112-.772-.27-.772-.371 0-.03.17-.043.378-.03.3.017.457-.02.77-.18.696-.359.605-.404-.725-.365-.939.028-1.275.066-1.654.188-.51.165-.885.408-.813.526.026.041.128-.007.239-.114.204-.196.59-.25.798-.112.165.11-.322.526-.798.681-.793.258-1.066.65-.624.898.257.143.371.071.72-.452.399-.597.653-.674 1.042-.317.386.353.214 1.045-.384 1.545-.355.296-.377.349-.175.413.203.064.398-.064.645-.424.168-.243.276-.325.481-.364.395-.074.676-.389.676-.758 0-.164-.035-.362-.077-.441-.075-.14-.071-.14.15-.027.124.065.324.275.444.468.2.32.26.363.7.496.265.081.626.249.802.374.367.26.93.788.93.87 0 .031-.175-.056-.389-.192-1.516-.97-2.602-.957-3.76.046-.547.472-.967.307-.938-.37.014-.354.02-.363.205-.323.148.033.222 0 .341-.152.171-.217.191-.397.07-.628-.178-.338-.443-.355-.606-.04a.71.71 0 00-.068.476c.046.248.043.252-.156.204a28.626 28.626 0 00-.49-.11c-.329-.072-.756-.502-.756-.762 0-.096.137-.286.35-.486.193-.18.372-.41.397-.513C3.59 1.221 5.425.726 7.22.82c1.394.073 2.424.248 4.281.728 2.99.773 6.433 2.17 11.117 4.508 1.944.97 2.972 1.528 5.344 2.898a20.76 20.76 0 001.583.816c.641.286.814.332 1.347.36l.612.03.628-.332c.476-.252.673-.32.815-.285.257.064.37.328.251.586-.09.196-.092.196-.152.038-.101-.265-.359-.271-.928-.022-.573.252-1.299.34-1.73.21zM3.622 2.184c0-.014-.026-.025-.059-.025-.09 0-.66.505-.66.586 0 .038.162-.066.36-.233.197-.167.36-.315.36-.328zm.688-.207c.133-.104.13-.108-.07-.09-.116.011-.224.06-.24.11-.041.124.141.113.31-.02zm2.749 5.165c-.389-.408-.317-.984.186-1.486.36-.36.875-.531 1.797-.596l.6-.043-.1-.29c-.11-.32-.031-.848.164-1.105.09-.118.1-.097.102.212.002.369.147.789.347 1.01.168.187.741.472 1.346.67.597.195.525.205-.473.067-1.372-.19-2.21-.215-2.725-.083-.745.191-1.155.599-1.155 1.15 0 .292.264.547.567.549.148 0 .165.016.08.07-.21.137-.54.08-.736-.125zM5.773 1.579c-.152-.094-.07-.117.546-.158.508-.033.55-.026.36.053-.29.121-.786.179-.906.105z"></path></svg><svg viewBox="0 0 36 20" id="jaguar" xmlns="http://www.w3.org/2000/svg"><path d="M.33 18.855c.55-.611.575-.74.612-3.19l.031-2.144.407.021.407.021.021 1.763c.013 1.1-.009 1.926-.06 2.195-.166.887-.689 1.447-1.537 1.65-.204.048-.202.043.12-.316zm13.149-.693c-1.039-.172-1.512-.38-1.902-.834-.524-.613-.612-1.58-.217-2.386.451-.922 1.424-1.433 2.713-1.428.61.003.883.047 1.294.21.238.094.27.136.27.35 0 .135-.017.245-.038.245-.021 0-.207-.087-.414-.192-.504-.258-1.404-.32-1.902-.13-.454.174-.919.617-1.078 1.03-.192.497-.173 1.316.041 1.756.199.409.624.791 1.007.906.339.102 1.227.11 1.48.014.184-.07.185-.076.185-.904v-.832l.414.021.413.022v1.868l-.445.12c-.456.124-1.5.217-1.821.164zm6.585-.03c-.832-.149-1.237-.43-1.438-.999-.087-.247-.11-.662-.11-1.963v-1.65l.413.022.414.021.036 1.727c.04 1.963.07 2.081.587 2.345.409.208 1.456.18 1.76-.047.534-.399.593-.658.599-2.644l.004-1.426.234.023.234.022v1.691c0 1.596-.01 1.708-.156 1.979-.21.39-.506.657-.871.786-.393.138-1.247.195-1.706.113zm-14.59-2.32l1.133-2.249h.248c.278 0 .217-.107 1.774 3.112l.67 1.386H8.292l-.282-.612-.28-.612H5.49l-.303.612c-.301.606-.306.611-.576.611h-.273l1.134-2.248zm1.663-.288c-.238-.524-.454-.975-.481-1.002-.027-.027-.265.402-.53.954l-.48 1.001H7.57l-.433-.953zm17.71 2.5c0-.02.503-1.042 1.118-2.27l1.117-2.235.258.022.257.022 1.069 2.195c.587 1.207 1.07 2.219 1.071 2.248.002.03-.22.055-.492.055h-.495l-.255-.594-.256-.594-1.146-.02-1.146-.02-.28.614c-.279.61-.281.612-.55.613-.148 0-.27-.016-.27-.036zm3.166-1.585c0-.02-.2-.477-.446-1.013l-.446-.975-.248.492c-.137.27-.357.726-.488 1.013l-.239.521h.933c.514 0 .934-.017.934-.038zm3.974-.627l.02-2.249.719-.021c1.394-.042 2.302.178 2.643.639.382.517.27 1.31-.246 1.752-.165.141-.343.257-.395.257-.053 0-.095.024-.094.054 0 .03.292.452.648.938l.647.885-.516-.021-.517-.021-.578-.846-.58-.845h-.904V18.06h-.866l.02-2.25zm2.222.046c.635-.367.662-1.426.046-1.79-.159-.094-.416-.146-.826-.168l-.595-.03v2.194l.566-.032c.382-.023.644-.079.809-.174zm-5.153-3.506a3.159 3.159 0 01-.467-.197c-.17-.096-.144-.105.422-.142.545-.035.62-.058.774-.238.309-.359.166-.688-.405-.934-.432-.185-.102-.13.613.104.852.278 1.464.27 2.193-.027.54-.22.383-.06-.215.221-.29.136-.55.194-.974.216l-.579.03.028.237c.022.19-.02.29-.216.503-.197.215-.304.27-.564.293a1.831 1.831 0 01-.61-.066zm-2.086-1.17c-.9-.495-1.125-.546-2.662-.606-1.551-.059-1.92-.149-2.715-.661-.558-.36-1.304-1.123-1.639-1.676-.588-.971-.85-1.073-2.59-1.002-1.335.055-2.564-.048-3.375-.283l-.582-.168-.378.187c-.325.16-.469.186-1.025.183-.541-.002-.748-.04-1.26-.227-1.584-.581-1.663-.604-2-.583-.316.02-.34.036-.361.238-.029.258-.157.424-.157.203a.357.357 0 00-.111-.242c-.157-.13-.101-.372.111-.485.267-.141 1-.063 1.799.191.948.303 1.328.38 1.88.38.562.002.87-.132 1.073-.464.172-.282.185-.852.033-1.418a17.336 17.336 0 01-.107-.41c0-.007.266.128.593.3.326.172.852.405 1.169.518l.576.204-.482.021a3.604 3.604 0 01-.887-.085c-.376-.097-.402-.096-.354.015.028.067.067.308.087.538.034.413.037.418.367.582 1.06.523 1.615.613 3.72.596l1.588-.012.286.19c.224.147.353.326.591.818.499 1.03 1.349 1.749 2.335 1.976.167.039.773.072 1.347.073 1.676.005 2.514.264 3.346 1.034.237.22.415.398.395.396a8.823 8.823 0 01-.611-.32zm1.147-.933c-.485-.29-.84-.61-1.045-.94-.184-.297-.391-.371-1.26-.45-.74-.068-1.371-.27-1.556-.497-.08-.098-.073-.107.043-.063.334.125.791.198 1.605.256 1.045.075 1.235.165 1.643.78.151.228.449.585.662.793.212.207.375.377.36.377-.013 0-.217-.115-.452-.256zm2.27.105c-.49-.148-1.995-.911-3.273-1.66-2.196-1.286-5.84-3.185-5.782-3.014.014.041.44.513.948 1.047.508.535.903.972.878.972-.098 0-.897-.634-1.405-1.115-.66-.624-1.067-.908-1.786-1.243-.495-.231-.617-.258-1.177-.263-.71-.006-.676-.077.09-.186.29-.04.537-.085.55-.098.055-.055-4.006-1.527-5.376-1.95-.919-.283-1.793-.498-1.84-.452-.018.018.03.175.108.348s.128.328.112.344c-.015.015-.176-.102-.358-.262-.69-.608-2.027-1.146-3.32-1.336-.719-.105-1.009-.06-1.372.214l-.231.174.526.52c.682.674.86.981.324.557a3.89 3.89 0 00-1.523-.764c-.443-.112-.772-.27-.772-.371 0-.03.17-.043.378-.03.3.017.457-.02.77-.18.696-.359.605-.404-.725-.365-.939.028-1.275.066-1.654.188-.51.165-.885.408-.813.526.026.041.128-.007.239-.114.204-.196.59-.25.798-.112.165.11-.322.526-.798.681-.793.258-1.066.65-.624.898.257.143.371.071.72-.452.399-.597.653-.674 1.042-.317.386.353.214 1.045-.384 1.545-.355.296-.377.349-.175.413.203.064.398-.064.645-.424.168-.243.276-.325.481-.364.395-.074.676-.389.676-.758 0-.164-.035-.362-.077-.441-.075-.14-.071-.14.15-.027.124.065.324.275.444.468.2.32.26.363.7.496.265.081.626.249.802.374.367.26.93.788.93.87 0 .031-.175-.056-.389-.192-1.516-.97-2.602-.957-3.76.046-.547.472-.967.307-.938-.37.014-.354.02-.363.205-.323.148.033.222 0 .341-.152.171-.217.191-.397.07-.628-.178-.338-.443-.355-.606-.04a.71.71 0 00-.068.476c.046.248.043.252-.156.204a28.626 28.626 0 00-.49-.11c-.329-.072-.756-.502-.756-.762 0-.096.137-.286.35-.486.193-.18.372-.41.397-.513C3.59 1.221 5.425.726 7.22.82c1.394.073 2.424.248 4.281.728 2.99.773 6.433 2.17 11.117 4.508 1.944.97 2.972 1.528 5.344 2.898a20.76 20.76 0 001.583.816c.641.286.814.332 1.347.36l.612.03.628-.332c.476-.252.673-.32.815-.285.257.064.37.328.251.586-.09.196-.092.196-.152.038-.101-.265-.359-.271-.928-.022-.573.252-1.299.34-1.73.21zM3.622 2.184c0-.014-.026-.025-.059-.025-.09 0-.66.505-.66.586 0 .038.162-.066.36-.233.197-.167.36-.315.36-.328zm.688-.207c.133-.104.13-.108-.07-.09-.116.011-.224.06-.24.11-.041.124.141.113.31-.02zm2.749 5.165c-.389-.408-.317-.984.186-1.486.36-.36.875-.531 1.797-.596l.6-.043-.1-.29c-.11-.32-.031-.848.164-1.105.09-.118.1-.097.102.212.002.369.147.789.347 1.01.168.187.741.472 1.346.67.597.195.525.205-.473.067-1.372-.19-2.21-.215-2.725-.083-.745.191-1.155.599-1.155 1.15 0 .292.264.547.567.549.148 0 .165.016.08.07-.21.137-.54.08-.736-.125zM5.773 1.579c-.152-.094-.07-.117.546-.158.508-.033.55-.026.36.053-.29.121-.786.179-.906.105z"></path></svg></defs><use xlink:href="#jaguar" __h2d_shadowroot="2455" class=""></use></svg>