<svg xmlns:xlink="http://www.w3.org/1999/xlink" xmlns="http://www.w3.org/2000/svg" class="icon-svg mb-0 fs-1 me-2" width="48"  height="48" ><defs><svg xmlns="http://www.w3.org/2000/svg" viewBox="0 0 36 20" id="jeep"><path d="M28.698 10.995c-.026 1.437.285 2.198 1.47 2.198 1.182 0 1.352-1.296 1.352-2.283 0-.987-.225-1.945-1.467-1.945-.762 0-1.325.592-1.355 2.03zM26.302 17V7.273h2.426v.395c0 .526.212.31.383.104.029-.034.57-.696 1.787-.696 1.214 0 3.102.846 3.102 3.834 0 2.312-1.127 4.003-3.072 4.003-1.072 0-1.692-.422-1.834-.592-.142-.168-.339-.197-.339 0V17h-2.453M7.554 4.117h2.622v6.879c0 1.183-.508 3.665-4.145 3.665C2.395 14.66 2 12.348 2 11.05V9.784h2.537v1.24c0 .761.508 1.466 1.466 1.466s1.55-.536 1.55-1.437V4.117zM15.66 9.952c0-.706-.395-1.382-1.297-1.382-.874 0-1.184.62-1.184 1.382h2.48zm-1.55-2.96c2.06 0 3.863.789 3.863 4.426h-4.877c0 1.155.479 1.635 1.325 1.635s1.127-.677 1.127-.677h2.397c0 1.043-1.438 2.453-3.609 2.425-2.48 0-3.693-1.833-3.693-3.722 0-1.89 1.07-4.087 3.467-4.087M23.456 9.952c0-.706-.395-1.382-1.297-1.382-.873 0-1.184.62-1.184 1.382h2.48zm-1.55-2.96c2.06 0 3.863.789 3.863 4.426h-4.877c0 1.155.48 1.635 1.326 1.635.845 0 1.127-.677 1.127-.677h2.397c0 1.043-1.438 2.453-3.609 2.425-2.482 0-3.694-1.833-3.694-3.722 0-1.89 1.072-4.087 3.468-4.087M32.395 15.834a.7.7 0 111.399.003.7.7 0 01-1.4-.003zm-.081 0a.78.78 0 101.56 0 .78.78 0 00-1.56 0"></path><path d="M33.407 16.233l-.162-.382a.192.192 0 00.096-.06.236.236 0 00.058-.153c0-.138-.106-.232-.26-.232h-.326v.827h.097v-.358h.235l.155.358h.107zm-.5-.442v-.295h.23c.096 0 .157.054.157.14 0 .095-.065.155-.17.155h-.217z"></path></svg><svg viewBox="0 0 36 20" id="jeep" xmlns="http://www.w3.org/2000/svg"><path d="M28.698 10.995c-.026 1.437.285 2.198 1.47 2.198 1.182 0 1.352-1.296 1.352-2.283 0-.987-.225-1.945-1.467-1.945-.762 0-1.325.592-1.355 2.03zM26.302 17V7.273h2.426v.395c0 .526.212.31.383.104.029-.034.57-.696 1.787-.696 1.214 0 3.102.846 3.102 3.834 0 2.312-1.127 4.003-3.072 4.003-1.072 0-1.692-.422-1.834-.592-.142-.168-.339-.197-.339 0V17h-2.453M7.554 4.117h2.622v6.879c0 1.183-.508 3.665-4.145 3.665C2.395 14.66 2 12.348 2 11.05V9.784h2.537v1.24c0 .761.508 1.466 1.466 1.466s1.55-.536 1.55-1.437V4.117zM15.66 9.952c0-.706-.395-1.382-1.297-1.382-.874 0-1.184.62-1.184 1.382h2.48zm-1.55-2.96c2.06 0 3.863.789 3.863 4.426h-4.877c0 1.155.479 1.635 1.325 1.635s1.127-.677 1.127-.677h2.397c0 1.043-1.438 2.453-3.609 2.425-2.48 0-3.693-1.833-3.693-3.722 0-1.89 1.07-4.087 3.467-4.087M23.456 9.952c0-.706-.395-1.382-1.297-1.382-.873 0-1.184.62-1.184 1.382h2.48zm-1.55-2.96c2.06 0 3.863.789 3.863 4.426h-4.877c0 1.155.48 1.635 1.326 1.635.845 0 1.127-.677 1.127-.677h2.397c0 1.043-1.438 2.453-3.609 2.425-2.482 0-3.694-1.833-3.694-3.722 0-1.89 1.072-4.087 3.468-4.087M32.395 15.834a.7.7 0 111.399.003.7.7 0 01-1.4-.003zm-.081 0a.78.78 0 101.56 0 .78.78 0 00-1.56 0"></path><path d="M33.407 16.233l-.162-.382a.192.192 0 00.096-.06.236.236 0 00.058-.153c0-.138-.106-.232-.26-.232h-.326v.827h.097v-.358h.235l.155.358h.107zm-.5-.442v-.295h.23c.096 0 .157.054.157.14 0 .095-.065.155-.17.155h-.217z"></path></svg></defs><use xlink:href="#jeep" __h2d_shadowroot="2444" class=""></use></svg>