<svg xmlns:xlink="http://www.w3.org/1999/xlink" xmlns="http://www.w3.org/2000/svg" class="icon-svg mb-0 fs-1 me-2" width="48"  height="48" ><defs><svg xmlns="http://www.w3.org/2000/svg" viewBox="0 0 36 20" id="kia"><path d="M17.062 18.514a33.665 33.665 0 01-3.471-.277c-4.686-.63-8.613-2.237-10.799-4.42-.927-.924-1.514-1.94-1.712-2.962A3.695 3.695 0 011 10c0-.359.015-.522.08-.855.13-.671.44-1.364.896-2.006 1.032-1.45 2.842-2.743 5.218-3.723 3.96-1.634 9.146-2.282 14.195-1.772 5.928.598 10.804 2.76 12.739 5.65.884 1.322 1.1 2.756.628 4.159-.274.81-.805 1.619-1.552 2.365-2.071 2.067-5.716 3.626-10.091 4.315a33.174 33.174 0 01-6.05.38zm2.585-1.09c2.373-.148 4.376-.497 6.329-1.102 1.549-.481 2.993-1.147 4.101-1.891a8.481 8.481 0 001.385-1.13c.52-.523.856-.98 1.13-1.54.305-.627.424-1.119.424-1.761 0-.646-.126-1.164-.436-1.788-.268-.54-.61-1.003-1.118-1.512-.747-.748-1.634-1.365-2.806-1.952-2.195-1.099-4.94-1.817-7.999-2.094a30.846 30.846 0 00-5.318 0c-4.3.387-7.992 1.663-10.276 3.553-.29.24-.806.761-1.022 1.032-.774.97-1.14 2.018-1.056 3.026.09 1.1.585 2.069 1.55 3.035.73.732 1.598 1.34 2.727 1.912 2.572 1.3 5.732 2.045 9.448 2.228.42.02 2.528.008 2.937-.017zM7.593 14.31a.26.26 0 01-.074-.057c-.037-.04-.037-.07-.042-4.008l-.005-3.968-.049-.051c-.046-.049-.06-.052-.236-.057L7 6.164v-.5l1.346-.005 1.347-.005.057.048.057.048v1.43c0 1.572-.004 1.514.11 1.514.07 0 .094-.03.484-.584 1.035-1.47 1.604-2.268 1.656-2.323.126-.137.069-.132 1.379-.132h1.172l.045.044c.055.055.076.13.05.184-.015.034-.522.787-2.295 3.408-.193.287-.247.38-.247.427 0 .048.127.237.664.995 2.375 3.352 2.382 3.363 2.39 3.43.005.051-.004.08-.04.12l-.046.055-1.225.005c-1.208.005-1.226.004-1.315-.034a.481.481 0 01-.136-.088c-.026-.028-.584-.805-1.241-1.727a115.043 115.043 0 00-1.225-1.702c-.045-.037-.129-.02-.156.034-.018.036-.023.414-.023 1.727v1.68l-.045.053-.045.052-1.044.003c-.574.002-1.06-.003-1.081-.011zm9.302-.009a.176.176 0 01-.079-.074c-.017-.039-.022-.92-.022-3.998V6.282l-.055-.054c-.052-.053-.06-.055-.231-.055h-.178v-.519h2.742l.06.055.061.054v8.452l-.051.051-.052.052-1.07.004c-.856.003-1.08-.001-1.125-.02zm3.985.004c-.058-.033-.083-.075-.083-.14 0-.032.262-.845.584-1.806l1.138-3.397.712-2.12c.088-.259.16-.494.16-.521a.176.176 0 00-.036-.095c-.032-.039-.054-.044-.218-.053l-.182-.009-.005-.255-.005-.255h1.645c1.08 0 1.669.007 1.714.02.038.01.079.036.09.057.023.044.208.59 1.077 3.185 1.415 4.223 1.738 5.198 1.738 5.238 0 .065-.037.13-.086.152-.032.015-.36.021-1.078.021-.946 0-1.037-.003-1.095-.032a.326.326 0 01-.098-.08 15.028 15.028 0 01-.32-.935c-1.495-4.662-1.454-4.535-1.487-4.572-.038-.042-.066-.041-.104.001-.03.034-.088.211-.902 2.774a1216.624 1216.624 0 01-.779 2.45c-.084.266-.12.33-.215.369-.081.034-2.107.037-2.166.003z"></path></svg><svg viewBox="0 0 36 20" id="kia" xmlns="http://www.w3.org/2000/svg"><path d="M17.062 18.514a33.665 33.665 0 01-3.471-.277c-4.686-.63-8.613-2.237-10.799-4.42-.927-.924-1.514-1.94-1.712-2.962A3.695 3.695 0 011 10c0-.359.015-.522.08-.855.13-.671.44-1.364.896-2.006 1.032-1.45 2.842-2.743 5.218-3.723 3.96-1.634 9.146-2.282 14.195-1.772 5.928.598 10.804 2.76 12.739 5.65.884 1.322 1.1 2.756.628 4.159-.274.81-.805 1.619-1.552 2.365-2.071 2.067-5.716 3.626-10.091 4.315a33.174 33.174 0 01-6.05.38zm2.585-1.09c2.373-.148 4.376-.497 6.329-1.102 1.549-.481 2.993-1.147 4.101-1.891a8.481 8.481 0 001.385-1.13c.52-.523.856-.98 1.13-1.54.305-.627.424-1.119.424-1.761 0-.646-.126-1.164-.436-1.788-.268-.54-.61-1.003-1.118-1.512-.747-.748-1.634-1.365-2.806-1.952-2.195-1.099-4.94-1.817-7.999-2.094a30.846 30.846 0 00-5.318 0c-4.3.387-7.992 1.663-10.276 3.553-.29.24-.806.761-1.022 1.032-.774.97-1.14 2.018-1.056 3.026.09 1.1.585 2.069 1.55 3.035.73.732 1.598 1.34 2.727 1.912 2.572 1.3 5.732 2.045 9.448 2.228.42.02 2.528.008 2.937-.017zM7.593 14.31a.26.26 0 01-.074-.057c-.037-.04-.037-.07-.042-4.008l-.005-3.968-.049-.051c-.046-.049-.06-.052-.236-.057L7 6.164v-.5l1.346-.005 1.347-.005.057.048.057.048v1.43c0 1.572-.004 1.514.11 1.514.07 0 .094-.03.484-.584 1.035-1.47 1.604-2.268 1.656-2.323.126-.137.069-.132 1.379-.132h1.172l.045.044c.055.055.076.13.05.184-.015.034-.522.787-2.295 3.408-.193.287-.247.38-.247.427 0 .048.127.237.664.995 2.375 3.352 2.382 3.363 2.39 3.43.005.051-.004.08-.04.12l-.046.055-1.225.005c-1.208.005-1.226.004-1.315-.034a.481.481 0 01-.136-.088c-.026-.028-.584-.805-1.241-1.727a115.043 115.043 0 00-1.225-1.702c-.045-.037-.129-.02-.156.034-.018.036-.023.414-.023 1.727v1.68l-.045.053-.045.052-1.044.003c-.574.002-1.06-.003-1.081-.011zm9.302-.009a.176.176 0 01-.079-.074c-.017-.039-.022-.92-.022-3.998V6.282l-.055-.054c-.052-.053-.06-.055-.231-.055h-.178v-.519h2.742l.06.055.061.054v8.452l-.051.051-.052.052-1.07.004c-.856.003-1.08-.001-1.125-.02zm3.985.004c-.058-.033-.083-.075-.083-.14 0-.032.262-.845.584-1.806l1.138-3.397.712-2.12c.088-.259.16-.494.16-.521a.176.176 0 00-.036-.095c-.032-.039-.054-.044-.218-.053l-.182-.009-.005-.255-.005-.255h1.645c1.08 0 1.669.007 1.714.02.038.01.079.036.09.057.023.044.208.59 1.077 3.185 1.415 4.223 1.738 5.198 1.738 5.238 0 .065-.037.13-.086.152-.032.015-.36.021-1.078.021-.946 0-1.037-.003-1.095-.032a.326.326 0 01-.098-.08 15.028 15.028 0 01-.32-.935c-1.495-4.662-1.454-4.535-1.487-4.572-.038-.042-.066-.041-.104.001-.03.034-.088.211-.902 2.774a1216.624 1216.624 0 01-.779 2.45c-.084.266-.12.33-.215.369-.081.034-2.107.037-2.166.003z"></path></svg></defs><use xlink:href="#kia" __h2d_shadowroot="2434" class=""></use></svg>