<svg xmlns:xlink="http://www.w3.org/1999/xlink" xmlns="http://www.w3.org/2000/svg" class="icon-svg mb-0 fs-1 me-2" width="48"  height="48" ><defs><svg xmlns="http://www.w3.org/2000/svg" viewBox="0 0 36 20" id="lexus"><path fill-rule="evenodd" clip-rule="evenodd" d="M18.32 1.09c.428.013.383.313.312.417-1.263 1.966-4.249 5.427-6.423 9.224-.36.616-.628 1.068-.628 1.743 0 .916.572 1.998 1.72 2.463.755.302 1.23.311 2.045.323 6.052.187 8.478.024 13.893-.16.312 0 .603-.211.708-.339 1.047-1.091 1.65-3.054 1.65-4.785 0-3.856-2.777-7.33-7.11-9l-.695.891c3.797 1.57 5.76 4.704 5.76 8.062 0 .755-.129 1.487-.36 2.185-.172.488-.384.768-1 .777-4.412.094-6.91.163-11.335.047-.57-.012-.755-.22-.848-.672-.07-.268-.012-.49.173-.827 2.347-4.157 6.435-8.909 7.237-10.036.153-.208.081-.628-.442-.767C21.445.184 19.727 0 17.984 0 10.095.032 4.531 4.47 4.403 9.976 4.719 16.586 10.467 20 17.984 20c4.6 0 8.814-1.626 11.28-4.204l-2.279.091c-2.103 1.87-5.472 2.87-8.956 2.87-6.352 0-11.523-3.158-11.523-8.828 0-4.877 5.17-8.85 11.523-8.85l.291.012z"></path></svg><svg viewBox="0 0 36 20" id="lexus" xmlns="http://www.w3.org/2000/svg"><path fill-rule="evenodd" clip-rule="evenodd" d="M18.32 1.09c.428.013.383.313.312.417-1.263 1.966-4.249 5.427-6.423 9.224-.36.616-.628 1.068-.628 1.743 0 .916.572 1.998 1.72 2.463.755.302 1.23.311 2.045.323 6.052.187 8.478.024 13.893-.16.312 0 .603-.211.708-.339 1.047-1.091 1.65-3.054 1.65-4.785 0-3.856-2.777-7.33-7.11-9l-.695.891c3.797 1.57 5.76 4.704 5.76 8.062 0 .755-.129 1.487-.36 2.185-.172.488-.384.768-1 .777-4.412.094-6.91.163-11.335.047-.57-.012-.755-.22-.848-.672-.07-.268-.012-.49.173-.827 2.347-4.157 6.435-8.909 7.237-10.036.153-.208.081-.628-.442-.767C21.445.184 19.727 0 17.984 0 10.095.032 4.531 4.47 4.403 9.976 4.719 16.586 10.467 20 17.984 20c4.6 0 8.814-1.626 11.28-4.204l-2.279.091c-2.103 1.87-5.472 2.87-8.956 2.87-6.352 0-11.523-3.158-11.523-8.828 0-4.877 5.17-8.85 11.523-8.85l.291.012z"></path></svg></defs><use xlink:href="#lexus" __h2d_shadowroot="2404" class=""></use></svg>