<svg xmlns:xlink="http://www.w3.org/1999/xlink" xmlns="http://www.w3.org/2000/svg" class="icon-svg mb-0 fs-1 me-2" width="48"  height="48" ><defs><svg xmlns="http://www.w3.org/2000/svg" viewBox="0 0 36 20" id="mazda"><path d="M28.296 3.118C26.304.983 23.088.005 18.186 0h-.001c-4.903.005-8.118.983-10.11 3.118-1.48 1.585-2.408 3.776-2.408 6.751 0 1.643.407 5.833 3.718 7.994 1.983 1.294 4.542 2.131 8.8 2.137h.001c4.258-.006 6.817-.843 8.8-2.137 3.312-2.162 3.719-6.35 3.719-7.994-.001-2.965-.936-5.173-2.41-6.75zm-10.11 15.16c-1.612-.003-2.92-.135-3.998-.403-1.055-.262-1.933-.667-2.686-1.237a6.054 6.054 0 01-1.453-1.6 7.982 7.982 0 01-.844-1.842 10.67 10.67 0 01-.488-3.108c0-.7.048-1.365.142-1.979 1.152.621 2.246.932 3.212 1.207l.225.064c1.345.385 2.415.892 3.27 1.55.489.374.921.817 1.284 1.315a6.67 6.67 0 01.914 1.796c.101.301.207.489.421.489.215 0 .32-.188.422-.49.222-.66.53-1.265.914-1.795.362-.497.795-.94 1.284-1.315.855-.658 1.925-1.165 3.27-1.55l.225-.063c.965-.275 2.06-.587 3.212-1.207.094.613.141 1.278.141 1.978 0 .476-.047 1.734-.485 3.108-.216.679-.5 1.299-.844 1.842a6.039 6.039 0 01-1.456 1.6c-.753.57-1.632.974-2.686 1.236-1.079.27-2.386.401-3.996.404zm0-7.366c-.04 0-.111-.047-.232-.27a7.89 7.89 0 00-2.062-2.452 8.7 8.7 0 00-2.19-1.247l-.361-.142c-1.057-.415-2.15-.845-3.168-1.432a11.182 11.182 0 01-.333-.2c.202-.354.436-.69.698-1.002a6.34 6.34 0 011.308-1.177 7.516 7.516 0 011.688-.84c1.27-.454 2.792-.674 4.65-.676 1.86.002 3.382.223 4.653.675a7.52 7.52 0 011.688.841c.488.33.928.726 1.308 1.177.262.313.495.648.698 1.002-.107.067-.22.134-.333.2-1.018.586-2.11 1.017-3.168 1.432l-.36.142a8.689 8.689 0 00-2.191 1.247 7.888 7.888 0 00-2.062 2.452c-.12.223-.193.27-.231.27z"></path></svg><svg viewBox="0 0 36 20" id="mazda" xmlns="http://www.w3.org/2000/svg"><path d="M28.296 3.118C26.304.983 23.088.005 18.186 0h-.001c-4.903.005-8.118.983-10.11 3.118-1.48 1.585-2.408 3.776-2.408 6.751 0 1.643.407 5.833 3.718 7.994 1.983 1.294 4.542 2.131 8.8 2.137h.001c4.258-.006 6.817-.843 8.8-2.137 3.312-2.162 3.719-6.35 3.719-7.994-.001-2.965-.936-5.173-2.41-6.75zm-10.11 15.16c-1.612-.003-2.92-.135-3.998-.403-1.055-.262-1.933-.667-2.686-1.237a6.054 6.054 0 01-1.453-1.6 7.982 7.982 0 01-.844-1.842 10.67 10.67 0 01-.488-3.108c0-.7.048-1.365.142-1.979 1.152.621 2.246.932 3.212 1.207l.225.064c1.345.385 2.415.892 3.27 1.55.489.374.921.817 1.284 1.315a6.67 6.67 0 01.914 1.796c.101.301.207.489.421.489.215 0 .32-.188.422-.49.222-.66.53-1.265.914-1.795.362-.497.795-.94 1.284-1.315.855-.658 1.925-1.165 3.27-1.55l.225-.063c.965-.275 2.06-.587 3.212-1.207.094.613.141 1.278.141 1.978 0 .476-.047 1.734-.485 3.108-.216.679-.5 1.299-.844 1.842a6.039 6.039 0 01-1.456 1.6c-.753.57-1.632.974-2.686 1.236-1.079.27-2.386.401-3.996.404zm0-7.366c-.04 0-.111-.047-.232-.27a7.89 7.89 0 00-2.062-2.452 8.7 8.7 0 00-2.19-1.247l-.361-.142c-1.057-.415-2.15-.845-3.168-1.432a11.182 11.182 0 01-.333-.2c.202-.354.436-.69.698-1.002a6.34 6.34 0 011.308-1.177 7.516 7.516 0 011.688-.84c1.27-.454 2.792-.674 4.65-.676 1.86.002 3.382.223 4.653.675a7.52 7.52 0 011.688.841c.488.33.928.726 1.308 1.177.262.313.495.648.698 1.002-.107.067-.22.134-.333.2-1.018.586-2.11 1.017-3.168 1.432l-.36.142a8.689 8.689 0 00-2.191 1.247 7.888 7.888 0 00-2.062 2.452c-.12.223-.193.27-.231.27z"></path></svg></defs><use xlink:href="#mazda" __h2d_shadowroot="2362" class=""></use></svg>