<svg xmlns:xlink="http://www.w3.org/1999/xlink" xmlns="http://www.w3.org/2000/svg" class="icon-svg mb-0 fs-1 me-2" width="48"  height="48" ><defs><svg xmlns="http://www.w3.org/2000/svg" viewBox="0 0 36 20" id="mercedes-benz"><path fill-rule="evenodd" clip-rule="evenodd" d="M16.15 9.13L17.514.97c-4.908.091-8.872 4.098-8.872 9.03 0 1.535.42 3.014 1.118 4.368l6.392-5.237zm1.505 2.62l-7.732 2.9c1.607 2.698 4.608 4.368 7.743 4.368 3.15 0 6.111-1.67 7.738-4.368l-7.749-2.9zm1.516-2.62l6.4 5.238c.719-1.343 1.13-2.833 1.13-4.368 0-4.977-3.946-8.883-8.87-9.04l1.34 8.17zm8.493.87c0 5.497-4.504 10-9.998 10-5.49 0-10-4.503-10-10s4.505-10 10-10c5.497 0 9.998 4.503 9.998 10z"></path></svg><svg viewBox="0 0 36 20" id="mercedes-benz" xmlns="http://www.w3.org/2000/svg"><path fill-rule="evenodd" clip-rule="evenodd" d="M16.15 9.13L17.514.97c-4.908.091-8.872 4.098-8.872 9.03 0 1.535.42 3.014 1.118 4.368l6.392-5.237zm1.505 2.62l-7.732 2.9c1.607 2.698 4.608 4.368 7.743 4.368 3.15 0 6.111-1.67 7.738-4.368l-7.749-2.9zm1.516-2.62l6.4 5.238c.719-1.343 1.13-2.833 1.13-4.368 0-4.977-3.946-8.883-8.87-9.04l1.34 8.17zm8.493.87c0 5.497-4.504 10-9.998 10-5.49 0-10-4.503-10-10s4.505-10 10-10c5.497 0 9.998 4.503 9.998 10z"></path></svg></defs><use xlink:href="#mercedes-benz" __h2d_shadowroot="2342" class=""></use></svg>