<svg xmlns:xlink="http://www.w3.org/1999/xlink" xmlns="http://www.w3.org/2000/svg" class="icon-svg mb-0 fs-1 me-2" width="48"  height="48" ><defs><svg xmlns="http://www.w3.org/2000/svg" viewBox="0 0 36 20" id="nissan"><path d="M19.978 10.799c-.02.005-.095.005-.129.005h-2.447v.569h2.49c.02 0 .166 0 .195-.005.507-.047.74-.47.74-.84 0-.379-.242-.787-.702-.83-.09-.009-.166-.009-.2-.009H18.3a.827.827 0 01-.18-.014c-.129-.033-.176-.147-.176-.242 0-.085.047-.2.18-.237a.676.676 0 01.17-.014h2.349v-.56h-2.386c-.1 0-.175.005-.237.014a.79.79 0 00-.693.802c0 .341.214.74.683.806.086.01.204.01.256.01h1.584c.029 0 .1 0 .114.004.18.024.242.157.242.275a.265.265 0 01-.227.266zM15.34 10.799c-.02.005-.095.005-.124.005h-2.452v.569h2.49c.019 0 .166 0 .194-.005.508-.047.74-.47.74-.84 0-.379-.241-.787-.702-.83-.09-.009-.166-.009-.199-.009H13.66a.826.826 0 01-.18-.014c-.128-.033-.175-.147-.175-.242 0-.085.047-.2.18-.237a.676.676 0 01.17-.014h2.348v-.56h-2.385c-.1 0-.176.005-.237.014a.79.79 0 00-.693.802c0 .341.214.74.683.806.086.01.204.01.256.01h1.584c.029 0 .1 0 .114.004.18.024.242.157.242.275a.261.261 0 01-.228.266zM11.488 8.604h-.616v2.784h.616V8.604zM9.51 11.387V8.604h-.616v2.077L6.84 8.604h-.792v2.784h.617V9.3l2.068 2.086h.778zM29.34 8.604v2.077l-2.054-2.077h-.792v2.784h.617V9.3l2.063 2.086h.778V8.604h-.612zM23.283 8.604l-1.735 2.784h.749l.308-.498h2.025l.309.497h.744l-1.736-2.783h-.664zm1.03 1.76h-1.39l.697-1.12.693 1.12zM9.477 7.024C10.72 3.396 14.144.958 18.005.958c3.86 0 7.29 2.438 8.527 6.066l.01.028h2.717v-.327l-1.129-.133c-.697-.08-.844-.389-1.034-.777l-.047-.095C25.418 2.248 21.865 0 18.005 0c-3.866 0-7.413 2.248-9.045 5.73l-.047.094c-.19.389-.337.697-1.034.778l-1.129.133v.327h2.713l.014-.038zM26.541 12.943l-.009.028c-1.243 3.628-4.667 6.061-8.527 6.061-3.861 0-7.29-2.437-8.528-6.066l-.01-.028H6.756v.327l1.129.133c.697.08.844.389 1.034.778l.047.095C10.597 17.75 14.149 20 18.009 20c3.86 0 7.413-2.248 9.045-5.725l.047-.094c.19-.39.337-.698 1.034-.778l1.129-.133v-.327H26.54z"></path></svg><svg viewBox="0 0 36 20" id="nissan" xmlns="http://www.w3.org/2000/svg"><path d="M19.978 10.799c-.02.005-.095.005-.129.005h-2.447v.569h2.49c.02 0 .166 0 .195-.005.507-.047.74-.47.74-.84 0-.379-.242-.787-.702-.83-.09-.009-.166-.009-.2-.009H18.3a.827.827 0 01-.18-.014c-.129-.033-.176-.147-.176-.242 0-.085.047-.2.18-.237a.676.676 0 01.17-.014h2.349v-.56h-2.386c-.1 0-.175.005-.237.014a.79.79 0 00-.693.802c0 .341.214.74.683.806.086.01.204.01.256.01h1.584c.029 0 .1 0 .114.004.18.024.242.157.242.275a.265.265 0 01-.227.266zM15.34 10.799c-.02.005-.095.005-.124.005h-2.452v.569h2.49c.019 0 .166 0 .194-.005.508-.047.74-.47.74-.84 0-.379-.241-.787-.702-.83-.09-.009-.166-.009-.199-.009H13.66a.826.826 0 01-.18-.014c-.128-.033-.175-.147-.175-.242 0-.085.047-.2.18-.237a.676.676 0 01.17-.014h2.348v-.56h-2.385c-.1 0-.176.005-.237.014a.79.79 0 00-.693.802c0 .341.214.74.683.806.086.01.204.01.256.01h1.584c.029 0 .1 0 .114.004.18.024.242.157.242.275a.261.261 0 01-.228.266zM11.488 8.604h-.616v2.784h.616V8.604zM9.51 11.387V8.604h-.616v2.077L6.84 8.604h-.792v2.784h.617V9.3l2.068 2.086h.778zM29.34 8.604v2.077l-2.054-2.077h-.792v2.784h.617V9.3l2.063 2.086h.778V8.604h-.612zM23.283 8.604l-1.735 2.784h.749l.308-.498h2.025l.309.497h.744l-1.736-2.783h-.664zm1.03 1.76h-1.39l.697-1.12.693 1.12zM9.477 7.024C10.72 3.396 14.144.958 18.005.958c3.86 0 7.29 2.438 8.527 6.066l.01.028h2.717v-.327l-1.129-.133c-.697-.08-.844-.389-1.034-.777l-.047-.095C25.418 2.248 21.865 0 18.005 0c-3.866 0-7.413 2.248-9.045 5.73l-.047.094c-.19.389-.337.697-1.034.778l-1.129.133v.327h2.713l.014-.038zM26.541 12.943l-.009.028c-1.243 3.628-4.667 6.061-8.527 6.061-3.861 0-7.29-2.437-8.528-6.066l-.01-.028H6.756v.327l1.129.133c.697.08.844.389 1.034.778l.047.095C10.597 17.75 14.149 20 18.009 20c3.86 0 7.413-2.248 9.045-5.725l.047-.094c.19-.39.337-.698 1.034-.778l1.129-.133v-.327H26.54z"></path></svg></defs><use xlink:href="#nissan" __h2d_shadowroot="2310" class=""></use></svg>