<svg xmlns:xlink="http://www.w3.org/1999/xlink" xmlns="http://www.w3.org/2000/svg" class="icon-svg mb-0 fs-1 me-2" width="48"  height="48" ><defs><svg xmlns="http://www.w3.org/2000/svg" viewBox="0 0 36 20" id="opel"><path d="M17.996 16.384c-3.38 0-6.183-2.804-6.183-6.184 0-.175.008-.35.023-.522l5.174.323-2.238 1.546a.117.117 0 00.067.213h9.137c-.703 2.641-3.137 4.624-5.98 4.624m0-12.368c3.38 0 6.184 2.804 6.184 6.184 0 .175-.008.348-.023.519l-5.168-.329 2.242-1.537a.117.117 0 00-.066-.213h-9.148c.703-2.64 3.137-4.624 5.98-4.624m8.868 6.875l-1.692-.108A7.2 7.2 0 0010.966 8.64H9.638a.27.27 0 00-.214.106l-.396.545a.135.135 0 00.107.218l1.685.105a7.2 7.2 0 0014.206 2.146h1.336a.27.27 0 00.214-.105l.395-.546a.135.135 0 00-.107-.218"></path></svg><svg viewBox="0 0 36 20" id="opel" xmlns="http://www.w3.org/2000/svg"><path d="M17.996 16.384c-3.38 0-6.183-2.804-6.183-6.184 0-.175.008-.35.023-.522l5.174.323-2.238 1.546a.117.117 0 00.067.213h9.137c-.703 2.641-3.137 4.624-5.98 4.624m0-12.368c3.38 0 6.184 2.804 6.184 6.184 0 .175-.008.348-.023.519l-5.168-.329 2.242-1.537a.117.117 0 00-.066-.213h-9.148c.703-2.64 3.137-4.624 5.98-4.624m8.868 6.875l-1.692-.108A7.2 7.2 0 0010.966 8.64H9.638a.27.27 0 00-.214.106l-.396.545a.135.135 0 00.107.218l1.685.105a7.2 7.2 0 0014.206 2.146h1.336a.27.27 0 00.214-.105l.395-.546a.135.135 0 00-.107-.218"></path></svg></defs><use xlink:href="#opel" __h2d_shadowroot="2300" class=""></use></svg>