<svg xmlns:xlink="http://www.w3.org/1999/xlink" xmlns="http://www.w3.org/2000/svg" class="icon-svg mb-0 fs-1 me-2" width="48"  height="48" ><defs><svg xmlns="http://www.w3.org/2000/svg" viewBox="0 0 36 20" id="renault"><path d="M29.742 13.933v.899h.126a.61.61 0 01.563-.34h.888v4.117h1.34v-4.118h.889a.61.61 0 01.563.34h.126v-.898h-4.495zM29.892 18.045h-1.433v-4.112h-1.624v.125a.65.65 0 01.284.564v3.987h3.456v-.899h-.12a.608.608 0 01-.563.335zM25.142 14.058c.176.115.279.316.279.564v1.795c0 .906-.312 1.4-1.136 1.4-.824 0-1.13-.494-1.13-1.4v-2.484H21.53v.125a.65.65 0 01.284.564v2.037c0 1.137.71 2.042 2.102 2.042 1.54 0 2.178-.693 2.178-2.213v-2.555h-.953v.125zM21.354 18.134l-1.8-4.201h-1.042l-2.033 4.676h.786l.438-1.07h1.973l.413 1.07h1.614v-.126a.654.654 0 01-.349-.349zm-3.42-1.158l.778-1.819.74 1.819h-1.517zM15.116 14.058c.176.115.279.316.279.564v2.758l-2.117-3.447h-1.805v.125a.65.65 0 01.283.564v3.987h.67v-3.443l2.122 3.443h1.522v-4.676h-.954v.125zM10.226 18.045H8.654v-1.567h1.777v-.563H8.654V14.49h1.516a.65.65 0 01.563.284h.121v-.842h-3.82v.125c.177.115.28.316.28.564v3.987h3.6v-.865h-.125c-.105.195-.286.301-.563.301zM6.425 18.199l-1.149-1.726c.572-.181 1.02-.66 1.02-1.274 0-.81-.616-1.266-1.564-1.266H1.764v.125a.65.65 0 01.284.564v3.987h1.34v-1.987h.502l1.107 1.987h1.787v-.126a.724.724 0 01-.359-.284zM3.97 16.106h-.582v-1.652h.582c.486 0 .907.255.907.81 0 .558-.388.842-.907.842zM22.358 6.556L19.743 1.97 18.167 4.74l1.223 2.144-1.282 2.248-1.676 2.947.152.267c.057.101.085.152.292.152h2.262c.177 0 .231-.041.307-.175l2.873-5.038c.125-.221.164-.512.04-.73z"></path><path d="M17.89 9.036l-1.227-2.15 1.367-2.384 1.576-2.771-.13-.23a.36.36 0 00-.345-.203h-2.248c-.163 0-.264.066-.342.202l-2.884 5.056c-.097.17-.13.43-.03.605l2.668 4.68 1.596-2.805z"></path></svg><svg viewBox="0 0 36 20" id="renault" xmlns="http://www.w3.org/2000/svg"><path d="M29.742 13.933v.899h.126a.61.61 0 01.563-.34h.888v4.117h1.34v-4.118h.889a.61.61 0 01.563.34h.126v-.898h-4.495zM29.892 18.045h-1.433v-4.112h-1.624v.125a.65.65 0 01.284.564v3.987h3.456v-.899h-.12a.608.608 0 01-.563.335zM25.142 14.058c.176.115.279.316.279.564v1.795c0 .906-.312 1.4-1.136 1.4-.824 0-1.13-.494-1.13-1.4v-2.484H21.53v.125a.65.65 0 01.284.564v2.037c0 1.137.71 2.042 2.102 2.042 1.54 0 2.178-.693 2.178-2.213v-2.555h-.953v.125zM21.354 18.134l-1.8-4.201h-1.042l-2.033 4.676h.786l.438-1.07h1.973l.413 1.07h1.614v-.126a.654.654 0 01-.349-.349zm-3.42-1.158l.778-1.819.74 1.819h-1.517zM15.116 14.058c.176.115.279.316.279.564v2.758l-2.117-3.447h-1.805v.125a.65.65 0 01.283.564v3.987h.67v-3.443l2.122 3.443h1.522v-4.676h-.954v.125zM10.226 18.045H8.654v-1.567h1.777v-.563H8.654V14.49h1.516a.65.65 0 01.563.284h.121v-.842h-3.82v.125c.177.115.28.316.28.564v3.987h3.6v-.865h-.125c-.105.195-.286.301-.563.301zM6.425 18.199l-1.149-1.726c.572-.181 1.02-.66 1.02-1.274 0-.81-.616-1.266-1.564-1.266H1.764v.125a.65.65 0 01.284.564v3.987h1.34v-1.987h.502l1.107 1.987h1.787v-.126a.724.724 0 01-.359-.284zM3.97 16.106h-.582v-1.652h.582c.486 0 .907.255.907.81 0 .558-.388.842-.907.842zM22.358 6.556L19.743 1.97 18.167 4.74l1.223 2.144-1.282 2.248-1.676 2.947.152.267c.057.101.085.152.292.152h2.262c.177 0 .231-.041.307-.175l2.873-5.038c.125-.221.164-.512.04-.73z"></path><path d="M17.89 9.036l-1.227-2.15 1.367-2.384 1.576-2.771-.13-.23a.36.36 0 00-.345-.203h-2.248c-.163 0-.264.066-.342.202l-2.884 5.056c-.097.17-.13.43-.03.605l2.668 4.68 1.596-2.805z"></path></svg></defs><use xlink:href="#renault" __h2d_shadowroot="2258" class=""></use></svg>