<svg xmlns:xlink="http://www.w3.org/1999/xlink" xmlns="http://www.w3.org/2000/svg" class="icon-svg mb-0 fs-1 me-2" width="48"  height="48" ><defs><svg xmlns="http://www.w3.org/2000/svg" viewBox="0 0 36 20" id="rolls-royce"><path fill-rule="evenodd" clip-rule="evenodd" d="M13.063 1.73V3.68h10.126V1.729a.67.67 0 00-.676-.666H13.73c-.367 0-.667.3-.667.666zm8.174 1.15a.567.567 0 01-.183-.155v.415c.164.087.434.126.647.126.483 0 .753-.232.763-.58.01-.3-.193-.444-.531-.512l-.062-.012c-.295-.059-.431-.086-.431-.239 0-.097.116-.174.31-.174.125 0 .24.019.357.058.087.038.174.087.212.154v-.377a1.269 1.269 0 00-.57-.116c-.395 0-.667.223-.676.513 0 .29.193.454.55.502.28.038.464.067.464.251 0 .155-.144.261-.386.261a.943.943 0 01-.464-.116zm-6.183-.85c0 .173-.145.24-.367.24h-.406v-.493h.406c.222 0 .367.068.367.252zm.25.772c-.086-.164-.154-.29-.28-.348.271-.058.406-.212.406-.444 0-.222-.097-.396-.28-.464-.116-.048-.261-.048-.483-.048h-.889c.088.057.135.231.135.386v.976c0 .145-.047.328-.135.377h.637c-.086-.049-.134-.232-.134-.377v-.31h.27c.136 0 .213.049.27.156.043.068.08.147.118.228.048.104.098.211.163.303h.512c-.154-.106-.232-.27-.31-.435zm1.952.28a.88.88 0 01-.599.203.901.901 0 01-.6-.203c-.182-.154-.308-.386-.308-.715 0-.318.126-.56.309-.715a.931.931 0 01.6-.193c.24 0 .444.068.598.193.184.155.31.397.31.715 0 .329-.125.56-.31.715zm-1.12-.715c0 .213.048.368.155.464a.508.508 0 00.366.145c.155 0 .28-.058.367-.145.107-.096.165-.25.165-.464 0-.203-.058-.357-.165-.463a.507.507 0 00-.367-.145.507.507 0 00-.366.145c-.107.106-.155.26-.155.463zm3.034.425c-.097.126-.3.165-.522.165h-.338V1.884c0-.145.048-.329.125-.386h-.627c.086.057.135.241.135.386v.976c0 .155-.05.319-.136.377h1.304l.059-.445zm1.053.165c.222.01.424-.039.521-.165l-.068.454h-1.294c.086-.058.136-.231.136-.386v-.976c0-.145-.05-.329-.136-.386h.628c-.087.057-.135.241-.135.386v1.073h.348z"></path><path d="M24.242 1.73c0-.957-.773-1.73-1.73-1.73H13.73C12.773 0 12 .773 12 1.73v16.54c0 .957.773 1.73 1.73 1.73h8.783c.956 0 1.729-.773 1.729-1.73V1.73zm-11.652 0c0-.629.511-1.14 1.14-1.14h8.783c.637 0 1.149.511 1.149 1.14v16.54c0 .628-.512 1.14-1.15 1.14H13.73c-.629 0-1.14-.512-1.14-1.14V1.73z"></path><path fill-rule="evenodd" clip-rule="evenodd" d="M23.188 4.155H13.063v11.69h10.125V4.156zm-5.787 9.826v-2.6c.251-.008.493-.018.735-.038a6.857 6.857 0 00-.28-.599c-.097.013-.197.017-.298.021l-.157.008v-.54a9.071 9.071 0 01-1.082.173v3.575c0 .767-.345.99-.568 1.136l-.021.013h2.26l-.011-.008-.021-.014c-.216-.145-.557-.375-.557-1.127zm4.725.165c.115.53.348.8.531.975h-2c.174-.174.435-.541.328-1.276-.145-1.014-.627-2.106-1.226-2.802-.068.02-.135.04-.203.058a9.586 9.586 0 00-.3-.618c1.286-.435 1.653-1.285 1.653-2.01 0-.57-.213-1.043-.61-1.352a2.539 2.539 0 00-.24-.909c.377.078.695.203.966.378.637.435.994 1.168.985 1.865 0 .975-.56 1.768-1.478 2.27.937 1.043 1.382 2.444 1.594 3.42zM15.44 9.604V5.546h1.536c.56.01.976.126 1.305.357.434.31.667.802.667 1.392 0 .995-.687 2.26-3.508 2.309zm4.966 4.348c-.193-.174-.424-.445-.531-.976-.213-.976-.638-2.348-1.488-3.324a.941.941 0 01.053-.024l.053-.024c.966-.493 1.556-1.314 1.556-2.32a2.255 2.255 0 00-.985-1.864c-.503-.338-1.18-.473-2.04-.473h-3.256l.022.014c.223.145.568.368.568 1.135v6.706c0 .77-.338.987-.562 1.132l-.027.018h2.26a4.121 4.121 0 00-.038-.026c-.216-.145-.55-.368-.55-1.124v-2.6c.791 0 1.535-.096 2.163-.26.57.686.996 1.749 1.13 2.725.097.735-.154 1.11-.328 1.285h2zm-3.005-7.217v2.29c-.31.125-.676.212-1.082.27v-2.02c0-.769-.338-.987-.561-1.132l-.028-.018h2.435c.212.155.367.358.454.61H17.4zM13.063 18.27V16.32h10.126v1.951a.67.67 0 01-.676.667H13.73a.668.668 0 01-.667-.667zm7.082-.058c-.338 0-.531-.251-.531-.579 0-.338.193-.59.531-.59.242 0 .397.059.502.175v-.358c-.086-.049-.24-.097-.492-.097-.261 0-.474.077-.628.213a.83.83 0 00-.29.657c0 .54.377.86.918.86.251 0 .406-.049.492-.087l.059-.377c-.097.116-.319.183-.56.183zm-5.15-.908c0 .165-.135.232-.347.232h-.387v-.463h.387c.212 0 .347.058.347.231zm.242.735c-.077-.155-.145-.28-.26-.329.25-.048.376-.203.386-.415 0-.222-.097-.387-.27-.455-.107-.038-.252-.038-.465-.038h-.84c.078.048.125.213.125.367v.928c0 .135-.047.31-.125.367h.598c-.076-.058-.125-.232-.125-.367v-.3h.251c.136 0 .213.058.272.155.037.062.07.134.105.21.046.1.094.203.155.292l.493.01c-.151-.112-.219-.254-.294-.413l-.006-.012zm1.855.27a.845.845 0 01-.57.194.838.838 0 01-.56-.194.847.847 0 01-.3-.676c0-.31.126-.531.3-.687a.89.89 0 01.56-.183c.232 0 .425.068.57.183.174.156.3.378.3.687a.848.848 0 01-.3.676zm-1.063-.676c0 .203.049.347.145.435a.489.489 0 00.358.144c.145 0 .26-.057.348-.144.096-.088.145-.232.145-.435 0-.203-.05-.347-.145-.445a.475.475 0 00-.348-.135.484.484 0 00-.358.135c-.096.098-.145.242-.145.445zm2.657-.831c.04.03.058.058.049.096 0 .04-.02.097-.058.155l-.329.473-.328-.482c-.039-.058-.077-.116-.068-.165.01-.029.02-.058.058-.077h-.667c.114.047.172.132.256.254l.005.007.542.763v.271c0 .135-.049.31-.126.357h.599c-.078-.048-.126-.222-.126-.357v-.271l.493-.695.058-.077c.069-.094.152-.207.242-.252h-.6zm2.783 1.391h.425c.213 0 .396-.01.493-.135l-.058.406h-1.333c.077-.058.125-.223.125-.367v-.928c0-.135-.048-.31-.125-.367h1.323v.367c-.087-.087-.26-.096-.473-.096h-.377v.415h.676l-.038.251h-.638v.454z"></path></svg><svg viewBox="0 0 36 20" id="rolls-royce" xmlns="http://www.w3.org/2000/svg"><path fill-rule="evenodd" clip-rule="evenodd" d="M13.063 1.73V3.68h10.126V1.729a.67.67 0 00-.676-.666H13.73c-.367 0-.667.3-.667.666zm8.174 1.15a.567.567 0 01-.183-.155v.415c.164.087.434.126.647.126.483 0 .753-.232.763-.58.01-.3-.193-.444-.531-.512l-.062-.012c-.295-.059-.431-.086-.431-.239 0-.097.116-.174.31-.174.125 0 .24.019.357.058.087.038.174.087.212.154v-.377a1.269 1.269 0 00-.57-.116c-.395 0-.667.223-.676.513 0 .29.193.454.55.502.28.038.464.067.464.251 0 .155-.144.261-.386.261a.943.943 0 01-.464-.116zm-6.183-.85c0 .173-.145.24-.367.24h-.406v-.493h.406c.222 0 .367.068.367.252zm.25.772c-.086-.164-.154-.29-.28-.348.271-.058.406-.212.406-.444 0-.222-.097-.396-.28-.464-.116-.048-.261-.048-.483-.048h-.889c.088.057.135.231.135.386v.976c0 .145-.047.328-.135.377h.637c-.086-.049-.134-.232-.134-.377v-.31h.27c.136 0 .213.049.27.156.043.068.08.147.118.228.048.104.098.211.163.303h.512c-.154-.106-.232-.27-.31-.435zm1.952.28a.88.88 0 01-.599.203.901.901 0 01-.6-.203c-.182-.154-.308-.386-.308-.715 0-.318.126-.56.309-.715a.931.931 0 01.6-.193c.24 0 .444.068.598.193.184.155.31.397.31.715 0 .329-.125.56-.31.715zm-1.12-.715c0 .213.048.368.155.464a.508.508 0 00.366.145c.155 0 .28-.058.367-.145.107-.096.165-.25.165-.464 0-.203-.058-.357-.165-.463a.507.507 0 00-.367-.145.507.507 0 00-.366.145c-.107.106-.155.26-.155.463zm3.034.425c-.097.126-.3.165-.522.165h-.338V1.884c0-.145.048-.329.125-.386h-.627c.086.057.135.241.135.386v.976c0 .155-.05.319-.136.377h1.304l.059-.445zm1.053.165c.222.01.424-.039.521-.165l-.068.454h-1.294c.086-.058.136-.231.136-.386v-.976c0-.145-.05-.329-.136-.386h.628c-.087.057-.135.241-.135.386v1.073h.348z"></path><path d="M24.242 1.73c0-.957-.773-1.73-1.73-1.73H13.73C12.773 0 12 .773 12 1.73v16.54c0 .957.773 1.73 1.73 1.73h8.783c.956 0 1.729-.773 1.729-1.73V1.73zm-11.652 0c0-.629.511-1.14 1.14-1.14h8.783c.637 0 1.149.511 1.149 1.14v16.54c0 .628-.512 1.14-1.15 1.14H13.73c-.629 0-1.14-.512-1.14-1.14V1.73z"></path><path fill-rule="evenodd" clip-rule="evenodd" d="M23.188 4.155H13.063v11.69h10.125V4.156zm-5.787 9.826v-2.6c.251-.008.493-.018.735-.038a6.857 6.857 0 00-.28-.599c-.097.013-.197.017-.298.021l-.157.008v-.54a9.071 9.071 0 01-1.082.173v3.575c0 .767-.345.99-.568 1.136l-.021.013h2.26l-.011-.008-.021-.014c-.216-.145-.557-.375-.557-1.127zm4.725.165c.115.53.348.8.531.975h-2c.174-.174.435-.541.328-1.276-.145-1.014-.627-2.106-1.226-2.802-.068.02-.135.04-.203.058a9.586 9.586 0 00-.3-.618c1.286-.435 1.653-1.285 1.653-2.01 0-.57-.213-1.043-.61-1.352a2.539 2.539 0 00-.24-.909c.377.078.695.203.966.378.637.435.994 1.168.985 1.865 0 .975-.56 1.768-1.478 2.27.937 1.043 1.382 2.444 1.594 3.42zM15.44 9.604V5.546h1.536c.56.01.976.126 1.305.357.434.31.667.802.667 1.392 0 .995-.687 2.26-3.508 2.309zm4.966 4.348c-.193-.174-.424-.445-.531-.976-.213-.976-.638-2.348-1.488-3.324a.941.941 0 01.053-.024l.053-.024c.966-.493 1.556-1.314 1.556-2.32a2.255 2.255 0 00-.985-1.864c-.503-.338-1.18-.473-2.04-.473h-3.256l.022.014c.223.145.568.368.568 1.135v6.706c0 .77-.338.987-.562 1.132l-.027.018h2.26a4.121 4.121 0 00-.038-.026c-.216-.145-.55-.368-.55-1.124v-2.6c.791 0 1.535-.096 2.163-.26.57.686.996 1.749 1.13 2.725.097.735-.154 1.11-.328 1.285h2zm-3.005-7.217v2.29c-.31.125-.676.212-1.082.27v-2.02c0-.769-.338-.987-.561-1.132l-.028-.018h2.435c.212.155.367.358.454.61H17.4zM13.063 18.27V16.32h10.126v1.951a.67.67 0 01-.676.667H13.73a.668.668 0 01-.667-.667zm7.082-.058c-.338 0-.531-.251-.531-.579 0-.338.193-.59.531-.59.242 0 .397.059.502.175v-.358c-.086-.049-.24-.097-.492-.097-.261 0-.474.077-.628.213a.83.83 0 00-.29.657c0 .54.377.86.918.86.251 0 .406-.049.492-.087l.059-.377c-.097.116-.319.183-.56.183zm-5.15-.908c0 .165-.135.232-.347.232h-.387v-.463h.387c.212 0 .347.058.347.231zm.242.735c-.077-.155-.145-.28-.26-.329.25-.048.376-.203.386-.415 0-.222-.097-.387-.27-.455-.107-.038-.252-.038-.465-.038h-.84c.078.048.125.213.125.367v.928c0 .135-.047.31-.125.367h.598c-.076-.058-.125-.232-.125-.367v-.3h.251c.136 0 .213.058.272.155.037.062.07.134.105.21.046.1.094.203.155.292l.493.01c-.151-.112-.219-.254-.294-.413l-.006-.012zm1.855.27a.845.845 0 01-.57.194.838.838 0 01-.56-.194.847.847 0 01-.3-.676c0-.31.126-.531.3-.687a.89.89 0 01.56-.183c.232 0 .425.068.57.183.174.156.3.378.3.687a.848.848 0 01-.3.676zm-1.063-.676c0 .203.049.347.145.435a.489.489 0 00.358.144c.145 0 .26-.057.348-.144.096-.088.145-.232.145-.435 0-.203-.05-.347-.145-.445a.475.475 0 00-.348-.135.484.484 0 00-.358.135c-.096.098-.145.242-.145.445zm2.657-.831c.04.03.058.058.049.096 0 .04-.02.097-.058.155l-.329.473-.328-.482c-.039-.058-.077-.116-.068-.165.01-.029.02-.058.058-.077h-.667c.114.047.172.132.256.254l.005.007.542.763v.271c0 .135-.049.31-.126.357h.599c-.078-.048-.126-.222-.126-.357v-.271l.493-.695.058-.077c.069-.094.152-.207.242-.252h-.6zm2.783 1.391h.425c.213 0 .396-.01.493-.135l-.058.406h-1.333c.077-.058.125-.223.125-.367v-.928c0-.135-.048-.31-.125-.367h1.323v.367c-.087-.087-.26-.096-.473-.096h-.377v.415h.676l-.038.251h-.638v.454z"></path></svg></defs><use xlink:href="#rolls-royce" __h2d_shadowroot="2246" class=""></use></svg>