<svg xmlns:xlink="http://www.w3.org/1999/xlink" xmlns="http://www.w3.org/2000/svg" class="icon-svg mb-0 fs-1 me-2" width="48"  height="48" ><defs><svg xmlns="http://www.w3.org/2000/svg" viewBox="0 0 36 20" id="land-rover"><path d="M20.332 10.204l-1.482 2.91h-.031l-.075-2.91h-1.24l-.048.105.106.065c.103.072.131.145.145.347l.168 3.532h1.38l2.23-4.049h-1.153zM15.92 12.3c-.139.398-.248.655-.409.824-.126.133-.293.228-.678.228-.301 0-.469-.124-.469-.357-.002-.15.039-.38.2-.824.14-.398.248-.654.41-.823.125-.133.292-.229.677-.229.302 0 .469.124.468.356.004.153-.037.381-.199.825zm-.064-2.146h-.129c-.763 0-1.199.206-1.556.586-.445.47-.863 1.742-.855 2.415.008.687.452 1.163 1.385 1.163h.137c.765 0 1.2-.206 1.558-.586.445-.472.854-1.743.846-2.416-.009-.686-.453-1.162-1.386-1.162zm-3.746 1.52c-.07.173-.146.214-.247.255-.067.027-.21.036-.348.036h-.533l.29-.836h.644c.194 0 .272.1.275.214 0 .073-.033.207-.081.33zm-.096-1.47h-1.748l-.035.105.07.07c.075.073.072.16.007.347l-1.222 3.527h1.117l.477-1.4h.378l.42 1.4H12.6l-.528-1.432c.307-.05.46-.138.614-.274.21-.193.356-.463.477-.86.176-.577.07-.907-.044-1.076-.156-.233-.484-.407-1.105-.407zm11.713 2.425l.31-.847h-1.424l.22-.646h1.542l.339-.935h-2.91l-.041.12.07.068c.075.073.071.16.007.348l-1.213 3.515h2.72l.329-.941h-1.588l.234-.682h1.405zm3.265-.955c-.07.173-.147.214-.246.255-.069.027-.21.036-.348.036h-.532l.288-.836h.645c.192 0 .271.1.273.214.002.073-.032.207-.08.33zm-.097-1.47h-1.748l-.034.105.07.07c.075.073.072.16.007.347l-1.223 3.527h1.119l.476-1.4h.378l.42 1.4h1.12l-.525-1.432c.305-.05.459-.138.612-.274.211-.193.357-.463.478-.86.176-.577.07-.907-.043-1.076-.156-.233-.484-.407-1.107-.407zm2.292 5.434c-3.067 1.585-7.157 2.458-11.52 2.458-4.363 0-8.453-.873-11.52-2.458-2.95-1.524-4.576-3.51-4.576-5.59 0-2.081 1.626-4.067 4.576-5.59C9.214 2.874 13.305 2 17.667 2c4.363 0 8.453.874 11.52 2.458 2.95 1.523 4.575 3.509 4.575 5.59 0 2.08-1.624 4.066-4.575 5.59zm.415-11.984c-3.193-1.65-7.432-2.559-11.935-2.559s-8.742.909-11.935 2.56C3.84 4.631.667 6.761.667 10.047c0 3.284 3.173 5.416 5.065 6.393C8.924 18.091 13.162 19 17.667 19c4.504 0 8.742-.909 11.935-2.559 1.892-.977 5.065-3.108 5.065-6.393 0-3.286-3.173-5.416-5.065-6.394zm-.844 11.153c-3.3 1.705-7.404 2.353-11.091 2.353-3.687 0-7.79-.648-11.092-2.353-1.746-.903-4.067-2.567-4.067-4.759 0-2.194 2.32-3.856 4.067-4.759 3.301-1.704 7.405-2.352 11.092-2.352 3.687 0 7.791.647 11.09 2.352 1.749.903 4.07 2.565 4.07 4.76 0 2.192-2.322 3.855-4.07 4.758zm.171-9.85c-3.35-1.732-7.522-2.395-11.262-2.395-3.741 0-7.911.663-11.263 2.395-1.882.972-4.27 2.726-4.27 5.091 0 2.363 2.388 4.119 4.27 5.091 3.352 1.731 7.523 2.395 11.263 2.395s7.912-.663 11.262-2.394c1.883-.973 4.271-2.729 4.271-5.092 0-2.365-2.388-4.12-4.271-5.09zm-19.713 5.77L6.161 11.73l-.373 1.024h2.694l.351-.965H6.966l2.12-.718.13-.346zM21.373 6.24h.443c.302 0 .468.1.472.334.002.15-.038.357-.194.8-.139.398-.25.628-.406.797-.126.133-.293.192-.678.192h-.37l.733-2.123zm-.97-.439l-1.21 3.527h1.784c.765 0 1.201-.17 1.555-.549.445-.47.85-1.692.837-2.365-.013-.687-.456-1.134-1.39-1.134h-1.62l-.034.104.07.069c.075.073.072.16.008.348zm6.73.93h-2.694l-.351.964h1.867l-2.12.72-.132.345 3.055-1.005.375-1.023zM15.09 9.327h1.016l.885-2.619.518 2.62h1.016l1.386-4.049-1.062.002-.74 2.2-.423-2.2h-1.431l-.036.104.07.069c.076.073.072.16.008.348l-1.207 3.525zm-7.28.002h2.763l.334-.965H9.302l1.061-3.083H8.978l-.035.104.07.069c.075.073.072.16.007.348L7.81 9.328zm5.878-2.93h.037l.019 1.223h-.746l.69-1.222zm-2.828 2.928h1.175l.51-.894h1.216l.012.894h1.067l-.23-4.046h-1.597l-.035.104.051.052c.084.082.05.2-.261.694L10.86 9.326z"></path></svg><svg viewBox="0 0 36 20" id="land-rover" xmlns="http://www.w3.org/2000/svg"><path d="M20.332 10.204l-1.482 2.91h-.031l-.075-2.91h-1.24l-.048.105.106.065c.103.072.131.145.145.347l.168 3.532h1.38l2.23-4.049h-1.153zM15.92 12.3c-.139.398-.248.655-.409.824-.126.133-.293.228-.678.228-.301 0-.469-.124-.469-.357-.002-.15.039-.38.2-.824.14-.398.248-.654.41-.823.125-.133.292-.229.677-.229.302 0 .469.124.468.356.004.153-.037.381-.199.825zm-.064-2.146h-.129c-.763 0-1.199.206-1.556.586-.445.47-.863 1.742-.855 2.415.008.687.452 1.163 1.385 1.163h.137c.765 0 1.2-.206 1.558-.586.445-.472.854-1.743.846-2.416-.009-.686-.453-1.162-1.386-1.162zm-3.746 1.52c-.07.173-.146.214-.247.255-.067.027-.21.036-.348.036h-.533l.29-.836h.644c.194 0 .272.1.275.214 0 .073-.033.207-.081.33zm-.096-1.47h-1.748l-.035.105.07.07c.075.073.072.16.007.347l-1.222 3.527h1.117l.477-1.4h.378l.42 1.4H12.6l-.528-1.432c.307-.05.46-.138.614-.274.21-.193.356-.463.477-.86.176-.577.07-.907-.044-1.076-.156-.233-.484-.407-1.105-.407zm11.713 2.425l.31-.847h-1.424l.22-.646h1.542l.339-.935h-2.91l-.041.12.07.068c.075.073.071.16.007.348l-1.213 3.515h2.72l.329-.941h-1.588l.234-.682h1.405zm3.265-.955c-.07.173-.147.214-.246.255-.069.027-.21.036-.348.036h-.532l.288-.836h.645c.192 0 .271.1.273.214.002.073-.032.207-.08.33zm-.097-1.47h-1.748l-.034.105.07.07c.075.073.072.16.007.347l-1.223 3.527h1.119l.476-1.4h.378l.42 1.4h1.12l-.525-1.432c.305-.05.459-.138.612-.274.211-.193.357-.463.478-.86.176-.577.07-.907-.043-1.076-.156-.233-.484-.407-1.107-.407zm2.292 5.434c-3.067 1.585-7.157 2.458-11.52 2.458-4.363 0-8.453-.873-11.52-2.458-2.95-1.524-4.576-3.51-4.576-5.59 0-2.081 1.626-4.067 4.576-5.59C9.214 2.874 13.305 2 17.667 2c4.363 0 8.453.874 11.52 2.458 2.95 1.523 4.575 3.509 4.575 5.59 0 2.08-1.624 4.066-4.575 5.59zm.415-11.984c-3.193-1.65-7.432-2.559-11.935-2.559s-8.742.909-11.935 2.56C3.84 4.631.667 6.761.667 10.047c0 3.284 3.173 5.416 5.065 6.393C8.924 18.091 13.162 19 17.667 19c4.504 0 8.742-.909 11.935-2.559 1.892-.977 5.065-3.108 5.065-6.393 0-3.286-3.173-5.416-5.065-6.394zm-.844 11.153c-3.3 1.705-7.404 2.353-11.091 2.353-3.687 0-7.79-.648-11.092-2.353-1.746-.903-4.067-2.567-4.067-4.759 0-2.194 2.32-3.856 4.067-4.759 3.301-1.704 7.405-2.352 11.092-2.352 3.687 0 7.791.647 11.09 2.352 1.749.903 4.07 2.565 4.07 4.76 0 2.192-2.322 3.855-4.07 4.758zm.171-9.85c-3.35-1.732-7.522-2.395-11.262-2.395-3.741 0-7.911.663-11.263 2.395-1.882.972-4.27 2.726-4.27 5.091 0 2.363 2.388 4.119 4.27 5.091 3.352 1.731 7.523 2.395 11.263 2.395s7.912-.663 11.262-2.394c1.883-.973 4.271-2.729 4.271-5.092 0-2.365-2.388-4.12-4.271-5.09zm-19.713 5.77L6.161 11.73l-.373 1.024h2.694l.351-.965H6.966l2.12-.718.13-.346zM21.373 6.24h.443c.302 0 .468.1.472.334.002.15-.038.357-.194.8-.139.398-.25.628-.406.797-.126.133-.293.192-.678.192h-.37l.733-2.123zm-.97-.439l-1.21 3.527h1.784c.765 0 1.201-.17 1.555-.549.445-.47.85-1.692.837-2.365-.013-.687-.456-1.134-1.39-1.134h-1.62l-.034.104.07.069c.075.073.072.16.008.348zm6.73.93h-2.694l-.351.964h1.867l-2.12.72-.132.345 3.055-1.005.375-1.023zM15.09 9.327h1.016l.885-2.619.518 2.62h1.016l1.386-4.049-1.062.002-.74 2.2-.423-2.2h-1.431l-.036.104.07.069c.076.073.072.16.008.348l-1.207 3.525zm-7.28.002h2.763l.334-.965H9.302l1.061-3.083H8.978l-.035.104.07.069c.075.073.072.16.007.348L7.81 9.328zm5.878-2.93h.037l.019 1.223h-.746l.69-1.222zm-2.828 2.928h1.175l.51-.894h1.216l.012.894h1.067l-.23-4.046h-1.597l-.035.104.051.052c.084.082.05.2-.261.694L10.86 9.326z"></path></svg></defs><use xlink:href="#land-rover" __h2d_shadowroot="2414" class=""></use></svg>