<svg xmlns:xlink="http://www.w3.org/1999/xlink" xmlns="http://www.w3.org/2000/svg" class="icon-svg mb-0 fs-1 me-2" width="48"  height="48" ><defs><svg xmlns="http://www.w3.org/2000/svg" viewBox="0 0 36 20" id="skoda"><path d="M6.443 5.836a4.05 4.05 0 00-1.094.175c-.147.048-.202.268-.077.377.327.254.641.53.92.868.117.154-.079.313-.217.166-.284-.31-.573-.632-1.118-.99-.16-.113-.31-.084-.491.02a5.438 5.438 0 00-.97.812c-.095.12-.104.321.127.388.381.112.705.304 1.028.498.159.12.02.331-.14.237-.337-.227-.7-.429-1.163-.537-.161-.055-.305.046-.37.175-.193.398-.357.763-.419 1.136-.029.209.085.275.265.266 1.708-.04 2.462 1.325 2.561 2.184-.01.128-.087.242-.212.257-.11.014-.507.023-.63-.059l-.301-.178a1.012 1.012 0 00-.358-.122l-.983.007c-.146-.007-.18.157-.051.223.473.287.68.74.754 1.124.02.108.083.113.153.109l.204-.026c.155-.03.223-.072.268-.09l.492-.185c.139-.04.276-.082.485-.07h3.315c.113-.016.169.077.204.21.047.116.112.162.243.154.426-.046.852-.088 1.328-.674.027-.04.035-.045 0-.092-.238-.317-.534-.61-1.306-.7-.114-.006-.167.117-.205.207l-.061.113c-.095.135-.373.041-.294-.176.887-1.873.48-4.012-.918-5.492-.175-.182-.438-.305-.824-.313a2.943 2.943 0 00-.145-.002zm.739 4.454a.606.606 0 110 1.212.606.606 0 010-1.213zM17.163 7.909l-.14 1.228c-.009.123-.073.128-.14.127h-1.97c-.106-.002-.157.048-.162.14l-.018.252c-.007.095.055.116.136.118h.885c.63.002 1.136.592 1.07 1.25l-.185 1.399c-.092.677-.75.923-1.06.925h-2.593c-.096 0-.143-.056-.127-.197L12.977 12c.014-.126.092-.129.171-.13h1.965c.117-.001.141-.033.153-.142l.032-.347c.008-.101-.067-.157-.163-.158h-.989c-.442 0-1.05-.498-.948-1.282l.14-1.129c.036-.492.466-1.018 1.023-1.014h.239c.097 0 .151-.13.106-.25l-.221-.497c-.065-.138-.093-.39.18-.388h.375c.152-.005.167.073.199.158l.056.144c.057.117.213.104.285 0l.153-.213c.045-.069.096-.093.178-.093h.444c.219.003.266.239.163.361l-.373.473c-.115.141-.067.299.124.303h.765c.08-.003.12.037.129.113zM17.932 7.946l-.6 5.243c-.016.123.072.155.156.156l1.2-.013c.085-.017.111-.07.118-.135L19 11.305c.014-.087.037-.213.217-.208h.135c.3.023.428.321.411.497l-.185 1.585c-.021.116.046.16.163.162h1.122c.114.013.185-.048.202-.203l.134-1.364c.04-.362.069-.757-.23-1.138.3-.328.447-.691.492-1.079l.176-1.621c.018-.11-.034-.153-.135-.149h-1.17c-.172-.005-.156.09-.167.172l-.138 1.344c-.02.203-.253.34-.364.338l-.262-.003c-.103-.002-.189-.083-.172-.217l.163-1.443c.012-.097.018-.19-.14-.192h-1.144c-.12-.002-.166.046-.176.16zM23.376 7.796c-.507.001-.97.403-1.048 1.02l-.37 3.252c-.078.71.539 1.267 1.021 1.264h1.598c.565-.007.978-.398 1.056-.867l.38-3.459c.067-.654-.458-1.21-.979-1.21h-1.658zm.532 1.467h.452c.092 0 .156.064.148.144l-.238 2.297c-.018.128-.093.172-.18.17l-.432-.004c-.112 0-.177-.04-.16-.175l.243-2.287c.009-.082.062-.144.168-.145zM27.034 7.79c-.085.002-.123.067-.127.177l-.578 5.18c-.02.124.03.193.171.19h2.12c.796-.006 1.464-.521 1.564-1.509l.255-2.433c.078-.68-.43-1.604-1.418-1.603h-1.947a.213.213 0 00-.04-.002zm1.304 1.487h.208c.193-.002.428.236.406.47l-.203 1.733c-.038.257-.295.396-.433.398h-.18c-.126 0-.201-.062-.186-.19l.262-2.285c.006-.066.022-.125.126-.126zM32.438 7.773c-.748.004-1.097.593-1.15 1.059l-.485 4.328c-.02.116.01.183.122.176h1.206c.09.006.13-.052.135-.16l.134-1.162c.006-.079.039-.16.153-.16h.479c.099-.003.143.07.134.134l-.14 1.181c-.008.084.025.16.172.154h1.124c.123.002.166-.065.179-.16l.491-4.253c.056-.479-.46-1.14-1.002-1.137h-1.552zm.421 1.498h.444c.095 0 .157.051.146.146l-.075.895c-.012.107-.077.144-.173.14h-.425c-.101.004-.182-.052-.164-.176l.088-.858c.01-.101.077-.15.16-.147z"></path><path d="M6.568 4.436a5.564 5.564 0 100 11.128 5.564 5.564 0 000-11.128zm-.002 1.099a4.471 4.471 0 110 8.943 4.471 4.471 0 010-8.943z"></path></svg><svg viewBox="0 0 36 20" id="skoda" xmlns="http://www.w3.org/2000/svg"><path d="M6.443 5.836a4.05 4.05 0 00-1.094.175c-.147.048-.202.268-.077.377.327.254.641.53.92.868.117.154-.079.313-.217.166-.284-.31-.573-.632-1.118-.99-.16-.113-.31-.084-.491.02a5.438 5.438 0 00-.97.812c-.095.12-.104.321.127.388.381.112.705.304 1.028.498.159.12.02.331-.14.237-.337-.227-.7-.429-1.163-.537-.161-.055-.305.046-.37.175-.193.398-.357.763-.419 1.136-.029.209.085.275.265.266 1.708-.04 2.462 1.325 2.561 2.184-.01.128-.087.242-.212.257-.11.014-.507.023-.63-.059l-.301-.178a1.012 1.012 0 00-.358-.122l-.983.007c-.146-.007-.18.157-.051.223.473.287.68.74.754 1.124.02.108.083.113.153.109l.204-.026c.155-.03.223-.072.268-.09l.492-.185c.139-.04.276-.082.485-.07h3.315c.113-.016.169.077.204.21.047.116.112.162.243.154.426-.046.852-.088 1.328-.674.027-.04.035-.045 0-.092-.238-.317-.534-.61-1.306-.7-.114-.006-.167.117-.205.207l-.061.113c-.095.135-.373.041-.294-.176.887-1.873.48-4.012-.918-5.492-.175-.182-.438-.305-.824-.313a2.943 2.943 0 00-.145-.002zm.739 4.454a.606.606 0 110 1.212.606.606 0 010-1.213zM17.163 7.909l-.14 1.228c-.009.123-.073.128-.14.127h-1.97c-.106-.002-.157.048-.162.14l-.018.252c-.007.095.055.116.136.118h.885c.63.002 1.136.592 1.07 1.25l-.185 1.399c-.092.677-.75.923-1.06.925h-2.593c-.096 0-.143-.056-.127-.197L12.977 12c.014-.126.092-.129.171-.13h1.965c.117-.001.141-.033.153-.142l.032-.347c.008-.101-.067-.157-.163-.158h-.989c-.442 0-1.05-.498-.948-1.282l.14-1.129c.036-.492.466-1.018 1.023-1.014h.239c.097 0 .151-.13.106-.25l-.221-.497c-.065-.138-.093-.39.18-.388h.375c.152-.005.167.073.199.158l.056.144c.057.117.213.104.285 0l.153-.213c.045-.069.096-.093.178-.093h.444c.219.003.266.239.163.361l-.373.473c-.115.141-.067.299.124.303h.765c.08-.003.12.037.129.113zM17.932 7.946l-.6 5.243c-.016.123.072.155.156.156l1.2-.013c.085-.017.111-.07.118-.135L19 11.305c.014-.087.037-.213.217-.208h.135c.3.023.428.321.411.497l-.185 1.585c-.021.116.046.16.163.162h1.122c.114.013.185-.048.202-.203l.134-1.364c.04-.362.069-.757-.23-1.138.3-.328.447-.691.492-1.079l.176-1.621c.018-.11-.034-.153-.135-.149h-1.17c-.172-.005-.156.09-.167.172l-.138 1.344c-.02.203-.253.34-.364.338l-.262-.003c-.103-.002-.189-.083-.172-.217l.163-1.443c.012-.097.018-.19-.14-.192h-1.144c-.12-.002-.166.046-.176.16zM23.376 7.796c-.507.001-.97.403-1.048 1.02l-.37 3.252c-.078.71.539 1.267 1.021 1.264h1.598c.565-.007.978-.398 1.056-.867l.38-3.459c.067-.654-.458-1.21-.979-1.21h-1.658zm.532 1.467h.452c.092 0 .156.064.148.144l-.238 2.297c-.018.128-.093.172-.18.17l-.432-.004c-.112 0-.177-.04-.16-.175l.243-2.287c.009-.082.062-.144.168-.145zM27.034 7.79c-.085.002-.123.067-.127.177l-.578 5.18c-.02.124.03.193.171.19h2.12c.796-.006 1.464-.521 1.564-1.509l.255-2.433c.078-.68-.43-1.604-1.418-1.603h-1.947a.213.213 0 00-.04-.002zm1.304 1.487h.208c.193-.002.428.236.406.47l-.203 1.733c-.038.257-.295.396-.433.398h-.18c-.126 0-.201-.062-.186-.19l.262-2.285c.006-.066.022-.125.126-.126zM32.438 7.773c-.748.004-1.097.593-1.15 1.059l-.485 4.328c-.02.116.01.183.122.176h1.206c.09.006.13-.052.135-.16l.134-1.162c.006-.079.039-.16.153-.16h.479c.099-.003.143.07.134.134l-.14 1.181c-.008.084.025.16.172.154h1.124c.123.002.166-.065.179-.16l.491-4.253c.056-.479-.46-1.14-1.002-1.137h-1.552zm.421 1.498h.444c.095 0 .157.051.146.146l-.075.895c-.012.107-.077.144-.173.14h-.425c-.101.004-.182-.052-.164-.176l.088-.858c.01-.101.077-.15.16-.147z"></path><path d="M6.568 4.436a5.564 5.564 0 100 11.128 5.564 5.564 0 000-11.128zm-.002 1.099a4.471 4.471 0 110 8.943 4.471 4.471 0 010-8.943z"></path></svg></defs><use xlink:href="#skoda" __h2d_shadowroot="2214" class=""></use></svg>