<svg xmlns:xlink="http://www.w3.org/1999/xlink" xmlns="http://www.w3.org/2000/svg" class="icon-svg mb-0 fs-1 me-2" width="48"  height="48" ><defs><svg xmlns="http://www.w3.org/2000/svg" viewBox="0 0 36 20" id="smart"><path fill-rule="evenodd" clip-rule="evenodd" d="M5.268 7.55c.765.497 1.868 2.043 2.164 2.897-.296.856-1.399 2.399-2.164 2.896V7.55zM3.631 8.649c.4 0 .91.159 1.31.445V7.35a2.709 2.709 0 00-1.453-.394 3.488 3.488 0 100 6.975c.57 0 1.055-.14 1.454-.39v-1.747c-.4.286-.911.45-1.31.45-1.086 0-1.884-.793-1.884-1.798 0-1.01.798-1.798 1.883-1.798zM29.576 9.98v3.563h1.22V10.05c0-.49.4-.882.88-.882h.564V8.004l-.625-.002a2.058 2.058 0 00-2.04 1.978zm5.4 2.395a.885.885 0 01-.88-.882v-2.33h1.349V7.996h-1.349V6.901H32.87v4.659a2.066 2.066 0 002.043 1.98l.626-.002v-1.163h-.564zM20.316 7.894c-.606 0-1.182.277-1.56.74a2.03 2.03 0 00-1.567-.74 2.005 2.005 0 00-2.003 1.894v3.755h1.228V9.94c0-.504.378-.893.861-.893.399 0 .869.27.869 1.036v3.459h1.223V10.08c0-.71.446-1.032.862-1.032.514 0 .866.365.866.893v3.602h1.223V9.79a2.009 2.009 0 00-2.002-1.897zm5.597.013c-1.583 0-2.826 1.252-2.826 2.86 0 1.677 1.198 2.891 2.849 2.891.64 0 1.215-.238 1.577-.637v.521h1.223V10.79c0-1.673-1.191-2.882-2.823-2.882zm.016 4.576c-.917 0-1.659-.767-1.659-1.7 0-.932.742-1.697 1.66-1.697.91 0 1.652.765 1.652 1.698 0 .997-.678 1.7-1.652 1.7zM12.336 10.23c-1.185-.138-1.421-.35-1.421-.673 0-.511.774-.578 1.116-.578.585 0 1.165.23 1.578.584l.78-.778c-.312-.257-1.059-.879-2.54-.879-1.462 0-2.25.887-2.25 1.724 0 .991.77 1.556 2.354 1.728.666.073 1.17.166 1.17.63 0 .853-2.143.768-3.003-.183l-.849.855c.08.091 1.077 1.01 2.573 1.01 1.786 0 2.595-.875 2.595-1.693 0-1.026-.667-1.582-2.103-1.747zm23.297-3.302c-.03-.06-.08-.17-.13-.202a.183.183 0 00.124-.177.186.186 0 00-.201-.184h-.366v.099h.092v.464h-.092v.1h.302v-.1h-.101v-.182h.097c.085.032.137.133.202.282h.156v-.1h-.083zm-.372-.464h.16c.087 0 .096.058.096.087 0 .061-.054.097-.134.097h-.122v-.184zm.11-.396a.629.629 0 10.001 1.258.629.629 0 000-1.258zm0 1.138a.51.51 0 110-1.02.51.51 0 010 1.02z"></path></svg><svg viewBox="0 0 36 20" id="smart" xmlns="http://www.w3.org/2000/svg"><path fill-rule="evenodd" clip-rule="evenodd" d="M5.268 7.55c.765.497 1.868 2.043 2.164 2.897-.296.856-1.399 2.399-2.164 2.896V7.55zM3.631 8.649c.4 0 .91.159 1.31.445V7.35a2.709 2.709 0 00-1.453-.394 3.488 3.488 0 100 6.975c.57 0 1.055-.14 1.454-.39v-1.747c-.4.286-.911.45-1.31.45-1.086 0-1.884-.793-1.884-1.798 0-1.01.798-1.798 1.883-1.798zM29.576 9.98v3.563h1.22V10.05c0-.49.4-.882.88-.882h.564V8.004l-.625-.002a2.058 2.058 0 00-2.04 1.978zm5.4 2.395a.885.885 0 01-.88-.882v-2.33h1.349V7.996h-1.349V6.901H32.87v4.659a2.066 2.066 0 002.043 1.98l.626-.002v-1.163h-.564zM20.316 7.894c-.606 0-1.182.277-1.56.74a2.03 2.03 0 00-1.567-.74 2.005 2.005 0 00-2.003 1.894v3.755h1.228V9.94c0-.504.378-.893.861-.893.399 0 .869.27.869 1.036v3.459h1.223V10.08c0-.71.446-1.032.862-1.032.514 0 .866.365.866.893v3.602h1.223V9.79a2.009 2.009 0 00-2.002-1.897zm5.597.013c-1.583 0-2.826 1.252-2.826 2.86 0 1.677 1.198 2.891 2.849 2.891.64 0 1.215-.238 1.577-.637v.521h1.223V10.79c0-1.673-1.191-2.882-2.823-2.882zm.016 4.576c-.917 0-1.659-.767-1.659-1.7 0-.932.742-1.697 1.66-1.697.91 0 1.652.765 1.652 1.698 0 .997-.678 1.7-1.652 1.7zM12.336 10.23c-1.185-.138-1.421-.35-1.421-.673 0-.511.774-.578 1.116-.578.585 0 1.165.23 1.578.584l.78-.778c-.312-.257-1.059-.879-2.54-.879-1.462 0-2.25.887-2.25 1.724 0 .991.77 1.556 2.354 1.728.666.073 1.17.166 1.17.63 0 .853-2.143.768-3.003-.183l-.849.855c.08.091 1.077 1.01 2.573 1.01 1.786 0 2.595-.875 2.595-1.693 0-1.026-.667-1.582-2.103-1.747zm23.297-3.302c-.03-.06-.08-.17-.13-.202a.183.183 0 00.124-.177.186.186 0 00-.201-.184h-.366v.099h.092v.464h-.092v.1h.302v-.1h-.101v-.182h.097c.085.032.137.133.202.282h.156v-.1h-.083zm-.372-.464h.16c.087 0 .096.058.096.087 0 .061-.054.097-.134.097h-.122v-.184zm.11-.396a.629.629 0 10.001 1.258.629.629 0 000-1.258zm0 1.138a.51.51 0 110-1.02.51.51 0 010 1.02z"></path></svg></defs><use xlink:href="#smart" __h2d_shadowroot="2204" class=""></use></svg>