<svg xmlns:xlink="http://www.w3.org/1999/xlink" xmlns="http://www.w3.org/2000/svg" class="icon-svg mb-0 fs-1 me-2" width="48"  height="48" ><defs><svg xmlns="http://www.w3.org/2000/svg" viewBox="0 0 36 20" id="subaru"><path d="M17.965 1.93c-3.7 0-7.114.982-9.63 2.471C5.757 5.927 4.13 7.978 4.13 10.035c0 2.052 1.619 4.081 4.186 5.588 2.518 1.478 5.94 2.447 9.648 2.447 3.738 0 7.174-.967 9.7-2.443 2.581-1.508 4.204-3.539 4.204-5.593 0-2.058-1.63-4.112-4.22-5.638-2.524-1.487-5.953-2.466-9.684-2.466zM8.123 4.043c2.576-1.525 6.066-2.53 9.842-2.53 3.806 0 7.31 1.003 9.894 2.525 2.718 1.6 4.427 3.784 4.427 5.996 0 2.21-1.703 4.371-4.41 5.953-2.586 1.51-6.096 2.5-9.91 2.5-3.784 0-7.28-.993-9.858-2.506-2.695-1.581-4.394-3.739-4.394-5.946 0-2.211 1.706-4.392 4.41-5.992z"></path><path fill-rule="evenodd" clip-rule="evenodd" d="M14.123 6.961l6.427 1.397-6.357 1.328-1.397 3.493-1.398-3.564L5.53 8.358 11.398 7.1l1.328-3.353 1.397 3.214zM21.18 10.244l2.724.56-2.725.628-.559 1.467-.629-1.537-2.515-.559 2.515-.559.56-1.397.628 1.397zM27.816 10.244l2.725.56-2.725.628-.56 1.467-.628-1.537-2.445-.559 2.445-.559.629-1.397.56 1.397zM26.07 6.123l2.724.558-2.725.56-.559 1.536-.628-1.537-2.516-.559 2.516-.558.558-1.398.63 1.398zM23.485 13.528l2.794.629-2.725.559-.629 1.467-.628-1.467-2.445-.559 2.445-.56.628-1.396.56 1.327zM16.289 14.017l2.724.629-2.724.559-.56 1.467-.628-1.537-2.515-.49 2.515-.558.559-1.467.629 1.397z"></path></svg><svg viewBox="0 0 36 20" id="subaru" xmlns="http://www.w3.org/2000/svg"><path d="M17.965 1.93c-3.7 0-7.114.982-9.63 2.471C5.757 5.927 4.13 7.978 4.13 10.035c0 2.052 1.619 4.081 4.186 5.588 2.518 1.478 5.94 2.447 9.648 2.447 3.738 0 7.174-.967 9.7-2.443 2.581-1.508 4.204-3.539 4.204-5.593 0-2.058-1.63-4.112-4.22-5.638-2.524-1.487-5.953-2.466-9.684-2.466zM8.123 4.043c2.576-1.525 6.066-2.53 9.842-2.53 3.806 0 7.31 1.003 9.894 2.525 2.718 1.6 4.427 3.784 4.427 5.996 0 2.21-1.703 4.371-4.41 5.953-2.586 1.51-6.096 2.5-9.91 2.5-3.784 0-7.28-.993-9.858-2.506-2.695-1.581-4.394-3.739-4.394-5.946 0-2.211 1.706-4.392 4.41-5.992z"></path><path fill-rule="evenodd" clip-rule="evenodd" d="M14.123 6.961l6.427 1.397-6.357 1.328-1.397 3.493-1.398-3.564L5.53 8.358 11.398 7.1l1.328-3.353 1.397 3.214zM21.18 10.244l2.724.56-2.725.628-.559 1.467-.629-1.537-2.515-.559 2.515-.559.56-1.397.628 1.397zM27.816 10.244l2.725.56-2.725.628-.56 1.467-.628-1.537-2.445-.559 2.445-.559.629-1.397.56 1.397zM26.07 6.123l2.724.558-2.725.56-.559 1.536-.628-1.537-2.516-.559 2.516-.558.558-1.398.63 1.398zM23.485 13.528l2.794.629-2.725.559-.629 1.467-.628-1.467-2.445-.559 2.445-.56.628-1.396.56 1.327zM16.289 14.017l2.724.629-2.724.559-.56 1.467-.628-1.537-2.515-.49 2.515-.558.559-1.467.629 1.397z"></path></svg></defs><use xlink:href="#subaru" __h2d_shadowroot="2182" class=""></use></svg>