<svg xmlns:xlink="http://www.w3.org/1999/xlink" xmlns="http://www.w3.org/2000/svg" class="icon-svg mb-0 fs-1 me-2" width="48"  height="48" ><defs><svg xmlns="http://www.w3.org/2000/svg" viewBox="0 0 36 20" id="volvo"><path fill-rule="evenodd" clip-rule="evenodd" d="M18.015 1c2.057 0 3.963.696 5.476 1.845l.844-.844a9.903 9.903 0 00-1.48-.97H27v4.113a10.96 10.96 0 00-.916-1.377l-.839.863a8.902 8.902 0 011.463 3.056h.262c.181.726.272 1.482.272 2.269 0 .816-.09 1.603-.302 2.36h-.244C25.67 16.154 22.172 19 18.016 19c-4.157 0-7.656-2.845-8.681-6.686H9.09a8.717 8.717 0 01-.333-2.36c0-.786.121-1.542.303-2.268h.266C10.343 3.838 13.848 1 18.015 1zm-5.612 11.314a6.113 6.113 0 005.649 3.79 6.113 6.113 0 005.649-3.79H12.403zm11.306-4.628H12.395a6.105 6.105 0 015.657-3.823 6.105 6.105 0 015.657 3.823zm-.685 2.33c0 .607.658 1.101 1.465 1.101.825 0 1.495-.494 1.495-1.102 0-.607-.67-1.102-1.495-1.102-.807 0-1.465.495-1.465 1.102zm.964 0c0-.449.21-.774.502-.774.276 0 .5.347.5.773 0 .403-.229.743-.5.743-.286 0-.502-.319-.502-.743zm-10.16 0c0 .607.657 1.101 1.465 1.101.823 0 1.494-.494 1.494-1.102 0-.591-.67-1.072-1.494-1.072-.795 0-1.466.491-1.466 1.072zm.963 0c0-.425.216-.744.502-.744.272 0 .5.34.5.743 0 .403-.229.743-.5.743-.286 0-.502-.319-.502-.743zm7.006 1.04h.008l.003-.006.926-1.749.497-.012-.013-.285-1.434.013.013.285.35-.02-.612 1.241-.737-1.221.528-.013-.013-.285-2.07.013.013.285.473-.007.948 1.761h1.12zm-2.027 0h.013v-.014l-.013-.95-.316.013c-.03.487-.459.593-.622.593l-.501.012-.013-1.409.497-.012-.013-.285-1.92.013.013.285.472-.013.013 1.41-.497.012.013.345h2.874zm-7.17 0h.008l.003-.006.926-1.749.498-.012-.013-.285-1.435.013.013.285.382-.02-.643 1.241-.737-1.221.527-.013-.013-.285-2.07.013.013.285.473-.007.948 1.761h1.12z"></path></svg><svg viewBox="0 0 36 20" id="volvo" xmlns="http://www.w3.org/2000/svg"><path fill-rule="evenodd" clip-rule="evenodd" d="M18.015 1c2.057 0 3.963.696 5.476 1.845l.844-.844a9.903 9.903 0 00-1.48-.97H27v4.113a10.96 10.96 0 00-.916-1.377l-.839.863a8.902 8.902 0 011.463 3.056h.262c.181.726.272 1.482.272 2.269 0 .816-.09 1.603-.302 2.36h-.244C25.67 16.154 22.172 19 18.016 19c-4.157 0-7.656-2.845-8.681-6.686H9.09a8.717 8.717 0 01-.333-2.36c0-.786.121-1.542.303-2.268h.266C10.343 3.838 13.848 1 18.015 1zm-5.612 11.314a6.113 6.113 0 005.649 3.79 6.113 6.113 0 005.649-3.79H12.403zm11.306-4.628H12.395a6.105 6.105 0 015.657-3.823 6.105 6.105 0 015.657 3.823zm-.685 2.33c0 .607.658 1.101 1.465 1.101.825 0 1.495-.494 1.495-1.102 0-.607-.67-1.102-1.495-1.102-.807 0-1.465.495-1.465 1.102zm.964 0c0-.449.21-.774.502-.774.276 0 .5.347.5.773 0 .403-.229.743-.5.743-.286 0-.502-.319-.502-.743zm-10.16 0c0 .607.657 1.101 1.465 1.101.823 0 1.494-.494 1.494-1.102 0-.591-.67-1.072-1.494-1.072-.795 0-1.466.491-1.466 1.072zm.963 0c0-.425.216-.744.502-.744.272 0 .5.34.5.743 0 .403-.229.743-.5.743-.286 0-.502-.319-.502-.743zm7.006 1.04h.008l.003-.006.926-1.749.497-.012-.013-.285-1.434.013.013.285.35-.02-.612 1.241-.737-1.221.528-.013-.013-.285-2.07.013.013.285.473-.007.948 1.761h1.12zm-2.027 0h.013v-.014l-.013-.95-.316.013c-.03.487-.459.593-.622.593l-.501.012-.013-1.409.497-.012-.013-.285-1.92.013.013.285.472-.013.013 1.41-.497.012.013.345h2.874zm-7.17 0h.008l.003-.006.926-1.749.498-.012-.013-.285-1.435.013.013.285.382-.02-.643 1.241-.737-1.221.527-.013-.013-.285-2.07.013.013.285.473-.007.948 1.761h1.12z"></path></svg></defs><use xlink:href="#volvo" __h2d_shadowroot="2131" class=""></use></svg>