<svg xmlns:xlink="http://www.w3.org/1999/xlink" xmlns="http://www.w3.org/2000/svg" class="icon-svg mb-0 fs-1 me-2" width="48"  height="48" ><defs><svg xmlns="http://www.w3.org/2000/svg" viewBox="0 0 36 20" id="volkswagen"><path d="M18 19.034c-4.955 0-9.014-4.08-9.014-9.034 0-1.114.199-2.17.577-3.164l5.273 10.606c.06.14.16.259.318.259.16 0 .26-.12.319-.259L17.9 12.01c.02-.06.06-.12.119-.12.06 0 .08.06.12.12l2.427 5.432c.06.14.16.259.318.259.16 0 .26-.12.319-.259l5.273-10.606c.378.995.577 2.05.577 3.164-.04 4.955-4.1 9.034-9.054 9.034zM18 7.95c-.06 0-.08-.06-.12-.12l-2.825-6.367A8.488 8.488 0 0118 .946c1.035 0 2.03.179 2.945.517L18.12 7.831c-.04.08-.06.12-.119.12zm-2.885 6.547c-.06 0-.08-.06-.12-.12l-4.577-9.233A9.157 9.157 0 0113.662 2.1l3.303 7.343c.04.12.14.159.239.159h1.592c.12 0 .199-.02.259-.16L22.358 2.1a9.326 9.326 0 013.244 3.044l-4.617 9.234c-.02.06-.06.12-.12.12s-.08-.06-.119-.12l-1.731-3.94c-.06-.14-.14-.16-.259-.16h-1.592c-.12 0-.199.02-.258.16l-1.672 3.94c-.02.06-.06.12-.12.12zM18 19.95A9.928 9.928 0 0027.95 10 9.928 9.928 0 0018 .05 9.928 9.928 0 008.05 10 9.928 9.928 0 0018 19.95z"></path></svg><svg viewBox="0 0 36 20" id="volkswagen" xmlns="http://www.w3.org/2000/svg"><path d="M18 19.034c-4.955 0-9.014-4.08-9.014-9.034 0-1.114.199-2.17.577-3.164l5.273 10.606c.06.14.16.259.318.259.16 0 .26-.12.319-.259L17.9 12.01c.02-.06.06-.12.119-.12.06 0 .08.06.12.12l2.427 5.432c.06.14.16.259.318.259.16 0 .26-.12.319-.259l5.273-10.606c.378.995.577 2.05.577 3.164-.04 4.955-4.1 9.034-9.054 9.034zM18 7.95c-.06 0-.08-.06-.12-.12l-2.825-6.367A8.488 8.488 0 0118 .946c1.035 0 2.03.179 2.945.517L18.12 7.831c-.04.08-.06.12-.119.12zm-2.885 6.547c-.06 0-.08-.06-.12-.12l-4.577-9.233A9.157 9.157 0 0113.662 2.1l3.303 7.343c.04.12.14.159.239.159h1.592c.12 0 .199-.02.259-.16L22.358 2.1a9.326 9.326 0 013.244 3.044l-4.617 9.234c-.02.06-.06.12-.12.12s-.08-.06-.119-.12l-1.731-3.94c-.06-.14-.14-.16-.259-.16h-1.592c-.12 0-.199.02-.258.16l-1.672 3.94c-.02.06-.06.12-.12.12zM18 19.95A9.928 9.928 0 0027.95 10 9.928 9.928 0 0018 .05 9.928 9.928 0 008.05 10 9.928 9.928 0 0018 19.95z"></path></svg></defs><use xlink:href="#volkswagen" __h2d_shadowroot="2141" class=""></use></svg>