<svg xmlns:xlink="http://www.w3.org/1999/xlink" xmlns="http://www.w3.org/2000/svg" class="icon-svg mb-0 fs-1 me-2" width="48"  height="48" ><defs><svg xmlns="http://www.w3.org/2000/svg" viewBox="0 0 36 20" id="ssangyong"><path d="M5.349 12.19c.175-.124.306-.114.462-.27.145-.144-.052-.313-.2-.422-.158-.117-.061-.138.14-.177a26.98 26.98 0 001.642-.384c.79-.219 1.486-.777 1.48-1.42-.004-.434-.312-.81-.635-1.073a2.685 2.685 0 00-.779-.447c-.228-.066-.108.085-.108.085s.205.073.636.395c.317.237.617.598.62.989.01 1.015-1.375 1.32-1.375 1.32s1.256-.372 1.247-1.319c-.004-.404-.43-.93-1.008-1.31-.426-.282-.92-.44-1.025-.456-.297-.048-.154.096-.154.096s.39.098.894.443c.413.282.806.735.81 1.266.008.679-.674 1.033-.973 1.183-.46.23-.954.343-.954.343s.566-.149 1.015-.434c.41-.26.767-.7.763-1.09-.007-.726-.77-1.305-1.408-1.637a3.61 3.61 0 00-.777-.309c-.15-.032-.364-.04-.11.117.187.117.45.288.673.493.403.372.763.892.767 1.364.006.604-.404 1.077-.864 1.265-.416.17-.827.217-.955.243-.193.04-.181.2-.15.236.097.118.347.207.347.411 0 .352-.472.393-.529.393-.057 0-.528-.041-.528-.393 0-.204.249-.293.347-.41.03-.038.042-.197-.15-.237-.13-.026-.54-.073-.956-.243-.46-.188-.87-.66-.864-1.265.005-.472.364-.992.767-1.364.223-.205.486-.376.674-.493.253-.157.039-.15-.11-.117-.134.03-.44.132-.778.309-.638.332-1.401.91-1.408 1.636-.004.39.354.83.763 1.091a4.156 4.156 0 001.015.434s-.495-.113-.953-.343c-.3-.15-.981-.504-.975-1.183.005-.53.398-.984.81-1.266.505-.345.896-.443.896-.443s.142-.144-.155-.096c-.105.017-.599.174-1.025.455-.577.382-1.004.907-1.007 1.311-.01.947 1.246 1.32 1.246 1.32s-1.385-.306-1.376-1.321c.004-.39.304-.752.621-.989.431-.322.636-.395.636-.395s.12-.151-.108-.085c-.11.031-.455.184-.779.447-.323.263-.63.639-.635 1.074-.006.641.69 1.2 1.48 1.419.316.087 1.075.273 1.642.384.201.039.299.06.14.177-.148.11-.345.278-.2.423.157.155.287.145.463.269.175.124.24.267.51.267.269 0 .33-.143.505-.267M13.41 10.82c0-.537-.295-.79-.928-1.055-.46-.191-.804-.325-.804-.655 0-.11.028-.45.667-.45.532 0 .912.225.912.225V8.31s-.455-.163-.962-.163c-1.355 0-1.383.85-1.383 1.005 0 .627.497.852 1.102 1.074.156.057.66.19.66.587 0 .153-.092.498-.848.498-.479 0-.875-.2-.875-.2v.578s.33.162.955.162c1.183 0 1.504-.606 1.504-1.032zM15.493 10.938c0-.316-.157-.542-.666-.766-.368-.163-.712-.306-.712-.555 0-.09.047-.348.504-.348.436 0 .737.207.737.207V8.95s-.278-.156-.836-.156c-1.06 0-1.095.687-1.095.814 0 .453.31.664.751.855.2.087.632.201.632.529 0 .125-.11.376-.615.376-.371 0-.717-.175-.717-.175v.52s.23.124.772.124c.917 0 1.245-.47 1.245-.9zM21.065 8.854h-.571v2.095l-1.218-2.095h-.806v2.893h.572v-2.16l1.255 2.16h.768V8.854zM17.774 11.747h.623l-.25-.651-.172-.447-.692-1.795h-.81l-.692 1.795-.172.447-.25.651h.623l.247-.642h1.297l.248.642zm-.896-2.326l.473 1.228h-.946l.473-1.228zM22.738 10.138v.428h.714v.734s-.113.075-.425.075c-1.039 0-1.11-.848-1.11-1.02 0-.34.122-.626.309-.821.2-.21.502-.29.906-.29.508 0 .835.178.835.178v-.48s-.422-.145-.895-.145c-.561 0-1.034.156-1.355.444-.29.26-.457.717-.457 1.102 0 .356.165 1.498 1.742 1.498.595 0 1.07-.214 1.07-.214l.002-1.489h-1.336zM32.181 8.854h-.57v2.095l-1.219-2.095h-.805v2.893h.57v-2.16l1.256 2.16h.768V8.854zM33.854 10.138v.428h.714v.734s-.113.075-.424.075c-1.039 0-1.11-.848-1.11-1.02 0-.34.122-.626.309-.821.2-.21.5-.29.906-.29.508 0 .835.178.835.178v-.48s-.423-.145-.895-.145c-.561 0-1.034.156-1.356.444-.29.26-.457.717-.457 1.102 0 .356.166 1.498 1.742 1.498.596 0 1.071-.214 1.071-.214l.002-1.489h-1.337z"></path><path d="M25.815 10.466l1.21-2.247h-.649l-.899 1.67-.976-1.67h-.662l1.32 2.26-.742 1.38h.648l.432-.803.318-.59zM28.821 9.08c-.339-.257-.729-.292-.934-.292-.205 0-.597.035-.936.293-.308.233-.616.596-.616 1.228 0 .58.225.914.51 1.18.336.314.888.362 1.042.362.154 0 .705-.048 1.041-.362.284-.266.51-.6.51-1.18 0-.632-.309-.995-.617-1.228zm-.934 2.3c-.035 0-.886.057-.886-1.07 0-1.097.867-1.062.886-1.062.018 0 .885-.035.885 1.063 0 1.126-.851 1.068-.885 1.068z"></path></svg><svg viewBox="0 0 36 20" id="ssangyong" xmlns="http://www.w3.org/2000/svg"><path d="M5.349 12.19c.175-.124.306-.114.462-.27.145-.144-.052-.313-.2-.422-.158-.117-.061-.138.14-.177a26.98 26.98 0 001.642-.384c.79-.219 1.486-.777 1.48-1.42-.004-.434-.312-.81-.635-1.073a2.685 2.685 0 00-.779-.447c-.228-.066-.108.085-.108.085s.205.073.636.395c.317.237.617.598.62.989.01 1.015-1.375 1.32-1.375 1.32s1.256-.372 1.247-1.319c-.004-.404-.43-.93-1.008-1.31-.426-.282-.92-.44-1.025-.456-.297-.048-.154.096-.154.096s.39.098.894.443c.413.282.806.735.81 1.266.008.679-.674 1.033-.973 1.183-.46.23-.954.343-.954.343s.566-.149 1.015-.434c.41-.26.767-.7.763-1.09-.007-.726-.77-1.305-1.408-1.637a3.61 3.61 0 00-.777-.309c-.15-.032-.364-.04-.11.117.187.117.45.288.673.493.403.372.763.892.767 1.364.006.604-.404 1.077-.864 1.265-.416.17-.827.217-.955.243-.193.04-.181.2-.15.236.097.118.347.207.347.411 0 .352-.472.393-.529.393-.057 0-.528-.041-.528-.393 0-.204.249-.293.347-.41.03-.038.042-.197-.15-.237-.13-.026-.54-.073-.956-.243-.46-.188-.87-.66-.864-1.265.005-.472.364-.992.767-1.364.223-.205.486-.376.674-.493.253-.157.039-.15-.11-.117-.134.03-.44.132-.778.309-.638.332-1.401.91-1.408 1.636-.004.39.354.83.763 1.091a4.156 4.156 0 001.015.434s-.495-.113-.953-.343c-.3-.15-.981-.504-.975-1.183.005-.53.398-.984.81-1.266.505-.345.896-.443.896-.443s.142-.144-.155-.096c-.105.017-.599.174-1.025.455-.577.382-1.004.907-1.007 1.311-.01.947 1.246 1.32 1.246 1.32s-1.385-.306-1.376-1.321c.004-.39.304-.752.621-.989.431-.322.636-.395.636-.395s.12-.151-.108-.085c-.11.031-.455.184-.779.447-.323.263-.63.639-.635 1.074-.006.641.69 1.2 1.48 1.419.316.087 1.075.273 1.642.384.201.039.299.06.14.177-.148.11-.345.278-.2.423.157.155.287.145.463.269.175.124.24.267.51.267.269 0 .33-.143.505-.267M13.41 10.82c0-.537-.295-.79-.928-1.055-.46-.191-.804-.325-.804-.655 0-.11.028-.45.667-.45.532 0 .912.225.912.225V8.31s-.455-.163-.962-.163c-1.355 0-1.383.85-1.383 1.005 0 .627.497.852 1.102 1.074.156.057.66.19.66.587 0 .153-.092.498-.848.498-.479 0-.875-.2-.875-.2v.578s.33.162.955.162c1.183 0 1.504-.606 1.504-1.032zM15.493 10.938c0-.316-.157-.542-.666-.766-.368-.163-.712-.306-.712-.555 0-.09.047-.348.504-.348.436 0 .737.207.737.207V8.95s-.278-.156-.836-.156c-1.06 0-1.095.687-1.095.814 0 .453.31.664.751.855.2.087.632.201.632.529 0 .125-.11.376-.615.376-.371 0-.717-.175-.717-.175v.52s.23.124.772.124c.917 0 1.245-.47 1.245-.9zM21.065 8.854h-.571v2.095l-1.218-2.095h-.806v2.893h.572v-2.16l1.255 2.16h.768V8.854zM17.774 11.747h.623l-.25-.651-.172-.447-.692-1.795h-.81l-.692 1.795-.172.447-.25.651h.623l.247-.642h1.297l.248.642zm-.896-2.326l.473 1.228h-.946l.473-1.228zM22.738 10.138v.428h.714v.734s-.113.075-.425.075c-1.039 0-1.11-.848-1.11-1.02 0-.34.122-.626.309-.821.2-.21.502-.29.906-.29.508 0 .835.178.835.178v-.48s-.422-.145-.895-.145c-.561 0-1.034.156-1.355.444-.29.26-.457.717-.457 1.102 0 .356.165 1.498 1.742 1.498.595 0 1.07-.214 1.07-.214l.002-1.489h-1.336zM32.181 8.854h-.57v2.095l-1.219-2.095h-.805v2.893h.57v-2.16l1.256 2.16h.768V8.854zM33.854 10.138v.428h.714v.734s-.113.075-.424.075c-1.039 0-1.11-.848-1.11-1.02 0-.34.122-.626.309-.821.2-.21.5-.29.906-.29.508 0 .835.178.835.178v-.48s-.423-.145-.895-.145c-.561 0-1.034.156-1.356.444-.29.26-.457.717-.457 1.102 0 .356.166 1.498 1.742 1.498.596 0 1.071-.214 1.071-.214l.002-1.489h-1.337z"></path><path d="M25.815 10.466l1.21-2.247h-.649l-.899 1.67-.976-1.67h-.662l1.32 2.26-.742 1.38h.648l.432-.803.318-.59zM28.821 9.08c-.339-.257-.729-.292-.934-.292-.205 0-.597.035-.936.293-.308.233-.616.596-.616 1.228 0 .58.225.914.51 1.18.336.314.888.362 1.042.362.154 0 .705-.048 1.041-.362.284-.266.51-.6.51-1.18 0-.632-.309-.995-.617-1.228zm-.934 2.3c-.035 0-.886.057-.886-1.07 0-1.097.867-1.062.886-1.062.018 0 .885-.035.885 1.063 0 1.126-.851 1.068-.885 1.068z"></path></svg></defs><use xlink:href="#ssangyong" __h2d_shadowroot="2193" class=""></use></svg>